<?xml version="1.0" standalone="no"?>
<!DOCTYPE svg PUBLIC "-//W3C//DTD SVG 1.1//EN" "http://www.w3.org/Graphics/SVG/1.1/DTD/svg11.dtd" >
<svg>
<metadata>
Created by FontForge 20090914 at Thu Mar  5 15:55:58 2020
 By www-data
Copyright (c) 2014 by Paula Nazal &#38; Daniel Hernandez. All rights reserved.
</metadata>
<defs>
<font id="iCielShowcase-Script" horiz-adv-x="688" >
  <font-face 
    font-family="iCiel Showcase Script"
    font-weight="400"
    font-stretch="normal"
    units-per-em="1000"
    panose-1="0 0 0 0 0 0 0 0 0 0"
    ascent="750"
    descent="-250"
    x-height="329"
    cap-height="742"
    bbox="-370.996 -754.996 2290 1182"
    underline-thickness="50"
    underline-position="-50"
    unicode-range="U+001D-U+FB06"
  />
<missing-glyph horiz-adv-x="335" 
 />
    <glyph glyph-name=".notdef" horiz-adv-x="335" 
 />
    <glyph glyph-name=".null" horiz-adv-x="0" 
 />
    <glyph glyph-name=".null" horiz-adv-x="0" 
 />
    <glyph glyph-name="space" unicode=" " horiz-adv-x="335" 
 />
    <glyph glyph-name="exclam" unicode="!" horiz-adv-x="164" 
d="M105 84c0 -8.66699 -1.99902 -15 -5.99902 -19s-9 -6 -15 -6c-7.33301 0 -12.5 2.5 -15.5 7.5s-4.5 10.833 -4.5 17.5l-4 609c0 6.66699 1.66699 13 5 19s9.66602 9 18.999 9c10 0 16.667 -2.5 20 -7.5s5 -11.833 5 -20.5zM50.001 -26c0 12 2.83301 23.167 8.5 33.5
s14.167 15.5 25.5 15.5s19.166 -3.66699 23.499 -11s6.5 -17 6.5 -29c0 -16.667 -3.33301 -29.167 -10 -37.5s-14.667 -12.5 -24 -12.5c-11.333 0 -19.166 3.83301 -23.499 11.5s-6.5 17.5 -6.5 29.5z" />
    <glyph glyph-name="quotedbl" unicode="&#x22;" horiz-adv-x="271" 
d="M91 444c0 -8.66699 -2 -15 -6 -19s-9 -6 -15 -6c-7.33301 0 -12.5 2.5 -15.5 7.5s-4.5 10.833 -4.5 17.5v189c0 6.66699 1.5 12.5 4.5 17.5s8.16699 7.5 15.5 7.5c14 0 21 -8.33301 21 -25v-189zM221 444c0 -8.66699 -2 -15 -6 -19s-9 -6 -15 -6
c-7.33301 0 -12.5 2.5 -15.5 7.5s-4.5 10.833 -4.5 17.5v189c0 6.66699 1.5 12.5 4.5 17.5s8.16699 7.5 15.5 7.5c14 0 21 -8.33301 21 -25v-189z" />
    <glyph glyph-name="numbersign" unicode="#" horiz-adv-x="781" 
d="M300 480c9.33301 30.667 18.333 62.002 27 94.002l30 106c4 12.667 11.333 19 22 19c5.33301 0 10 -1.83301 14 -5.5s6 -8.5 6 -14.5c0 -0.666992 -0.333008 -2.5 -1 -5.5s-2.83398 -10.833 -6.50098 -23.5l-16.5 -58.5l-31 -111.5h170c9.33301 30.667 18.333 62 27 94
l30 106c4 12.667 11.333 19 22 19c5.33301 0 10 -1.83301 14 -5.5s6 -8.5 6 -14.5c0 -0.666992 -0.333008 -2.5 -1 -5.5s-2.83398 -10.833 -6.50098 -23.5l-16.5 -58.5l-31 -111.5h148c8.66699 0 15 -2 19 -6s6 -9 6 -15c0 -7.33301 -2.5 -12.5 -7.5 -15.5
s-10.833 -4.5 -17.5 -4.5h-160l-60 -213h220c8.66699 0 15 -2 19 -6s6 -9 6 -15c0 -7.33301 -2.5 -12.5 -7.5 -15.5s-10.833 -4.5 -17.5 -4.5h-231l-32.5 -115l-37.5 -132c-1.33301 -5.33301 -3.66602 -9.83301 -6.99902 -13.5s-7.66602 -5.5 -12.999 -5.5
c-6 0 -11.167 1.5 -15.5 4.5s-6.5 7.83301 -6.5 14.5c0 0.666992 0.5 3.16699 1.5 7.5s3.66699 14.666 8 30.999s11.166 40.833 20.499 73.5l38 135h-170l-32.5 -115l-37.5 -132c-1.33301 -5.33301 -3.66602 -9.83301 -6.99902 -13.5s-7.66602 -5.5 -12.999 -5.5
c-6 0 -11.167 1.5 -15.5 4.5s-6.5 7.83301 -6.5 14.5c0 0.666992 0.5 3.16699 1.5 7.5s3.66699 14.666 8 30.999s11.166 40.833 20.499 73.5l38 135h-142c-6.66699 0 -12.5 1.5 -17.5 4.5s-7.5 8.16699 -7.5 15.5c0 14 8.33301 21 25 21h153l61 213h-214
c-6.66699 0 -12.5 1.5 -17.5 4.5s-7.5 8.16699 -7.5 15.5c0 14 8.33301 21 25 21h225zM272 226.002h170l61 213h-171z" />
    <glyph glyph-name="dollar" unicode="$" horiz-adv-x="581" 
d="M291 -47c-3.33301 -0.666992 -6.33008 -0.99707 -8.99707 -0.99707h-9c-36 0 -68 5 -96 15s-51.333 23.667 -70 41s-32.834 37.666 -42.501 60.999s-14.5 48.333 -14.5 75c0 20.667 3.5 40.667 10.5 60s17.167 36.333 30.5 51s29.666 26.5 48.999 35.5
s41.666 13.5 66.999 13.5c15.333 0 30 -2.16699 44 -6.5s27.333 -10.166 40 -17.499v113c-18 10 -35 20.5 -51 31.5s-30 23.167 -42 36.5s-21.667 28 -29 44s-11 34.333 -11 55c0 38 11.667 69.167 35 93.5s56 39.166 98 44.499v18c0 8.66699 2.16699 15 6.5 19
s9.5 6 15.5 6c7.33301 0 12.5 -2.5 15.5 -7.5s4.5 -10.833 4.5 -17.5v-16c42 -2 75.833 -14.5 101.5 -37.5s38.5 -52.5 38.5 -88.5c0 -29.333 -7.66699 -52.833 -23 -70.5s-34.666 -26.5 -57.999 -26.5c-13.333 0 -20 7.33301 -20 22c0 13.333 6.66699 20 20 20
c11.333 0 20.666 5.16699 27.999 15.5s11 23.5 11 39.5c0 21.333 -8.16699 39.833 -24.5 55.5s-40.833 24.834 -73.5 27.501v-240l69.5 -41c23.667 -14 45 -30.333 64 -49s34.5 -40.334 46.5 -65.001s18 -54 18 -88c0 -30.667 -5.33301 -58.334 -16 -83.001s-25 -46 -43 -64
s-39 -32.833 -63 -44.5s-49.333 -19.834 -76 -24.501v-29c0 -6.66699 -1.5 -12.5 -4.5 -17.5s-8.16699 -7.5 -15.5 -7.5c-6 0 -11.167 2 -15.5 6s-6.5 10.333 -6.5 19v24zM92.0029 144.003c0 -24.667 4.66699 -46.332 14 -64.999s22.333 -34.334 39 -47.001
s35.834 -22.167 57.501 -28.5s45.167 -9.5 70.5 -9.5h9c2.66699 0 5.66699 0.333008 9 1v236c-12 9.33301 -24.833 16.833 -38.5 22.5s-28.834 8.5 -45.501 8.5c-18.667 0 -35.167 -3.33301 -49.5 -10s-26.333 -15.5 -36 -26.5s-17 -23.5 -22 -37.5s-7.5 -28.667 -7.5 -44z
M489.003 174.005c0 25.333 -4.50098 47.6689 -13.501 67.002s-20.667 36.5 -35 51.5s-30.833 28.667 -49.5 41s-38 24.166 -58 35.499v-119c9.33301 -8 17.333 -15.833 24 -23.5l18 -20.5c6 -7.33301 11 -14.333 15 -21c3.33301 -4 5 -9.33301 5 -16s-2 -11.834 -6 -15.501
s-8.33301 -5.5 -13 -5.5c-7.33301 0 -13.333 3 -18 9c-2 3.33301 -4.33301 6.66602 -7 9.99902c-2 3.33301 -4.66699 7 -8 11s-6.66602 8.33301 -9.99902 13v-191c21.333 4.66699 41.5 11.834 60.5 21.501s35.5 21.667 49.5 36s25.167 31.333 33.5 51s12.5 41.5 12.5 65.5z
M200.002 560.008c0 -26.667 8.66699 -49.167 26 -67.5s39 -35.5 65 -51.5v215c-27.333 -4 -49.333 -14 -66 -30s-25 -38 -25 -66z" />
    <glyph glyph-name="percent" unicode="%" horiz-adv-x="548" 
d="M161 700c33.333 0 57.9971 -11.333 73.9971 -34s24 -52.334 24 -89.001c0 -16 -2.33301 -31.5 -7 -46.5s-11.667 -28.5 -21 -40.5s-20.666 -21.667 -33.999 -29s-28.333 -11 -45 -11c-30 0 -54.5 9 -73.5 27s-28.5 46 -28.5 84c0 16.667 2.33301 33.334 7 50.001
s11.834 31.667 21.501 45s21.334 24 35.001 32s29.5 12 47.5 12zM220.997 577c0 25.333 -5.00098 45.6709 -15.001 61.0039s-25 23 -45 23c-12 0 -22.5 -2.83301 -31.5 -8.5s-16.5 -13.334 -22.5 -23.001s-10.5 -20.5 -13.5 -32.5s-4.5 -24 -4.5 -36
c0 -24.667 6 -42.834 18 -54.501s27 -17.5 45 -17.5c11.333 0 21.333 2.5 30 7.5s15.834 11.667 21.501 20s10 17.666 13 27.999s4.5 21.166 4.5 32.499zM399.996 246.005c33.333 0 57.9971 -11.333 73.9971 -34s24 -52.334 24 -89.001c0 -16 -2.33301 -31.5 -7 -46.5
s-11.667 -28.5 -21 -40.5s-20.666 -21.667 -33.999 -29s-28.333 -11 -45 -11c-30 0 -54.5 9 -73.5 27s-28.5 46 -28.5 84c0 16.667 2.33301 33.334 7 50.001s11.834 31.667 21.501 45s21.334 24 35.001 32s29.5 12 47.5 12zM459.993 123.005
c0 25.333 -5.00098 45.6709 -15.001 61.0039s-25 23 -45 23c-12 0 -22.5 -2.83301 -31.5 -8.5s-16.5 -13.334 -22.5 -23.001s-10.5 -20.5 -13.5 -32.5s-4.5 -24 -4.5 -36c0 -24.667 6 -42.834 18 -54.501s27 -17.5 45 -17.5c11.333 0 21.333 2.5 30 7.5
s15.834 11.667 21.501 20s10 17.666 13 27.999s4.5 21.166 4.5 32.499zM419.992 737.01c4.66699 10.667 11.333 16 20 16c5.33301 0 10 -1.66699 14 -5s6 -8 6 -14c0 -2.66699 -0.333008 -5 -1 -7s-1.66699 -4.33301 -3 -7l-297 -697c-2 -4.66699 -4.5 -8.66699 -7.5 -12
s-6.83301 -5 -11.5 -5c-5.33301 0 -10.333 2 -15 6s-7 9 -7 15c0 2.66699 1.33301 6.66699 4 12z" />
    <glyph glyph-name="ampersand" unicode="&#x26;" horiz-adv-x="803" 
d="M115 -335c0 6 1.99023 11.0039 5.99023 15.0039s9 6 15 6c46.667 0 88.334 7 125.001 21s67.5 33 92.5 57s44.167 51.667 57.5 83s20 64 20 98c0 21.333 -2.83301 42.166 -8.5 62.499s-13.5 40.166 -23.5 59.499c-21.333 -31.333 -46.666 -56.833 -75.999 -76.5
s-66.333 -29.5 -111 -29.5c-28 0 -52.167 4.16699 -72.5 12.5s-37.166 19.666 -50.499 33.999s-23.166 31 -29.499 50s-9.5 39.167 -9.5 60.5c0 24.667 3.66699 48.334 11 71.001s17.166 44.167 29.499 64.5s26.5 40 42.5 59s32.667 37.5 50 55.5
c-16.667 27.333 -30.167 55.166 -40.5 83.499s-15.5 57.833 -15.5 88.5c0 46 10.333 83.167 31 111.5s52 42.5 94 42.5c16 0 30 -2.83301 42 -8.5s22 -13.334 30 -23.001s13.833 -20.834 17.5 -33.501s5.5 -25.667 5.5 -39c0 -22 -3.16699 -42.833 -9.5 -62.5
s-14.666 -38.667 -24.999 -57s-22.166 -36.166 -35.499 -53.499l-41 -53c24.667 -34.667 51.834 -69.334 81.501 -104.001s56.834 -71 81.501 -109c12.667 24.667 24.834 50.667 36.501 78s24 54.166 37 80.499s27.333 51.333 43 75s33.667 44.667 54 63
s43.833 32.833 70.5 43.5s57.334 16 92.001 16c6 0 11 -2 15 -6s6 -9 6 -15s-2 -11 -6 -15s-9 -6 -15 -6c-31.333 0 -58.833 -5.33301 -82.5 -16s-44.5 -25 -62.5 -43s-34 -39 -48 -63s-27.167 -49.167 -39.5 -75.5l-36.5 -80.5c-12 -27.333 -24.667 -53.333 -38 -78
c14.667 -25.333 26.334 -51.5 35.001 -78.5s13 -55.5 13 -85.5c0 -40 -7.5 -78.167 -22.5 -114.5s-37 -68.166 -66 -95.499s-64.333 -49.166 -106 -65.499s-89.167 -24.833 -142.5 -25.5c-6 0 -11 2 -15 6s-6 9 -6 15zM211.99 3.00391c38.667 0 70.833 9.83301 96.5 29.5
s48.167 45.167 67.5 76.5c-24 38 -51.5 75.333 -82.5 112s-59.833 74 -86.5 112c-15.333 -16.667 -30 -33.5 -44 -50.5s-26.167 -34.5 -36.5 -52.5s-18.666 -36.333 -24.999 -55s-9.5 -37.667 -9.5 -57c0 -34 9.66699 -61.667 29 -83s49.666 -32 90.999 -32z
M168.989 540.004c0 -24.667 4 -48.499 12 -71.499s18.667 -45.833 32 -68.5l33.5 45c11 15.333 20.833 30.833 29.5 46.5s15.667 31.667 21 48s8 33.166 8 50.499c0 16 -4 30.333 -12 43s-21.667 19 -41 19c-28.667 0 -49.667 -10.167 -63 -30.5s-20 -47.5 -20 -81.5z" />
    <glyph glyph-name="quotesingle" unicode="'" horiz-adv-x="141" 
d="M91 444c0 -8.66699 -2 -15 -6 -19s-9 -6 -15 -6c-7.33301 0 -12.5 2.5 -15.5 7.5s-4.5 10.833 -4.5 17.5v189c0 6.66699 1.5 12.5 4.5 17.5s8.16699 7.5 15.5 7.5c14 0 21 -8.33301 21 -25v-189z" />
    <glyph glyph-name="parenleft" unicode="(" horiz-adv-x="334" 
d="M92 287c0 -30.667 2.83301 -59.332 8.5 -85.999s13 -51.5 22 -74.5s19.5 -44.167 31.5 -63.5s24 -37 36 -53c28.667 -36.667 61.334 -68.334 98.001 -95.001c8.66699 -6 15 -11 19 -15s6 -9 6 -15c0 -5.33301 -1.66699 -9.5 -5 -12.5s-7 -4.5 -11 -4.5h-5
c-2.66699 0 -5 1 -7 3c-44 28.667 -83.333 63.334 -118 104.001c-14.667 17.333 -29 36.833 -43 58.5s-26.5 45.5 -37.5 71.5s-19.833 54.167 -26.5 84.5s-10 62.833 -10 97.5c0 34 3.33301 65.667 10 95s15.5 56.666 26.5 81.999s23.5 48.5 37.5 69.5
s28.333 40.167 43 57.5c34.667 40 74 74 118 102c1.33301 1.33301 3.33301 2.16602 6 2.49902s4.66699 0.5 6 0.5c4 0 7.66699 -1.33301 11 -4s5 -7 5 -13s-1.83301 -11.167 -5.5 -15.5s-10.167 -9.16602 -19.5 -14.499c-36.667 -26 -69.334 -57 -98.001 -93
c-12 -15.333 -24 -32.5 -36 -51.5s-22.5 -39.667 -31.5 -62s-16.333 -46.5 -22 -72.5s-8.5 -53.667 -8.5 -83z" />
    <glyph glyph-name="parenright" unicode=")" horiz-adv-x="330" 
d="M238 287c0 29.333 -2.83301 56.999 -8.5 82.999s-13 50.167 -22 72.5s-19.5 43 -31.5 62s-24 36.167 -36 51.5c-28.667 36 -61.334 67 -98.001 93c-9.33301 5.33301 -15.833 10.166 -19.5 14.499s-5.5 9.5 -5.5 15.5s1.66699 10.333 5 13s7 4 11 4
c4.66699 0 8.66699 -1 12 -3c43.333 -28 82.333 -62 117 -102c14.667 -17.333 29.167 -36.5 43.5 -57.5s27 -44.167 38 -69.5s19.833 -52.666 26.5 -81.999s10 -61 10 -95c0 -34.667 -3.33301 -67.167 -10 -97.5s-15.5 -58.5 -26.5 -84.5s-23.667 -49.833 -38 -71.5
s-28.833 -41.167 -43.5 -58.5c-34.667 -40.667 -73.667 -75.334 -117 -104.001c-2 -2 -4.66699 -3 -8 -3h-4c-4 0 -7.66699 1.5 -11 4.5s-5 7.16699 -5 12.5c0 6 2 11 6 15s10.333 9 19 15c36.667 26.667 69.334 58.334 98.001 95.001c12 16 24 33.667 36 53
s22.5 40.5 31.5 63.5s16.333 47.833 22 74.5s8.5 55.334 8.5 86.001z" />
    <glyph glyph-name="asterisk" unicode="*" horiz-adv-x="402" 
d="M222 530l92.998 55c14 7.33301 24.333 5.33301 31 -6c3.33301 -6 4 -11.5 2 -16.5s-5.66699 -9.16699 -11 -12.5l-95 -57l96 -57c13.333 -8.66699 16.666 -19 9.99902 -31c-3.33301 -6 -8.16602 -9.16699 -14.499 -9.5s-12.166 1.16699 -17.499 4.5l-94 56v-104
c0 -8.66699 -2 -15 -6 -19s-9 -6 -15 -6c-7.33301 0 -12.5 2.5 -15.5 7.5s-4.5 10.833 -4.5 17.5v104l-95 -56c-5.33301 -3.33301 -11.166 -4.83301 -17.499 -4.5s-11.166 3.5 -14.499 9.5c-6.66699 12 -3.33398 22.333 9.99902 31l96 57l-95 57
c-5.33301 3.33301 -9 7.5 -11 12.5s-1.33301 10.5 2 16.5c3.33301 5.33301 7.5 8.83301 12.5 10.5s11.167 0.166992 18.5 -4.5l94 -56v104c0 6.66699 1.5 12.5 4.5 17.5s8.16699 7.5 15.5 7.5c14 0 21 -8.33301 21 -25v-103z" />
    <glyph glyph-name="plus" unicode="+" horiz-adv-x="441" 
d="M241 310h125c8.66699 0 15 -2 19 -6s6 -9 6 -15c0 -7.33301 -2.5 -12.5 -7.5 -15.5s-10.833 -4.5 -17.5 -4.5h-125v-126c0 -8.66699 -2 -15 -6 -19s-9 -6 -15 -6c-7.33301 0 -12.5 2.5 -15.5 7.5s-4.5 10.833 -4.5 17.5v126h-125c-6.66699 0 -12.5 1.5 -17.5 4.5
s-7.5 8.16699 -7.5 15.5c0 14 8.33301 21 25 21h125v124c0 6.66699 1.5 12.5 4.5 17.5s8.16699 7.5 15.5 7.5c14 0 21 -8.33301 21 -25v-124z" />
    <glyph glyph-name="comma" unicode="," horiz-adv-x="204" 
d="M95 -79c-5.33301 0 -9.5 1.50098 -12.5 4.50098s-4.5 6.16699 -4.5 9.5c0 2.66699 0.666992 5.16699 2 7.5s2.66602 4.16602 3.99902 5.49902c2 2.66699 4.33301 6.33398 7 11.001s4.66699 12.334 6 23.001c-10 1.33301 -17 5.66602 -21 12.999s-6 16.666 -6 27.999
c0 12 2.83301 23.167 8.5 33.5s14.167 15.5 25.5 15.5c20 0 30 -14.333 30 -43c0 -16 -1.33301 -30.167 -4 -42.5s-5.66699 -22.833 -9 -31.5c-4 -10 -8.33301 -18.667 -13 -26c-3.33301 -5.33301 -7.66602 -8 -12.999 -8z" />
    <glyph glyph-name="hyphen" unicode="-" horiz-adv-x="465" 
d="M388 329c18 0 26.999 -7.33301 26.999 -22c0 -7.33301 -2.66699 -12.666 -8 -15.999s-11.666 -5 -18.999 -5h-312c-7.33301 0 -13.5 1.66699 -18.5 5s-7.5 8.66602 -7.5 15.999c0 14.667 8.66699 22 26 22h312z" />
    <glyph glyph-name="period" unicode="." horiz-adv-x="204" 
d="M70 23c0 12 2.83301 23.167 8.5 33.5s14.167 15.5 25.5 15.5s19.166 -3.66699 23.499 -11s6.5 -17 6.5 -29c0 -16 -3.33301 -28.333 -10 -37s-14.667 -13 -24 -13c-11.333 0 -19.166 3.83301 -23.499 11.5s-6.5 17.5 -6.5 29.5z" />
    <glyph glyph-name="slash" unicode="/" horiz-adv-x="442" 
d="M351 696c4.66699 10.667 11.667 16.001 21 16.001c5.33301 0 10 -1.66699 14 -5s6 -8 6 -14c0 -4.66699 -1 -9.33398 -3 -14.001l-297 -697c-2 -4.66699 -4.66699 -8.66699 -8 -12s-7.33301 -5 -12 -5c-5.33301 0 -10.333 2 -15 6s-7 9 -7 15c0 4 1 8 3 12z" />
    <glyph glyph-name="zero" unicode="0" horiz-adv-x="585" 
d="M154 662c5.33301 0 10.3359 -1.67285 15.0029 -5.00586s7 -7.66602 7 -12.999c0 -3.33301 -1.33301 -7.66602 -4 -12.999l-3 -6c-14.667 -22.667 -27.667 -48.667 -39 -78c-9.33301 -25.333 -18 -56.166 -26 -92.499s-12 -78.166 -12 -125.499c0 -40 4 -77.833 12 -113.5
s20.167 -66.834 36.5 -93.501s37.166 -47.834 62.499 -63.501s55.333 -23.5 90 -23.5c31.333 0 59.5 7.83301 84.5 23.5s46 37.334 63 65.001s30 60.334 39 98.001s13.5 78.834 13.5 123.501c0 55.333 -4.33301 102.333 -13 141s-20.5 70 -35.5 94s-32.5 41.5 -52.5 52.5
s-41 16.5 -63 16.5s-41.5 -6 -58.5 -18s-31.333 -28.167 -43 -48.5s-20.334 -43.666 -26.001 -69.999s-8.5 -53.5 -8.5 -81.5c0 -16.667 -6.33301 -25 -19 -25c-8.66699 0 -14.667 2.5 -18 7.5s-5 10.833 -5 17.5c0 32.667 3.83301 64.667 11.5 96s19 59.166 34 83.499
s33.5 43.833 55.5 58.5s47.667 22 77 22c28 0 54.333 -6.33301 79 -19s46.5 -32.667 65.5 -60s34 -63 45 -107s16.5 -97.333 16.5 -160c0 -50.667 -5.5 -97.5 -16.5 -140.5s-26.833 -80.167 -47.5 -111.5s-46 -55.833 -76 -73.5s-64 -26.5 -102 -26.5
c-41.333 0 -77.333 9 -108 27s-56 42.333 -76 73s-34.833 66.334 -44.5 107.001s-14.5 83.667 -14.5 129c0 51.333 4.5 96.833 13.5 136.5s19.167 73.5 30.5 101.5c12.667 32 27.667 60.667 45 86c2 2 4.16699 4 6.5 6s5.16602 3 8.49902 3z" />
    <glyph glyph-name="one" unicode="1" horiz-adv-x="478" 
d="M90 302c-2 -1.33301 -4.3291 -2.66992 -6.99609 -4.00293c-5.33301 -2.66699 -9.66602 -4 -12.999 -4c-5.33301 0 -10 1.83301 -14 5.5s-6 8.83398 -6 15.501c0 6 1.83301 10.667 5.5 14s7.16699 6 10.5 8c17.333 11.333 35 24 53 38c15.333 12 32.333 26.333 51 43
s36.667 35 54 55v111c0 38.667 4 67.834 12 87.501s22.667 29.5 44 29.5c10 0 18.667 -2.16699 26 -6.5s13.166 -10 17.499 -17s7.66602 -14.833 9.99902 -23.5s3.5 -17.334 3.5 -26.001c0 -31.333 -6.83301 -61.333 -20.5 -90s-30.5 -55.667 -50.5 -81l1 -430
c13.333 -3.33301 26.333 -5 39 -5c15.333 0 28.166 1.66699 38.499 5s18.833 7.33301 25.5 12c7.33301 4.66699 13.333 10.334 18 17.001c2 3.33301 4.33301 7 7 11s6.66699 6 12 6c6.66699 0 11.834 -2 15.501 -6s5.5 -9 5.5 -15c0 -2.66699 -0.666992 -6 -2 -10
c-0.666992 -2 -1.33398 -3.33301 -2.00098 -4c-6 -10.667 -14.667 -20 -26 -28c-9.33301 -7.33301 -21.666 -13.833 -36.999 -19.5s-33.666 -8.5 -54.999 -8.5c-18.667 0 -35.167 2 -49.5 6s-27.333 8.5 -39 13.5s-22.834 9.5 -33.501 13.5s-22 6 -34 6
c-9.33301 0 -17.833 -1.16699 -25.5 -3.5s-14.167 -4.83301 -19.5 -7.5c-6.66699 -2.66699 -12 -6 -16 -10c-4 -4.66699 -7.33301 -8.16699 -10 -10.5s-6 -3.5 -10 -3.5s-8.16699 1.5 -12.5 4.5s-6.5 7.83301 -6.5 14.5c0 4.66699 0.666992 8.16699 2 10.5
s2.66602 4.83301 3.99902 7.5c7.33301 6.66699 15.666 13 24.999 19c8 4.66699 17.833 9 29.5 13s24.834 6 39.501 6c14 0 27 -2 39 -6s24 -8.33301 36 -13l-1 368c-16.667 -16.667 -32.834 -31.667 -48.501 -45s-29.834 -24.666 -42.501 -33.999
c-14.667 -11.333 -29 -21 -43 -29zM280.004 658.996c-5.33301 0 -9.00098 -6.49902 -11.001 -19.499s-3 -31.5 -3 -55.5v-53c8.66699 15.333 15.667 31.166 21 47.499s8 32.833 8 49.5c0 7.33301 -1.16699 14.333 -3.5 21s-6.16602 10 -11.499 10z" />
    <glyph glyph-name="two" unicode="2" horiz-adv-x="604" 
d="M50 465c0 36 5.83203 68.998 17.499 98.998s27.834 55.833 48.501 77.5s44.667 38.5 72 50.5s57 18 89 18c40 0 75.833 -6.5 107.5 -19.5s58.5 -31 80.5 -54s39 -50.333 51 -82s18 -66.5 18 -104.5c0 -39.333 -6 -79 -18 -119s-28.333 -78.5 -49 -115.5s-45 -71 -73 -102
s-58 -57.167 -90 -78.5c24.667 -11.333 55.334 -21.5 92.001 -30.5s85.667 -13.5 147 -13.5c16 0 24 -7 24 -21c0 -5.33301 -1.83301 -10.166 -5.5 -14.499s-9.83398 -6.5 -18.501 -6.5c-38 0 -71.5 1.83301 -100.5 5.5s-54.667 8.33398 -77 14.001s-42.166 12 -59.499 19
s-33.333 14.167 -48 21.5c-18 -8.66699 -36.333 -15.334 -55 -20.001s-37.667 -7 -57 -7c-30 0 -50.833 5.33301 -62.5 16s-17.5 23.667 -17.5 39c0 17.333 5.66699 30.666 17 39.999s27.666 14 48.999 14c28.667 0 52.5 -3.33301 71.5 -10s37.833 -14.667 56.5 -24
c31.333 18 61 41.667 89 71s52.667 61.833 74 97.5s38.166 72.834 50.499 111.501s18.5 76.334 18.5 113.001c0 32 -5 61.333 -15 88s-24.167 49.667 -42.5 69s-40.833 34.333 -67.5 45s-56.667 16 -90 16c-26 0 -50.333 -5 -73 -15s-42.167 -24 -58.5 -42
s-29.333 -39.5 -39 -64.5s-14.5 -52.167 -14.5 -81.5c0 -46 9.5 -80.833 28.5 -104.5s44.833 -35.5 77.5 -35.5c28.667 0 52.334 7.33301 71.001 22s28 34 28 58c0 5.33301 1.83301 10.166 5.5 14.499s8.5 6.5 14.5 6.5c6.66699 0 12 -2.16699 16 -6.5s6 -9.16602 6 -14.499
c0 -18 -3.5 -34.5 -10.5 -49.5s-16.833 -27.833 -29.5 -38.5s-27.5 -19 -44.5 -25s-35.833 -9 -56.5 -9c-21.333 0 -41 3.83301 -59 11.5s-33.5 19.167 -46.5 34.5s-23.333 34.333 -31 57s-11.5 49 -11.5 79zM145.999 21.998c21.333 0 41.999 3.33301 61.999 10
c-11.333 5.33301 -23.166 9.5 -35.499 12.5s-25.833 4.5 -40.5 4.5c-8 0 -14 -1.16699 -18 -3.5s-6 -5.16602 -6 -8.49902c0 -4.66699 2.66699 -8.33398 8 -11.001s15.333 -4 30 -4z" />
    <glyph glyph-name="three" unicode="3" horiz-adv-x="581" 
d="M245 723c30.667 0 59.5 -5 86.5 -15s50.167 -24.167 69.5 -42.5s34.666 -40.333 45.999 -66s17 -54.5 17 -86.5c0 -26.667 -3.66699 -51.334 -11 -74.001s-17 -42.667 -29 -60c32.667 -18 58.667 -42.667 78 -74s29 -68 29 -110c0 -36 -6 -67.833 -18 -95.5
s-28.833 -51 -50.5 -70s-47.334 -33.333 -77.001 -43s-62.5 -14.5 -98.5 -14.5c-36.667 0 -69.667 5.5 -99 16.5s-54.166 25.5 -74.499 43.5s-36 38.167 -47 60.5s-16.5 44.833 -16.5 67.5c0 17.333 7.66699 26 23 26c5.33301 0 9.83301 -2 13.5 -6s5.5 -10.667 5.5 -20
c0 -18 4.83301 -35.667 14.5 -53s23 -32.833 40 -46.5s37.5 -24.834 61.5 -33.501s50.333 -13 79 -13c60.667 0 109.5 15.5 146.5 46.5s55.5 75.833 55.5 134.5c0 34 -8.16699 64 -24.5 90s-38.833 46.667 -67.5 62c-18 -17.333 -37.667 -30.5 -59 -39.5
s-42.666 -13.5 -63.999 -13.5c-24 0 -43.833 4.33301 -59.5 13s-23.5 23.667 -23.5 45c0 17.333 7.5 31.666 22.5 42.999s38.5 17 70.5 17c17.333 0 34.333 -1.33301 51 -4s32.667 -6.66699 48 -12c12 15.333 21.5 33 28.5 53s10.5 41.333 10.5 64
c0 25.333 -4.33301 48.333 -13 69s-20.834 38.334 -36.501 53.001s-34.5 26 -56.5 34s-46 12 -72 12c-23.333 0 -43.5 -3 -60.5 -9s-31 -14 -42 -24s-19 -21.333 -24 -34s-7.5 -25.667 -7.5 -39c0 -19.333 6 -35.666 18 -48.999s27.667 -20 47 -20c16 0 28.5 6.5 37.5 19.5
s13.5 26.5 13.5 40.5c0 6.66699 1.5 12 4.5 16s8.83301 6 17.5 6c7.33301 0 12.5 -2.5 15.5 -7.5s4.5 -9.83301 4.5 -14.5c0 -12 -2.16699 -24 -6.5 -36s-10.5 -23 -18.5 -33s-17.667 -18 -29 -24s-24.333 -9 -39 -9c-32 0 -57.833 10.5 -77.5 31.5s-29.5 47.5 -29.5 79.5
c0 18.667 3.33301 36.834 10 54.501s17.334 33.5 32.001 47.5s33 25.167 55 33.5s48.667 12.5 80 12.5zM274 333c28 0 54.333 10.334 79 31.001c-21.333 6 -44.333 9 -69 9c-20.667 0 -34.5 -2.33301 -41.5 -7s-10.5 -9.33398 -10.5 -14.001c0 -6.66699 4 -11.5 12 -14.5
s18 -4.5 30 -4.5z" />
    <glyph glyph-name="four" unicode="4" horiz-adv-x="645" 
d="M65 615c0.666992 23.333 7.67188 43.4971 21.0049 60.4971s33.333 25.5 60 25.5c30.667 0 54.667 -12.333 72 -37s26 -66 26 -124c0 -48 -3.33301 -92.167 -10 -132.5s-16 -75.5 -28 -105.5c31.333 -8 61.833 -18.167 91.5 -30.5s60.5 -23.166 92.5 -32.499v431
c0 8.66699 2.16699 15 6.5 19s9.5 6 15.5 6c7.33301 0 12.5 -2.5 15.5 -7.5s4.5 -10.833 4.5 -17.5v-440c9.33301 -1.33301 18.666 -2.5 27.999 -3.5s18.666 -1.5 27.999 -1.5c19.333 0 35.5 2.83301 48.5 8.5s23.333 12.334 31 20.001s13 15.5 16 23.5s4.5 14.333 4.5 19
c0 6 2 11 6 15s9 6 15 6s11 -2 15 -6s6 -9 6 -15c0 -9.33301 -2.5 -20.5 -7.5 -33.5s-13 -25.333 -24 -37s-25.5 -21.667 -43.5 -30s-40.333 -12.5 -67 -12.5c-20.667 0 -39.334 1 -56.001 3v-164h10c15.333 0 28.166 1.66699 38.499 5s18.833 7.33301 25.5 12
c7.33301 4.66699 13.333 10.334 18 17.001c2 3.33301 4.33301 7 7 11s6.66699 6 12 6c6.66699 0 11.834 -2 15.501 -6s5.5 -9 5.5 -15c0 -2.66699 -0.666992 -6 -2 -10c-0.666992 -2 -1.33398 -3.33301 -2.00098 -4c-6 -10.667 -14.667 -20 -26 -28
c-9.33301 -7.33301 -21.666 -13.833 -36.999 -19.5s-33.666 -8.5 -54.999 -8.5c-18.667 0 -35.167 2 -49.5 6s-27.333 8.5 -39 13.5s-22.834 9.5 -33.501 13.5s-22 6 -34 6c-9.33301 0 -17.833 -1.16699 -25.5 -3.5s-14.167 -4.83301 -19.5 -7.5
c-6.66699 -2.66699 -12 -6 -16 -10c-4 -4.66699 -7.33301 -8.16699 -10 -10.5s-6 -3.5 -10 -3.5s-8.16699 1.5 -12.5 4.5s-6.5 7.83301 -6.5 14.5c0 4.66699 0.666992 8.16699 2 10.5s2.66602 4.83301 3.99902 7.5c7.33301 6.66699 15.666 13 24.999 19
c8 4.66699 17.833 9 29.5 13s24.834 6 39.501 6c19.333 0 37.166 -3.66699 53.499 -11s33.166 -13.666 50.499 -18.999v163c-19.333 4.66699 -37.5 10.334 -54.5 17.001l-49 20l-47 19.5c-15.667 6.33301 -32.167 11.5 -49.5 15.5c-12.667 -22.667 -27.167 -40 -43.5 -52
s-34.166 -18 -53.499 -18c-22.667 0 -38.667 5.16699 -48 15.5s-14 22.166 -14 35.499c0 21.333 8.33301 38 25 50s37.667 18 63 18c8 0 16.167 -0.333008 24.5 -1s16.5 -1.66699 24.5 -3c10.667 27.333 19 60.333 25 99s9 82 9 130c0 42.667 -5 73.167 -15 91.5
s-23.667 27.5 -41 27.5c-12.667 0 -22.167 -4.16699 -28.5 -12.5s-9.83301 -18.833 -10.5 -31.5c0 -6 -2 -11 -6 -15s-9 -6 -15 -6s-11 2.16699 -15 6.5s-6 9.16602 -6 14.499zM93.0049 235.997c20.667 0 39.333 12.333 56 37c-5.33301 0.666992 -10.333 1.16699 -15 1.5
s-9.66699 0.5 -15 0.5c-13.333 0 -24.333 -2.5 -33 -7.5s-13 -10.5 -13 -16.5c0 -10 6.66699 -15 20 -15z" />
    <glyph glyph-name="five" unicode="5" horiz-adv-x="561" 
d="M88 676c0 -8.66699 9.33203 -13 27.999 -13h12l-11.5 15.5c-4.33301 5.66699 -9.16602 8.5 -14.499 8.5c-9.33301 0 -14 -3.66699 -14 -11zM276.999 14c28.667 0 54.8359 4.00098 78.5029 12.001s43.834 19.667 60.501 35s29.667 34.166 39 56.499s14 48.166 14 77.499
c0 26 -5 49.833 -15 71.5s-24 40.5 -42 56.5s-39.667 28.333 -65 37s-53 13 -83 13c-21.333 0 -38.5 -2.16699 -51.5 -6.5s-23.167 -9.5 -30.5 -15.5c-0.666992 -3.33301 -1 -7 -1 -11c0 -2 -0.333008 -3.33301 -1 -4c0 -6.66699 -2 -13 -6 -19s-10.667 -9 -20 -9
c-6.66699 0 -12.167 2.5 -16.5 7.5s-6.5 11.167 -6.5 18.5c0 10.667 3.33301 21 10 31c3.33301 17.333 6.5 40.833 9.5 70.5s4.5 60.5 4.5 92.5c0 34 -3.66699 65.667 -11 95h-28c-22 0 -38.333 4.66699 -49 14s-16 22.333 -16 39c0 13.333 4.66699 24.333 14 33
s21.666 13 36.999 13s28.5 -5.16699 39.5 -15.5s20.5 -23.833 28.5 -40.5c46 1.33301 87.5 3.5 124.5 6.5s68.833 6.16699 95.5 9.5c31.333 4 59 8.33301 83 13c8.66699 1.33301 15.667 0.666016 21 -2.00098s8 -7.66699 8 -15c0 -12.667 -6.33301 -20.334 -19 -23.001
c-24 -5.33301 -51.333 -10 -82 -14c-26 -3.33301 -57.333 -6.66602 -94 -9.99902s-77.334 -5.66602 -122.001 -6.99902c4 -15.333 7 -31.166 9 -47.499s3 -32.5 3 -48.5c0 -24 -0.833008 -47.167 -2.5 -69.5s-3.5 -42.166 -5.5 -59.499c22.667 8.66699 47.667 13 75 13
c34.667 0 67 -5 97 -15s56.167 -24.167 78.5 -42.5s39.833 -41 52.5 -68s19 -57.5 19 -91.5c0 -36 -5.83301 -67.833 -17.5 -95.5s-27.834 -51 -48.501 -70s-45.334 -33.333 -74.001 -43s-60 -14.5 -94 -14.5c-35.333 0 -67 5.5 -95 16.5s-51.833 25.5 -71.5 43.5
s-34.667 38.167 -45 60.5s-15.5 44.833 -15.5 67.5c0 17.333 7.66699 26 23 26c5.33301 0 9.83301 -2 13.5 -6s5.5 -10.667 5.5 -20c0 -18 4.5 -35.667 13.5 -53s21.667 -32.833 38 -46.5s35.833 -24.834 58.5 -33.501s47.667 -13 75 -13z" />
    <glyph glyph-name="six" unicode="6" horiz-adv-x="544" 
d="M494 214c0 -31.333 -5.33203 -60.1641 -15.999 -86.4971s-25.334 -49 -44.001 -68s-40.667 -33.833 -66 -44.5s-52.333 -16 -81 -16c-36.667 0 -69.667 6.33301 -99 19s-54.166 30.5 -74.499 53.5s-36 50.5 -47 82.5s-16.5 67 -16.5 105s5 73.667 15 107
s23.333 64.166 40 92.499s35.667 54.333 57 78s43 45.167 65 64.5c52 44.667 111.333 82.667 178 114c1.33301 1.33301 3.33301 2.16602 6 2.49902s4.66699 0.5 6 0.5c4 0 7.66699 -1.33301 11 -4s5 -7 5 -13c0 -12 -8.33301 -22 -25 -30
c-58.667 -30 -111.334 -65.667 -158.001 -107c-20 -17.333 -39.333 -36.833 -58 -58.5s-35.5 -45.334 -50.5 -71.001s-27 -53.167 -36 -82.5s-13.5 -60.333 -13.5 -93c0 -32 4.5 -61.333 13.5 -88s21.833 -49.667 38.5 -69s37.167 -34.333 61.5 -45s51.5 -16 81.5 -16
c22.667 0 44.167 4.33301 64.5 13s37.833 20.667 52.5 36s26.334 33.5 35.001 54.5s13 44.167 13 69.5c0 50 -13.167 88.333 -39.5 115s-61.833 40 -106.5 40c-38 0 -69 -12.333 -93 -37s-36 -57.334 -36 -98.001c0 -5.33301 -1.83301 -10.166 -5.5 -14.499
s-8.5 -6.5 -14.5 -6.5c-14.667 0 -22 7 -22 21c0 26 4.16699 50 12.5 72s20.166 40.667 35.499 56s33.333 27.333 54 36s43.667 13 69 13c26.667 0 51.5 -4.33301 74.5 -13s43 -21.167 60 -37.5s30.167 -36.833 39.5 -61.5s14 -53 14 -85z" />
    <glyph glyph-name="seven" unicode="7" horiz-adv-x="564" 
d="M131 304c-4 -4.66699 -7.33984 -8.16895 -10.0068 -10.502s-6 -3.5 -10 -3.5s-8.16699 1.5 -12.5 4.5s-6.5 7.83301 -6.5 14.5c0 4.66699 0.666992 8.16699 2 10.5s2.66602 4.83301 3.99902 7.5c7.33301 6.66699 15.666 13 24.999 19c8 4.66699 17.833 9 29.5 13
s24.834 6 39.501 6c16.667 0 31.834 -2.83301 45.501 -8.5s27.834 -11.167 42.501 -16.5c17.333 48 35.833 95 55.5 141s39.834 87 60.501 123c-7.33301 -0.666992 -15 -1 -23 -1h-25c-38 0 -73.667 3 -107 9s-62.666 12.667 -87.999 20c-30 8.66699 -58 18.667 -84 30
c-7.33301 2.66699 -12.333 5.5 -15 8.5s-4 7.83301 -4 14.5c0 7.33301 3 12.5 9 15.5s12.667 3.5 20 1.5c24.667 -11.333 51.334 -21 80.001 -29c24.667 -7.33301 53.167 -13.833 85.5 -19.5s66.833 -8.5 103.5 -8.5c14.667 0 28.167 0.166992 40.5 0.5
s23.833 0.833008 34.5 1.5c15.333 23.333 30.666 41.666 45.999 54.999s29.666 20 42.999 20c15.333 0 27.666 -4.16699 36.999 -12.5s14 -19.5 14 -33.5c0 -38 -40 -61 -120 -69c-20 -34 -40.833 -75.5 -62.5 -124.5s-42.167 -100.5 -61.5 -154.5
c4.66699 -0.666992 9.33398 -1.16699 14.001 -1.5s9.66699 -0.5 15 -0.5c15.333 0 28.166 1.66699 38.499 5s18.833 7.33301 25.5 12c7.33301 4.66699 13.333 10.334 18 17.001c2 3.33301 4.33301 7 7 11s6.66699 6 12 6c6.66699 0 11.834 -2 15.501 -6s5.5 -9 5.5 -15
c0 -2.66699 -0.666992 -6 -2 -10c-0.666992 -2 -1.33398 -3.33301 -2.00098 -4c-6 -10.667 -14.667 -20 -26 -28c-9.33301 -7.33301 -21.666 -13.833 -36.999 -19.5s-33.666 -8.5 -54.999 -8.5c-8 0 -15.5 0.333008 -22.5 1s-13.5 1.66699 -19.5 3
c-19.333 -57.333 -35.333 -111.666 -48 -162.999s-19 -92.666 -19 -123.999c0 -15.333 -7.33301 -23 -22 -23c-5.33301 0 -10.166 2 -14.499 6s-6.5 9.66699 -6.5 17c0 14 1.66699 31.667 5 53s8 45 14 71s13.333 53.833 22 83.5s18.334 60.167 29.001 91.5
c-13.333 5.33301 -25.666 10.5 -36.999 15.5s-23.666 7.5 -36.999 7.5c-9.33301 0 -17.833 -1.16699 -25.5 -3.5s-14.167 -4.83301 -19.5 -7.5c-6.66699 -2.66699 -12 -6 -16 -10zM511.993 679.998c-8.66699 0 -20.667 -8.66699 -36 -26c30 6 45 13.333 45 22
c0 2.66699 -3 4 -9 4z" />
    <glyph glyph-name="eight" unicode="8" horiz-adv-x="483" 
d="M406 598c0 -20 -3.49902 -38.834 -10.499 -56.501s-16.333 -34.167 -28 -49.5s-25.334 -30 -41.001 -44s-31.834 -27.667 -48.501 -41c20 -12.667 39.167 -26.334 57.5 -41.001s34.833 -31.334 49.5 -50.001s26.334 -40 35.001 -64s13 -51.333 13 -82
c0 -33.333 -6 -61.666 -18 -84.999s-27 -42.5 -45 -57.5s-37.667 -26 -59 -33s-41.666 -10.5 -60.999 -10.5c-28 0 -54.167 4.83301 -78.5 14.5s-45.5 22.834 -63.5 39.501s-32.167 36.5 -42.5 59.5s-15.5 48.167 -15.5 75.5c0 26.667 4.66699 50.834 14 72.501
s21.5 41.667 36.5 60s32.167 35.5 51.5 51.5l59 47c-19.333 12 -37.666 24 -54.999 36s-32.833 25.5 -46.5 40.5s-24.5 31.833 -32.5 50.5s-12 40 -12 64c0 22.667 3.66699 42.5 11 59.5s15.666 31.167 24.999 42.5c10.667 13.333 22.667 24.666 36 33.999l6 3
c5.33301 2.66699 10.666 4 15.999 4c4 0 8.16699 -1.5 12.5 -4.5s6.5 -8.16699 6.5 -15.5c0 -3.33301 -1 -6.16602 -3 -8.49902s-4 -4.5 -6 -6.5c-2.66699 -2.66699 -5.33398 -4.66699 -8.00098 -6c-10.667 -7.33301 -19.667 -16 -27 -26
c-7.33301 -8.66699 -13.666 -19.167 -18.999 -31.5s-8 -27.166 -8 -44.499c0 -20 3.83301 -37.667 11.5 -53s17.667 -29.5 30 -42.5s26.833 -25.167 43.5 -36.5l52 -34c16 12 31.167 24.333 45.5 37s27 25.834 38 39.501s19.833 28 26.5 43s10 31.5 10 49.5
c0 25.333 -7.83301 46.5 -23.5 63.5s-36.167 25.5 -61.5 25.5c-11.333 0 -21.333 -2.33301 -30 -7s-16 -10.834 -22 -18.501s-10.667 -16.334 -14 -26.001s-5 -19.167 -5 -28.5c0 -6.66699 -1.5 -12 -4.5 -16s-8.83301 -6 -17.5 -6c-7.33301 0 -12.5 2.5 -15.5 7.5
s-4.5 9.83301 -4.5 14.5c0 14.667 2.66699 29.167 8 43.5s12.833 27.333 22.5 39s21.5 21.167 35.5 28.5s29.667 11 47 11c38 0 68.667 -12.333 92 -37s35 -56 35 -94zM391.001 169.999c0 27.333 -3.99902 51.501 -11.999 72.501s-18.833 39.667 -32.5 56
s-29.167 31.166 -46.5 44.499s-35.333 26 -54 38l-56.5 -45.5c-18.333 -15 -34.833 -31 -49.5 -48s-26.334 -34.833 -35.001 -53.5s-13 -39 -13 -61c0 -21.333 4.16699 -40.833 12.5 -58.5s19.666 -33.167 33.999 -46.5s31 -23.666 50 -30.999s39.5 -11 61.5 -11
c14.667 0 30.334 2.66699 47.001 8s32 13.833 46 25.5s25.5 26.667 34.5 45s13.5 40.166 13.5 65.499z" />
    <glyph glyph-name="nine" unicode="9" horiz-adv-x="544" 
d="M50 503c0 31.333 5.33008 60.1709 15.9971 86.5039s25.334 49 44.001 68s40.667 33.833 66 44.5s52.333 16 81 16c36.667 0 69.667 -6.5 99 -19.5s54.166 -31 74.499 -54s36 -50.333 47 -82s16.5 -66.5 16.5 -104.5s-5.16699 -73.667 -15.5 -107
s-23.833 -64.333 -40.5 -93s-35.667 -54.834 -57 -78.501s-43 -44.834 -65 -63.501c-52 -44.667 -111 -82.667 -177 -114c-4 -2 -8 -3 -12 -3s-7.66699 1.33301 -11 4s-5 7 -5 13c0 11.333 8.33301 21.333 25 30c58.667 30 111.334 65.667 158.001 107
c20 17.333 39.333 36.833 58 58.5s35.5 45.167 50.5 70.5s27 52.666 36 81.999s13.5 60.666 13.5 93.999c0 32 -4.5 61.333 -13.5 88s-21.833 49.667 -38.5 69s-37.167 34.333 -61.5 45s-51.5 16 -81.5 16c-23.333 0 -45.166 -4.5 -65.499 -13.5s-37.833 -21.5 -52.5 -37.5
s-26.167 -34.833 -34.5 -56.5s-12.5 -45.5 -12.5 -71.5c0 -48 13.333 -84.833 40 -110.5s62 -38.5 106 -38.5c38 0 69 12.333 93 37s36 57.334 36 98.001c0 5.33301 1.83301 10.166 5.5 14.499s8.5 6.5 14.5 6.5c14.667 0 22 -7 22 -21c0 -26 -4.16699 -50 -12.5 -72
s-20.166 -40.667 -35.499 -56s-33.5 -27.333 -54.5 -36s-43.833 -13 -68.5 -13c-27.333 0 -52.333 4.33301 -75 13s-42.5 21.167 -59.5 37.5s-30.167 36.833 -39.5 61.5s-14 53 -14 85z" />
    <glyph glyph-name="colon" unicode=":" horiz-adv-x="206" 
d="M70 279c0 12 2.83301 23.167 8.5 33.5s14.167 15.5 25.5 15.5s19.166 -3.66699 23.499 -11s6.5 -17 6.5 -29c0 -16 -3.33301 -28.333 -10 -37s-14.667 -13 -24 -13c-11.333 0 -19.166 3.83301 -23.499 11.5s-6.5 17.5 -6.5 29.5zM72 23c0 12 2.83301 23.167 8.5 33.5
s14.167 15.5 25.5 15.5s19.166 -3.66699 23.499 -11s6.5 -17 6.5 -29c0 -16 -3.33301 -28.333 -10 -37s-14.667 -13 -24 -13c-11.333 0 -19.166 3.83301 -23.499 11.5s-6.5 17.5 -6.5 29.5z" />
    <glyph glyph-name="semicolon" unicode=";" horiz-adv-x="205" 
d="M96 -79c-5.33301 0 -9.50098 1.50195 -12.501 4.50195s-4.5 6.16699 -4.5 9.5c0 2.66699 0.666992 5.16699 2 7.5s2.66602 4.16602 3.99902 5.49902c2 2.66699 4.33301 6.33398 7 11.001s4.66699 12.334 6 23.001c-10 1.33301 -17 5.66602 -21 12.999
s-6 16.666 -6 27.999c0 12 2.83301 23.167 8.5 33.5s14.167 15.5 25.5 15.5c8.66699 0 15.834 -3.66699 21.501 -11s8.5 -17 8.5 -29c0 -17.333 -1.33301 -32.333 -4 -45s-5.66699 -23.334 -9 -32.001c-4 -10 -8.33301 -18.667 -13 -26
c-3.33301 -5.33301 -7.66602 -8 -12.999 -8zM69.999 279.002c0 12 2.83301 23.167 8.5 33.5s14.167 15.5 25.5 15.5s19.166 -3.66699 23.499 -11s6.5 -17 6.5 -29c0 -16 -3.33301 -28.333 -10 -37s-14.667 -13 -24 -13c-11.333 0 -19.166 3.83301 -23.499 11.5
s-6.5 17.5 -6.5 29.5z" />
    <glyph glyph-name="less" unicode="&#x3c;" horiz-adv-x="439" 
d="M103 289l38 -24.5l50 -31.5l55.5 -34.5l54 -33.5l46 -29c13.667 -8.66699 24.167 -15 31.5 -19c7.33301 -4.66699 11 -10.667 11 -18c0 -5.33301 -1.66699 -10 -5 -14s-8 -6 -14 -6c-5.33301 0 -9.33301 1 -12 3c-2.66699 1.33301 -4.66699 2.66602 -6 3.99902l-285 180
c-3.33301 2.66699 -7 5.33398 -11 8.00098s-6 7.66699 -6 15c0 3.33301 0.833008 6.5 2.5 9.5s6.5 7.5 14.5 13.5l21.5 14l46 29l60.5 37.5l64 39.5l56 34.5l37 23.5l6 3c4 2.66699 8 4 12 4c6 0 10.667 -2 14 -6s5 -8.66699 5 -14c0 -7.33301 -3.66699 -13.333 -11 -18z
" />
    <glyph glyph-name="equal" unicode="=" horiz-adv-x="441" 
d="M366 389c8.66699 0 15 -2 19 -6s6 -9 6 -15c0 -7.33301 -2.5 -12.5 -7.5 -15.5s-10.833 -4.5 -17.5 -4.5h-291c-6.66699 0 -12.5 1.5 -17.5 4.5s-7.5 8.16699 -7.5 15.5c0 14 8.33301 21 25 21h291zM366 225c8.66699 0 15 -2 19 -6s6 -9 6 -15
c0 -7.33301 -2.5 -12.5 -7.5 -15.5s-10.833 -4.5 -17.5 -4.5h-291c-6.66699 0 -12.5 1.5 -17.5 4.5s-7.5 8.16699 -7.5 15.5c0 14 8.33301 21 25 21h291z" />
    <glyph glyph-name="greater" unicode="&#x3e;" horiz-adv-x="439" 
d="M61 459c-7.33301 4.66699 -11 10.668 -11 18.001c0 5.33301 1.66699 10 5 14s8 6 14 6c2.66699 0 6.66699 -1.33301 12 -4c2 -1.33301 4 -2.33301 6 -3l37 -23.5l56 -34.5l64 -39.5l60.5 -37.5l46 -29l21.5 -14c8 -6 12.833 -10.5 14.5 -13.5s2.5 -6.16699 2.5 -9.5
c0 -7.33301 -2 -12.333 -6 -15s-7.66699 -5.33398 -11 -8.00098l-285 -180l-6 -4c-4 -2 -8 -3 -12 -3c-6 0 -10.667 2 -14 6s-5 8.66699 -5 14c0 7.33301 3.66699 13.333 11 18l52.5 32.5l78.5 49l81.5 51.5l62.5 39z" />
    <glyph glyph-name="question" unicode="?" horiz-adv-x="517" 
d="M23 495c0 31.333 5.33398 60.166 16.001 86.499s26 49 46 68s44 33.833 72 44.5s59 16 93 16s64.333 -5.5 91 -16.5s49.334 -26.167 68.001 -45.5s33 -42.5 43 -69.5s15 -56.5 15 -88.5c0 -35.333 -6.16699 -66.166 -18.5 -92.499s-27.5 -50.166 -45.5 -71.499
s-37.833 -40.833 -59.5 -58.5s-41.5 -35.667 -59.5 -54s-33.167 -38 -45.5 -59s-18.5 -45.167 -18.5 -72.5c0 -10 -2.16699 -17.5 -6.5 -22.5s-9.16602 -7.5 -14.499 -7.5s-10 2.5 -14 7.5s-6 12.5 -6 22.5c0 30.667 6 57.667 18 81s27.167 45.166 45.5 65.499
s38.166 39.5 59.499 57.5s41.166 37.167 59.499 57.5s33.5 42.166 45.5 65.499s18 50.333 18 81c0 26 -4 49.833 -12 71.5s-19.5 40.5 -34.5 56.5s-33.333 28.333 -55 37s-46.167 13 -73.5 13c-28.667 0 -54.334 -4.33301 -77.001 -13s-42 -20.667 -58 -36
s-28.333 -33.666 -37 -54.999s-13 -44.333 -13 -69c0 -40.667 9.5 -71.667 28.5 -93s44.833 -32 77.5 -32c25.333 0 46.5 6.83301 63.5 20.5s25.5 31.834 25.5 54.501c0 5.33301 1.83301 10.166 5.5 14.499s8.5 6.5 14.5 6.5c6.66699 0 12 -2.16699 16 -6.5
s6 -9.16602 6 -14.499c0 -34.667 -12.333 -62.834 -37 -84.501s-56 -32.5 -94 -32.5c-42 0 -77.167 14.167 -105.5 42.5s-42.5 69.833 -42.5 124.5zM168.001 -26c0 12 2.83301 23.167 8.5 33.5s14.167 15.5 25.5 15.5s19.166 -3.66699 23.499 -11s6.5 -17 6.5 -29
c0 -16.667 -3.33301 -29.167 -10 -37.5s-14.667 -12.5 -24 -12.5c-11.333 0 -19.166 3.83301 -23.499 11.5s-6.5 17.5 -6.5 29.5z" />
    <glyph glyph-name="at" unicode="@" horiz-adv-x="721" 
d="M481 289c0 -10 0.663086 -23.834 1.99609 -41.501s4.33301 -34.834 9 -51.501s11.667 -31.167 21 -43.5s22 -18.5 38 -18.5c26 0 45.833 14.5 59.5 43.5s20.5 68.167 20.5 117.5c0 42.667 -6.33301 81.5 -19 116.5s-30.5 65 -53.5 90s-50.333 44.167 -82 57.5
s-66.167 20 -103.5 20c-47.333 0 -88.666 -8.16699 -123.999 -24.5s-64.666 -39 -87.999 -68s-41 -63.167 -53 -102.5s-18 -82.333 -18 -129c0 -44.667 5.5 -84.167 16.5 -118.5s26.5 -63.333 46.5 -87s44 -41.667 72 -54s59 -18.5 93 -18.5c27.333 0 50 2.66699 68 8
s32.333 12 43 20s18.167 16.667 22.5 26s6.5 17.666 6.5 24.999c0 6 2 10.5 6 13.5s8.66699 4.5 14 4.5c7.33301 0 12.166 -2.83301 14.499 -8.5s3.5 -11.5 3.5 -17.5c0 -7.33301 -2.66699 -17.166 -8 -29.499s-14.666 -24.5 -27.999 -36.5s-31.5 -22.5 -54.5 -31.5
s-52.167 -13.5 -87.5 -13.5c-39.333 0 -75.333 7 -108 21s-60.834 34.5 -84.501 61.5s-42.167 60.167 -55.5 99.5s-20 84.666 -20 135.999c0 52 6.83301 100.167 20.5 144.5s34 82.833 61 115.5s60.667 58.167 101 76.5s87.166 27.5 140.499 27.5
c43.333 0 83.333 -7.66699 120 -23s68.167 -37.166 94.5 -65.499s46.833 -62.5 61.5 -102.5s22 -84.333 22 -133c0 -61.333 -10.167 -110.166 -30.5 -146.499s-50.166 -54.5 -89.499 -54.5c-21.333 0 -39.666 7 -54.999 21s-27.666 33.667 -36.999 59
c-12 -23.333 -28.667 -42.666 -50 -57.999s-46.666 -23 -75.999 -23c-41.333 0 -75 12.333 -101 37s-39 63.667 -39 117c0 23.333 3.33301 46.5 10 69.5s16.334 43.5 29.001 61.5s28.5 32.667 47.5 44s41.167 17 66.5 17c20.667 0 39.5 -4 56.5 -12
s31.167 -18.833 42.5 -32.5s20.166 -29.667 26.499 -48s9.5 -37.5 9.5 -57.5zM441.996 263.999c0 14.667 -1.5 29.832 -4.5 45.499s-8 30.167 -15 43.5s-16.833 24.333 -29.5 33s-28.334 13 -47.001 13c-18 0 -34.167 -4.5 -48.5 -13.5s-26.166 -20.667 -35.499 -35
s-16.5 -30.5 -21.5 -48.5s-7.5 -36.333 -7.5 -55c0 -39.333 9.33301 -68.166 28 -86.499s42.667 -27.5 72 -27.5c18 0 33.833 3.66699 47.5 11s25 17.166 34 29.499s15.833 26.333 20.5 42s7 31.834 7 48.501z" />
    <glyph glyph-name="A" unicode="A" horiz-adv-x="1211" 
d="M880 238c0 5.33301 2.00195 9.99902 6.00195 13.999s8.66699 6 14 6s10 -2 14 -6s6 -8.66699 6 -14c0 -45.333 -14.667 -81.666 -44 -108.999s-69 -43.333 -119 -48c21.333 -36 44.166 -64.667 68.499 -86s49.166 -32 74.499 -32c33.333 0 64.5 9.16699 93.5 27.5
s56 41.333 81 69s48.333 57.834 70 90.501l60.5 92c2 3.33301 4.16699 5.83301 6.5 7.5s6.16602 2.5 11.499 2.5c12.667 0 19 -5.33301 19 -16c0 -4.66699 -1.33301 -9.66699 -4 -15l-4 -8c-18 -29.333 -38.667 -61 -62 -95s-49 -65.5 -77 -94.5s-58.333 -53.333 -91 -73
s-67 -29.5 -103 -29.5c-37.333 0 -72.166 14.667 -104.499 44s-62.166 67.666 -89.499 114.999c-23.333 2 -46.5 5.83301 -69.5 11.5s-46 12.334 -69 20.001l-69.5 24c-23.333 8.33301 -46.666 16.166 -69.999 23.499c-20.667 -40 -42 -77.5 -64 -112.5
s-44.167 -65.5 -66.5 -91.5s-44.333 -46.333 -66 -61s-42.167 -22 -61.5 -22c-36 0 -65.167 13.333 -87.5 40s-33.5 62.667 -33.5 108c0 29.333 6.5 56.5 19.5 81.5s30.333 46.667 52 65s47 32.666 76 42.999s59.5 15.5 91.5 15.5c20.667 0 40.667 -1.5 60 -4.5
s38.666 -6.83301 57.999 -11.5c17.333 36.667 33.833 74.834 49.5 114.501s29.5 79 41.5 118s22.167 77.167 30.5 114.5s14.166 72 17.499 104c-0.666992 9.33301 -1.16699 18.333 -1.5 27s-0.5 17 -0.5 25c0 17.333 8 26 24 26c15.333 0 23 -8.33301 23 -25
c0 -9.33301 -0.333008 -18.5 -1 -27.5l-2 -27.5c2.66699 -40 8.16699 -83.5 16.5 -130.5s19 -94.5 32 -142.5s27.833 -94.833 44.5 -140.5s35 -87.5 55 -125.5c20 0 38.833 2.66699 56.5 8s33 13.166 46 23.499s23.167 22.833 30.5 37.5s11 31.334 11 50.001z
M171.002 -86.001c15.333 0 32 6.5 50 19.5s36.333 31 55 54s37.667 50.167 57 81.5s38 65.333 56 102c-17.333 4 -34.333 7.33301 -51 10s-33.334 4 -50.001 4c-29.333 0 -56 -4.5 -80 -13.5s-44.667 -21.167 -62 -36.5s-30.666 -33 -39.999 -53s-14 -40.667 -14 -62
c0 -32 7.33301 -57.667 22 -77s33.667 -29 57 -29zM685.002 122.999c-14 28.667 -27.168 59.333 -39.501 92s-23.666 66 -33.999 100s-19.5 68.167 -27.5 102.5s-15 67.833 -21 100.5c-12.667 -52 -29 -105.5 -49 -160.5s-42.333 -108.5 -67 -160.5
c42 -13.333 82.5 -27.5 121.5 -42.5s77.833 -25.5 116.5 -31.5z" />
    <glyph glyph-name="B" unicode="B" horiz-adv-x="864" 
d="M470 -85c30 0 57.501 5.3291 82.501 15.9961s46.333 25.834 64 45.501s31.334 43.834 41.001 72.501s14.5 61 14.5 97c0 43.333 -9.33301 80.833 -28 112.5s-43 56.5 -73 74.5c-17.333 -18.667 -36.833 -33 -58.5 -43s-43.5 -15 -65.5 -15c-24 0 -43.833 5 -59.5 15
s-23.5 26.333 -23.5 49c0 19.333 7.5 34.833 22.5 46.5s38.5 17.5 70.5 17.5c35.333 0 68.666 -6 99.999 -18c8.66699 14 15.5 29.333 20.5 46s7.5 34.334 7.5 53.001c0 28.667 -5.33301 54.5 -16 77.5s-26 42.667 -46 59s-44 29 -72 38s-59.333 13.5 -94 13.5
c-88 0 -154.167 -18 -198.5 -54s-66.5 -83.333 -66.5 -142c0 -28.667 7.16699 -52.334 21.5 -71.001s32.166 -28 53.499 -28c15.333 0 27.666 5.5 36.999 16.5s14 22.167 14 33.5c0 6.66699 1.5 12 4.5 16s8.83301 6 17.5 6c7.33301 0 12.5 -2.5 15.5 -7.5
s4.5 -9.83301 4.5 -14.5c0 -10.667 -2.16699 -21.5 -6.5 -32.5s-10.5 -20.833 -18.5 -29.5s-17.667 -15.834 -29 -21.501s-24.333 -8.5 -39 -8.5c-17.333 0 -33.166 3.5 -47.499 10.5s-26.666 16.833 -36.999 29.5s-18.333 27.667 -24 45s-8.5 36 -8.5 56
c0 34.667 6.33301 66.5 19 95.5s31.834 54 57.501 75s57.667 37.5 96 49.5s83.166 18 134.499 18c39.333 0 75.5 -5.33301 108.5 -16s61.5 -26 85.5 -46s42.667 -44.167 56 -72.5s20 -60.166 20 -95.499c0 -23.333 -2.83301 -44.666 -8.5 -63.999s-13.167 -37 -22.5 -53
c36 -21.333 64.667 -50.833 86 -88.5s32 -81.834 32 -132.501c0 -43.333 -6 -81.833 -18 -115.5s-28.833 -62.167 -50.5 -85.5s-47.334 -41.166 -77.001 -53.499s-62.5 -18.5 -98.5 -18.5c-27.333 0 -51.333 4.16699 -72 12.5s-39.334 18.833 -56.001 31.5
s-32 26.334 -46 41.001s-28 28.334 -42 41.001c-14.667 -19.333 -30.667 -34.666 -48 -45.999s-36.333 -17 -57 -17c-22 0 -41.833 5.66699 -59.5 17s-26.5 29.666 -26.5 54.999c0 21.333 7.83301 38.833 23.5 52.5s39.834 20.5 72.501 20.5c16.667 0 31.667 -2 45 -6
s25.666 -9 36.999 -15c15.333 32 27.666 69.667 36.999 113s14 88.333 14 135c0 39.333 -1.16699 73.166 -3.5 101.499s-5.16602 52.166 -8.49902 71.499c-3.33301 22 -7 41 -11 57c-2.66699 8 -2 14.667 2 20s9.66699 8 17 8c11.333 0 18.333 -5.33301 21 -16
c4.66699 -16.667 8.66699 -36.667 12 -60c3.33301 -20 6.33301 -45.167 9 -75.5s4 -65.833 4 -106.5c0 -52 -5 -101.667 -15 -149s-24.333 -88.666 -43 -123.999c14.667 -12 28.5 -25 41.5 -39s26.833 -27 41.5 -39s30.834 -22 48.501 -30s38.5 -12 62.5 -12z
M149.001 -24.0039c13.333 0 25.8311 4.16699 37.498 12.5s22.834 19.833 33.501 34.5c-19.333 12 -39.666 18 -60.999 18c-18.667 0 -32.667 -3 -42 -9s-14 -14 -14 -24c0 -10.667 4.83301 -18.667 14.5 -24s20.167 -8 31.5 -8zM446.999 313.996
c14 0 28.166 3.33398 42.499 10.001s27.833 16 40.5 28c-11.333 3.33301 -23.166 6.16602 -35.499 8.49902s-24.833 3.5 -37.5 3.5c-20.667 0 -34.5 -2.5 -41.5 -7.5s-10.5 -10.833 -10.5 -17.5c0 -7.33301 4 -13.333 12 -18s18 -7 30 -7z" />
    <glyph glyph-name="C" unicode="C" horiz-adv-x="763" 
d="M369 659c-37.333 0 -72.6621 -8.82617 -105.995 -26.4932s-62.666 -42.834 -87.999 -75.501s-45.5 -71.834 -60.5 -117.501s-22.5 -96.834 -22.5 -153.501c0 -63.333 6.66699 -118.333 20 -165s31.833 -85.334 55.5 -116.001s51.834 -53.5 84.501 -68.5
s68.334 -22.5 107.001 -22.5c33.333 0 65 6.16699 95 18.5s58.333 28.166 85 47.499s51.5 41.166 74.5 65.499s43.667 48.666 62 72.999s34.333 47.333 48 69l33.5 54.5c1.33301 2.66699 3.33301 5 6 7s6.66699 3 12 3c12.667 0 19 -5.33301 19 -16
c0 -4.66699 -1.33301 -9.66699 -4 -15l-4 -8c-12 -20.667 -26.167 -43.5 -42.5 -68.5s-34.833 -50 -55.5 -75s-43.334 -49.5 -68.001 -73.5s-50.834 -45.167 -78.501 -63.5s-56.834 -33 -87.501 -44s-62.334 -16.5 -95.001 -16.5c-44.667 0 -85.834 8.5 -123.501 25.5
s-70.334 42.667 -98.001 77s-49.167 77.5 -64.5 129.5s-23 112.667 -23 182c0 64 8.66699 121.667 26 173s40.666 94.833 69.999 130.5s63.166 63.167 101.499 82.5s78.833 29 121.5 29c36 0 67.167 -4.5 93.5 -13.5s47.833 -21.5 64.5 -37.5s29 -34.833 37 -56.5
s12 -45.167 12 -70.5c0 -38 -11.667 -69.333 -35 -94s-54 -37 -92 -37c-16 0 -30.333 3 -43 9s-23.5 14 -32.5 24s-15.833 21 -20.5 33s-7 24 -7 36c0 4.66699 1.5 9.5 4.5 14.5s8.16699 7.5 15.5 7.5c8 0 13.667 -2.16699 17 -6.5s5 -9.5 5 -15.5
c0 -14 5.33301 -27.5 16 -40.5s25.667 -19.5 45 -19.5c25.333 0 45.833 8.5 61.5 25.5s23.5 38.167 23.5 63.5c0 19.333 -3 37.333 -9 54s-15.667 31 -29 43s-30.333 21.5 -51 28.5s-46 10.5 -76 10.5z" />
    <glyph glyph-name="D" unicode="D" horiz-adv-x="949" 
d="M500 -86c38.667 0 74.332 7.50098 106.999 22.501s60.834 38 84.501 69s42.167 70.667 55.5 119s20 105.833 20 172.5c0 52.667 -7.16699 101.834 -21.5 147.501s-36.833 85.334 -67.5 119.001s-70 60.167 -118 79.5s-105.667 29 -173 29
c-49.333 0 -92.5 -5.16699 -129.5 -15.5s-67.833 -24.5 -92.5 -42.5s-43 -39.667 -55 -65s-18 -53 -18 -83c0 -32 7.83301 -58.167 23.5 -78.5s36.167 -30.5 61.5 -30.5c20.667 0 37.667 5.5 51 16.5s20 22.167 20 33.5c0 6.66699 1.5 12 4.5 16s8.83301 6 17.5 6
c7.33301 0 12.5 -2.5 15.5 -7.5s4.5 -9.83301 4.5 -14.5c0 -10.667 -2.66699 -21.5 -8 -32.5s-12.833 -20.833 -22.5 -29.5s-21.5 -15.834 -35.5 -21.501s-29.667 -8.5 -47 -8.5c-18.667 0 -35.834 3.83301 -51.501 11.5s-29 18.167 -40 31.5s-19.667 29.166 -26 47.499
s-9.5 38.5 -9.5 60.5c0 36 7 69.167 21 99.5s35 56.5 63 78.5s63 39.167 105 51.5s91.333 18.5 148 18.5c72.667 0 135.5 -10.667 188.5 -32s96.833 -50.666 131.5 -87.999s60.334 -81.5 77.001 -132.5s25 -105.833 25 -164.5c0 -73.333 -7.83301 -136.666 -23.5 -189.999
s-37.167 -97.333 -64.5 -132s-59.833 -60.5 -97.5 -77.5s-78.834 -25.5 -123.501 -25.5c-22 0 -41.5 3.16699 -58.5 9.5s-32.5 14.5 -46.5 24.5s-26.833 21 -38.5 33l-33.5 35c-15.333 -14.667 -32.666 -26 -51.999 -34s-40 -12 -62 -12s-41.833 5.66699 -59.5 17
s-26.5 29.666 -26.5 54.999c0 21.333 7.83301 38.833 23.5 52.5s39.834 20.5 72.501 20.5c20.667 0 39 -3.66699 55 -11s30.667 -16.666 44 -27.999c10.667 17.333 19 37.333 25 60s9 48 9 76v227c0 36.667 2.83301 68 8.5 94s13.5 47.167 23.5 63.5
s21.667 28.166 35 35.499s28 11 44 11c14.667 0 22 -7 22 -21c0 -4.66699 -1.66699 -9.16699 -5 -13.5s-8.33301 -6.5 -15 -6.5c-10 0 -19.167 -2.83301 -27.5 -8.5s-15.833 -14.834 -22.5 -27.501s-11.834 -29.5 -15.501 -50.5s-5.5 -46.5 -5.5 -76.5v-229
c-0.666992 -33.333 -4.83398 -63.5 -12.501 -90.5s-18.5 -50.833 -32.5 -71.5l32.5 -32.5c11 -11 22.333 -20.833 34 -29.5s24.334 -15.834 38.001 -21.501s29.167 -8.5 46.5 -8.5zM208.998 -31.999c31.333 0 59.334 11.333 84.001 34
c-11.333 9.33301 -22.833 16.833 -34.5 22.5s-24.834 8.5 -39.501 8.5c-18.667 0 -32.667 -3 -42 -9s-14 -14 -14 -24c0 -10.667 4.83301 -18.667 14.5 -24s20.167 -8 31.5 -8z" />
    <glyph glyph-name="E" unicode="E" horiz-adv-x="781" 
d="M359 -128c-45.333 0 -86.998 6.17383 -124.998 18.5068s-70.667 30.166 -98 53.499s-48.5 51.833 -63.5 85.5s-22.5 72.167 -22.5 115.5c0 54 11.167 100.667 33.5 140s52.5 69.666 90.5 90.999c-11.333 18.667 -20.333 39.334 -27 62.001s-10 47.667 -10 75
c0 32 5.83301 61 17.5 87s27.167 48.167 46.5 66.5s41.666 32.333 66.999 42s51.666 14.5 78.999 14.5c36 0 67 -4.16699 93 -12.5s47.333 -19.5 64 -33.5s29 -30.5 37 -49.5s12 -39.833 12 -62.5c0 -34.667 -10.833 -63.5 -32.5 -86.5s-49.834 -34.5 -84.501 -34.5
c-16 0 -30.333 3 -43 9s-23.5 14 -32.5 24s-15.833 21 -20.5 33s-7 24 -7 36c0 4.66699 1.5 9.5 4.5 14.5s8.16699 7.5 15.5 7.5c14.667 0 22 -7.33301 22 -22c0 -14 5.33301 -27.5 16 -40.5s25.667 -19.5 45 -19.5c22.667 0 40.834 7.5 54.501 22.5s20.5 33.833 20.5 56.5
c0 34.667 -13 62.667 -39 84s-68 32 -126 32c-22.667 0 -44 -4 -64 -12s-37.667 -19.5 -53 -34.5s-27.5 -32.833 -36.5 -53.5s-13.5 -43.334 -13.5 -68.001c0 -23.333 3 -45 9 -65s14.667 -38 26 -54c30.667 12 65 18 103 18c32 0 55.5 -5.83301 70.5 -17.5
s22.5 -27.167 22.5 -46.5c0 -22.667 -7.83301 -39 -23.5 -49s-35.5 -15 -59.5 -15c-22.667 0 -45 5.16699 -67 15.5s-42 25.166 -60 44.499c-34 -19.333 -60.5 -46.166 -79.5 -80.499s-28.5 -73.833 -28.5 -118.5c0 -36.667 6.33301 -69.334 19 -98.001
s30.834 -52.834 54.501 -72.501s51.834 -34.667 84.501 -45s69 -15.5 109 -15.5c34.667 0 67.667 6.16699 99 18.5s60.833 28.166 88.5 47.499s53.5 41.166 77.5 65.499s45.667 48.666 65 72.999s36.166 47.333 50.499 69l35.5 54.5c1.33301 2.66699 3.33301 5 6 7
s6.66699 3 12 3c12.667 0 19 -5.33301 19 -16c0 -4.66699 -1.33301 -9.66699 -4 -15l-4 -8c-12 -20.667 -26.667 -43.5 -44 -68.5s-36.833 -50 -58.5 -75s-45.334 -49.5 -71.001 -73.5s-53 -45.167 -82 -63.5s-59.333 -33 -91 -44s-64.5 -16.5 -98.5 -16.5zM317.002 373.007
c-28 0 -53.3311 -4 -75.998 -12c13.333 -12 27.166 -21.333 41.499 -28s29.166 -10 44.499 -10c12 0 22 2.33301 30 7s12 10.667 12 18c0 6.66699 -3.5 12.5 -10.5 17.5s-20.833 7.5 -41.5 7.5z" />
    <glyph glyph-name="F" unicode="F" horiz-adv-x="811" 
d="M296 -78c58.667 0 104.498 21.835 137.498 65.502s49.5 112.167 49.5 205.5v129c-11.333 7.33301 -21.833 13.5 -31.5 18.5s-20.167 7.5 -31.5 7.5c-9.33301 0 -17.833 -1.66699 -25.5 -5s-14.167 -7 -19.5 -11c-6.66699 -4.66699 -12 -9.66699 -16 -15
c-3.33301 -4.66699 -6.5 -8.16699 -9.5 -10.5s-6.5 -3.5 -10.5 -3.5c-4.66699 0 -9.16699 1.83301 -13.5 5.5s-6.5 8.5 -6.5 14.5c0 6.66699 2 12.667 6 18c7.33301 8 15.666 15.667 24.999 23c8 6 17.833 11.5 29.5 16.5s25.167 7.5 40.5 7.5c11.333 0 22.166 -2 32.499 -6
s20.5 -8.66699 30.5 -14c0 64.667 10.333 120.667 31 168s48.667 84.333 84 111c-28.667 7.33301 -56.834 15.666 -84.501 24.999s-55.167 18 -82.5 26s-54.666 14.833 -81.999 20.5s-54.666 8.5 -81.999 8.5c-61.333 0 -105.833 -14.833 -133.5 -44.5
s-41.5 -69.834 -41.5 -120.501c0 -18 2.83301 -35 8.5 -51s13.5 -29.833 23.5 -41.5s22 -20.834 36 -27.501s29.667 -10 47 -10c14.667 0 28.167 2.5 40.5 7.5s23 11.333 32 19s16 16.334 21 26.001s7.5 19.167 7.5 28.5c0 6.66699 1.5 12 4.5 16s8.83301 6 17.5 6
c7.33301 0 12.5 -2.5 15.5 -7.5s4.5 -9.83301 4.5 -14.5c0 -14.667 -3.33301 -29.167 -10 -43.5s-16.167 -27.333 -28.5 -39s-27.333 -21.167 -45 -28.5s-37.5 -11 -59.5 -11c-23.333 0 -44.666 4.33301 -63.999 13s-35.833 20.5 -49.5 35.5s-24.334 33 -32.001 54
s-11.5 43.833 -11.5 68.5c0 30 4.16699 57.667 12.5 83s21.333 47.166 39 65.499s40.167 32.666 67.5 42.999s60 15.5 98 15.5c36 0 70 -3.66699 102 -11s63.333 -16 94 -26l92 -30.5c30.667 -10.333 62.334 -18.833 95.001 -25.5c25.333 10.667 53.666 16 84.999 16
c28 0 47.333 -3.66699 58 -11s16 -15.666 16 -24.999c0 -20.667 -19 -31 -57 -31c-16 0 -31.833 0.666992 -47.5 2s-31.167 3.33301 -46.5 6c-39.333 -18.667 -71.333 -51 -96 -97s-37 -102.333 -37 -169v-25c10.667 -6.66699 21.834 -12.167 33.501 -16.5
s24.167 -6.5 37.5 -6.5c18.667 0 34.5 2.66699 47.5 8s23.5 11.666 31.5 18.999c9.33301 7.33301 17 16.333 23 27c2 3.33301 4.33301 7 7 11s6.66699 6 12 6c6.66699 0 11.834 -2 15.501 -6s5.5 -9 5.5 -15c0 -2.66699 -0.666992 -6 -2 -10
c-0.666992 -2 -1.33398 -3.33301 -2.00098 -4c-8 -14 -18.333 -26.667 -31 -38c-11.333 -9.33301 -25.666 -18 -42.999 -26s-38.666 -12 -63.999 -12c-14 0 -26.833 1.5 -38.5 4.5s-22.5 7.16699 -32.5 12.5v-104c0 -54 -5.33301 -100.5 -16 -139.5s-26 -71.167 -46 -96.5
s-44.167 -44.166 -72.5 -56.499s-59.833 -18.5 -94.5 -18.5c-26.667 0 -50.334 4.33301 -71.001 13s-38.167 20.334 -52.5 35.001s-25.166 32 -32.499 52s-11 41.667 -11 65c0 20 3.33301 38.667 10 56s16 32.333 28 45s26.5 22.5 43.5 29.5s35.5 10.5 55.5 10.5
c9.33301 0 16.666 -1.66699 21.999 -5s8 -8.66602 8 -15.999c0 -6 -2.16699 -11 -6.5 -15s-12.166 -6 -23.499 -6c-28.667 0 -51.667 -9.33301 -69 -28s-26 -42.334 -26 -71.001c0 -36 11.167 -65.667 33.5 -89s52.833 -35 91.5 -35z" />
    <glyph glyph-name="G" unicode="G" horiz-adv-x="838" 
d="M379 659c-38 0 -74.3291 -8.6709 -108.996 -26.0039s-65.167 -42.166 -91.5 -74.499s-47.333 -71.5 -63 -117.5s-23.5 -97.667 -23.5 -155c0 -54.667 6 -102.167 18 -142.5s28.5 -73.833 49.5 -100.5s46 -46.5 75 -59.5s60.5 -19.5 94.5 -19.5
c28.667 0 55.167 6.5 79.5 19.5s45.166 31.167 62.499 54.5c-5.33301 24 -9.5 49.333 -12.5 76s-4.5 55.667 -4.5 87c0 20.667 3.33301 39 10 55s20 24 40 24c18 0 32.167 -5.33301 42.5 -16s15.5 -26.667 15.5 -48c0 -38 -4.16699 -72.5 -12.5 -103.5
s-19.833 -58.833 -34.5 -83.5c3.33301 -16 7.16602 -32 11.499 -48s8.16602 -32 11.499 -48c35.333 20.667 68.5 45 99.5 73s59 56.667 84 86s46.833 57.333 65.5 84l45 66c1.33301 2.66699 3.33301 5 6 7s6.66699 3 12 3c12.667 0 19 -5.33301 19 -16
c0 -4.66699 -1.33301 -9.66699 -4 -15l-4 -8c-14.667 -24 -32.5 -50.5 -53.5 -79.5s-44.833 -58.167 -71.5 -87.5s-55.834 -57.5 -87.501 -84.5s-65.5 -50.5 -101.5 -70.5l1 -6c2 -12 3.66699 -23.667 5 -35s2 -22.666 2 -33.999c0 -26.667 -2.5 -51.167 -7.5 -73.5
s-12.333 -41.666 -22 -57.999s-21.667 -29.166 -36 -38.499s-30.833 -14 -49.5 -14c-30 0 -55 9 -75 27s-30 43 -30 75c0 18 4.33301 34.333 13 49s20.5 28.667 35.5 42s32.667 26.5 53 39.5l65.5 41.5c-2.66699 13.333 -5.66699 26.666 -9 39.999l-10 42
c-42 -44 -93.333 -66 -154 -66c-40 0 -77 7.5 -111 22.5s-63.5 37.667 -88.5 68s-44.5 68.333 -58.5 114s-21 98.834 -21 159.501c0 64 9 121.667 27 173s42 94.833 72 130.5s64.833 63.167 104.5 82.5s81.5 29 125.5 29c36 0 67.167 -4.5 93.5 -13.5
s47.833 -21.5 64.5 -37.5s29 -34.833 37 -56.5s12 -45.167 12 -70.5c0 -38 -11.667 -69.333 -35 -94s-54 -37 -92 -37c-16 0 -30.333 3 -43 9s-23.5 14 -32.5 24s-15.833 21 -20.5 33s-7 24 -7 36c0 4.66699 1.5 9.5 4.5 14.5s8.16699 7.5 15.5 7.5
c8 0 13.667 -2.16699 17 -6.5s5 -9.5 5 -15.5c0 -14 5.33301 -27.5 16 -40.5s25.667 -19.5 45 -19.5c25.333 0 45.833 8.5 61.5 25.5s23.5 38.167 23.5 63.5c0 42.667 -13 76 -39 100s-68 36 -126 36zM513.004 -184.004c0 15.333 -0.999023 30.666 -2.99902 45.999
l-54.5 -33c-16.333 -10 -30.333 -20 -42 -30s-20.667 -20.167 -27 -30.5s-9.5 -21.833 -9.5 -34.5c0 -19.333 5.66699 -34.166 17 -44.499s26.666 -15.5 45.999 -15.5c23.333 0 41.333 13.333 54 40s19 60.667 19 102zM491.005 200.996c0 -36 3.66699 -72.333 11 -109
c15.333 36.667 23 78 23 124c0 14.667 -6 22 -18 22c-6.66699 0 -11 -3.83301 -13 -11.5s-3 -16.167 -3 -25.5z" />
    <glyph glyph-name="H" unicode="H" horiz-adv-x="1083" 
d="M832 -17c-36 0 -64.3291 11.165 -84.9961 33.498s-36.334 51.166 -47.001 86.499s-17.334 75.333 -20.001 120s-4 89 -4 133v30c-35.333 -25.333 -74 -46.5 -116 -63.5s-84 -33.167 -126 -48.5v-81c0 -93.333 -15.333 -161.833 -46 -205.5s-71.667 -65.5 -123 -65.5
c-41.333 0 -73.833 13 -97.5 39s-35.5 59 -35.5 99c0 33.333 7 62.333 21 87s33 46.334 57 65.001s51.667 35 83 49s64.333 27.667 99 41v66c0 79.333 5.33301 143.333 16 192s25 84.667 43 108c-22.667 4 -44.667 9.66699 -66 17l-63 21
c-20.667 6.66699 -40.5 12.5 -59.5 17.5s-37.5 7.5 -55.5 7.5c-42 0 -71.667 -10.833 -89 -32.5s-26 -49.5 -26 -83.5c0 -25.333 7.83301 -46.666 23.5 -63.999s36.167 -26 61.5 -26c20 0 36.833 6.66699 50.5 20s20.5 27 20.5 41c0 6.66699 1.5 12 4.5 16s8.83301 6 17.5 6
c7.33301 0 12.5 -2.5 15.5 -7.5s4.5 -9.83301 4.5 -14.5c0 -12 -2.66699 -24 -8 -36s-12.833 -23 -22.5 -33s-21.5 -18 -35.5 -24s-29.667 -9 -47 -9c-38 0 -68.667 12.333 -92 37s-35 56 -35 94c0 22.667 3 43.5 9 62.5s15.333 35.5 28 49.5s29 25 49 33s43.667 12 71 12
s53.5 -3.66699 78.5 -11s49.667 -15.166 74 -23.499s49 -16.166 74 -23.499s51.5 -11 79.5 -11c6 0 11.667 -1.5 17 -4.5s8 -8.5 8 -16.5s-2.66699 -13.5 -8 -16.5s-11 -4.5 -17 -4.5c-11.333 -0.666992 -21.833 -6.33398 -31.5 -17.001s-18 -27.667 -25 -51
s-12.5 -53.333 -16.5 -90s-6 -81 -6 -133v-52c44 16.667 87.333 34.167 130 52.5s80.334 41.5 113.001 69.5c0.666992 36 2.66699 69.667 6 101s8.16602 58.666 14.499 81.999s14.666 41.833 24.999 55.5s23.166 20.5 38.499 20.5c10.667 0 19 -2.16699 25 -6.5
s10.667 -9.66602 14 -15.999s5.5 -13 6.5 -20s1.5 -13.5 1.5 -19.5c0 -48 -8.16699 -89.5 -24.5 -124.5s-37.833 -65.5 -64.5 -91.5c-0.666992 -10.667 -1 -21.334 -1 -32.001v-33c0 -40 1 -79.667 3 -119s7 -74.666 15 -105.999s19.5 -56.833 34.5 -76.5
s35.5 -29.5 61.5 -29.5c28 0 54 7 78 21s46.167 31.833 66.5 53.5s38.833 45.167 55.5 70.5s31.667 49.333 45 72c0.666992 1.33301 2 3 4 5c4 4 8.66699 6 14 6c12.667 0 19 -5.33301 19 -16c0 -4 -1.33301 -9.33301 -4 -16l-4 -8c-14 -24 -30.333 -49.333 -49 -76
s-39.334 -51.5 -62.001 -74.5s-47.667 -42 -75 -57s-56.666 -22.5 -87.999 -22.5zM265.004 -37.002c40 0 71.167 18.6689 93.5 56.002s33.5 95.666 33.5 174.999v64c-30 -11.333 -58.167 -23 -84.5 -35s-49.5 -25.833 -69.5 -41.5s-35.667 -33.334 -47 -53.001
s-17 -42.5 -17 -68.5c0 -28 8.16699 -51.167 24.5 -69.5s38.5 -27.5 66.5 -27.5zM759.004 657c-4.66699 0 -9.00195 -4.33398 -13.002 -13.001s-7.5 -20.5 -10.5 -35.5s-5.66699 -32.833 -8 -53.5s-4.16602 -43 -5.49902 -67c14.667 19.333 26 41.333 34 66
s12 52.334 12 83.001c0 3.33301 -0.666992 7.5 -2 12.5s-3.66602 7.5 -6.99902 7.5z" />
    <glyph glyph-name="I" unicode="I" horiz-adv-x="620" 
d="M123 385c0 31.333 5.99902 58.167 17.999 80.5s27.833 41.5 47.5 57.5s41.834 29.333 66.501 40s49.834 20.5 75.501 29.5l75 25.5c24.333 8 45.833 17 64.5 27c2.66699 10 5.83398 20.667 9.50098 32s8.5 21.833 14.5 31.5s13.167 17.667 21.5 24s18.833 9.5 31.5 9.5
c5.33301 0 10.5 -2.66699 15.5 -8s7.5 -13 7.5 -23c0 -21.333 -6.16699 -39.5 -18.5 -54.5s-28.166 -28.167 -47.499 -39.5c-5.33301 -29.333 -9.66602 -64.833 -12.999 -106.5s-5 -89.167 -5 -142.5v-125c0 -63.333 -5.83301 -118.333 -17.5 -165
s-28.334 -85.167 -50.001 -115.5s-47.834 -53 -78.501 -68s-65 -22.5 -103 -22.5c-32.667 0 -60.834 4.66699 -84.501 14s-43 21.833 -58 37.5s-26.167 33.5 -33.5 53.5s-11 41 -11 63c0 23.333 3.33301 44.833 10 64.5s16 36.667 28 51s26.5 25.5 43.5 33.5
s35.5 12 55.5 12c9.33301 0 16.666 -1.66699 21.999 -5s8 -8.66602 8 -15.999c0 -5.33301 -2.33301 -10.166 -7 -14.499s-12.334 -6.5 -23.001 -6.5c-28.667 0 -51.667 -11.333 -69 -34s-26 -51 -26 -85c0 -17.333 2.83301 -33.666 8.5 -48.999
s14.334 -28.666 26.001 -39.999s26.667 -20.5 45 -27.5s40.166 -10.5 65.499 -10.5c31.333 0 59.833 6.5 85.5 19.5s47.5 33.167 65.5 60.5s31.833 61.666 41.5 102.999s14.5 90.666 14.5 147.999v124c0 94 5 169.667 15 227c-30 -12 -62.167 -23.333 -96.5 -34
s-66.166 -23.334 -95.499 -38.001s-53.666 -32.834 -72.999 -54.501s-29 -49.5 -29 -83.5c0 -28.667 7.83301 -52.5 23.5 -71.5s36.167 -28.5 61.5 -28.5c21.333 0 38.5 6.66699 51.5 20s19.5 27 19.5 41c0 6.66699 1.5 12 4.5 16s8.83301 6 17.5 6
c7.33301 0 12.5 -2.5 15.5 -7.5s4.5 -9.83301 4.5 -14.5c0 -12 -2.66699 -24 -8 -36s-12.833 -23 -22.5 -33s-21.5 -18 -35.5 -24s-29.667 -9 -47 -9c-18.667 0 -35.834 3.5 -51.501 10.5s-29 16.833 -40 29.5s-19.667 27.667 -26 45s-9.5 36 -9.5 56z" />
    <glyph glyph-name="J" unicode="J" horiz-adv-x="677" 
d="M50 325c0 41.333 7.50586 76.334 22.5059 105.001s34.667 52.667 59 72s52 35 83 47s62.333 22.5 94 31.5l91.5 25.5c29.333 8 54.666 17.333 75.999 28c2 8 5 17.5 9 28.5s9 21.667 15 32s13.333 19.166 22 26.499s18.667 11 30 11c6.66699 0 12.5 -2.66699 17.5 -8
s7.5 -13 7.5 -23c0 -23.333 -6.16699 -42.5 -18.5 -57.5s-28.833 -27.833 -49.5 -38.5c-5.33301 -27.333 -9.33301 -60.666 -12 -99.999s-4 -85 -4 -137v-119c16 9.33301 29.333 16.666 40 21.999l22 11c4 2.66699 8 4 12 4c5.33301 0 10 -2.16699 14 -6.5
s6 -9.16602 6 -14.499s-0.833008 -9.16602 -2.5 -11.499s-3.83398 -4.5 -6.50098 -6.5c-3.33301 -2.66699 -8.5 -6 -15.5 -10s-14.667 -8.16699 -23 -12.5l-25 -13l-21.5 -11.5v-147c0 -62 -5.66699 -118.167 -17 -168.5s-27.333 -93.5 -48 -129.5
s-45.834 -63.833 -75.501 -83.5s-62.5 -29.5 -98.5 -29.5c-25.333 0 -48 4.16699 -68 12.5s-37 20 -51 35s-24.833 32.667 -32.5 53s-11.5 42.833 -11.5 67.5c0 28 5.66699 55.833 17 83.5s26.5 54.5 45.5 80.5s40.833 51 65.5 75s50.334 46.667 77.001 68
s53.334 41 80.001 59s51.667 34 75 48v144c0 89.333 5 161.666 15 216.999c-24 -8.66699 -49.833 -16.667 -77.5 -24s-55.334 -15.333 -83.001 -24s-54.334 -18.5 -80.001 -29.5s-48.334 -24.667 -68.001 -41s-35.5 -36 -47.5 -59s-18 -50.5 -18 -82.5
c0 -34.667 9.5 -63.334 28.5 -86.001s44.5 -34 76.5 -34c25.333 0 45.166 6.66699 59.499 20s21.5 27 21.5 41c0 6.66699 1.5 12 4.5 16s8.83301 6 17.5 6c7.33301 0 12.5 -2.5 15.5 -7.5s4.5 -9.83301 4.5 -14.5c0 -12 -2.83301 -24 -8.5 -36s-13.834 -23 -24.501 -33
s-23.667 -18 -39 -24s-32.333 -9 -51 -9c-22 0 -42 4 -60 12s-33.5 19.167 -46.5 33.5s-23 31.333 -30 51s-10.5 41.167 -10.5 64.5zM254.006 -315.999c30 0 57.168 9.00098 81.501 27.001s45 43.333 62 76s30.167 71.667 39.5 117s14 95.333 14 150v120
c-33.333 -20.667 -68.5 -44.667 -105.5 -72s-71.333 -56.833 -103 -88.5s-57.834 -64.834 -78.501 -99.501s-31 -69.334 -31 -104.001c0 -37.333 10.833 -67.666 32.5 -90.999s51.167 -35 88.5 -35z" />
    <glyph glyph-name="K" unicode="K" horiz-adv-x="1079" 
d="M828 -17c-34.667 0 -62.666 5.83203 -83.999 17.499s-38.833 27.167 -52.5 46.5s-24.5 41 -32.5 65l-24.5 72.5c-8.33301 24.333 -18 47.833 -29 70.5s-25.833 42.334 -44.5 59.001c-16 -11.333 -33.5 -21 -52.5 -29s-40.167 -13 -63.5 -15v-78
c0 -54 -5.33301 -100.5 -16 -139.5s-26 -71.167 -46 -96.5s-44.167 -44.166 -72.5 -56.499s-59.833 -18.5 -94.5 -18.5c-26.667 0 -50.334 4.16699 -71.001 12.5s-38 19.833 -52 34.5s-24.667 32 -32 52s-11 42 -11 66c0 20 3.33301 38.667 10 56s16 32.333 28 45
s26.5 22.5 43.5 29.5s35.5 10.5 55.5 10.5c9.33301 0 16.666 -1.66699 21.999 -5s8 -8.66602 8 -15.999c0 -6 -2.16699 -11 -6.5 -15s-12.166 -6 -23.499 -6c-28.667 0 -51.667 -9.33301 -69 -28s-26 -42.334 -26 -71.001c0 -38 11 -68.167 33 -90.5s52.333 -33.5 91 -33.5
c58.667 0 104.5 21.833 137.5 65.5s49.5 112.167 49.5 205.5v77c-18 2.66699 -32 9.5 -42 20.5s-15 24.833 -15 41.5c0 14.667 4.66699 27.667 14 39s23.666 19 42.999 23c1.33301 72 7.33301 130.167 18 174.5s24.667 77.166 42 98.499c-22 4 -43.5 9.66699 -64.5 17
l-62.5 21c-20.667 6.66699 -40.834 12.5 -60.501 17.5s-38.834 7.5 -57.501 7.5c-40 0 -69.167 -10.5 -87.5 -31.5s-27.5 -49.167 -27.5 -84.5c0 -25.333 7.83301 -46.666 23.5 -63.999s36.167 -26 61.5 -26c20.667 0 37.667 6.66699 51 20s20 27 20 41
c0 6.66699 1.5 12 4.5 16s8.83301 6 17.5 6c13.333 0 20 -7.33301 20 -22c0 -12 -2.66699 -24 -8 -36s-12.833 -23 -22.5 -33s-21.5 -18 -35.5 -24s-29.667 -9 -47 -9c-38 0 -68.667 12.333 -92 37s-35 56 -35 94c0 22.667 3 43.5 9 62.5s15.333 35.5 28 49.5s29 25 49 33
s43.667 12 71 12s53.333 -3.5 78 -10.5s49.167 -14.833 73.5 -23.5s49 -16.667 74 -24s51.833 -11 80.5 -11c6 0 11.667 -1.5 17 -4.5s8 -8.5 8 -16.5s-2.66699 -13.5 -8 -16.5s-11 -4.5 -17 -4.5c-22 0 -40.167 -23.5 -54.5 -70.5s-22.5 -111.5 -24.5 -193.5
c24.667 -1.33301 46.334 -4.33301 65.001 -9s35.667 -11.334 51 -20.001c19.333 18.667 36.333 40.167 51 64.5s28.334 49.5 41.001 75.5l36.5 76.5c11.667 25 24.334 47.333 38.001 67s28.5 35.5 44.5 47.5s34.667 18 56 18c6 0 11.667 -1.5 17 -4.5s8 -8.5 8 -16.5
s-2.66699 -13.5 -8 -16.5s-11 -4.5 -17 -4.5c-14.667 0 -28 -5.5 -40 -16.5s-23.333 -25.5 -34 -43.5s-21.334 -38.5 -32.001 -61.5s-22.334 -46.833 -35.001 -71.5s-26.5 -49 -41.5 -73s-32.167 -45.667 -51.5 -65c18.667 -17.333 33.834 -37.166 45.501 -59.499
s21.667 -45.333 30 -69l24 -69.5c7.66699 -22.667 17 -42.834 28 -60.501s24.833 -32 41.5 -43s38.334 -16.5 65.001 -16.5c28 0 54 7 78 21s46.167 31.833 66.5 53.5s38.833 45.167 55.5 70.5s31.667 49.333 45 72c0.666992 1.33301 2 3 4 5c4 4 8.66699 6 14 6
c12.667 0 19 -5.33301 19 -16c0 -4 -1.33301 -9.33301 -4 -16l-4 -8c-14 -24 -30.333 -49.333 -49 -76s-39.334 -51.5 -62.001 -74.5s-47.667 -42 -75 -57s-56.666 -22.5 -87.999 -22.5zM445.001 310.999c15.333 1.33301 29.668 4.33301 43.001 9s25.666 10.667 36.999 18
c-11.333 5.33301 -23.5 9.5 -36.5 12.5s-27.5 4.83301 -43.5 5.5v-45zM383.003 333.999c0 -6 1.83301 -11.168 5.5 -15.501s9.5 -7.16602 17.5 -8.49902v44c-15.333 -1.33301 -23 -8 -23 -20z" />
    <glyph glyph-name="L" unicode="L" horiz-adv-x="861" 
d="M539 -78c-24 0 -46.334 4.16602 -67.001 12.499s-40.834 18.833 -60.501 31.5s-38.667 25.834 -57 39.501s-36.833 26.167 -55.5 37.5c-13.333 -19.333 -29.166 -34.666 -47.499 -45.999s-40.166 -17 -65.499 -17c-8 0 -16.333 1 -25 3s-16.5 5.5 -23.5 10.5
s-12.667 11.333 -17 19s-6.5 17.5 -6.5 29.5c0 26 9.33301 44.667 28 56s40 17 64 17c25.333 0 50.666 -5.33301 75.999 -16c16 34.667 27.667 76.5 35 125.5s12.666 99.167 15.999 150.5c-32 -9.33301 -65.667 -14 -101 -14c-31.333 0 -58.333 4.16699 -81 12.5
s-41.5 19.833 -56.5 34.5s-26.167 32.334 -33.5 53.001s-11 43.334 -11 68.001c0 22 3.33301 41.833 10 59.5s15.5 32.5 26.5 44.5s23.167 21.333 36.5 28s26.666 10 39.999 10c14.667 0 22 -6.33301 22 -19c0 -14 -7.33301 -21 -22 -21
c-7.33301 0 -15.166 -2.33301 -23.499 -7s-16 -11.5 -23 -20.5s-12.833 -19.833 -17.5 -32.5s-7 -26.667 -7 -42c0 -38.667 11.167 -69.5 33.5 -92.5s57.833 -34.5 106.5 -34.5c39.333 0 74 6 104 18l2 21c4.66699 46.667 8.5 87.5 11.5 122.5s7.33301 64.167 13 87.5
s13.167 40.666 22.5 51.999s22.666 17 39.999 17c24.667 0 43.334 -9.5 56.001 -28.5s19 -43.167 19 -72.5c0 -55.333 -11 -101.833 -33 -139.5s-52 -66.5 -90 -86.5c-2 -28 -4.33301 -56.333 -7 -85s-6.16699 -56.5 -10.5 -83.5s-9.66602 -52.833 -15.999 -77.5
s-14.166 -47 -23.499 -67c19.333 -11.333 37.833 -23.666 55.5 -36.999s35.334 -25.833 53.001 -37.5s35.5 -21.5 53.5 -29.5s37 -12 57 -12c26 0 51 5.16699 75 15.5s46.333 23.666 67 39.999s40 34.666 58 54.999s34.333 40.833 49 61.5s27.5 40.334 38.5 59.001l28.5 47
c1.33301 2.66699 3.33301 5 6 7s6.66699 3 12 3c12.667 0 19 -5.33301 19 -16c0 -4.66699 -1.33301 -9.66699 -4 -15l-4 -8c-16 -26 -35.333 -55.833 -58 -89.5s-48.334 -65.334 -77.001 -95.001s-60.667 -54.834 -96 -75.501s-73.333 -31 -114 -31zM457.999 618.999
c0 18.667 -3.16797 33.1641 -9.50098 43.4971s-14.166 15.5 -23.499 15.5c-8 0 -14.333 -6.16699 -19 -18.5s-8.66699 -29.166 -12 -50.499s-6 -46.166 -8 -74.499s-4 -58.166 -6 -89.499c25.333 18 44.833 41.5 58.5 70.5s20.167 63.5 19.5 103.5zM185.998 21.9961
c15.333 0 29.334 3.5 42.001 10.5s23.667 16.833 33 29.5c-18.667 7.33301 -37 11 -55 11c-13.333 0 -25 -2.33301 -35 -7s-15 -12.667 -15 -24c0 -7.33301 3.16699 -12.5 9.5 -15.5s13.166 -4.5 20.499 -4.5z" />
    <glyph glyph-name="M" unicode="M" horiz-adv-x="1424" 
d="M1173 -19c-49.333 0 -89.0029 14.8281 -119.003 44.4951s-53.167 68.167 -69.5 115.5s-27.333 100.666 -33 159.999s-8.5 119 -8.5 179v65l-80.5 -97c-28.333 -32.667 -52.5 -65 -72.5 -97c7.33301 -17.333 13 -34.333 17 -51s6 -33.334 6 -50.001
c0 -14.667 -4.66699 -28.167 -14 -40.5s-21.666 -18.5 -36.999 -18.5c-14 0 -26 4.66699 -36 14s-15 22.666 -15 39.999c0.666992 17.333 3.83398 34.833 9.50098 52.5s13.167 35.5 22.5 53.5c-13.333 25.333 -29.833 51.333 -49.5 78l-58.5 80
c-4.66699 -47.333 -11.5 -96.5 -20.5 -147.5s-20.833 -100.667 -35.5 -149s-32.334 -94.166 -53.001 -137.499s-44.5 -81.5 -71.5 -114.5s-57.333 -59 -91 -78s-70.834 -28.5 -111.501 -28.5c-33.333 0 -62.666 5.83301 -87.999 17.5s-46.5 27.167 -63.5 46.5
s-29.667 41.333 -38 66s-12.5 50 -12.5 76c0 24.667 3.33301 48.834 10 72.501s17.167 44.667 31.5 63s32.666 33 54.999 44s49.166 16.5 80.499 16.5c30.667 0 55.667 -6.16699 75 -18.5s34.333 -26.166 45 -41.499c12 -17.333 21 -37.333 27 -60
c1.33301 -7.33301 -0.166992 -13.666 -4.5 -18.999s-10.166 -8 -17.499 -8s-12.166 2.33301 -14.499 7s-4.16602 8.66699 -5.49902 12c-4.66699 16 -11.334 30 -20.001 42c-7.33301 10.667 -18 20.5 -32 29.5s-31.667 13.5 -53 13.5c-24 0 -44.333 -4.33301 -61 -13
s-30.5 -20.167 -41.5 -34.5s-19 -30.666 -24 -48.999s-7.5 -37.166 -7.5 -56.499c0 -21.333 3.5 -42 10.5 -62s17.167 -37.5 30.5 -52.5s30 -27 50 -36s42.667 -13.5 68 -13.5c38.667 0 73.667 10.833 105 32.5s59.333 50.334 84 86.001s46.167 76.5 64.5 122.5
s33.833 93.5 46.5 142.5s22.667 97.667 30 146s12.666 92.5 15.999 132.5c-19.333 26.667 -35.333 51.834 -48 75.501s-19 45.167 -19 64.5c0 13.333 3.5 25.833 10.5 37.5s19.5 17.5 37.5 17.5c12.667 0 23 -2.83301 31 -8.5s14.333 -13.5 19 -23.5
s7.83398 -21.833 9.50098 -35.5s2.5 -28.834 2.5 -45.501c0 -10.667 -0.166992 -21.667 -0.5 -33s-0.833008 -22.666 -1.5 -33.999l66.5 -86c23.667 -30 44.834 -61.333 63.501 -94c13.333 20.667 27.833 41 43.5 61l47.5 58.5l46.5 54.5c15 17.333 28.167 34 39.5 50
c2.66699 42 7.33398 75.167 14.001 99.5s16.667 36.5 30 36.5c8 0 13.667 -4 17 -12s5 -18.667 5 -32c0 -14.667 -1.66699 -31.834 -5 -51.501s-10.666 -38.167 -21.999 -55.5c0.666992 -18.667 1 -38.334 1 -59.001v-63c0 -54.667 2.33301 -109.167 7 -163.5
s13.667 -103.333 27 -147s32.166 -79 56.499 -106s56.5 -40.5 96.5 -40.5c28 0 54 7.16699 78 21.5s46.167 32.333 66.5 54s38.833 45.334 55.5 71.001s31.667 49.834 45 72.501c0.666992 1.33301 2 3 4 5c4 4 8.66699 6 14 6c12.667 0 19 -5.33301 19 -16
c0 -4 -1.33301 -9.33301 -4 -16l-4 -8c-14 -24 -30.333 -49.5 -49 -76.5s-39.334 -52 -62.001 -75s-47.667 -42.167 -75 -57.5s-56.666 -23 -87.999 -23zM566.997 693.995c0 -10.667 3.33301 -21.5 10 -32.5s15 -23.833 25 -38.5v17c0 18 -1.33301 34.667 -4 50
s-8.66699 23 -18 23c-8.66699 0 -13 -6.33301 -13 -19zM749.997 240.995c0 -6.66699 1.33203 -11.167 3.99902 -13.5s5.33398 -3.5 8.00098 -3.5c8 0 12 9.33301 12 28c0 8 -0.833008 16.333 -2.5 25s-4.16699 17.667 -7.5 27c-9.33301 -20.667 -14 -41.667 -14 -63z" />
    <glyph glyph-name="N" unicode="N" horiz-adv-x="1109" 
d="M858 -18c-28 0 -50.168 12 -66.501 36s-28.666 55 -36.999 93s-14.166 81 -17.499 129s-6.33301 96 -9 144l-6 102c-2 32.667 -5.16699 61.5 -9.5 86.5s-10.5 45 -18.5 60s-18.333 22.5 -31 22.5c-20.667 0 -42 -13.167 -64 -39.5s-43.333 -60.333 -64 -102
s-39.834 -88.5 -57.501 -140.5s-32.5 -104 -44.5 -156c1.33301 -22 1.33301 -44.667 0 -68s-2 -47.333 -2 -72c0 -18 -0.833008 -35 -2.5 -51s-4 -30.167 -7 -42.5s-7 -22.166 -12 -29.499s-10.833 -11 -17.5 -11c-8 0 -13.5 5.5 -16.5 16.5s-4.5 26.833 -4.5 47.5
c0 28.667 1 56 3 82s4.33301 48.667 7 68c2.66699 22.667 6 44 10 64c-4.66699 71.333 -12.5 135.166 -23.5 191.499s-25.167 104 -42.5 143s-37.666 68.667 -60.999 89s-49 30.5 -77 30.5c-33.333 0 -57.5 -8.5 -72.5 -25.5s-22.5 -40.5 -22.5 -70.5
c0 -22.667 6 -41.5 18 -56.5s27.667 -22.5 47 -22.5s34.333 6.5 45 19.5s16 26.5 16 40.5c0 6 1.5 11.167 4.5 15.5s8.83301 6.5 17.5 6.5c7.33301 0 12.5 -2.5 15.5 -7.5s4.5 -9.83301 4.5 -14.5c0 -12 -2.33301 -24 -7 -36s-11.5 -23 -20.5 -33s-19.833 -18 -32.5 -24
s-27 -9 -43 -9c-32 0 -57.833 11.5 -77.5 34.5s-29.5 51.833 -29.5 86.5c0 19.333 2.66699 37.5 8 54.5s13.5 31.667 24.5 44s25.167 22 42.5 29s38 10.5 62 10.5c62.667 0 113.667 -32.833 153 -98.5s66.666 -158.5 81.999 -278.5c14 46 29.833 90.333 47.5 133
s36.667 80.667 57 114s41.666 60 63.999 80s45.166 30 68.499 30c26 0 46 -8.33301 60 -25s24.333 -39.167 31 -67.5s11 -61.333 13 -99s4.33301 -77.5 7 -119.5l8 -127.5c2.66699 -43 6.83398 -81.833 12.501 -116.5s13.834 -63 24.501 -85s25 -33 43 -33
c28 0 54 7.16699 78 21.5s46.167 32.166 66.5 53.499s38.833 44.833 55.5 70.5s31.667 49.834 45 72.501c0.666992 1.33301 2 3 4 5c4 4 8.66699 6 14 6c12.667 0 19 -5.33301 19 -16c0 -4 -1.33301 -9.33301 -4 -16l-4 -8c-14 -24 -30.333 -49.5 -49 -76.5
s-39.334 -52 -62.001 -75s-47.667 -42 -75 -57s-56.666 -22.5 -87.999 -22.5z" />
    <glyph glyph-name="O" unicode="O" horiz-adv-x="807" 
d="M369 -128c-46 0 -88.502 8.83789 -127.502 26.5049s-72.667 44.5 -101 80.5s-50.5 81.167 -66.5 135.5s-24 118.166 -24 191.499c0 68 10.5 128 31.5 180s48.833 95 83.5 129c3.33301 3.33301 7 6.33301 11 9s8.66699 4 14 4c12.667 0 19 -5.33301 19 -16
c0 -6 -1.16699 -10.667 -3.5 -14s-5.5 -7 -9.5 -11c-32 -32 -57.333 -71.167 -76 -117.5s-28 -100.833 -28 -163.5c0 -66.667 7 -124.667 21 -174s33.167 -90.166 57.5 -122.499s53.5 -56.333 87.5 -72s71 -23.5 111 -23.5s76.833 7.83301 110.5 23.5s62.667 39.667 87 72
s43.5 73.166 57.5 122.499s21 107.333 21 174c0 42 -6 80.667 -18 116s-28.5 66 -49.5 92s-45.833 46.333 -74.5 61s-60 22 -94 22c-27.333 0 -52.166 -5.16699 -74.499 -15.5s-41.166 -24.5 -56.499 -42.5s-27.166 -39 -35.499 -63s-12.5 -50 -12.5 -78
c0 -16.667 2.33301 -32.667 7 -48s11.167 -29 19.5 -41s18.333 -21.5 30 -28.5s24.167 -10.5 37.5 -10.5c15.333 0 28 2.5 38 7.5s17.833 11.167 23.5 18.5s9.66699 15.166 12 23.499s3.5 15.5 3.5 21.5s1.66699 11.333 5 16s8.66602 7 15.999 7s12.666 -2.33301 15.999 -7
s5 -10 5 -16c0 -10.667 -1.83301 -22.5 -5.5 -35.5s-10 -25.333 -19 -37s-21.167 -21.334 -36.5 -29.001s-34.666 -11.5 -57.999 -11.5c-20 0 -38.333 4.5 -55 13.5s-31 21.333 -43 37s-21.333 33.667 -28 54s-10 42.166 -10 65.499c0 34 5.16699 65.667 15.5 95
s25 54.833 44 76.5s42.167 38.667 69.5 51s58 18.5 92 18.5c40 0 76.833 -8.33301 110.5 -25s63 -39.834 88 -69.501s44.5 -64.834 58.5 -105.501s21 -85 21 -133c0 -73.333 -8 -137.166 -24 -191.499s-38.167 -99.5 -66.5 -135.5s-61.833 -62.833 -100.5 -80.5
s-81 -26.5 -127 -26.5z" />
    <glyph glyph-name="P" unicode="P" horiz-adv-x="820" 
d="M494 601c14.667 0 22 -6.99707 22 -20.9971c0 -4.66699 -1.66699 -9.16699 -5 -13.5s-8.33301 -6.5 -15 -6.5c-20.667 0 -37.667 -12.667 -51 -38s-20 -67 -20 -125v-155c48.667 0.666992 93.334 5.83398 134.001 15.501s75.667 23.834 105 42.501
s52.333 41.834 69 69.501s25 60.167 25 97.5c0 27.333 -6.5 53.333 -19.5 78s-33.333 46.5 -61 65.5s-63 34 -106 45s-94.167 16.5 -153.5 16.5c-50.667 0 -94.5 -5.16699 -131.5 -15.5s-67.667 -24.5 -92 -42.5s-42.333 -39.667 -54 -65s-17.5 -53 -17.5 -83
c0 -32 7.83301 -58.167 23.5 -78.5s36.167 -30.5 61.5 -30.5c20.667 0 37.667 5.5 51 16.5s20 22.167 20 33.5c0 5.33301 1.5 10.333 4.5 15s8.83301 7 17.5 7c7.33301 0 12.5 -2.16699 15.5 -6.5s4.5 -9.5 4.5 -15.5c0 -10.667 -2.66699 -21.5 -8 -32.5
s-12.833 -20.833 -22.5 -29.5s-21.5 -15.834 -35.5 -21.501s-29.667 -8.5 -47 -8.5c-18.667 0 -35.834 3.83301 -51.501 11.5s-29 18.167 -40 31.5s-19.667 29.166 -26 47.499s-9.5 38.5 -9.5 60.5c0 36 7 69.167 21 99.5s35 56.5 63 78.5s63 39.167 105 51.5
s91.333 18.5 148 18.5c66 0 123 -6.5 171 -19.5s87.667 -30.667 119 -53s54.5 -48.5 69.5 -78.5s22.5 -62 22.5 -96c0 -44 -9.33301 -82.667 -28 -116s-44.5 -61 -77.5 -83s-72.5 -38.667 -118.5 -50s-96.333 -17.333 -151 -18c-2 -101.333 -21.667 -179.666 -59 -234.999
s-87 -83.333 -149 -84c-26.667 0 -50.334 4.16699 -71.001 12.5s-38.167 19.666 -52.5 33.999s-25.166 31.666 -32.499 51.999s-11 42.5 -11 66.5c0 20 3.33301 38.667 10 56s16 32.333 28 45s26.5 22.5 43.5 29.5s35.5 10.5 55.5 10.5c9.33301 0 16.666 -1.66699 21.999 -5
s8 -8.66602 8 -15.999c0 -6 -2.16699 -11 -6.5 -15s-12.166 -6 -23.499 -6c-28.667 0 -51.667 -9.33301 -69 -28s-26 -42.334 -26 -71.001c0 -38 11 -68.167 33 -90.5s52.333 -33.5 91 -33.5c25.333 0 48.333 6.66699 69 20s38.167 32.666 52.5 57.999
s25.5 56.166 33.5 92.499s12 77.5 12 123.5v181c0 36.667 2.83301 68 8.5 94s13.5 47.167 23.5 63.5s21.667 28.166 35 35.499s28 11 44 11z" />
    <glyph glyph-name="Q" unicode="Q" horiz-adv-x="852" 
d="M50 375c0 55.333 8.67188 105.993 26.0049 151.993s41.5 85.5 72.5 118.5s67.667 58.667 110 77s88.5 27.5 138.5 27.5c54.667 0 104 -9.5 148 -28.5s81.5 -45.667 112.5 -80s54.833 -75.5 71.5 -123.5s25 -100.667 25 -158c0 -43.333 -6.5 -87.166 -19.5 -131.499
s-31.833 -86.666 -56.5 -126.999s-55 -77.166 -91 -110.499s-77.333 -60.666 -124 -81.999c26.667 -20 55.667 -40 87 -60s67.5 -38 108.5 -54s87.833 -29 140.5 -39s114 -15 184 -15c16 0 24 -7 24 -21c0 -5.33301 -1.83301 -10.166 -5.5 -14.499
s-9.83398 -6.5 -18.501 -6.5c-76.667 0 -143.834 6 -201.501 18s-108.667 27.333 -153 46s-83.333 39.334 -117 62.001s-64.834 44.667 -93.501 66c-26 -9.33301 -53.333 -16.5 -82 -21.5s-58.667 -7.5 -90 -7.5c-30.667 0 -56.667 2.83301 -78 8.5
s-38.833 13.167 -52.5 22.5s-23.667 19.5 -30 30.5s-9.5 22.167 -9.5 33.5c0 26 8.83301 46.5 26.5 61.5s44.167 22.5 79.5 22.5c26 0 49.833 -2.66699 71.5 -8s42.167 -12.833 61.5 -22.5s38 -20.834 56 -33.501l55 -40c45.333 18.667 85.833 43.834 121.5 75.501
s65.667 66.5 90 104.5s42.833 78 55.5 120s19 83 19 123c0 51.333 -7.33301 98.333 -22 141s-35.667 79.334 -63 110.001s-60.5 54.5 -99.5 71.5s-82.5 25.5 -130.5 25.5c-44.667 0 -85.667 -8.33301 -123 -25s-69.5 -40 -96.5 -70s-48 -65.667 -63 -107
s-22.5 -87 -22.5 -137c0 -78.667 18.833 -138.167 56.5 -178.5s87.5 -60.5 149.5 -60.5c23.333 0 44.666 3.5 63.999 10.5s36 16.833 50 29.5s25 27.834 33 45.501s12 37.5 12 59.5c0 14.667 -2.16699 28.167 -6.5 40.5s-9.83301 23 -16.5 32s-14.167 16 -22.5 21
s-16.5 7.5 -24.5 7.5c-6.66699 0 -12 1.5 -16 4.5s-6 8.83301 -6 17.5c0 7.33301 2.5 12.5 7.5 15.5s9.83301 4.5 14.5 4.5c13.333 0 26.666 -3.33301 39.999 -10s25.333 -16.167 36 -28.5s19.334 -27.333 26.001 -45s10 -37.5 10 -59.5c0 -28 -5 -53.333 -15 -76
s-23.833 -42.334 -41.5 -59.001s-38.834 -29.5 -63.501 -38.5s-51.667 -13.5 -81 -13.5c-36 0 -69.167 6 -99.5 18s-56.5 30 -78.5 54s-39.167 53.833 -51.5 89.5s-18.5 77.5 -18.5 125.5zM246.005 -98.0068c23.333 0 45.999 1.66504 67.999 4.99805s43.333 8 64 14
c-31.333 22.667 -62.166 41.334 -92.499 56.001s-64.833 22 -103.5 22c-20.667 0 -36.5 -3.66699 -47.5 -11s-16.5 -17.666 -16.5 -30.999s9.83301 -25.833 29.5 -37.5s52.5 -17.5 98.5 -17.5z" />
    <glyph glyph-name="R" unicode="R" horiz-adv-x="1091" 
d="M810 -17c-37.333 0 -66.333 8.33105 -87 24.998s-38 37.167 -52 61.5s-26.833 50.5 -38.5 78.5s-27.167 53 -46.5 75c-21.333 -7.33301 -43.666 -13.166 -66.999 -17.499s-48 -6.5 -74 -6.5c-0.666992 -57.333 -6.5 -106.666 -17.5 -147.999s-26.333 -75.5 -46 -102.5
s-43.5 -46.833 -71.5 -59.5s-59.333 -19 -94 -19c-26.667 0 -50.334 4.16699 -71.001 12.5s-38 19.833 -52 34.5s-24.667 32 -32 52s-11 42 -11 66c0 20 3.33301 38.667 10 56s16 32.333 28 45s26.5 22.5 43.5 29.5s35.5 10.5 55.5 10.5
c9.33301 0 16.666 -1.66699 21.999 -5s8 -8.66602 8 -15.999c0 -6 -2.16699 -11 -6.5 -15s-12.166 -6 -23.499 -6c-28 0 -50.833 -9.33301 -68.5 -28s-26.5 -42.334 -26.5 -71.001c0 -36 10.333 -65.667 31 -89s51.667 -35 93 -35c28 0 53.5 5.66699 76.5 17
s42.667 28.833 59 52.5s29 53.834 38 90.501s13.5 80.667 13.5 132c-18 4.66699 -32 12.334 -42 23.001s-15 23.667 -15 39c0 13.333 4.66699 25.5 14 36.5s23.666 18.5 42.999 22.5v73c0 36.667 2.83301 68 8.5 94s13.5 47.167 23.5 63.5s21.667 28.166 35 35.499
s28 11 44 11c14.667 0 22 -7 22 -21c0 -13.333 -6.66699 -20 -20 -20c-20.667 0 -37.667 -12.667 -51 -38s-20 -67 -20 -125v-71c36 -1.33301 66.167 -6.83301 90.5 -16.5s45.166 -22.167 62.499 -37.5c42 19.333 75.833 46 101.5 80s38.5 72.333 38.5 115
c0 27.333 -4.16699 53.333 -12.5 78s-23.666 46.5 -45.999 65.5s-53 34 -92 45s-88.833 16.5 -149.5 16.5c-50 0 -93.333 -5.16699 -130 -15.5s-67.334 -24.5 -92.001 -42.5s-43 -39.667 -55 -65s-18 -53 -18 -83c0 -32 7.83301 -58.167 23.5 -78.5s36.167 -30.5 61.5 -30.5
c22 0 39.333 5.83301 52 17.5s19 22.5 19 32.5c0 6.66699 1.5 12 4.5 16s8.83301 6 17.5 6c7.33301 0 12.5 -2.5 15.5 -7.5s4.5 -9.83301 4.5 -14.5c0 -10.667 -2.66699 -21.5 -8 -32.5s-12.833 -20.833 -22.5 -29.5s-21.5 -15.834 -35.5 -21.501s-29.667 -8.5 -47 -8.5
c-18.667 0 -35.834 3.83301 -51.501 11.5s-29 18.167 -40 31.5s-19.667 29.166 -26 47.499s-9.5 38.5 -9.5 60.5c0 36 7 69.167 21 99.5s35 56.5 63 78.5s63 39.167 105 51.5s91.333 18.5 148 18.5c66 0 120.833 -6.5 164.5 -19.5s78.667 -30.667 105 -53s45 -48.5 56 -78.5
s16.5 -62 16.5 -96c0 -48 -13.5 -92 -40.5 -132s-64.5 -71.667 -112.5 -95c16.667 -22 30.334 -45.667 41.001 -71s21.834 -48.666 33.501 -69.999s25.667 -39 42 -53s38.5 -21 66.5 -21c31.333 0 60.5 7 87.5 21s51.833 31.833 74.5 53.5s43.334 45.167 62.001 70.5l51 72
c0.666992 1.33301 2 3 4 5c4 4 8.66699 6 14 6c12.667 0 19 -5.33301 19 -16c0 -4 -1.33301 -9.33301 -4 -16l-4 -8c-16 -24 -34.333 -49.333 -55 -76s-43.667 -51.5 -69 -74.5s-53 -42 -83 -57s-62.333 -22.5 -97 -22.5zM445 238.998
c18.667 0 36.8311 1.33398 54.498 4.00098s34.834 6.33398 51.501 11.001c-13.333 9.33301 -28.666 16.666 -45.999 21.999s-37.333 8.66602 -60 9.99902v-47zM382.997 264.999c0 -6 1.83301 -11.168 5.5 -15.501s9.5 -7.16602 17.5 -8.49902v44
c-15.333 -1.33301 -23 -8 -23 -20z" />
    <glyph glyph-name="S" unicode="S" horiz-adv-x="691" 
d="M92 74c0 -26.667 5.33203 -49.999 15.999 -69.999s25.167 -36.667 43.5 -50s39.666 -23.333 63.999 -30s50.166 -10 77.499 -10c30 0 59.167 4 87.5 12s53.5 20 75.5 36s39.667 35.833 53 59.5s20 51.167 20 82.5c0 40 -8.83301 73.833 -26.5 101.5s-40 52.167 -67 73.5
s-56 40.833 -87 58.5s-60 36.334 -87 56.001s-49.333 41.834 -67 66.501s-26.5 54.667 -26.5 90c0 45.333 16 81.333 48 108s75.333 40.667 130 42c50 0.666992 90.333 -10.5 121 -33.5s46 -53.833 46 -92.5c0 -32 -8.66699 -57.833 -26 -77.5s-39 -29.5 -65 -29.5
c-13.333 0 -20 7.33301 -20 22c0 13.333 6.66699 20 20 20c14.667 0 26.5 6 35.5 18s13.5 27.667 13.5 47c0 23.333 -10.333 43.166 -31 59.499s-52 24.5 -94 24.5c-40 0 -72.667 -9.33301 -98 -28s-38 -45.334 -38 -80.001c0 -29.333 8.83301 -54.666 26.5 -75.999
s40 -41 67 -59s56 -36 87 -54s60 -38.667 87 -62s49.333 -50.5 67 -81.5s26.5 -68.833 26.5 -113.5c0 -38 -7.83301 -71.5 -23.5 -100.5s-36.5 -53.167 -62.5 -72.5s-55.667 -34 -89 -44s-67.666 -15 -102.999 -15c-39.333 0 -74.166 5.16699 -104.499 15.5
s-55.666 24.666 -75.999 42.999s-35.833 39.833 -46.5 64.5s-16 51 -16 79c0 20.667 3.66699 40.667 11 60s18.166 36.333 32.499 51s31.833 26.5 52.5 35.5s44.334 13.5 71.001 13.5c29.333 0 54.833 -5.16699 76.5 -15.5s40.167 -21.833 55.5 -34.5
c17.333 -14.667 32.333 -31 45 -49c3.33301 -4 5 -9.33301 5 -16s-2 -11.834 -6 -15.501s-8.33301 -5.5 -13 -5.5c-7.33301 0 -13.333 3 -18 9c-10 16 -22 30 -36 42c-12 10.667 -27.167 20.5 -45.5 29.5s-39.5 13.5 -63.5 13.5c-20 0 -37.833 -3.33301 -53.5 -10
s-28.667 -15.5 -39 -26.5s-18.333 -23.5 -24 -37.5s-8.5 -28.667 -8.5 -44z" />
    <glyph glyph-name="T" unicode="T" horiz-adv-x="719" 
d="M267 769c36 0 69.998 -3.66406 101.998 -10.9971s63.333 -16 94 -26l92 -30.5c30.667 -10.333 62.334 -18.833 95.001 -25.5c7.33301 1.33301 15.333 3 24 5c7.33301 1.33301 16.333 2.5 27 3.5s22 1.5 34 1.5c49.333 0 74 -10 74 -30c0 -9.33301 -5.5 -16.333 -16.5 -21
s-26.167 -7 -45.5 -7c-12 0 -23.5 0.166992 -34.5 0.5s-20.5 0.833008 -28.5 1.5c-9.33301 0.666992 -18 1.66699 -26 3c-39.333 -18.667 -71.333 -51 -96 -97s-37 -102.333 -37 -169v-175c0 -54 -5.33301 -100.5 -16 -139.5s-26 -71.167 -46 -96.5
s-44.167 -44.166 -72.5 -56.499s-59.833 -18.5 -94.5 -18.5c-26.667 0 -50.334 4.33301 -71.001 13s-38.167 20.334 -52.5 35.001s-25.166 32 -32.499 52s-11 41.667 -11 65c0 20 3.33301 38.667 10 56s16 32.333 28 45s26.5 22.5 43.5 29.5s35.5 10.5 55.5 10.5
c9.33301 0 16.666 -1.66699 21.999 -5s8 -8.66602 8 -15.999c0 -6 -2.16699 -11 -6.5 -15s-12.166 -6 -23.499 -6c-28.667 0 -51.667 -9.33301 -69 -28s-26 -42.334 -26 -71.001c0 -36 11.167 -65.667 33.5 -89s52.833 -35 91.5 -35c58.667 0 104.5 21.833 137.5 65.5
s49.5 112.167 49.5 205.5v174c0 65.333 10.333 121.666 31 168.999s48.667 84.333 84 111c-28.667 7.33301 -56.834 15.666 -84.501 24.999s-55.167 18 -82.5 26s-54.666 14.833 -81.999 20.5s-54.666 8.5 -81.999 8.5c-61.333 0 -105.833 -14.833 -133.5 -44.5
s-41.5 -69.834 -41.5 -120.501c0 -18 2.83301 -35 8.5 -51s13.5 -29.833 23.5 -41.5s22 -20.834 36 -27.501s29.667 -10 47 -10c14.667 0 28.167 2.5 40.5 7.5s23 11.333 32 19s16 16.334 21 26.001s7.5 19.167 7.5 28.5c0 6.66699 1.5 12 4.5 16s8.83301 6 17.5 6
c7.33301 0 12.5 -2.5 15.5 -7.5s4.5 -9.83301 4.5 -14.5c0 -14.667 -3.33301 -29.167 -10 -43.5s-16.167 -27.333 -28.5 -39s-27.333 -21.167 -45 -28.5s-37.5 -11 -59.5 -11c-23.333 0 -44.666 4.33301 -63.999 13s-35.833 20.5 -49.5 35.5s-24.334 33 -32.001 54
s-11.5 43.833 -11.5 68.5c0 30 4.16699 57.667 12.5 83s21.333 47.166 39 65.499s40.167 32.666 67.5 42.999s60 15.5 98 15.5z" />
    <glyph glyph-name="U" unicode="U" horiz-adv-x="1262" 
d="M1011 -18c-40.667 0 -73.668 16.502 -99.001 49.502s-45.333 76.833 -60 131.5c-14 -34.667 -29.667 -66.834 -47 -96.501s-36.5 -55.5 -57.5 -77.5s-44 -39.167 -69 -51.5s-51.5 -18.5 -79.5 -18.5c-34 0 -63.167 7.33301 -87.5 22s-44 34.167 -59 58.5
s-26 52.833 -33 85.5s-10.5 67 -10.5 103c0 31.333 1.66699 61.333 5 90s6.83301 56.834 10.5 84.501l10.5 82c3.33301 27 5 54.5 5 82.5c0 30.667 -3.5 58.5 -10.5 83.5s-17.833 46.333 -32.5 64s-33.167 31.334 -55.5 41.001s-48.833 14.5 -79.5 14.5
c-25.333 0 -48.333 -4 -69 -12s-38.5 -19.333 -53.5 -34s-26.667 -32.334 -35 -53.001s-12.5 -43.334 -12.5 -68.001c0 -50 10.333 -86 31 -108s48.334 -33 83.001 -33c22 0 39.333 5.66699 52 17s19 22.333 19 33c0 6.66699 1.5 12 4.5 16s8.83301 6 17.5 6
c7.33301 0 12.5 -2.16699 15.5 -6.5s4.5 -9.5 4.5 -15.5c0 -10.667 -2.66699 -21.5 -8 -32.5s-12.833 -20.833 -22.5 -29.5s-21.5 -15.834 -35.5 -21.501s-29.667 -8.5 -47 -8.5c-22.667 0 -43.5 3.5 -62.5 10.5s-35.5 17.833 -49.5 32.5s-24.833 33.667 -32.5 57
s-11.5 51 -11.5 83c0 30.667 5.16699 58.834 15.5 84.501s24.833 47.667 43.5 66s41 32.666 67 42.999s54.667 15.5 86 15.5c38 0 70.833 -6 98.5 -18s50.5 -28.833 68.5 -50.5s31.333 -47.5 40 -77.5s13 -63 13 -99c0 -28 -1.66699 -55.833 -5 -83.5l-10.5 -83.5
c-3.66699 -28 -7.16699 -56.167 -10.5 -84.5s-5 -57.5 -5 -87.5c0 -30.667 2.66699 -59.667 8 -87s14 -51.333 26 -72s27.333 -37.167 46 -49.5s41.334 -18.5 68.001 -18.5s51.667 7.66699 75 23s44.833 36 64.5 62s37.667 56.167 54 90.5s30.5 70.833 42.5 109.5
c-6.66699 43.333 -11.334 89.333 -14.001 138s-4 98.667 -4 150c0 34.667 1.16699 62.834 3.5 84.501s6 38.5 11 50.5s11.333 20.167 19 24.5s16.5 6.5 26.5 6.5c20.667 0 35.167 -8.83301 43.5 -26.5s12.5 -46.5 12.5 -86.5c0 -52 -4.5 -108.667 -13.5 -170
s-22.833 -121.333 -41.5 -180c5.33301 -31.333 11.833 -60 19.5 -86s17 -48.333 28 -67s23.5 -33.334 37.5 -44.001s30 -16 48 -16c28 0 54 7.16699 78 21.5s46.167 32.166 66.5 53.499s38.833 44.833 55.5 70.5s31.667 49.834 45 72.501c0.666992 1.33301 2 3 4 5
c4 4 8.66699 6 14 6c12.667 0 19 -5.33301 19 -16c0 -4 -1.33301 -9.33301 -4 -16l-4 -8c-14 -24 -30.333 -49.5 -49 -76.5s-39.334 -52 -62.001 -75s-47.667 -42 -75 -57s-56.666 -22.5 -87.999 -22.5zM857.999 534.002c0 -61.333 1.99902 -121 5.99902 -179
c9.33301 42 16.333 82.667 21 122s7 76 7 110c0 25.333 -1.16699 43.5 -3.5 54.5s-6.16602 16.5 -11.499 16.5c-8 0 -13.167 -11.333 -15.5 -34s-3.5 -52.667 -3.5 -90z" />
    <glyph glyph-name="V" unicode="V" horiz-adv-x="995" 
d="M227 483c0 -6.66699 -2.33301 -11.8359 -7 -15.5029s-9 -5.5 -13 -5.5c-22.667 0 -43.5 2.83301 -62.5 8.5s-35.5 14.834 -49.5 27.501s-25 28.5 -33 47.5s-12 42.167 -12 69.5c0 26 4.66699 50 14 72s22.5 41 39.5 57s37.333 28.333 61 37s49.5 13 77.5 13
c34 0 63.667 -6 89 -18s46.166 -28.833 62.499 -50.5s28.5 -47.5 36.5 -77.5s12 -63 12 -99c0 -28 -1.66699 -55.833 -5 -83.5l-10.5 -83.5c-3.66699 -28 -7.16699 -56.167 -10.5 -84.5s-5 -57.5 -5 -87.5c0 -30.667 2.83301 -59.667 8.5 -87s14.667 -51.333 27 -72
s28.5 -37.167 48.5 -49.5s44.667 -18.5 74 -18.5c34.667 0 66.667 13.5 96 40.5s54.333 62.5 75 106.5s36.834 94.167 48.501 150.5s17.5 113.5 17.5 171.5v25.5c0 8.33301 -0.333008 16.166 -1 23.499c-38 13.333 -66.167 31.833 -84.5 55.5s-27.5 51.5 -27.5 83.5
c0 21.333 5 39.5 15 54.5s24.667 22.5 44 22.5c16.667 0 30.834 -4.83301 42.501 -14.5s21 -22.834 28 -39.501s12.333 -36.167 16 -58.5s6.16699 -46.166 7.5 -71.499c14.667 -3.33301 30.834 -6 48.501 -8s37.167 -3 58.5 -3c6 0 11.167 -2 15.5 -6s6.5 -9 6.5 -15
s-2.16699 -11 -6.5 -15s-9.5 -6 -15.5 -6c-21.333 0 -40.5 0.833008 -57.5 2.5s-32.833 4.16699 -47.5 7.5v-35c0 -34 -2.33301 -70.333 -7 -109s-11.834 -77 -21.501 -115s-22 -74.5 -37 -109.5s-32.833 -65.833 -53.5 -92.5s-44.334 -48 -71.001 -64
s-56.334 -24 -89.001 -24c-36 0 -66.667 7.33301 -92 22s-46 34.167 -62 58.5s-27.667 52.833 -35 85.5s-11 67 -11 103c0 31.333 1.66699 61.333 5 90s6.83301 56.834 10.5 84.501l10.5 82c3.33301 27 5 54.5 5 82.5c0 30 -3 57.333 -9 82s-15.333 46 -28 64s-29 32 -49 42
s-44 15 -72 15c-23.333 0 -44.166 -3.5 -62.499 -10.5s-34 -16.667 -47 -29s-23 -26.833 -30 -43.5s-10.5 -34.667 -10.5 -54c0 -39.333 10.167 -67.666 30.5 -84.999s48.5 -26 84.5 -26c4 0 8.33301 -1.66699 13 -5s7 -8.66602 7 -15.999zM735 639.998
c0 -41.333 22.667 -72.333 68 -93c-7.33301 85.333 -23.333 128 -48 128c-13.333 0 -20 -11.667 -20 -35z" />
    <glyph glyph-name="W" unicode="W" horiz-adv-x="1025" 
d="M1015 644c0 5.33301 2.00195 10.002 6.00195 14.002s8.66699 6 14 6s10 -1.83301 14 -5.5s6 -8.16699 6 -13.5c0 -12 -2.66699 -25.833 -8 -41.5s-13.833 -30.5 -25.5 -44.5s-26.667 -25.833 -45 -35.5s-40.5 -14.5 -66.5 -14.5h-5
c-3.33301 -42 -8.83301 -85.5 -16.5 -130.5s-17 -88.667 -28 -131s-23.5 -82.5 -37.5 -120.5s-29 -71.333 -45 -100s-33 -51.334 -51 -68.001s-36.667 -25 -56 -25c-24.667 0 -46.834 8.33301 -66.501 25s-37.167 39 -52.5 67s-28.5 60.333 -39.5 97s-20.167 75 -27.5 115
c-11.333 -43.333 -24.5 -83.333 -39.5 -120s-31.333 -68.5 -49 -95.5s-36.667 -48 -57 -63s-41.5 -22.5 -63.5 -22.5c-23.333 0 -44.333 8.5 -63 25.5s-35.334 39.5 -50.001 67.5s-27.334 60.5 -38.001 97.5s-19.5 75.667 -26.5 116s-12.5 80.833 -16.5 121.5
s-6.66699 79 -8 115c-16 0 -24 6.33301 -24 19c0 3.33301 1 7 3 11c4 5.33301 7.5 10.833 10.5 16.5s6.16699 11.167 9.5 16.5c0 22 0.833008 42.5 2.5 61.5s4.33398 35.667 8.00098 50s8.33398 25.666 14.001 33.999s12.5 12.5 20.5 12.5c17.333 0 26 -17 26 -51
c0 -15.333 -2 -32.333 -6 -51s-11.667 -39.667 -23 -63c0 -38.667 1.66699 -79.334 5 -122.001s8 -84.667 14 -126s13.667 -80.666 23 -117.999s19.833 -70.166 31.5 -98.499s24.667 -50.833 39 -67.5s29.833 -25 46.5 -25c20 0 39.667 9.83301 59 29.5s37.5 46.5 54.5 80.5
s32.333 74 46 120s25.167 95.667 34.5 149c-1.33301 20.667 -2.33301 41.334 -3 62.001c-1.33301 17.333 -2.16602 36.166 -2.49902 56.499s-0.5 39.166 -0.5 56.499c0 22.667 0.5 44 1.5 64s3 37.5 6 52.5s7.16699 26.833 12.5 35.5s12 13 20 13s14.667 -5.83301 20 -17.5
s8 -29.5 8 -53.5c0 -46 -1.5 -91.667 -4.5 -137s-8.16699 -90 -15.5 -134c5.33301 -50 13 -98 23 -144s21.833 -86.5 35.5 -121.5s29.167 -62.833 46.5 -83.5s36 -31 56 -31c17.333 0 36.166 15.333 56.499 46s39.666 71.334 57.999 122.001s34.5 108.334 48.5 173.001
s23.667 130.667 29 198c-24.667 7.33301 -44 21.166 -58 41.499s-21 46.833 -21 79.5c0 21.333 5.66699 39.5 17 54.5s26 22.5 44 22.5c22 0 38.167 -8.83301 48.5 -26.5s15.5 -46.5 15.5 -86.5c0 -8 -0.166992 -16.167 -0.5 -24.5s-0.833008 -16.5 -1.5 -24.5h3
c16.667 0 31.5 3.16699 44.5 9.5s24 14.166 33 23.499s15.833 19.333 20.5 30s7 20.667 7 30zM826.002 636.002c0 -39.333 13.333 -65 40 -77c0 8 0.166992 16.167 0.5 24.5s0.5 16.5 0.5 24.5c0 42 -8.33301 63 -25 63c-3.33301 0 -6.83301 -3 -10.5 -9
s-5.5 -14.667 -5.5 -26z" />
    <glyph glyph-name="X" unicode="X" horiz-adv-x="915" 
d="M58 -2c0 5.33301 2.16895 10.0049 6.50195 14.0049s9.16602 6 14.499 6c38.667 0 76.5 9.33301 113.5 28s72.833 43.5 107.5 74.5s67.834 66.5 99.501 106.5s61.5 81.333 89.5 124c-12.667 47.333 -24.5 93.666 -35.5 138.999s-24.5 85.833 -40.5 121.5
s-36.667 64.334 -62 86.001s-58.333 32.5 -99 32.5c-25.333 0 -47.833 -4 -67.5 -12s-36.334 -19.333 -50.001 -34s-24.167 -32.334 -31.5 -53.001s-11 -43.334 -11 -68.001c0 -50 10.333 -86 31 -108s48.334 -33 83.001 -33c12 0 23 2.16699 33 6.5s18.5 9.83301 25.5 16.5
s12.5 14.167 16.5 22.5s6 16.5 6 24.5c0 6.66699 1.5 12 4.5 16s8.83301 6 17.5 6c7.33301 0 12.5 -2.5 15.5 -7.5s4.5 -9.83301 4.5 -14.5c0 -13.333 -2.83301 -26.666 -8.5 -39.999s-13.834 -25.333 -24.501 -36s-23.667 -19.334 -39 -26.001s-32.333 -10 -51 -10
c-22.667 0 -43.5 3.5 -62.5 10.5s-35.5 17.833 -49.5 32.5s-24.833 33.667 -32.5 57s-11.5 51 -11.5 83c0 30.667 4.66699 58.834 14 84.501s22.833 47.667 40.5 66s38.834 32.666 63.501 42.999s52.667 15.5 84 15.5c46.667 0 84.667 -10.667 114 -32
s53.333 -49.5 72 -84.5s33.667 -75 45 -120l35 -137.5c26 43.333 49.667 85.666 71 126.999l55 110.5c15.333 32.333 27.333 58.833 36 79.5s13.334 32 14.001 34c2 5.33301 4.16699 9.16602 6.5 11.499s6.83301 3.5 13.5 3.5c7.33301 0 12.666 -2.33301 15.999 -7
s5 -8.66699 5 -12s-0.333008 -5.66602 -1 -6.99902c-16 -39.333 -34.333 -80.666 -55 -123.999c-17.333 -37.333 -38.333 -79.333 -63 -126s-52.667 -94.334 -84 -143.001c12 -42 26.167 -82.333 42.5 -121s37.833 -72.834 64.5 -102.501s59.667 -53.334 99 -71.001
s87.666 -26.5 144.999 -26.5c5.33301 0 10.333 -1.66699 15 -5s7 -8.66602 7 -15.999s-2.33301 -12.666 -7 -15.999s-9.66699 -5 -15 -5c-60.667 0 -112.167 8.83301 -154.5 26.5s-78 41.167 -107 70.5s-52.833 63.166 -71.5 101.499s-34.334 78.5 -47.001 120.5
c-28.667 -42.667 -59.334 -83.5 -92.001 -122.5s-67 -73.333 -103 -103s-73.167 -53.334 -111.5 -71.001s-77.5 -26.5 -117.5 -26.5c-5.33301 0 -10.166 2 -14.499 6s-6.5 8.66699 -6.5 14z" />
    <glyph glyph-name="Y" unicode="Y" horiz-adv-x="946" 
d="M718 534c0 32 0.833984 58.4961 2.50098 79.4961s4.83398 38 9.50098 51s10.834 22.167 18.501 27.5s17.167 8 28.5 8c22 0 36.667 -7.5 44 -22.5s11 -31.833 11 -50.5c0 -38 -6.33301 -79.5 -19 -124.5s-30.334 -89.167 -53.001 -132.5v-209
c10 1.33301 20.333 2.5 31 3.5s22 1.5 34 1.5c6 0 11 -2.16699 15 -6.5s6 -9.16602 6 -14.499s-2 -10.166 -6 -14.499s-9 -6.5 -15 -6.5c-12 0 -23.333 -0.5 -34 -1.5s-21 -2.16699 -31 -3.5v-67c0 -62 -5.66699 -118.167 -17 -168.5s-27.333 -93.5 -48 -129.5
s-45.834 -63.833 -75.501 -83.5s-62.5 -29.5 -98.5 -29.5c-25.333 0 -48 4.33301 -68 13s-37 21 -51 37s-24.833 34.833 -32.5 56.5s-11.5 45.5 -11.5 71.5c0 44 10.5 84.667 31.5 122s48.5 70.166 82.5 98.499s72.5 52.166 115.5 71.499s86.5 33.666 130.5 42.999v146
c-16 -23.333 -33.167 -44.666 -51.5 -63.999s-37.666 -36.333 -57.999 -51s-41.333 -26 -63 -34s-43.834 -12 -66.501 -12c-30.667 0 -56.834 5 -78.501 15s-39.167 23.5 -52.5 40.5s-23.166 37 -29.499 60s-9.5 47.5 -9.5 73.5c0 24.667 1.66699 47.834 5 69.501l10.5 65
l10.5 65c3.33301 21.667 5 44.834 5 69.501c0 38.667 -10.333 70.5 -31 95.5s-53 37.5 -97 37.5c-36 0 -65 -11.667 -87 -35s-33 -54 -33 -92c0 -36 7 -61.833 21 -77.5s35 -23.5 63 -23.5c11.333 0 21.5 1.83301 30.5 5.5s16.5 8.5 22.5 14.5s10.5 12.5 13.5 19.5
s4.5 13.833 4.5 20.5s1.5 12 4.5 16s8.83301 6 17.5 6c7.33301 0 12.5 -2.5 15.5 -7.5s4.5 -9.83301 4.5 -14.5c0 -12 -2.5 -24 -7.5 -36s-12.333 -23 -22 -33s-21.5 -18 -35.5 -24s-29.667 -9 -47 -9c-36.667 0 -67 11.167 -91 33.5s-36 58.833 -36 109.5
c0 24.667 4 47.334 12 68.001s19.167 38.5 33.5 53.5s31.333 26.667 51 35s41.5 12.5 65.5 12.5c28 0 52.5 -4.33301 73.5 -13s38.667 -20.834 53 -36.501s25.166 -34.167 32.499 -55.5s11 -44.666 11 -69.999c0 -24.667 -1.66699 -48.5 -5 -71.5
s-6.83301 -45.5 -10.5 -67.5l-10.5 -65.5c-3.33301 -21.667 -5 -43.167 -5 -64.5c0 -44 9.66699 -79.5 29 -106.5s52.333 -40.5 99 -40.5c22.667 0 45.167 5.33301 67.5 16s43.833 25.334 64.5 44.001s40 40 58 64s34.333 49.667 49 77v152zM521.001 -318.004
c30 0 57.165 9.16504 81.498 27.498s45 43.833 62 76.5s30.167 71.667 39.5 117s14 95.333 14 150v59c-42 -9.33301 -82.167 -23.166 -120.5 -41.499s-72.166 -40.166 -101.499 -65.499s-52.666 -53.833 -69.999 -85.5s-26 -65.167 -26 -100.5
c0 -40 10.833 -72.833 32.5 -98.5s51.167 -38.5 88.5 -38.5zM776.999 657.994c-8 0 -12.832 -11.333 -14.499 -34s-2.5 -52.667 -2.5 -90v-59c10 28 17.833 55 23.5 81s8.5 49.667 8.5 71c0 7.33301 -0.833008 14.333 -2.5 21s-5.83398 10 -12.501 10z" />
    <glyph glyph-name="Z" unicode="Z" horiz-adv-x="738" 
d="M590 -158c-41.333 0 -78 6.33496 -110 19.002s-61 27.834 -87 45.501s-50 36.167 -72 55.5s-44.333 36 -67 50c-18.667 -18 -38.167 -32.333 -58.5 -43s-41.166 -16 -62.499 -16c-23.333 0 -40.833 5.33301 -52.5 16s-17.5 24.334 -17.5 41.001
c0 12.667 2.66699 23.667 8 33s12.5 17 21.5 23s19.5 10.5 31.5 13.5s24.333 4.5 37 4.5c16 0 30.833 -1.66699 44.5 -5s27.167 -8 40.5 -14c16 18.667 31.833 40 47.5 64s31.5 49.667 47.5 77l48 84.5l49 87.5l75.5 130c25 41.333 50.833 77.666 77.5 108.999
c-26.667 12.667 -53.334 26.667 -80.001 42s-53.334 29.5 -80.001 42.5s-53 23.833 -79 32.5s-51.667 13 -77 13c-36 0 -65.833 -5.33301 -89.5 -16s-42.5 -24.334 -56.5 -41.001s-23.667 -35.334 -29 -56.001s-8 -40.667 -8 -60c0 -38 9.66699 -68.5 29 -91.5
s47 -34.5 83 -34.5c16.667 0 31.667 3.5 45 10.5s24.833 15.667 34.5 26s17 21.333 22 33s7.5 22.5 7.5 32.5c0 6 2 11 6 15s9 6 15 6s11 -2 15 -6s6 -9 6 -15c0 -16 -3.66699 -32.5 -11 -49.5s-17.5 -32.5 -30.5 -46.5s-28.833 -25.5 -47.5 -34.5
s-39.334 -13.5 -62.001 -13.5c-46.667 0 -84 15.167 -112 45.5s-42 71.166 -42 122.499c0 22.667 3.33301 46.5 10 71.5s18.5 48.167 35.5 69.5s40 39 69 53s65.833 21 110.5 21c32 0 63 -5 93 -15s59.5 -22.167 88.5 -36.5s57.167 -29.5 84.5 -45.5s54 -30.333 80 -43
c18 17.333 36.5 31 55.5 41s38.833 15 59.5 15c23.333 0 42.5 -5.16699 57.5 -15.5s22.5 -26.833 22.5 -49.5c0 -8 -1.16699 -15.667 -3.5 -23s-6.5 -14 -12.5 -20s-14.333 -10.833 -25 -14.5s-24 -5.5 -40 -5.5c-17.333 0 -34.666 2 -51.999 6s-35 9.66699 -53 17
c-26 -30 -52.167 -66.5 -78.5 -109.5l-78.5 -134.5l-47.5 -85l-46.5 -83.5c-15.333 -27 -31 -52.5 -47 -76.5s-32 -46 -48 -66c22.667 -14.667 44.334 -31.334 65.001 -50.001s42.834 -36.167 66.501 -52.5s49.5 -30.166 77.5 -41.499s60.333 -17 97 -17
c23.333 0 43.166 3.5 59.499 10.5s29.5 14.833 39.5 23.5c12 10 21.667 21.667 29 35c0.666992 1.33301 2 3 4 5c1.33301 1.33301 3 2.5 5 3.5s4.66699 1.5 8 1.5c9.33301 0 15.5 -2 18.5 -6s4.5 -8 4.5 -12c0 -1.33301 -0.166992 -2.5 -0.5 -3.5s-0.5 -2.16699 -0.5 -3.5
c-0.666992 -1.33301 -1 -2.33301 -1 -3c-10 -18 -22.667 -33.667 -38 -47c-13.333 -11.333 -30.5 -21.833 -51.5 -31.5s-46.5 -14.5 -76.5 -14.5zM133 -6.99805c13.333 0 27 3.49902 41 10.499s27.667 16.833 41 29.5c-18.667 6.66699 -36.667 10 -54 10
c-16.667 0 -30.167 -2.83301 -40.5 -8.5s-15.5 -12.5 -15.5 -20.5c0 -5.33301 2.33301 -10.166 7 -14.499s11.667 -6.5 21 -6.5zM736 665.001c-23.333 0 -47.666 -11 -72.999 -33c24.667 -9.33301 48.667 -14 72 -14c15.333 0 25.666 2 30.999 6s8 9.33301 8 16
c0 8.66699 -3.5 15 -10.5 19s-16.167 6 -27.5 6z" />
    <glyph glyph-name="bracketleft" unicode="[" horiz-adv-x="293" 
d="M70 -229c-7.33301 0 -12.5 2.5 -15.5 7.5s-4.5 10.833 -4.5 17.5v897c0 6.66699 1.5 12.5 4.5 17.5s8.16699 7.5 15.5 7.5h146c18 0 27 -7.33301 27 -22c0 -7.33301 -2.66699 -12.5 -8 -15.5s-11.666 -4.5 -18.999 -4.5h-125v-863h125c7.33301 0 13.666 -1.5 18.999 -4.5
s8 -8.16699 8 -15.5c0 -14.667 -9 -22 -27 -22h-146z" />
    <glyph glyph-name="backslash" unicode="\" horiz-adv-x="442" 
d="M389 -2c2 -4 3 -8.00098 3 -12.001c0 -6 -2.33301 -11 -7 -15s-9.66699 -6 -15 -6c-4.66699 0 -8.66699 1.66699 -12 5s-6 7.33301 -8 12l-297 697c-2 4.66699 -3 9.33398 -3 14.001c0 6 2 10.667 6 14s8.66699 5 14 5c9.33301 0 16.333 -5.33301 21 -16z" />
    <glyph glyph-name="bracketright" unicode="]" horiz-adv-x="293" 
d="M223 718c7.33301 0 12.5 -2.5 15.5 -7.5s4.5 -10.833 4.5 -17.5v-897c0 -6.66699 -1.5 -12.5 -4.5 -17.5s-8.16699 -7.5 -15.5 -7.5h-146c-18 0 -27 7.33301 -27 22c0 7.33301 2.66699 12.5 8 15.5s11.666 4.5 18.999 4.5h125v863h-125
c-7.33301 0 -13.666 1.5 -18.999 4.5s-8 8.16699 -8 15.5c0 14.667 9 22 27 22h146z" />
    <glyph glyph-name="asciicircum" unicode="^" horiz-adv-x="518" 
d="M260 641l-38.999 -61.5l-51.5 -81.5l-49 -78.5l-32.5 -52.5c-4.66699 -7.33301 -10.667 -11 -18 -11c-5.33301 0 -10 1.66699 -14 5s-6 8 -6 14c0 4 1 8 3 12l4 6l26 41l37.5 59.5l42 66l39.5 61.5l29.5 46.5c7.66699 12.333 11.834 18.833 12.501 19.5
c2.66699 3.33301 5.16699 5.5 7.5 6.5s4.83301 1.5 7.5 1.5c4.66699 0 8.16699 -0.833008 10.5 -2.5s4.16602 -3.5 5.49902 -5.5c1.33301 -1.33301 6.16602 -8.5 14.499 -21.5l30.5 -48l39.5 -62.5l41.5 -66l36 -58c10.667 -17.333 18.667 -30 24 -38
c0.666992 -2 1.66699 -4 3 -6c2.66699 -5.33301 4 -9.33301 4 -12c0 -6 -2 -10.667 -6 -14s-8.66699 -5 -14 -5c-7.33301 0 -13.333 3.66699 -18 11z" />
    <glyph glyph-name="underscore" unicode="_" horiz-adv-x="576" 
d="M501 41c8.66699 0 15 -2 19 -6s6 -9 6 -15c0 -7.33301 -2.5 -12.5 -7.5 -15.5s-10.833 -4.5 -17.5 -4.5h-426c-6.66699 0 -12.5 1.5 -17.5 4.5s-7.5 8.16699 -7.5 15.5c0 14 8.33301 21 25 21h426z" />
    <glyph glyph-name="grave" unicode="`" horiz-adv-x="236" 
d="M148 419l-28.001 45.5l-30 48.5l-34 55c-4 6 -6 11.333 -6 16c0 5.33301 1.83301 9.5 5.5 12.5s7.83398 4.5 12.501 4.5c6.66699 0 11.5 -1.66699 14.5 -5s6.16699 -7.33301 9.5 -12l32 -51l28.5 -46c9.66699 -16 18.5 -30 26.5 -42c0.666992 -2 1.66699 -4 3 -6
c2.66699 -5.33301 4 -9.33301 4 -12c0 -6 -2 -10.667 -6 -14s-8.66699 -5 -14 -5c-7.33301 0 -13.333 3.66699 -18 11z" />
    <glyph glyph-name="a" unicode="a" 
d="M123 328c40 0 70.999 -12.167 92.999 -36.5s35.667 -56.5 41 -96.5c2.66699 -22.667 7.16699 -44.334 13.5 -65.001s14.5 -39 24.5 -55s22.5 -28.833 37.5 -38.5s33.167 -14.5 54.5 -14.5c33.333 0 64.666 7.16699 93.999 21.5s56.5 32.5 81.5 54.5
s47.667 45.833 68 71.5s37.5 49.834 51.5 72.501l5 5c4 4 8.33301 6 13 6c12.667 0 19 -5.33301 19 -16c0 -4 -1.33301 -9.33301 -4 -16l-4 -8c-16 -24 -35 -49.667 -57 -77s-46.667 -52.333 -74 -75s-57.166 -41.5 -89.499 -56.5s-66.833 -22.5 -103.5 -22.5
s-66.167 9.33301 -88.5 28s-40.166 43 -53.499 73c-10.667 -28.667 -27.334 -52.667 -50.001 -72s-51 -29 -85 -29c-41.333 0 -75 12.333 -101 37s-39 63.667 -39 117c0 23.333 3.33301 46.5 10 69.5s16.334 43.5 29.001 61.5s28.5 32.667 47.5 44s41.167 17 66.5 17z
M218.999 158c0 38.667 -7.83398 69.999 -23.501 93.999s-39.834 36 -72.501 36c-18 0 -34.167 -4.5 -48.5 -13.5s-26.166 -20.667 -35.499 -35s-16.5 -30.5 -21.5 -48.5s-7.5 -36.333 -7.5 -55c0 -39.333 9.33301 -68.166 28 -86.499s42.667 -27.5 72 -27.5
c18.667 0 34.834 3.83301 48.501 11.5s25 18 34 31s15.667 27.5 20 43.5s6.5 32.667 6.5 50z" />
    <glyph glyph-name="b" unicode="b" horiz-adv-x="546" 
d="M171 733c-16 0 -30.168 -11.167 -42.501 -33.5s-22.666 -51.166 -30.999 -86.499s-14.833 -75 -19.5 -119s-7.66699 -87.333 -9 -130l45 74.5c15.333 26.333 29.333 53 42 80s22.834 54 30.501 81s11.5 52.5 11.5 76.5c0 17.333 -2.33301 31.166 -7 41.499
s-11.334 15.5 -20.001 15.5zM317.999 248c0 11.333 -2 21.168 -6 29.501s-10 12.5 -18 12.5c-12.667 0 -19 -10 -19 -30c0 -13.333 3.16699 -25.333 9.5 -36s14.833 -20 25.5 -28c5.33301 19.333 8 36.666 8 51.999zM397.999 126.002
c-23.333 0 -45.666 4.33008 -66.999 12.9971c-8.66699 -20 -19.334 -39.5 -32.001 -58.5s-26.5 -35.667 -41.5 -50s-31.167 -26 -48.5 -35s-35 -13.5 -53 -13.5c-22 0 -40.5 7.33301 -55.5 22s-27.167 33.834 -36.5 57.501s-16.333 50.334 -21 80.001s-8 59.167 -10 88.5
l-10 -17c-3.33301 -5.33301 -8.33301 -8 -15 -8c-5.33301 0 -10.166 1.66699 -14.499 5s-6.5 7.66602 -6.5 12.999c0 2.66699 0.333008 5.33398 1 8.00098s2.66699 6.33398 6 11.001c4.66699 7.33301 9.66699 15.833 15 25.5s12 20.5 20 32.5v20c0 53.333 2.33301 107 7 161
s12.334 102.667 23.001 146s24.667 78.5 42 105.5s38.666 40.5 63.999 40.5s43.833 -8.16699 55.5 -24.5s17.5 -40.5 17.5 -72.5c0 -32.667 -6 -66.667 -18 -102s-26.667 -70 -44 -104s-35.666 -66.5 -54.999 -97.5l-52 -82.5c0.666992 -28.667 2.16699 -58.667 4.5 -90
s6.66602 -60.166 12.999 -86.499s15.166 -48.166 26.499 -65.499s26 -26 44 -26c13.333 0 26.833 3.83301 40.5 11.5s26.5 17.667 38.5 30s23.167 26.666 33.5 42.999s19.166 33.166 26.499 50.499c-17.333 12 -31.833 26.667 -43.5 44s-17.5 37 -17.5 59
c0 24 5.5 41.667 16.5 53s25.167 17 42.5 17c21.333 0 37.333 -8.33301 48 -25s16 -35.667 16 -57c0 -11.333 -1.16699 -22.833 -3.5 -34.5s-5.5 -24.167 -9.5 -37.5c17.333 -6.66699 35 -10 53 -10c16 0 30.5 1.16699 43.5 3.5s25.167 6.33301 36.5 12s22 13.334 32 23.001
s20 22.167 30 37.5c3.33301 5.33301 6.83301 10.166 10.5 14.499s8.16699 6.5 13.5 6.5s10 -1.33301 14 -4s6 -6.33398 6 -11.001c0 -3.33301 -1.5 -8.5 -4.5 -15.5s-6.5 -13.5 -10.5 -19.5c-21.333 -31.333 -45.666 -53.666 -72.999 -66.999s-60 -20 -98 -20z" />
    <glyph glyph-name="c" unicode="c" horiz-adv-x="411" 
d="M202 259c0 -4 -0.50293 -9 -1.50293 -15s-2.83301 -11.667 -5.5 -17s-6 -9.83301 -10 -13.5s-9 -5.5 -15 -5.5c-10 0 -15.667 4.66699 -17 14c-1.33301 6 -0.166016 11.833 3.50098 17.5s5.5 12.167 5.5 19.5c0 9.33301 -3.5 16.666 -10.5 21.999s-16.5 8 -28.5 8
c-15.333 0 -29.833 -4.16699 -43.5 -12.5s-25.667 -19.333 -36 -33s-18.5 -29 -24.5 -46s-9 -34.167 -9 -51.5c0 -42.667 9.33301 -74 28 -94s42.667 -30 72 -30c33.333 0 64.666 7.16699 93.999 21.5s56.5 32.5 81.5 54.5s47.667 45.833 68 71.5s37.5 49.834 51.5 72.501
c0.666992 1.33301 2 3 4 5c4 4 8.66699 6 14 6c12.667 0 19 -5.33301 19 -16c0 -4 -1.33301 -9.33301 -4 -16l-4 -8c-16 -24 -35 -49.667 -57 -77s-46.667 -52.333 -74 -75s-57.166 -41.5 -89.499 -56.5s-66.833 -22.5 -103.5 -22.5c-41.333 0 -75 13.167 -101 39.5
s-39 67.833 -39 124.5c0 22 3.83301 44 11.5 66s18.334 41.667 32.001 59s29.834 31.333 48.501 42s39 16 61 16c25.333 0 44.833 -6.33301 58.5 -19s20.5 -29.667 20.5 -51z" />
    <glyph glyph-name="d" unicode="d" 
d="M687 247c4 4 8.33203 6.00391 12.999 6.00391c12.667 0 19 -5.33301 19 -16c0 -4 -1.33301 -9.33301 -4 -16l-4 -8c-16 -24 -35 -49.667 -57 -77s-46.667 -52.333 -74 -75s-57.166 -41.5 -89.499 -56.5s-66.833 -22.5 -103.5 -22.5c-33.333 0 -60.166 10 -80.499 30
s-36.166 45.667 -47.499 77c-20.667 -33.333 -43.334 -59.5 -68.001 -78.5s-51.667 -28.5 -81 -28.5c-41.333 0 -75 12.333 -101 37s-39 63.667 -39 117c0 23.333 3.33301 46.5 10 69.5s16.334 43.667 29.001 62s28.5 33.166 47.5 44.499s41.167 17 66.5 17
c43.333 0 78.666 -12 105.999 -36v27c0 53.333 2.66699 107 8 161s13 102.667 23 146s22.167 78.5 36.5 105.5s30.5 40.5 48.5 40.5c35.333 0 53 -32.333 53 -97c0 -42.667 -2.5 -87.834 -7.5 -135.501s-12.167 -95.334 -21.5 -143.001s-21 -93.834 -35 -138.501
s-30 -85.334 -48 -122.001c7.33301 -32.667 19 -60 35 -82s38 -33 66 -33c33.333 0 64.666 7.16699 93.999 21.5s56.5 32.5 81.5 54.5s47.667 45.833 68 71.5s37.5 49.834 51.5 72.501zM9.99902 136.004c0 -39.333 9.16504 -68.167 27.498 -86.5s42.5 -27.5 72.5 -27.5
c25.333 0 49 11.5 71 34.5s42.667 53.5 62 91.5l-4 24l-4 25c-5.33301 28 -17.166 50.333 -35.499 67s-43.833 25 -76.5 25c-18 0 -34.167 -4.5 -48.5 -13.5s-26.166 -20.833 -35.499 -35.5s-16.5 -31 -21.5 -49s-7.5 -36.333 -7.5 -55zM345.997 733.003
c-6 0 -11.999 -6 -17.999 -18s-12 -28.333 -18 -49s-11.333 -44.667 -16 -72s-9 -56.333 -13 -87s-7 -62 -9 -94s-3 -63 -3 -93c0 -15.333 0.166992 -31.833 0.5 -49.5s1.5 -35.5 3.5 -53.5c13.333 35.333 25.166 73 35.499 113s19.166 80.167 26.499 120.5
s13 79.833 17 118.5s6 74.334 6 107.001c0 17.333 -0.666992 31.166 -2 41.499s-4.66602 15.5 -9.99902 15.5z" />
    <glyph glyph-name="e" unicode="e" horiz-adv-x="411" 
d="M124 329c25.333 0 44.8311 -6.33008 58.498 -18.9971s20.5 -29.667 20.5 -51c0 -14.667 -4 -27.834 -12 -39.501s-18 -22 -30 -31s-25.5 -16.833 -40.5 -23.5s-29.667 -12.334 -44 -17.001s-27.333 -8.33398 -39 -11.001s-20.167 -4.33398 -25.5 -5.00098
c2 -38 12 -65.833 30 -83.5s41 -26.5 69 -26.5c33.333 0 64.666 7.16699 93.999 21.5s56.5 32.5 81.5 54.5s47.667 45.833 68 71.5s37.5 49.834 51.5 72.501c0.666992 1.33301 2 3 4 5c4 4 8.66699 6 14 6c12.667 0 19 -5.33301 19 -16c0 -4 -1.33301 -9.33301 -4 -16l-4 -8
c-16 -24 -35 -49.667 -57 -77s-46.667 -52.333 -74 -75s-57.166 -41.5 -89.499 -56.5s-66.833 -22.5 -103.5 -22.5c-41.333 0 -75 13.167 -101 39.5s-39 67.833 -39 124.5c0 22 3.83301 44 11.5 66s18.334 41.667 32.001 59s29.834 31.333 48.501 42s39 16 61 16z
M123.998 289.003c-14 0 -27.165 -3.33301 -39.498 -10s-23.333 -15.5 -33 -26.5s-17.834 -23.667 -24.501 -38s-11.334 -29.166 -14.001 -44.499c12 2 26.5 5.33301 43.5 10s33.5 10.5 49.5 17.5s29.5 15.5 40.5 25.5s16.5 22 16.5 36c0 9.33301 -3.5 16.666 -10.5 21.999
s-16.5 8 -28.5 8z" />
    <glyph glyph-name="f" unicode="f" horiz-adv-x="454" 
d="M448 242c0.666992 1.33301 1.99805 2.99805 3.99805 4.99805c4 4 8.66699 6 14 6c12.667 0 19 -5.33301 19 -16c0 -4 -1.33301 -9.33301 -4 -16l-4 -8c-11.333 -18 -25.666 -38 -42.999 -60s-37.5 -43.333 -60.5 -64s-48.667 -39.5 -77 -56.5
s-59.166 -29.5 -92.499 -37.5c15.333 -51.333 23 -108.333 23 -171c0 -25.333 -2.16699 -49.166 -6.5 -71.499s-10.833 -42 -19.5 -59s-19.167 -30.5 -31.5 -40.5s-26.5 -15 -42.5 -15c-35.333 0 -60.5 30 -75.5 90s-23.5 154.333 -25.5 283
c-15.333 9.33301 -28.166 20.5 -38.499 33.5s-15.5 27.833 -15.5 44.5c0 21.333 4.83301 37.333 14.5 48s23.167 17.334 40.5 20.001v28.5c0 9.66699 -0.333008 20.167 -1 31.5v1l-3 -5c-3.33301 -5.33301 -8.33301 -8 -15 -8c-5.33301 0 -10.166 1.66699 -14.499 5
s-6.5 7.66602 -6.5 12.999c0 2.66699 0.333008 5.33398 1 8.00098s2.66699 6.33398 6 11.001l13.5 23c5 8.66699 11.167 18.667 18.5 30c0 34.667 0.5 70.667 1.5 108s3 73.666 6 108.999s7.66699 68.833 14 100.5s14.666 59.334 24.999 83.001s23 42.5 38 56.5
s33.167 21 54.5 21c25.333 0 43.833 -8.16699 55.5 -24.5s17.5 -40.5 17.5 -72.5c0 -35.333 -5.33301 -69.666 -16 -102.999s-24.334 -66.333 -41.001 -99s-35.167 -64.5 -55.5 -95.5l-58.5 -91.5c-0.666992 -22.667 -1 -45 -1 -67v-65c28 -5.33301 52.333 -18.833 73 -40.5
s37.667 -49.167 51 -82.5c32.667 7.33301 62.667 19.166 90 35.499s51.666 34.5 72.999 54.5s39.833 40.667 55.5 62s28.834 40.666 39.501 57.999zM186.998 -176.002c0 32 -2.16602 61.667 -6.49902 89s-10.166 52.333 -17.499 75c-13.333 -2 -26 -3 -38 -3
c-20 0 -39.333 3 -58 9c2 -108.667 8.16699 -188.5 18.5 -239.5s24.166 -76.5 41.499 -76.5c8.66699 0 16.667 4 24 12s13.666 18.667 18.999 32s9.5 28.833 12.5 46.5s4.5 36.167 4.5 55.5zM170.999 732.998c-18 0 -33.167 -10.165 -45.5 -30.498s-22.333 -47.5 -30 -81.5
s-13.5 -73.333 -17.5 -118s-7 -91.334 -9 -140.001l45 75c15.333 26.667 29.333 53.5 42 80.5s22.834 54 30.501 81s11.5 52.5 11.5 76.5c0 17.333 -2.33301 31.166 -7 41.499s-11.334 15.5 -20.001 15.5zM147.999 26c-11.333 23.333 -23.998 42.333 -37.998 57
s-28.667 24.667 -44 30v-78c9.33301 -3.33301 19.166 -5.83301 29.499 -7.5s20.166 -2.5 29.499 -2.5h11.5c3.66699 0 7.5 0.333008 11.5 1zM30.001 118c-7.33301 -1.33301 -13 -4.66895 -17 -10.002s-6 -11.666 -6 -18.999c0 -5.33301 2.16699 -11.666 6.5 -18.999
s9.5 -12 15.5 -14z" />
    <glyph glyph-name="g" unicode="g" horiz-adv-x="647" 
d="M123 328c35.333 0 63.499 -9.66406 84.499 -28.9971s35.833 -45.333 44.5 -78c6 -21.333 11.333 -43.833 16 -67.5s9 -47.5 13 -71.5s7.5 -47.333 10.5 -70s5.16699 -43.667 6.5 -63c26.667 12.667 54.5 27 83.5 43s58.167 35.333 87.5 58s58.5 49.667 87.5 81
s57.167 68.333 84.5 111c0.666992 1.33301 2 3 4 5c4 4 8.66699 6 14 6c12.667 0 19 -5.33301 19 -16c0 -4 -1.33301 -9.33301 -4 -16l-4 -8c-31.333 -46.667 -63.333 -86.667 -96 -120s-64.834 -61.833 -96.501 -85.5s-62.5 -43.334 -92.5 -59.001s-58.333 -29.5 -85 -41.5
c0.666992 -5.33301 1 -10.333 1 -15v-13c0 -76.667 -12.333 -135.167 -37 -175.5s-59 -60.5 -103 -60.5c-26 0 -47.667 8.66699 -65 26s-26 40.333 -26 69c0 28 4.66699 51.5 14 70.5s22.5 35.667 39.5 50s37 27.166 60 38.499s48.167 23 75.5 35
c-1.33301 22 -3.5 45.167 -6.5 69.5s-6.5 49.166 -10.5 74.499c-11.333 -27.333 -28.166 -49.833 -50.499 -67.5s-49.5 -26.5 -81.5 -26.5c-41.333 0 -75 12.333 -101 37s-39 63.667 -39 117c0 23.333 3.33301 46.5 10 69.5s16.334 43.5 29.001 61.5s28.5 32.667 47.5 44
s41.167 17 66.5 17zM218.999 158.003c0 38.667 -7.83398 69.999 -23.501 93.999s-39.834 36 -72.501 36c-18 0 -34.167 -4.5 -48.5 -13.5s-26.166 -20.667 -35.499 -35s-16.5 -30.5 -21.5 -48.5s-7.5 -36.333 -7.5 -55c0 -39.333 9.33301 -68.166 28 -86.499
s42.667 -27.5 72 -27.5c18.667 0 34.834 3.83301 48.501 11.5s25 18 34 31s15.667 27.5 20 43.5s6.5 32.667 6.5 50zM160.998 -316.998c30 0 54.1641 16.333 72.4971 49s27.5 81.667 27.5 147v11c-22.667 -9.33301 -43.167 -18.5 -61.5 -27.5s-34.166 -19.167 -47.499 -30.5
s-23.666 -24.333 -30.999 -39s-11 -32.667 -11 -54c0 -15.333 4.33301 -28.5 13 -39.5s21.334 -16.5 38.001 -16.5z" />
    <glyph glyph-name="h" unicode="h" horiz-adv-x="750" 
d="M66 2c0 -5.33301 -2 -9.83398 -6 -13.501s-8.66699 -5.5 -14 -5.5s-10 1.83301 -14 5.5s-6 8.16699 -6 13.5v216l-3 -5c-3.33301 -5.33301 -8.33301 -8 -15 -8c-5.33301 0 -10.166 1.66699 -14.499 5s-6.5 7.66602 -6.5 12.999c0 2.66699 0.333008 5.33398 1 8.00098
s2.66699 6.33398 6 11.001c4.66699 6.66699 9.5 14.834 14.5 24.501s11.5 20.167 19.5 31.5c0.666992 36.667 2.16699 73.834 4.5 111.501s5.66602 74.167 9.99902 109.5s9.83301 68.333 16.5 99s15 57.5 25 80.5s21.667 41.167 35 54.5s28.666 20 45.999 20
c25.333 0 43.833 -8.16699 55.5 -24.5s17.5 -40.5 17.5 -72.5c0 -33.333 -6 -67.666 -18 -102.999s-26.667 -70 -44 -104s-35.833 -66.667 -55.5 -98l-52.5 -83l-3 -133c10.667 22.667 23 44.5 37 65.5s29.167 39.5 45.5 55.5s33.666 28.833 51.999 38.5
s37.166 14.5 56.499 14.5c18.667 0 33.667 -4.5 45 -13.5s20.166 -20.833 26.499 -35.5s10.666 -31.834 12.999 -51.501s4.5 -39.834 6.5 -60.501c1.33301 -18.667 3.33301 -36.667 6 -54s7.33398 -32.833 14.001 -46.5s16.5 -24.667 29.5 -33s30.5 -12.5 52.5 -12.5
c32.667 0 63.834 7.16699 93.501 21.5s57 32.5 82 54.5s47.667 45.833 68 71.5s37.5 49.834 51.5 72.501c0.666992 1.33301 2 3 4 5c4 4 8.66699 6 14 6c12.667 0 19 -5.33301 19 -16c0 -4 -1.33301 -9.33301 -4 -16l-4 -8c-16 -24 -35 -49.667 -57 -77
s-46.667 -52.333 -74 -75s-57.166 -41.5 -89.499 -56.5s-66.833 -22.5 -103.5 -22.5c-30 0 -53.833 5.33301 -71.5 16s-31.5 24.667 -41.5 42s-16.833 36.666 -20.5 57.999s-6.5 42.666 -8.5 63.999l-4 48c-1.33301 15.333 -3.66602 28.833 -6.99902 40.5
s-8.16602 21 -14.499 28s-15.166 10.5 -26.499 10.5c-23.333 0 -46.333 -10 -69 -30s-42.834 -44.667 -60.501 -74s-32 -60.5 -43 -93.5s-16.5 -62.833 -16.5 -89.5zM171 732.999c-16 0 -29.665 -10.499 -40.998 -31.499s-21 -48.5 -29 -82.5s-14.333 -73 -19 -117
s-8.33398 -89 -11.001 -135l44.5 74c15 26 28.667 52.5 41 79.5s22.333 53.667 30 80s11.5 51.5 11.5 75.5c0 17.333 -2.33301 31.166 -7 41.499s-11.334 15.5 -20.001 15.5z" />
    <glyph glyph-name="i" unicode="i" horiz-adv-x="518" 
d="M23 213c-3.33301 -5.33301 -8.33398 -7.99805 -15.001 -7.99805c-5.33301 0 -10.166 1.66699 -14.499 5s-6.5 7.66602 -6.5 12.999c0 4 1 8 3 12c1.33301 2.66699 2.66602 5 3.99902 7l46 76c2 3.33301 4.33301 6.16602 7 8.49902s6.66699 3.5 12 3.5
c6 0 10.833 -1.83301 14.5 -5.5s5.5 -7.5 5.5 -11.5c0 -28.667 1.33301 -59.834 4 -93.501s8.83398 -65.167 18.501 -94.5s23.5 -53.833 41.5 -73.5s42.667 -29.5 74 -29.5c33.333 0 64.666 7.16699 93.999 21.5s56.5 32.5 81.5 54.5s47.667 45.833 68 71.5
s37.5 49.834 51.5 72.501c0.666992 1.33301 2 3 4 5c4 4 8.66699 6 14 6c12.667 0 19 -5.33301 19 -16c0 -4 -1.33301 -9.33301 -4 -16l-4 -8c-16 -24 -35 -49.667 -57 -77s-46.667 -52.333 -74 -75s-57.166 -41.5 -89.499 -56.5s-66.833 -22.5 -103.5 -22.5
c-33.333 0 -60.833 8 -82.5 24s-39.167 36.5 -52.5 61.5s-23 53 -29 84s-10 61.5 -12 91.5zM52.999 460.002c0 12 2.83301 23.167 8.5 33.5s14.167 15.5 25.5 15.5s19.166 -3.66699 23.499 -11s6.5 -17 6.5 -29c0 -16 -3.33301 -28.333 -10 -37s-14.667 -13 -24 -13
c-11.333 0 -19.166 3.83301 -23.499 11.5s-6.5 17.5 -6.5 29.5z" />
    <glyph glyph-name="j" unicode="j" horiz-adv-x="473" 
d="M23 213c-3.33301 -5.33301 -8.33203 -7.99902 -14.999 -7.99902c-5.33301 0 -10.166 1.66699 -14.499 5s-6.5 7.66602 -6.5 12.999c0 4 1 8 3 12c1.33301 2.66699 2.66602 5 3.99902 7l19.5 32l14.5 24c4.66699 7.33301 8.66699 14 12 20
c3.33301 5.33301 6.5 8.66602 9.5 9.99902s6.5 2 10.5 2c6 0 10.833 -1.83301 14.5 -5.5s5.5 -7.5 5.5 -11.5c0 -37.333 1.83301 -70.5 5.5 -99.5s8 -57 13 -84l15 -83c5 -28.333 8.5 -60.5 10.5 -96.5c26.667 12 54.5 26 83.5 42s58.167 35.333 87.5 58
s58.5 49.667 87.5 81s57.167 68.333 84.5 111c0.666992 1.33301 2 3 4 5c4 4 8.66699 6 14 6c12.667 0 19 -5.33301 19 -16c0 -4 -1.33301 -9.33301 -4 -16l-4 -8c-31.333 -47.333 -63.333 -87.666 -96 -120.999s-64.834 -61.666 -96.501 -84.999s-62.5 -42.833 -92.5 -58.5
s-58.333 -29.5 -85 -41.5c0 -4.66699 0.166992 -9.16699 0.5 -13.5s0.5 -9.16602 0.5 -14.499c0 -76.667 -12.333 -135.167 -37 -175.5s-59 -60.5 -103 -60.5c-26 0 -47.667 8.66699 -65 26s-26 40.333 -26 69c0 28 4.66699 51.667 14 71s22.5 36 39.5 50s37 26.667 60 38
s48.167 23 75.5 35c-1.33301 31.333 -4 59.666 -8 84.999s-8.16699 50 -12.5 74l-13 72.5c-4.33301 24.333 -7.5 51.166 -9.5 80.499zM-12.999 -316.999c30 0 54.1641 16.333 72.4971 49s27.5 81.667 27.5 147v11c-22.667 -9.33301 -43.167 -18.5 -61.5 -27.5
s-34.166 -19.167 -47.499 -30.5s-23.666 -24.333 -30.999 -39s-11 -32.667 -11 -54c0 -15.333 4.33301 -28.5 13 -39.5s21.334 -16.5 38.001 -16.5zM52.998 460.001c0 12 2.83301 23.167 8.5 33.5s14.167 15.5 25.5 15.5s19.166 -3.66699 23.499 -11s6.5 -17 6.5 -29
c0 -16 -3.33301 -28.333 -10 -37s-14.667 -13 -24 -13c-11.333 0 -19.166 3.83301 -23.499 11.5s-6.5 17.5 -6.5 29.5z" />
    <glyph glyph-name="k" unicode="k" horiz-adv-x="681" 
d="M680 247c4 4 8.33398 5.99414 13.001 5.99414c12.667 0 19 -5.33301 19 -16c0 -4 -1.33301 -9.33301 -4 -16l-4 -8c-16 -24 -35 -49.667 -57 -77s-46.833 -52.333 -74.5 -75s-57.667 -41.5 -90 -56.5s-66.833 -22.5 -103.5 -22.5c-23.333 0 -42.666 4.16699 -57.999 12.5
s-28.5 18.833 -39.5 31.5s-20.167 26.5 -27.5 41.5l-21 42.5c-13.333 -4 -24.666 -6 -33.999 -6c-22 0 -39.5 5 -52.5 15s-19.5 22.667 -19.5 38c0 13.333 4.33301 24.166 13 32.499s20.667 12.5 36 12.5c19.333 0 34.833 -4 46.5 -12s21.5 -18.333 29.5 -31
c13.333 8.66699 25.5 19.834 36.5 33.501s16.5 30.167 16.5 49.5c0 13.333 -4.33301 24.5 -13 33.5s-21 13.5 -37 13.5c-23.333 0 -46.333 -9.83301 -69 -29.5s-42.834 -44 -60.501 -73s-32 -60.167 -43 -93.5s-16.5 -63.333 -16.5 -90c0 -5.33301 -2 -10 -6 -14
s-8.66699 -6 -14 -6s-10 1.83301 -14 5.5s-6 8.16699 -6 13.5v216l-3 -5c-3.33301 -5.33301 -8.33301 -8 -15 -8c-5.33301 0 -10.166 1.66699 -14.499 5s-6.5 7.66602 -6.5 12.999c0 2.66699 0.333008 5.33398 1 8.00098s2.66699 6.33398 6 11.001
c4.66699 6.66699 9.5 14.834 14.5 24.501s11.5 20.167 19.5 31.5c0.666992 36.667 2.16699 73.834 4.5 111.501s5.66602 74.167 9.99902 109.5s9.83301 68.333 16.5 99s15 57.5 25 80.5s21.667 41.167 35 54.5s28.666 20 45.999 20c25.333 0 43.833 -8.16699 55.5 -24.5
s17.5 -40.5 17.5 -72.5c0 -33.333 -6 -67.666 -18 -102.999s-26.667 -70 -44 -104s-35.833 -66.5 -55.5 -97.5l-52.5 -82.5l-3 -134c10.667 22.667 23 44.5 37 65.5s29.167 39.5 45.5 55.5s33.666 28.833 51.999 38.5s37.166 14.5 56.499 14.5
c29.333 0 51.5 -8.33301 66.5 -25s22.5 -36.667 22.5 -60c0 -28 -7.66699 -51.667 -23 -71s-32.666 -34.666 -51.999 -45.999l17.5 -37.5c5.66699 -12.333 12.5 -23.5 20.5 -33.5s17.667 -18.167 29 -24.5s25.333 -9.5 42 -9.5c32.667 0 63.834 7.16699 93.501 21.5
s57.167 32.5 82.5 54.5s48.166 45.833 68.499 71.5s37.5 49.834 51.5 72.501zM171.001 732.994c-16 0 -29.6641 -10.499 -40.9971 -31.499s-20.833 -48.5 -28.5 -82.5s-13.834 -73 -18.501 -117s-8.33398 -89 -11.001 -135l44.5 74.5c15 26.333 28.5 52.833 40.5 79.5
s21.833 53.167 29.5 79.5s11.5 51.5 11.5 75.5c0 17.333 -2.33301 31.166 -7 41.499s-11.334 15.5 -20.001 15.5zM199.004 139.995c2 0 4.33203 0.167969 6.99902 0.500977s5.66699 0.833008 9 1.5c-5.33301 7.33301 -11.166 13.166 -17.499 17.499s-13.5 6.5 -21.5 6.5
c-7.33301 0 -11 -3 -11 -9c0 -4.66699 2.83301 -8.66699 8.5 -12s14.167 -5 25.5 -5z" />
    <glyph glyph-name="l" unicode="l" horiz-adv-x="508" 
d="M29 320c0 53.333 1.8291 107 5.49609 161s9.5 102.667 17.5 146s18.833 78.5 32.5 105.5s30.5 40.5 50.5 40.5c25.333 0 43.833 -8.16699 55.5 -24.5s17.5 -40.5 17.5 -72.5c0 -32.667 -4.83301 -66.5 -14.5 -101.5s-21.667 -69.5 -36 -103.5s-29.5 -66.5 -45.5 -97.5
l-43 -82.5c0.666992 -28.667 2.83398 -58.834 6.50098 -90.501s10.5 -60.667 20.5 -87s23.833 -48.166 41.5 -65.499s40.834 -26 69.501 -26c33.333 0 64.666 7.16699 93.999 21.5s56.5 32.5 81.5 54.5s47.667 45.833 68 71.5s37.5 49.834 51.5 72.501l5 5
c4 4 8.33301 6 13 6c12.667 0 19 -5.33301 19 -16c0 -4 -1.33301 -9.33301 -4 -16l-4 -8c-16 -24 -35 -49.667 -57 -77s-46.667 -52.333 -74 -75s-57.166 -41.5 -89.499 -56.5s-66.833 -22.5 -103.5 -22.5c-31.333 0 -57.666 7.33301 -78.999 22s-38.666 33.667 -51.999 57
s-23.333 49.666 -30 78.999s-11.334 58.666 -14.001 87.999l-9 -15c-3.33301 -5.33301 -8.33301 -8 -15 -8c-5.33301 0 -10.166 1.66699 -14.499 5s-6.5 7.66602 -6.5 12.999c0 2.66699 0.333008 5.33398 1 8.00098s2.66699 6.33398 6 11.001
c4.66699 7.33301 9.66699 15.833 15 25.5s12 20.5 20 32.5v20zM140.996 733c-11.333 0 -21.165 -10.832 -29.498 -32.499s-15.5 -49.667 -21.5 -84s-10.833 -72.833 -14.5 -115.5s-5.83398 -85 -6.50098 -127c12 23.333 23.833 47.833 35.5 73.5s22.167 51.5 31.5 77.5
s17 51.833 23 77.5s9 50.167 9 73.5c0 17.333 -2.33301 31.166 -7 41.499s-11.334 15.5 -20.001 15.5z" />
    <glyph glyph-name="m" unicode="m" horiz-adv-x="1160" 
d="M23 213c-1.33301 -1.33301 -3.16602 -3.00098 -5.49902 -5.00098s-5.83301 -3 -10.5 -3c-5.33301 0 -10 1.66699 -14 5s-6 8 -6 14c0 4 1 8 3 12c1.33301 2.66699 2.66602 4.66699 3.99902 6l31.5 53.5c8.33301 14.333 16 26 23 35s14.167 15.333 21.5 19
s16.333 5.5 27 5.5c12.667 0 23.667 -3.33301 33 -10s17.333 -18.667 24 -36s12.334 -41 17.001 -71s9.33398 -68.667 14.001 -116c7.33301 22.667 15.666 46.334 24.999 71.001s19.833 47 31.5 67s24.167 36.5 37.5 49.5s27.666 19.5 42.999 19.5
c16 0 30.833 -7.33301 44.5 -22s26 -33 37 -55s20.833 -46.167 29.5 -72.5s16 -51.166 22 -74.499c9.33301 26.667 21.333 53.5 36 80.5s31.167 51 49.5 72s38.166 38.167 59.499 51.5s43.333 20 66 20c18.667 0 33.667 -4.5 45 -13.5s20.166 -20.833 26.499 -35.5
s10.666 -31.834 12.999 -51.501s4.5 -39.834 6.5 -60.501c1.33301 -18.667 3.33301 -36.667 6 -54s7.33398 -32.833 14.001 -46.5s16.5 -24.667 29.5 -33s30.5 -12.5 52.5 -12.5c32.667 0 63.834 7.16699 93.501 21.5s57 32.5 82 54.5s47.667 45.833 68 71.5
s37.5 49.834 51.5 72.501c0.666992 1.33301 2 3 4 5c4 4 8.66699 6 14 6c12.667 0 19 -5.33301 19 -16c0 -4 -1.33301 -9.33301 -4 -16l-4 -8c-16 -24 -35 -49.667 -57 -77s-46.667 -52.333 -74 -75s-57.166 -41.5 -89.499 -56.5s-66.833 -22.5 -103.5 -22.5
c-30 0 -53.833 5.33301 -71.5 16s-31.5 24.667 -41.5 42s-16.833 36.666 -20.5 57.999s-6.5 42.666 -8.5 63.999l-4 48c-1.33301 15.333 -3.66602 28.833 -6.99902 40.5s-8.16602 21 -14.499 28s-15.166 10.5 -26.499 10.5c-23.333 0 -45.833 -9.83301 -67.5 -29.5
s-41.167 -44 -58.5 -73s-31.666 -60.167 -42.999 -93.5s-18 -63.666 -20 -90.999c-0.666992 -5.33301 -2.83398 -9.83301 -6.50098 -13.5s-8.16699 -5.5 -13.5 -5.5s-10 2 -14 6s-6 8.66699 -6 14c0 2 -1.33301 10.667 -4 26s-6.33398 33.5 -11.001 54.5
s-10.334 43.5 -17.001 67.5s-14.334 46.333 -23.001 67s-18 37.667 -28 51s-20.333 20 -31 20c-8.66699 0 -17 -4.16699 -25 -12.5s-15.833 -19.333 -23.5 -33s-14.834 -29.167 -21.501 -46.5s-13 -35 -19 -53c-13.333 -42.667 -25.666 -91 -36.999 -145
c-3.33301 -10.667 -10 -16 -20 -16c-5.33301 0 -10 1.83301 -14 5.5s-6 8.16699 -6 13.5c0 68.667 -2.16699 123.5 -6.5 164.5s-9.66602 72.5 -15.999 94.5s-12.833 36.5 -19.5 43.5s-12.334 10.5 -17.001 10.5c-6 0 -11.667 -3 -17 -9s-10.833 -13.667 -16.5 -23
s-11.667 -20.166 -18 -32.499s-13.833 -24.833 -22.5 -37.5z" />
    <glyph glyph-name="n" unicode="n" horiz-adv-x="880" 
d="M23 213c-1.33301 -1.33301 -3.1709 -2.99805 -5.50391 -4.99805s-5.83301 -3 -10.5 -3c-5.33301 0 -10 1.66699 -14 5s-6 8 -6 14c0 4 1 8 3 12c1.33301 2.66699 2.66602 4.66699 3.99902 6l31.5 53.5c8.33301 14.333 16 26 23 35s14.167 15.333 21.5 19
s16.333 5.5 27 5.5c12.667 0 23.5 -3.16699 32.5 -9.5s16.833 -17.833 23.5 -34.5s12.334 -39.667 17.001 -69s9.33398 -66.666 14.001 -111.999c10 25.333 22.333 50 37 74s30.667 45.167 48 63.5s35.833 33.166 55.5 44.499s40.167 17 61.5 17
c18.667 0 33.667 -4.5 45 -13.5s20.166 -20.833 26.499 -35.5s10.666 -31.834 12.999 -51.501s4.5 -39.834 6.5 -60.501c1.33301 -18.667 3.33301 -36.667 6 -54s7.33398 -32.833 14.001 -46.5s16.5 -24.667 29.5 -33s30.5 -12.5 52.5 -12.5
c32.667 0 63.834 7.16699 93.501 21.5s57 32.5 82 54.5s47.667 45.833 68 71.5s37.5 49.834 51.5 72.501l5 5c4 4 8.33301 6 13 6c12.667 0 19 -5.33301 19 -16c0 -4 -1.33301 -9.33301 -4 -16l-4 -8c-16 -24 -35 -49.667 -57 -77s-46.667 -52.333 -74 -75
s-57.166 -41.5 -89.499 -56.5s-66.833 -22.5 -103.5 -22.5c-30 0 -53.833 5.33301 -71.5 16s-31.5 24.667 -41.5 42s-16.833 36.666 -20.5 57.999s-6.5 42.666 -8.5 63.999l-4 48c-1.33301 15.333 -3.66602 28.833 -6.99902 40.5s-8.16602 21 -14.499 28
s-15.166 10.5 -26.499 10.5c-23.333 0 -46.333 -10 -69 -30s-42.834 -44.5 -60.501 -73.5s-32 -60 -43 -93s-16.5 -62.833 -16.5 -89.5c0 -5.33301 -2 -10 -6 -14s-8.66699 -6 -14 -6s-10 1.83301 -14 5.5s-6 8.16699 -6 13.5c0 68.667 -2.16699 123.5 -6.5 164.5
s-9.66602 72.5 -15.999 94.5s-12.833 36.5 -19.5 43.5s-12.334 10.5 -17.001 10.5c-6 0 -11.667 -3 -17 -9s-10.833 -13.667 -16.5 -23s-11.667 -20.166 -18 -32.499s-13.833 -24.833 -22.5 -37.5z" />
    <glyph glyph-name="o" unicode="o" horiz-adv-x="422" 
d="M123 329c44 0 77.3301 -15.002 99.9971 -45.002s34.667 -69 36 -117c2.66699 -0.666992 5.33398 -1 8.00098 -1h8c16 0 30.5 1.16699 43.5 3.5s25 6.33301 36 12s21.5 13.334 31.5 23.001s20 22.167 30 37.5c3.33301 5.33301 6.83301 10.166 10.5 14.499
s8.16699 6.5 13.5 6.5s10 -1.33301 14 -4s6 -6.33398 6 -11.001c0 -3.33301 -1.5 -8.5 -4.5 -15.5s-6.5 -13.5 -10.5 -19.5c-21.333 -31.333 -45.5 -53.666 -72.5 -66.999s-59.5 -20 -97.5 -20h-9c-2.66699 0 -5.66699 0.333008 -9 1
c-2.66699 -19.333 -8 -37.666 -16 -54.999s-18.167 -32.666 -30.5 -45.999s-27 -24 -44 -32s-35.833 -12 -56.5 -12c-41.333 0 -75 13.167 -101 39.5s-39 67.833 -39 124.5c0 22 3.83301 44 11.5 66s18.334 41.667 32.001 59s29.834 31.333 48.501 42s39 16 61 16z
M109.997 21.998c16.667 0 31.335 3.16797 44.002 9.50098s23.5 14.666 32.5 24.999s16 22.333 21 36s8.5 28.167 10.5 43.5c-14 4.66699 -27.333 11 -40 19s-23.834 17.167 -33.501 27.5s-17.5 22 -23.5 35s-9 27.167 -9 42.5c0 12.667 1.66699 22.334 5 29.001
c-14.667 -1.33301 -28.5 -6.33301 -41.5 -15s-24.333 -19.834 -34 -33.501s-17.334 -28.667 -23.001 -45s-8.5 -32.833 -8.5 -49.5c0 -42.667 9.33301 -74 28 -94s42.667 -30 72 -30zM217.998 177.999c-2 23.333 -7.33301 43.832 -16 61.499s-20.667 30.834 -36 39.501
c-9.33301 -2.66699 -14 -9 -14 -19c0 -19.333 6.5 -36 19.5 -50s28.5 -24.667 46.5 -32z" />
    <glyph glyph-name="p" unicode="p" horiz-adv-x="863" 
d="M97 315c-6 0 -11.666 -3.00586 -16.999 -9.00586s-10.833 -13.667 -16.5 -23s-11.667 -20.166 -18 -32.499s-13.833 -24.833 -22.5 -37.5c-1.33301 -1.33301 -3.16602 -3 -5.49902 -5s-5.83301 -3 -10.5 -3c-5.33301 0 -10 1.66699 -14 5s-6 8 -6 14c0 4 1 8 3 12
c1.33301 2.66699 2.66602 4.66699 3.99902 6l31.5 53.5c8.33301 14.333 16 26 23 35s14.167 15.333 21.5 19s16.333 5.5 27 5.5c20.667 0 38.667 -11.5 54 -34.5s28.666 -52.167 39.999 -87.5c27.333 31.333 56.333 55.166 87 71.499s61 24.5 91 24.5
c43.333 0 75.666 -12.167 96.999 -36.5s32 -56.166 32 -95.499c0 -28.667 -4.33301 -54.167 -13 -76.5s-19.667 -42.166 -33 -59.499c17.333 -10 34.666 -19 51.999 -27s36.666 -12 57.999 -12c32.667 0 63.834 7.16699 93.501 21.5s57 32.5 82 54.5s47.667 45.833 68 71.5
s37.5 49.834 51.5 72.501l5 5c4 4 8.33301 6 13 6c12.667 0 19 -5.33301 19 -16c0 -4 -1.33301 -9.33301 -4 -16l-4 -8c-16 -24 -35 -49.667 -57 -77s-46.667 -52.333 -74 -75s-57.166 -41.5 -89.499 -56.5s-66.833 -22.5 -103.5 -22.5
c-29.333 0 -54.833 5.16699 -76.5 15.5s-42.167 21.5 -61.5 33.5c-18 -15.333 -36.5 -27 -55.5 -35s-34.5 -12 -46.5 -12c-22 0 -39.5 5.83301 -52.5 17.5s-19.5 26.834 -19.5 45.501c0 20.667 6 36.667 18 48s29 17 51 17c19.333 0 37 -3 53 -9s31.333 -13 46 -21
c11.333 14 20.833 30.5 28.5 49.5s11.5 40.833 11.5 65.5c0 27.333 -7.5 49.5 -22.5 66.5s-37.5 25.5 -67.5 25.5c-25.333 0 -52.333 -9 -81 -27s-55.667 -44 -81 -78c6.66699 -27.333 12.5 -55.833 17.5 -85.5s9 -58.167 12 -85.5s5.33301 -52.666 7 -75.999
s2.5 -42.666 2.5 -57.999c0 -70.667 -9.5 -124.334 -28.5 -161.001s-46.167 -55 -81.5 -55c-25.333 0 -45.166 11.833 -59.499 35.5s-21.5 60.5 -21.5 110.5c0 82.667 10 156.334 30 221.001s46 120 78 166c-9.33301 34.667 -19.5 63.167 -30.5 85.5s-22.5 33.5 -34.5 33.5z
M205.001 -121.006c0 17.333 -0.666016 36.332 -1.99902 56.999s-3.33301 42.334 -6 65.001s-5.83398 45.5 -9.50098 68.5s-7.83398 45.5 -12.501 67.5c-23.333 -40.667 -42.666 -88.5 -57.999 -143.5s-23 -116.5 -23 -184.5c0 -70.667 13.667 -106 41 -106
c20.667 0 37.5 14.667 50.5 44s19.5 73.333 19.5 132zM322.002 23.9932c8 0 18 2.33301 30 7s24 11.667 36 21c-11.333 5.33301 -22.5 10 -33.5 14s-22.833 6 -35.5 6c-19.333 0 -29 -8.33301 -29 -25c0 -6.66699 2.83301 -12.167 8.5 -16.5s13.5 -6.5 23.5 -6.5z" />
    <glyph glyph-name="q" unicode="q" horiz-adv-x="675" 
d="M674 247c4 4 8.33203 6.00391 12.999 6.00391c12.667 0 19 -5.33301 19 -16c0 -4 -1.33301 -9.33301 -4 -16l-4 -8l-59.5 -90c-23.667 -35.333 -50.5 -70.5 -80.5 -105.5s-63.167 -67.167 -99.5 -96.5s-75.166 -50.333 -116.499 -63
c5.33301 -18 9.66602 -37.5 12.999 -58.5s5 -43.167 5 -66.5c0 -16 -1.33301 -31.833 -4 -47.5s-6.5 -29.834 -11.5 -42.501s-11.167 -23 -18.5 -31s-16 -12 -26 -12c-12.667 0 -24 5.66699 -34 17s-18.333 26.666 -25 45.999s-11.667 42 -15 68s-5 54 -5 84
c0 7.33301 -0.166992 14.166 -0.5 20.499s-0.5 13.166 -0.5 20.499c-15.333 6 -28.333 14.5 -39 25.5s-16 24.167 -16 39.5c0 21.333 4.83301 37.5 14.5 48.5s22.834 17.5 39.501 19.5v47c-13.333 -16.667 -29 -29.834 -47 -39.501s-38.667 -14.5 -62 -14.5
c-41.333 0 -75 12.333 -101 37s-39 63.667 -39 117c0 23.333 3.33301 46.5 10 69.5s16.334 43.5 29.001 61.5s28.5 32.667 47.5 44s41.167 17 66.5 17c46 0 80.167 -15.667 102.5 -47s33.5 -72.333 33.5 -123v-174c12.667 -6.66699 25.167 -17.5 37.5 -32.5
s23.166 -33.5 32.499 -55.5c27.333 7.33301 53.333 19 78 35s48 34.333 70 55s42.667 42.834 62 66.501s37 47 53 70s30.5 45 43.5 66l33.5 53.5zM218.999 153.004c0 41.333 -7.83301 74.166 -23.5 98.499s-39.834 36.5 -72.501 36.5c-18 0 -34.167 -4.5 -48.5 -13.5
s-26.166 -20.667 -35.499 -35s-16.5 -30.5 -21.5 -48.5s-7.5 -36.333 -7.5 -55c0 -39.333 9.33301 -68.166 28 -86.499s42.667 -27.5 72 -27.5c18 0 33.833 3.66699 47.5 11s25 17.166 34 29.499s15.833 26.333 20.5 42s7 31.834 7 48.501zM319.999 -265.996
c0 23.333 -1.33105 44.666 -3.99805 63.999s-6.33398 36.666 -11.001 51.999c-12 -2 -24.333 -3 -37 -3h-9c0 -5.33301 0.166992 -10.666 0.5 -15.999s0.5 -10.666 0.5 -15.999c0.666992 -24 2.16699 -46.667 4.5 -68s5.33301 -39.833 9 -55.5s7.66699 -28.167 12 -37.5
s9.16602 -14 14.499 -14c2.66699 0 5.16699 3 7.5 9s4.5 13.5 6.5 22.5s3.5 19.167 4.5 30.5s1.5 22 1.5 32zM291.001 -110.996c-10 21.333 -20.667 37.333 -32 48v-49c2 -0.666992 5 -1 9 -1s7.83301 0.166992 11.5 0.5s7.5 0.833008 11.5 1.5zM220.001 -99.9961
c0 8 -0.166992 16 -0.5 24s-0.5 16 -0.5 24c-9.33301 -4 -14 -13 -14 -27c0 -8.66699 5 -15.667 15 -21z" />
    <glyph glyph-name="r" unicode="r" horiz-adv-x="667" 
d="M148 206c-17.333 0 -35.8379 3.16309 -55.5049 9.49609s-37.167 14.833 -52.5 25.5l-17 -28c-3.33301 -5.33301 -8.33301 -8 -15 -8c-5.33301 0 -10.166 1.66699 -14.499 5s-6.5 7.66602 -6.5 12.999c0 2.66699 0.333008 5.33398 1 8.00098s2.66699 6.33398 6 11.001
l17 28c-7.33301 8.66699 -13 17.667 -17 27s-6 19.333 -6 30c0 15.333 3.83301 27 11.5 35s18.167 12 31.5 12c14.667 0 26.334 -4.16699 35.001 -12.5s13 -20.166 13 -35.499c0 -7.33301 -1.66699 -15.5 -5 -24.5s-7.66602 -18.167 -12.999 -27.5
c12 -8.66699 25.667 -15.5 41 -20.5s30.666 -7.5 45.999 -7.5c26.667 0 48.167 3.66699 64.5 11s25.833 12.666 28.5 15.999c2 2 4.33301 4 7 6s6.33398 3 11.001 3c6 0 10.833 -1.83301 14.5 -5.5s5.5 -7.5 5.5 -11.5c0 -3.33301 -0.5 -6.16602 -1.5 -8.49902
s-1.83301 -4.5 -2.5 -6.5c-2 -6 -4 -13.667 -6 -23s-3.66699 -19.166 -5 -29.499s-2.5 -20.5 -3.5 -30.5s-1.5 -19 -1.5 -27c0 -25.333 2.83301 -45.666 8.5 -60.999s13.5 -27.166 23.5 -35.499s21.5 -14 34.5 -17s26.5 -4.5 40.5 -4.5c32.667 0 63.834 7.16699 93.501 21.5
s57 32.5 82 54.5s47.667 45.833 68 71.5s37.5 49.834 51.5 72.501l5 5c4 4 8.33301 6 13 6c12.667 0 19 -5.33301 19 -16c0 -4 -1.33301 -9.33301 -4 -16l-4 -8c-16 -24 -35 -49.667 -57 -77s-46.667 -52.333 -74 -75s-57.166 -41.5 -89.499 -56.5
s-66.833 -22.5 -103.5 -22.5c-22 0 -41.833 2.66699 -59.5 8s-33 14.166 -46 26.499s-23 28.666 -30 48.999s-10.5 45.5 -10.5 75.5c0 12.667 1 26.167 3 40.5s4 27.833 6 40.5c-10.667 -4.66699 -22.5 -8.5 -35.5 -11.5s-28.167 -4.5 -45.5 -4.5zM21.9951 326.996
c0 -10.667 3 -20.667 9 -30c3.33301 4.66699 6.5 9.5 9.5 14.5s4.5 9.83301 4.5 14.5c0 10 -4 15 -12 15c-7.33301 0 -11 -4.66699 -11 -14z" />
    <glyph glyph-name="s" unicode="s" horiz-adv-x="621" 
d="M196 127c0 16 -4.83496 29.9922 -14.502 41.9922s-21.667 23.167 -36 33.5s-30.166 20 -47.499 29s-33.333 18.167 -48 27.5l-27 -46c-3.33301 -5.33301 -8.33301 -8 -15 -8c-5.33301 0 -10.166 1.66699 -14.499 5s-6.5 7.66602 -6.5 12.999
c0 2.66699 0.333008 5.33398 1 8.00098s2.66699 6.33398 6 11.001l22 38c-8.66699 6.66699 -15.5 13.834 -20.5 21.501s-7.5 16.167 -7.5 25.5c0 15.333 3.83301 27 11.5 35s18.167 12 31.5 12c14.667 0 26.334 -4.16699 35.001 -12.5s13 -20.166 13 -35.499
c0 -9.33301 -3.33301 -21.666 -10 -36.999l52 -27c19.333 -10 37.5 -21.5 54.5 -34.5s31.333 -27.667 43 -44s17.5 -35.166 17.5 -56.499c0 -13.333 -1.66699 -26 -5 -38s-7.66602 -23 -12.999 -33c15.333 -9.33301 31.333 -17.333 48 -24s34.667 -10 54 -10
c32.667 0 63.834 7.16699 93.501 21.5s57 32.5 82 54.5s47.667 45.833 68 71.5s37.5 49.834 51.5 72.501l5 5c4 4 8.33301 6 13 6c12.667 0 19 -5.33301 19 -16c0 -4 -1.33301 -9.33301 -4 -16l-4 -8c-16 -24 -35 -49.667 -57 -77s-46.667 -52.333 -74 -75
s-57.166 -41.5 -89.499 -56.5s-66.833 -22.5 -103.5 -22.5c-26 0 -49.333 4.33301 -70 13s-40 18.334 -58 29.001c-14.667 -13.333 -31.834 -23.333 -51.501 -30s-39.834 -10 -60.501 -10c-22 0 -39.5 5.83301 -52.5 17.5s-19.5 26.834 -19.5 45.501
c0 20.667 6 36.667 18 48s29 17 51 17c21.333 0 40.666 -3.5 57.999 -10.5s33.666 -15.167 48.999 -24.5c8 14 12 30.667 12 50zM79.998 23.9922c14.667 0 28.502 1.83301 41.502 5.5s24.5 9.16699 34.5 16.5c-12.667 7.33301 -25.334 13.5 -38.001 18.5
s-26.334 7.5 -41.001 7.5c-19.333 0 -29 -8.33301 -29 -25c0 -6.66699 2.83301 -12.167 8.5 -16.5s13.5 -6.5 23.5 -6.5zM19 328.992c0 -4.66699 1.66602 -9 4.99902 -13s7 -7.66699 11 -11l5 12.5c2 5 3 8.83301 3 11.5c0 3.33301 -1.16699 6.5 -3.5 9.5
s-5.16602 4.5 -8.49902 4.5c-8 0 -12 -4.66699 -12 -14z" />
    <glyph glyph-name="t" unicode="t" horiz-adv-x="538" 
d="M168 733c-8 0 -15 -8.16699 -21 -24.5s-11.333 -37.833 -16 -64.5s-8.5 -57.5 -11.5 -92.5s-5.5 -70.833 -7.5 -107.5c20.667 40 38.5 81 53.5 123s22.5 81.667 22.5 119c0 14.667 -1.5 26.167 -4.5 34.5s-8.16699 12.5 -15.5 12.5zM23 213
c-3.33301 -5.33301 -8.33789 -7.99902 -15.0049 -7.99902c-5.33301 0 -10.166 1.66699 -14.499 5s-6.5 7.66602 -6.5 12.999c0 2.66699 0.333008 5.33398 1 8.00098s2.66699 6.33398 6 11.001l19 31l14 22.5c4 6.33301 7.33301 11.833 10 16.5s5.66699 9.33398 9 14.001
l8 13l-38 24c-12 7.33301 -24.667 11 -38 11c-9.33301 0 -17.833 -1.66699 -25.5 -5s-14.167 -7 -19.5 -11c-6.66699 -4.66699 -12 -9.66699 -16 -15c-3.33301 -4.66699 -6.5 -8.16699 -9.5 -10.5s-6.5 -3.5 -10.5 -3.5c-4.66699 0 -9 1.66699 -13 5s-6 8 -6 14
c0 6.66699 2 12.667 6 18c7.33301 8.66699 15.666 16.667 24.999 24c8 6 17.833 11.5 29.5 16.5s24.834 7.5 39.501 7.5c17.333 0 33.166 -4 47.499 -12s28.833 -16.667 43.5 -26c0.666992 49.333 3 97.666 7 144.999s9.83301 89.666 17.5 126.999s17.334 67.5 29.001 90.5
s25.834 34.5 42.501 34.5c22 0 38 -7.33301 48 -22s15 -36.334 15 -65.001c0 -26.667 -3.66699 -54.167 -11 -82.5s-16.666 -56.666 -27.999 -84.999s-24 -56.166 -38 -83.499s-28 -53 -42 -77v-4c7.33301 -2.66699 14.5 -4.83398 21.5 -6.50098s14.833 -2.5 23.5 -2.5
c18.667 0 34.5 2.66699 47.5 8s23.5 11.666 31.5 18.999c9.33301 7.33301 17 16.333 23 27c2 3.33301 4.33301 7 7 11s6.66699 6 12 6c6.66699 0 11.834 -2 15.501 -6s5.5 -9 5.5 -15c0 -2.66699 -0.666992 -6 -2 -10c-0.666992 -2 -1.33398 -3.33301 -2.00098 -4
c-8 -14 -18.333 -26.667 -31 -38c-11.333 -9.33301 -25.666 -18 -42.999 -26s-38.666 -12 -63.999 -12c-17.333 0 -32.333 2 -45 6c0 -28.667 1.33301 -59.834 4 -93.501s8.5 -65 17.5 -94s22 -53.167 39 -72.5s39.5 -29 67.5 -29c33.333 0 64.666 7.16699 93.999 21.5
s56.5 32.5 81.5 54.5s47.667 45.833 68 71.5s37.5 49.834 51.5 72.501l5 5c4 4 8.33301 6 13 6c12.667 0 19 -5.33301 19 -16c0 -4 -1.33301 -9.33301 -4 -16l-4 -8c-16 -24 -35 -49.667 -57 -77s-46.667 -52.333 -74 -75s-57.166 -41.5 -89.499 -56.5
s-66.833 -22.5 -103.5 -22.5c-35.333 0 -63.666 10 -84.999 30s-38 45.167 -50 75.5s-20.333 63.5 -25 99.5s-7.33398 70.333 -8.00098 103z" />
    <glyph glyph-name="u" unicode="u" horiz-adv-x="782" 
d="M143 -19c-22.667 0 -42.167 6.49805 -58.5 19.498s-30 29.667 -41 50s-19.167 42.833 -24.5 67.5s-8 49 -8 73v14h-4c-5.33301 0 -10 1.83301 -14 5.5s-6 8.16699 -6 13.5c0 2.66699 0.333008 5.16699 1 7.5s2.66699 5.83301 6 10.5l21 35
c2.66699 19.333 6.33398 32.833 11.001 40.5s10.667 11.5 18 11.5c9.33301 0 15.5 -3.66699 18.5 -11s4.5 -14.666 4.5 -21.999c0 -6.66699 -1.33301 -13.834 -4 -21.501s-6.33398 -15.167 -11.001 -22.5c-0.666992 -7.33301 -1 -16 -1 -26v-35
c0 -21.333 1.83301 -42.166 5.5 -62.499s9.33398 -38.5 17.001 -54.5s17.334 -28.833 29.001 -38.5s25.5 -14.5 41.5 -14.5c20 0 39.5 6.33301 58.5 19s36 31 51 55s27 53.167 36 87.5s13.5 73.166 13.5 116.499c0 10.667 2 18.5 6 23.5s8.66699 7.5 14 7.5s10 -2 14 -6
s6 -9.33301 6 -16c0 -27.333 1.33301 -57.666 4 -90.999s8.83398 -64.5 18.501 -93.5s23.5 -53.167 41.5 -72.5s42.667 -29 74 -29c33.333 0 64.666 7.16699 93.999 21.5s56.5 32.5 81.5 54.5s47.667 45.833 68 71.5s37.5 49.834 51.5 72.501l5 5c4 4 8.33301 6 13 6
c12.667 0 19 -5.33301 19 -16c0 -4 -1.33301 -9.33301 -4 -16l-4 -8c-16 -24 -35 -49.667 -57 -77s-46.667 -52.333 -74 -75s-57.166 -41.5 -89.499 -56.5s-66.833 -22.5 -103.5 -22.5c-24.667 0 -46 4.33301 -64 13s-33.5 20.5 -46.5 35.5s-23.833 32.333 -32.5 52
s-15.334 40.5 -20.001 62.5c-16.667 -49.333 -40.334 -89 -71.001 -119s-65.334 -45 -104.001 -45z" />
    <glyph glyph-name="v" unicode="v" horiz-adv-x="654" 
d="M426 248c0 11.333 -2 21.166 -6 29.499s-10 12.5 -18 12.5c-12.667 0 -19 -10 -19 -30c0 -13.333 3.16699 -25.166 9.5 -35.499s14.5 -19.5 24.5 -27.5c6 18 9 35 9 51zM506 126c-24 0 -47.333 5.00098 -70 15.001c-10.667 -20.667 -23.334 -40.5 -38.001 -59.5
s-30.667 -36 -48 -51s-36 -27 -56 -36s-40.333 -13.5 -61 -13.5c-28.667 0 -49 10 -61 30s-20 45 -24 75l-12.5 91c-3.66699 28 -7.33398 52.167 -11.001 72.5s-7.66699 36.166 -12 47.499s-9.5 17 -15.5 17s-11.667 -2.83301 -17 -8.5s-10.833 -13.334 -16.5 -23.001
s-11.667 -20.5 -18 -32.5s-13.833 -24.333 -22.5 -37c-1.33301 -1.33301 -3.16602 -3 -5.49902 -5s-5.83301 -3 -10.5 -3c-5.33301 0 -10 1.66699 -14 5s-6 8 -6 14c0 4 1 8 3 12c1.33301 2.66699 2.66602 4.66699 3.99902 6l31.5 53.5c8.33301 14.333 16 25.833 23 34.5
s14.167 14.834 21.5 18.501s16.333 5.5 27 5.5c13.333 0 24.333 -3 33 -9s16.334 -18.167 23.001 -36.5s12.5 -44.166 17.5 -77.499s10.5 -77 16.5 -131c2.66699 -22.667 6.83398 -41.5 12.501 -56.5s17.167 -22.5 34.5 -22.5c16 0 32.167 3.83301 48.5 11.5
s31.833 18 46.5 31s28.167 27.833 40.5 44.5s22.833 33.667 31.5 51c-17.333 12 -31.333 26.5 -42 43.5s-16 36.167 -16 57.5c0 24 5.5 41.667 16.5 53s25.167 17 42.5 17c21.333 0 37.333 -8.33301 48 -25s16 -35.667 16 -57c0 -11.333 -1.33301 -22.833 -4 -34.5
s-6.33398 -23.834 -11.001 -36.501c9.33301 -4 18.5 -6.83301 27.5 -8.5s18.167 -2.5 27.5 -2.5c16 0 30.5 1.16699 43.5 3.5s25.167 6.33301 36.5 12s22 13.334 32 23.001s20 22.167 30 37.5c3.33301 5.33301 6.83301 10.166 10.5 14.499s8.16699 6.5 13.5 6.5
s10 -1.33301 14 -4s6 -6.33398 6 -11.001c0 -3.33301 -1.5 -8.5 -4.5 -15.5s-6.5 -13.5 -10.5 -19.5c-21.333 -31.333 -45.666 -53.666 -72.999 -66.999s-60 -20 -98 -20z" />
    <glyph glyph-name="w" unicode="w" horiz-adv-x="901" 
d="M674 248c0 11.333 -2 21.166 -6 29.499s-10 12.5 -18 12.5c-12.667 0 -19 -10 -19 -30c0 -13.333 3.16699 -25.166 9.5 -35.499s14.5 -19.5 24.5 -27.5c6 18 9 35 9 51zM754 126c-24 0 -47.3301 5.00195 -69.9971 15.002c-9.33301 -20.667 -20.166 -40.5 -32.499 -59.5
s-25.833 -36 -40.5 -51s-30.334 -27 -47.001 -36s-34 -13.5 -52 -13.5s-33.333 4.66699 -46 14s-23.167 21.5 -31.5 36.5s-14.833 32 -19.5 51s-8 38.167 -10 57.5c-11.333 -20.667 -23.833 -40.667 -37.5 -60s-28 -36.333 -43 -51s-30.333 -26.334 -46 -35.001
s-30.834 -13 -45.501 -13c-28.667 0 -49 10 -61 30s-20 45 -24 75l-12.5 91c-3.66699 28 -7.33398 52.167 -11.001 72.5s-7.66699 36.166 -12 47.499s-9.5 17 -15.5 17s-11.667 -2.83301 -17 -8.5s-10.833 -13.334 -16.5 -23.001s-11.667 -20.5 -18 -32.5
s-13.833 -24.333 -22.5 -37c-1.33301 -1.33301 -3.33301 -3 -6 -5s-6 -3 -10 -3c-5.33301 0 -10 1.66699 -14 5s-6 8 -6 14c0 4 1 8 3 12c1.33301 2.66699 2.66602 4.66699 3.99902 6l31.5 53.5c8.33301 14.333 16 25.833 23 34.5s14.167 14.834 21.5 18.501
s16.333 5.5 27 5.5c13.333 0 24.333 -3 33 -9s16.334 -18.167 23.001 -36.5s12.5 -44.166 17.5 -77.499s10.5 -77 16.5 -131c2.66699 -22.667 6.83398 -41.5 12.501 -56.5s17.167 -22.5 34.5 -22.5c14 0 29.167 6.33301 45.5 19s32 28.667 47 48s29.167 41 42.5 65
s24 47.333 32 70v3c0 40.667 2.66699 68 8 82s13.666 21 24.999 21c8.66699 0 14.667 -3.5 18 -10.5s5 -14.167 5 -21.5c0 -11.333 -1.33301 -23.5 -4 -36.5s-6.66699 -27.167 -12 -42.5c0 -18 0.833008 -38.333 2.5 -61s5 -44 10 -64s12.333 -37 22 -51
s22.167 -21 37.5 -21c13.333 0 26.5 3.83301 39.5 11.5s25.5 18 37.5 31s23 27.833 33 44.5s18.667 33.667 26 51c-17.333 12 -31.333 26.5 -42 43.5s-16 36.167 -16 57.5c0 24 5.5 41.667 16.5 53s25.167 17 42.5 17c21.333 0 37.333 -8.33301 48 -25s16 -35.667 16 -57
c0 -11.333 -1.33301 -22.833 -4 -34.5s-6.33398 -23.834 -11.001 -36.501c9.33301 -4 18.5 -6.83301 27.5 -8.5s18.167 -2.5 27.5 -2.5c16 0 30.5 1.16699 43.5 3.5s25 6.33301 36 12s21.5 13.334 31.5 23.001s20 22.167 30 37.5
c3.33301 5.33301 6.83301 10.166 10.5 14.499s8.16699 6.5 13.5 6.5s10 -1.33301 14 -4s6 -6.33398 6 -11.001c0 -3.33301 -1.5 -8.5 -4.5 -15.5s-6.5 -13.5 -10.5 -19.5c-21.333 -31.333 -45.5 -53.666 -72.5 -66.999s-59.5 -20 -97.5 -20z" />
    <glyph glyph-name="x" unicode="x" horiz-adv-x="625" 
d="M-32 20c0 5.33301 2.00098 9.99805 6.00098 13.998s8.66699 6 14 6c36 0 69.667 10.833 101 32.5s60 48.5 86 80.5l-17.5 58c-5.66699 19.333 -11.5 36.666 -17.5 51.999s-12.5 27.833 -19.5 37.5s-14.833 14.5 -23.5 14.5c-6 0 -11.667 -3 -17 -9
s-10.833 -13.667 -16.5 -23s-11.667 -20.166 -18 -32.499s-13.833 -24.833 -22.5 -37.5c-1.33301 -1.33301 -3.33301 -3 -6 -5s-6 -3 -10 -3c-5.33301 0 -10 1.66699 -14 5s-6 8 -6 14c0 4 1 8 3 12c1.33301 2.66699 2.66602 4.66699 3.99902 6l31.5 53.5
c8.33301 14.333 16 26 23 35s14.167 15.333 21.5 19s16.333 5.5 27 5.5c15.333 0 28.5 -4.66699 39.5 -14s20.667 -21.666 29 -36.999s15.666 -32.666 21.999 -51.999l18.5 -59c15.333 22 29.5 44.333 42.5 67s24.5 43.667 34.5 63c0.666992 1.33301 2 3 4 5
c4 4 8.66699 6 14 6c12.667 0 19 -5.33301 19 -16c0 -2.66699 -0.5 -5.33398 -1.5 -8.00098s-2.16699 -5.33398 -3.5 -8.00098s-2.66602 -5.66699 -3.99902 -9c-12 -22 -25.667 -45.667 -41 -71s-32.333 -50 -51 -74c4.66699 -16.667 9.83398 -32.667 15.501 -48
s12.5 -28.666 20.5 -39.999s17.5 -20.5 28.5 -27.5s24.5 -10.5 40.5 -10.5c33.333 0 64.666 7.16699 93.999 21.5s56.5 32.5 81.5 54.5s47.667 45.833 68 71.5s37.5 49.834 51.5 72.501l5 5c4 4 8.33301 6 13 6c12.667 0 19 -5.33301 19 -16c0 -4 -1.33301 -9.33301 -4 -16
l-4 -8c-16 -24 -35 -49.667 -57 -77s-46.667 -52.333 -74 -75s-57.166 -41.5 -89.499 -56.5s-66.833 -22.5 -103.5 -22.5c-20.667 0 -38.334 3.5 -53.001 10.5s-27 16.5 -37 28.5s-18.5 25.833 -25.5 41.5s-13.5 32.167 -19.5 49.5c-28 -32 -58.5 -58.667 -91.5 -80
s-68.5 -32 -106.5 -32c-7.33301 0 -13 2 -17 6s-6 8.66699 -6 14z" />
    <glyph glyph-name="y" unicode="y" horiz-adv-x="841" 
d="M423 308c0 6.66699 2.00195 12.001 6.00195 16.001s8.66699 6 14 6s9.66602 -1.66699 12.999 -5s5.66602 -7.33301 6.99902 -12c6 -22.667 11 -49.334 15 -80.001s7.33301 -62.667 10 -96s4.5 -66.166 5.5 -98.499s1.5 -61.5 1.5 -87.5c26.667 12 54.334 26 83.001 42
s57.5 35.5 86.5 58.5s57.833 50 86.5 81s56.667 67.5 84 109.5l5 5c4 4 8.33301 6 13 6c12.667 0 19 -5.33301 19 -16c0 -4 -1.33301 -9.33301 -4 -16l-4 -8c-31.333 -46.667 -63.333 -86.5 -96 -119.5s-64.667 -61.333 -96 -85s-62 -43.334 -92 -59.001
s-58.333 -29.5 -85 -41.5v-29c0 -76.667 -12.333 -135.167 -37 -175.5s-59 -60.5 -103 -60.5c-26 0 -47.667 8.66699 -65 26s-26 40.333 -26 69c0 28 4.83301 51.667 14.5 71s23 36.166 40 50.499s37.167 27.166 60.5 38.499s48.666 23 75.999 35
c0 18 -0.333008 37.667 -1 59s-1.5 43.5 -2.5 66.5s-2.33301 46.5 -4 70.5s-3.83398 47.333 -6.50098 70c-9.33301 -26.667 -21.333 -53 -36 -79s-31 -49.333 -49 -70s-37.5 -37.334 -58.5 -50.001s-42.5 -19 -64.5 -19c-28.667 0 -49 10 -61 30s-20 45 -24 75l-12.5 91
c-3.66699 28 -7.33398 52.333 -11.001 73s-7.66699 36.667 -12 48s-9.5 17 -15.5 17s-11.667 -3 -17 -9s-10.833 -13.667 -16.5 -23s-11.667 -20.166 -18 -32.499s-13.833 -24.833 -22.5 -37.5c-1.33301 -1.33301 -3.33301 -3 -6 -5s-6 -3 -10 -3
c-5.33301 0 -10 1.66699 -14 5s-6 8 -6 14c0 4 1 8 3 12c1.33301 2.66699 2.66602 4.66699 3.99902 6l31.5 53.5c8.33301 14.333 16 26 23 35s14.167 15.333 21.5 19s16.333 5.5 27 5.5c13.333 0 24.333 -3.16699 33 -9.5s16.334 -18.666 23.001 -36.999
s12.5 -44.166 17.5 -77.499s10.5 -77 16.5 -131c2.66699 -22.667 6.83398 -41.5 12.501 -56.5s17.167 -22.5 34.5 -22.5c23.333 0 46.333 10 69 30s42.834 44.667 60.501 74s32 60.5 43 93.5s16.5 62.833 16.5 89.5zM355.002 -316.999c30 0 54.1641 16.333 72.4971 49
s27.5 81.667 27.5 147v11c-22.667 -9.33301 -43.167 -18.5 -61.5 -27.5s-34.166 -19.167 -47.499 -30.5s-23.666 -24.333 -30.999 -39s-11 -32.667 -11 -54c0 -15.333 4.33301 -28.5 13 -39.5s21.334 -16.5 38.001 -16.5z" />
    <glyph glyph-name="z" unicode="z" horiz-adv-x="631" 
d="M23 213c-1.33301 -1.33301 -3.33203 -3 -5.99902 -5s-6 -3 -10 -3c-5.33301 0 -10 1.66699 -14 5s-6 8 -6 14c0 4 1 8 3 12c1.33301 2.66699 2.66602 4.66699 3.99902 6c11.333 18.667 22.833 35 34.5 49s24.334 25.667 38.001 35s28.667 16.5 45 21.5
s34.833 7.5 55.5 7.5c23.333 0 44.166 -4 62.499 -12s34 -19 47 -33s22.833 -30.5 29.5 -49.5s10 -39.167 10 -60.5c0 -26 -2.83301 -49.333 -8.5 -70s-13.5 -38.667 -23.5 -54c26 -23.333 46.333 -51.666 61 -84.999c22.667 12 46 25.5 70 40.5s47.833 32.5 71.5 52.5
s47.167 43 70.5 69s46 55.667 68 89l5 5c4 4 8.33301 6 13 6c12.667 0 19 -5.33301 19 -16c0 -4 -1.33301 -9.33301 -4 -16l-4 -8c-24.667 -35.333 -49.667 -66.5 -75 -93.5s-50.666 -50.833 -75.999 -71.5s-50.333 -38.667 -75 -54s-48.334 -28.666 -71.001 -39.999
c2.66699 -11.333 4.66699 -22.166 6 -32.499s2 -21.166 2 -32.499c0 -37.333 -4.5 -71 -13.5 -101s-22 -55.833 -39 -77.5s-37.333 -38.334 -61 -50.001s-49.834 -17.5 -78.501 -17.5c-18 0 -34.333 3.16699 -49 9.5s-27.167 14.666 -37.5 24.999s-18.333 22.666 -24 36.999
s-8.5 29.5 -8.5 45.5c0 31.333 6.5 57 19.5 77s31 37.167 54 51.5s49.833 27.666 80.5 39.999s63.667 26.833 99 43.5c-11.333 28.667 -28 52.334 -50 71.001c-16.667 -15.333 -35 -26.833 -55 -34.5s-40.667 -11.5 -62 -11.5c-22 0 -39.5 5.83301 -52.5 17.5
s-19.5 26.834 -19.5 45.501c0 20.667 6.83301 36.667 20.5 48s33.167 17 58.5 17c20 0 38.5 -2.33301 55.5 -7s32.833 -11 47.5 -19c8 12.667 14.333 27.167 19 43.5s7 35.166 7 56.499c0 15.333 -2.66699 30 -8 44s-12.666 26.333 -21.999 37s-20.833 19.167 -34.5 25.5
s-28.5 9.5 -44.5 9.5c-17.333 0 -31.833 -1.33301 -43.5 -4s-22.5 -7.83398 -32.5 -15.501s-20.167 -18.167 -30.5 -31.5s-22.833 -30.333 -37.5 -51zM325.001 -111c0 15.333 -2.00098 31.001 -6.00098 47.001c-32 -14.667 -61.833 -27.334 -89.5 -38.001
s-51.5 -22 -71.5 -34s-35.667 -26 -47 -42s-17 -36.667 -17 -62c0 -20 6.5 -37.833 19.5 -53.5s32.833 -23.5 59.5 -23.5c22 0 42.167 5 60.5 15s34.333 24 48 42s24.334 39.667 32.001 65s11.5 53.333 11.5 84zM147 85.001c-12 0 -21.5 -2.33203 -28.5 -6.99902
s-10.5 -10.667 -10.5 -18c0 -6.66699 2.83301 -12.167 8.5 -16.5s13.5 -6.5 23.5 -6.5c14 0 28.167 2.5 42.5 7.5s27.833 12.5 40.5 22.5c-11.333 5.33301 -23.333 9.66602 -36 12.999s-26 5 -40 5z" />
    <glyph glyph-name="braceleft" unicode="{" horiz-adv-x="296" 
d="M107 589c0 15.333 2.66797 29.8379 8.00098 43.5049s13 25.834 23 36.501s22.167 19 36.5 25s30.833 9 49.5 9c6.66699 0 12 -2 16 -6s6 -8.66699 6 -14s-2 -10 -6 -14s-9.33301 -6 -16 -6c-24 -0.666992 -42.833 -8.33398 -56.5 -23.001s-20.5 -31.667 -20.5 -51
c0 -18 2.16699 -34.833 6.5 -50.5s9.33301 -31.5 15 -47.5s10.667 -32.833 15 -50.5s6.5 -37.834 6.5 -60.501c0 -19.333 -2 -37 -6 -53s-10 -29.667 -18 -41c7.33301 -10 13.166 -22.167 17.499 -36.5s6.5 -30.833 6.5 -49.5c0 -23.333 -2.16699 -44.5 -6.5 -63.5
s-9.33301 -36.667 -15 -53s-10.667 -32.166 -15 -47.499s-6.5 -31.333 -6.5 -48c0 -20 7 -37.333 21 -52s33.333 -22 58 -22c5.33301 0 10 -2 14 -6s6 -8.66699 6 -14s-2 -10 -6 -14s-8.66699 -6 -14 -6c-18.667 0 -35.334 3 -50.001 9s-27.167 14.167 -37.5 24.5
s-18.166 22.5 -23.499 36.5s-8 28.667 -8 44c0 16 2.16699 32.167 6.5 48.5s9.33301 33.166 15 50.499s10.667 35.166 15 53.499s6.5 38.166 6.5 59.499c0 24 -4.33301 44 -13 60c-11.333 -6 -24 -9 -38 -9c-12.667 0 -24 2.66699 -34 8s-15 14.666 -15 27.999
s4.5 22.666 13.5 27.999s20.167 8 33.5 8c12.667 0 25.667 -3.33301 39 -10c9.33301 16.667 14 39 14 67c0 20 -2.16699 39 -6.5 57s-9.33301 35.5 -15 52.5s-10.667 33.667 -15 50s-6.5 32.833 -6.5 49.5z" />
    <glyph glyph-name="bar" unicode="|" horiz-adv-x="141" 
d="M91 -204c0 -8.66699 -2 -15 -6 -19s-9 -6 -15 -6c-7.33301 0 -12.5 2.5 -15.5 7.5s-4.5 10.833 -4.5 17.5v897c0 6.66699 1.5 12.5 4.5 17.5s8.16699 7.5 15.5 7.5c14 0 21 -8.33301 21 -25v-897z" />
    <glyph glyph-name="braceright" unicode="}" horiz-adv-x="296" 
d="M70 663c-5.33301 0 -9.99902 1.99609 -13.999 5.99609s-6 8.66699 -6 14s2 10 6 14s8.66699 6 14 6c18.667 0 35.5 -3 50.5 -9s27.5 -14.333 37.5 -25s17.667 -22.834 23 -36.501s8 -28.167 8 -43.5c0 -16.667 -2.16699 -33.167 -6.5 -49.5s-9.33301 -33 -15 -50
s-10.667 -34.5 -15 -52.5s-6.5 -37 -6.5 -57c0 -14 1 -26.667 3 -38s5.66699 -21 11 -29c13.333 6.66699 26.333 10 39 10c13.333 0 24.5 -2.66699 33.5 -8s13.5 -14.666 13.5 -27.999s-5 -22.666 -15 -27.999s-21.333 -8 -34 -8c-14.667 0 -27.334 3 -38.001 9
c-8.66699 -16 -13 -36 -13 -60c0 -21.333 2.16699 -41.166 6.5 -59.499s9.33301 -36.166 15 -53.499s10.667 -34.166 15 -50.499s6.5 -32.5 6.5 -48.5c0 -30.667 -10.333 -57.167 -31 -79.5s-50 -33.833 -88 -34.5c-5.33301 0 -10 2 -14 6s-6 8.66699 -6 14s2 10 6 14
s8.66699 6 14 6c24.667 0 44 7.33301 58 22s21 32 21 52c0 16.667 -2.16699 32.667 -6.5 48s-9.33301 31.166 -15 47.499s-10.667 34 -15 53s-6.5 40.167 -6.5 63.5c0 36 8 64.667 24 86c-8 11.333 -14 25 -18 41s-6 33.667 -6 53c0 22.667 2.16699 42.834 6.5 60.501
s9.33301 34.5 15 50.5s10.667 31.833 15 47.5s6.5 32.5 6.5 50.5c0 20 -7 37.333 -21 52s-33.333 22 -58 22z" />
    <glyph glyph-name="asciitilde" unicode="~" horiz-adv-x="379" 
d="M20 207c-3.33301 -4.66699 -6.50098 -8.16699 -9.50098 -10.5s-6.5 -3.5 -10.5 -3.5c-4.66699 0 -9.16699 1.83301 -13.5 5.5s-6.5 8.5 -6.5 14.5c0 6.66699 2 12.667 6 18c7.33301 8 15.666 15.667 24.999 23c8 6 17.833 11.5 29.5 16.5s25.167 7.5 40.5 7.5
c16 0 31 -3.66699 45 -11s27.667 -15.166 41 -23.499s27.333 -16.166 42 -23.499s30.667 -11 48 -11c18.667 0 34.5 2.66699 47.5 8s23.5 11.666 31.5 18.999c9.33301 7.33301 17 16.333 23 27c2 3.33301 4.33301 7 7 11s6.66699 6 12 6c6.66699 0 11.834 -2 15.501 -6
s5.5 -9 5.5 -15c0 -2.66699 -0.666992 -6 -2 -10c-0.666992 -2 -1.33398 -3.33301 -2.00098 -4c-8 -14 -18.333 -26.667 -31 -38c-11.333 -9.33301 -25.666 -18 -42.999 -26s-38.666 -12 -63.999 -12c-21.333 0 -40 3.66699 -56 11s-30.667 15.166 -44 23.499l-38 23.5
c-12 7.33301 -24.667 11 -38 11c-9.33301 0 -17.833 -1.66699 -25.5 -5s-14.167 -7 -19.5 -11c-6.66699 -4.66699 -12 -9.66699 -16 -15z" />
    <glyph glyph-name="uni007F" horiz-adv-x="0" 
 />
    <glyph glyph-name="exclamdown" unicode="&#xa1;" horiz-adv-x="164" 
d="M59 178c0 8.66699 1.99902 15 5.99902 19s9 6 15 6c7.33301 0 12.5 -2.5 15.5 -7.5s4.5 -10.833 4.5 -17.5l4 -609c0 -6.66699 -1.66699 -13 -5 -19s-9.66602 -9 -18.999 -9c-10 0 -16.667 2.5 -20 7.5s-5 11.833 -5 20.5zM113.999 288
c0 -12 -2.83301 -23.167 -8.5 -33.5s-14.167 -15.5 -25.5 -15.5s-19.166 3.66699 -23.499 11s-6.5 17 -6.5 29c0 16.667 3.33301 29.167 10 37.5s14.667 12.5 24 12.5c11.333 0 19.166 -3.83301 23.499 -11.5s6.5 -17.5 6.5 -29.5z" />
    <glyph glyph-name="cent" unicode="&#xa2;" horiz-adv-x="372" 
d="M203 329c25.333 0 44.833 -6.33105 58.5 -18.998s20.5 -29.667 20.5 -51c0 -4 -0.5 -9 -1.5 -15s-2.83301 -11.667 -5.5 -17s-6 -9.83301 -10 -13.5s-9 -5.5 -15 -5.5c-4 0 -7.83301 1.33301 -11.5 4s-5.5 7 -5.5 13c0 5.33301 1.5 10.666 4.5 15.999s4.5 11.333 4.5 18
c0 9.33301 -3.5 16.666 -10.5 21.999s-16.5 8 -28.5 8v-267c18 2.66699 34 9 48 19s25.333 20.333 34 31l5 5c4 4 8.33301 6 13 6c12.667 0 19 -5.33301 19 -16c0 -9.33301 -3 -17.666 -9 -24.999c-11.333 -12.667 -26.333 -25.167 -45 -37.5s-40.334 -19.5 -65.001 -21.5
v-36c0 -8.66699 -2 -15 -6 -19s-9 -6 -15 -6c-7.33301 0 -12.5 2.5 -15.5 7.5s-4.5 10.833 -4.5 17.5v37c-34 5.33301 -61.167 21.166 -81.5 47.499s-30.5 64.5 -30.5 114.5c0 18.667 2.66699 37.167 8 55.5s13 35.5 23 51.5s21.833 30 35.5 42s28.834 21 45.501 27v51
c0 6.66699 1.5 12.5 4.5 17.5s8.16699 7.5 15.5 7.5c14 0 21 -8.33301 21 -25v-44zM90 146.002c0 -36 6.66699 -63.833 20 -83.5s30.666 -32.167 51.999 -37.5v253c-21.333 -11.333 -38.666 -29.5 -51.999 -54.5s-20 -50.833 -20 -77.5z" />
    <glyph glyph-name="sterling" unicode="&#xa3;" horiz-adv-x="728" 
d="M271 329c2 36.667 3.00391 73.999 3.00391 111.999c-0.666992 48.667 1.33301 90.667 6 126s13 64.333 25 87s28.167 39.334 48.5 50.001s46.166 16 77.499 16c38.667 0 67.5 -9.5 86.5 -28.5s28.5 -43.167 28.5 -72.5c0 -7.33301 -1.5 -13.333 -4.5 -18
s-8.16699 -7 -15.5 -7c-14.667 0 -22 8.33301 -22 25c0 18.667 -6.83301 33.167 -20.5 43.5s-31.167 15.5 -52.5 15.5c-22.667 0 -41.334 -4 -56.001 -12s-26.334 -21.333 -35.001 -40s-14.834 -43.334 -18.501 -74.001s-5.5 -68.334 -5.5 -113.001
c0 -18 -0.333008 -36.167 -1 -54.5s-1.66699 -36.833 -3 -55.5h135c8.66699 0 15 -2 19 -6s6 -9 6 -15c0 -7.33301 -2.5 -12.5 -7.5 -15.5s-10.833 -4.5 -17.5 -4.5h-138c-3.33301 -39.333 -9 -76.833 -17 -112.5s-18.667 -67.5 -32 -95.5c14.667 -8 29 -16.5 43 -25.5
s28.167 -17.167 42.5 -24.5s28.833 -13.5 43.5 -18.5s30 -7.5 46 -7.5c22 0 43.167 3.83301 63.5 11.5s39.333 17.334 57 29.001s33.667 24.334 48 38.001s26.5 26.834 36.5 39.501c2.66699 3.33301 5.16699 6 7.5 8s5.83301 3 10.5 3c5.33301 0 10 -2 14 -6s6 -8 6 -12
c0 -5.33301 -0.833008 -9.5 -2.5 -12.5s-4.16699 -6.5 -7.5 -10.5c-11.333 -14 -25 -28.667 -41 -44s-33.833 -29.333 -53.5 -42s-41.167 -23.167 -64.5 -31.5s-48 -12.5 -74 -12.5c-19.333 0 -37.666 2.66699 -54.999 8s-34 12.166 -50 20.499s-31.5 17.333 -46.5 27
s-30.167 18.5 -45.5 26.5c-14 -20 -30.5 -35.667 -49.5 -47s-41.167 -17 -66.5 -17c-8 0 -16.333 1 -25 3s-16.5 5.5 -23.5 10.5s-12.667 11.333 -17 19s-6.5 17.5 -6.5 29.5c0 26 9.33301 44.667 28 56s40 17 64 17c14.667 0 28.5 -1.5 41.5 -4.5
s25.833 -7.16699 38.5 -12.5c12 25.333 21.667 54.333 29 87s12.666 67 15.999 103h-73c-6.66699 0 -12.5 1.5 -17.5 4.5s-7.5 8.16699 -7.5 15.5c0 14 8.33301 21 25 21h77zM122.004 21.999c30.667 0 56.334 13.333 77.001 40c-18.667 7.33301 -37.667 11 -57 11
c-13.333 0 -25 -2.33301 -35 -7s-15 -12.667 -15 -24c0 -7.33301 3.16699 -12.5 9.5 -15.5s13.166 -4.5 20.499 -4.5z" />
    <glyph glyph-name="yen" unicode="&#xa5;" horiz-adv-x="577" 
d="M218 392l-165 298.001c-2 2.66699 -3 6 -3 10c0 5.33301 1.83301 10.166 5.5 14.499s9.16699 6.5 16.5 6.5c4.66699 0 9 -2 13 -6c2 -2 3.33301 -3.66699 4 -5l200 -362l200 362c3.33301 6.66699 9 10 17 10c14 0 21 -6.66699 21 -20c0 -2.66699 -0.666992 -6 -2 -10
l-165 -298h54c8.66699 0 15 -2 19 -6s6 -9 6 -15c0 -7.33301 -2.5 -12.5 -7.5 -15.5s-10.833 -4.5 -17.5 -4.5h-77l-28 -52v-6h105c8.66699 0 15 -2 19 -6s6 -9 6 -15c0 -7.33301 -2.5 -12.5 -7.5 -15.5s-10.833 -4.5 -17.5 -4.5h-105v-252c0 -5.33301 -1.66699 -10 -5 -14
s-8.33301 -6 -15 -6c-6 0 -10.833 2 -14.5 6s-5.5 8.66699 -5.5 14v252h-105c-6.66699 0 -12.5 1.5 -17.5 4.5s-7.5 8.16699 -7.5 15.5c0 14 8.33301 21 25 21h105v6l-29 52h-76c-6.66699 0 -12.5 1.5 -17.5 4.5s-7.5 8.16699 -7.5 15.5c0 14 8.33301 21 25 21h54z" />
    <glyph glyph-name="brokenbar" unicode="&#xa6;" horiz-adv-x="141" 
d="M91 344c0 -8.66699 -2 -15 -6 -19s-9 -6 -15 -6c-7.33301 0 -12.5 2.5 -15.5 7.5s-4.5 10.833 -4.5 17.5v349c0 6.66699 1.5 12.5 4.5 17.5s8.16699 7.5 15.5 7.5c14 0 21 -8.33301 21 -25v-349zM91 -204c0 -8.66699 -2 -15 -6 -19s-9 -6 -15 -6
c-7.33301 0 -12.5 2.5 -15.5 7.5s-4.5 10.833 -4.5 17.5v349c0 6.66699 1.5 12.5 4.5 17.5s8.16699 7.5 15.5 7.5c14 0 21 -8.33301 21 -25v-349z" />
    <glyph glyph-name="section" unicode="&#xa7;" horiz-adv-x="561" 
d="M92 -8c0 -21.333 4.50781 -40.002 13.5078 -56.002s21.167 -29.5 36.5 -40.5s33.333 -19.333 54 -25s43 -8.5 67 -8.5c23.333 0 46.166 3.66699 68.499 11s42.166 18 59.499 32s31.333 31.667 42 53s16 46 16 74c0 29.333 -8.5 54 -25.5 74s-38 37.667 -63 53
s-52.333 29.333 -82 42s-57 26.167 -82 40.5s-46 30.666 -63 48.999s-25.5 40.833 -25.5 67.5c0 44 17.667 78.333 53 103c-16 13.333 -28.833 27.833 -38.5 43.5s-14.5 34.167 -14.5 55.5c0 42 16 75.5 48 100.5s75.333 38.167 130 39.5
c50 0.666992 90.333 -10.5 121 -33.5s46 -53.833 46 -92.5c0 -32 -8.66699 -57.833 -26 -77.5s-39 -29.5 -65 -29.5c-13.333 0 -20 7.33301 -20 22c0 13.333 6.66699 20 20 20c14.667 0 26.5 6 35.5 18s13.5 27.667 13.5 47c0 23.333 -10.333 43.166 -31 59.499
s-52 24.5 -94 24.5c-40 0 -72.667 -8.33301 -98 -25s-38 -41 -38 -73c0 -23.333 8.83301 -43.333 26.5 -60s40 -32.167 67 -46.5s56 -28.666 87 -42.999s60 -30.666 87 -48.999s49.333 -40.166 67 -65.499s26.5 -56 26.5 -92c0 -22 -2.83301 -42.5 -8.5 -61.5
s-13.5 -36.5 -23.5 -52.5c8 -17.333 12 -36.666 12 -57.999c0 -34 -6.5 -64.167 -19.5 -90.5s-30 -48.5 -51 -66.5s-45.333 -31.667 -73 -41s-55.834 -14 -84.501 -14c-34.667 0 -65.334 4.5 -92.001 13.5s-49 21.333 -67 37s-31.5 33.834 -40.5 54.501s-13.5 43 -13.5 67
c0 19.333 3 38 9 56s14.667 34 26 48s25.666 25.167 42.999 33.5s37 12.5 59 12.5c25.333 0 47.833 -5.16699 67.5 -15.5s36.167 -21.833 49.5 -34.5c15.333 -14.667 28.666 -31 39.999 -49c3.33301 -4 5 -9.33301 5 -16s-2.16699 -11.834 -6.5 -15.501
s-8.5 -5.5 -12.5 -5.5c-7.33301 0 -13.333 3 -18 9c-8.66699 16 -19 30 -31 42c-10.667 10.667 -23.834 20.5 -39.501 29.5s-33.834 13.5 -54.501 13.5c-15.333 0 -29 -3 -41 -9s-22 -14 -30 -24s-14 -21.5 -18 -34.5s-6 -26.5 -6 -40.5zM469.008 203.998
c0 32.667 -9.00195 60.166 -27.002 82.499s-40.5 42 -67.5 59s-56.333 32.333 -88 46s-60.834 28.5 -87.501 44.5c-32.667 -16.667 -49 -42.667 -49 -78c0 -16.667 5.5 -31.334 16.5 -44.001s25.333 -24.5 43 -35.5s37.5 -21.5 59.5 -31.5l67 -32
c22.667 -11.333 44.334 -23.666 65.001 -36.999s38.334 -28.666 53.001 -45.999c4.66699 10.667 8.33398 22 11.001 34s4 24.667 4 38z" />
    <glyph glyph-name="dieresis" unicode="&#xa8;" horiz-adv-x="324" 
d="M50 460c0 12 2.83301 23.167 8.5 33.5s14.167 15.5 25.5 15.5s19.166 -3.66699 23.499 -11s6.5 -17 6.5 -29c0 -16 -3.33301 -28.333 -10 -37s-14.667 -13 -24 -13c-11.333 0 -19.166 3.83301 -23.499 11.5s-6.5 17.5 -6.5 29.5zM210 460c0 12 2.83301 23.167 8.5 33.5
s14.167 15.5 25.5 15.5s19.166 -3.66699 23.499 -11s6.5 -17 6.5 -29c0 -16 -3.33301 -28.333 -10 -37s-14.667 -13 -24 -13c-11.333 0 -19.166 3.83301 -23.499 11.5s-6.5 17.5 -6.5 29.5z" />
    <glyph glyph-name="copyright" unicode="&#xa9;" horiz-adv-x="659" 
d="M419 451c0 -4 -0.501953 -8.99902 -1.50195 -14.999s-2.83301 -11.667 -5.5 -17s-6 -9.83301 -10 -13.5s-9 -5.5 -15 -5.5c-4 0 -7.83301 1.33301 -11.5 4s-5.5 7 -5.5 13c0 5.33301 1.5 10.666 4.5 15.999s4.5 11.333 4.5 18c0 9.33301 -3.5 16.666 -10.5 21.999
s-16.5 8 -28.5 8c-15.333 0 -29.833 -4.16699 -43.5 -12.5s-25.667 -19.333 -36 -33s-18.5 -29 -24.5 -46s-9 -34.167 -9 -51.5c0 -42.667 9.33301 -74 28 -94s42.667 -30 72 -30c21.333 0 40.166 5.5 56.499 16.5s29.166 22.167 38.499 33.5l5 5c4 4 8.33301 6 13 6
c12.667 0 19 -5.33301 19 -16c0 -9.33301 -3 -17.666 -9 -24.999c-6 -6.66699 -13.167 -13.5 -21.5 -20.5s-17.666 -13.5 -27.999 -19.5s-21.666 -10.833 -33.999 -14.5s-25.5 -5.5 -39.5 -5.5c-41.333 0 -75 13.167 -101 39.5s-39 67.833 -39 124.5
c0 22 3.83301 44 11.5 66s18.334 41.667 32.001 59s29.834 31.333 48.501 42s39 16 61 16c25.333 0 44.833 -6.33301 58.5 -19s20.5 -29.667 20.5 -51zM49.998 342.001c0 40 7.33301 77.667 22 113s34.667 66.166 60 92.499s54.833 47 88.5 62s69.834 22.5 108.501 22.5
s75 -7.5 109 -22.5s63.667 -35.667 89 -62s45.333 -57.166 60 -92.499s22 -73 22 -113s-7.33301 -77.5 -22 -112.5s-34.667 -65.667 -60 -92s-55 -47 -89 -62s-70.333 -22.5 -109 -22.5s-74.834 7.5 -108.501 22.5s-63.167 35.667 -88.5 62s-45.333 57 -60 92
s-22 72.5 -22 112.5zM89.998 342.001c0 -34.667 6.33301 -67.167 19 -97.5s29.667 -56.666 51 -78.999s46.5 -40 75.5 -53s60.167 -19.5 93.5 -19.5s64.5 6.5 93.5 19.5s54.333 30.667 76 53s38.834 48.666 51.501 78.999s19 62.833 19 97.5s-6.33301 67.167 -19 97.5
s-29.834 56.833 -51.501 79.5s-47 40.5 -76 53.5s-60.167 19.5 -93.5 19.5s-64.5 -6.5 -93.5 -19.5s-54.167 -30.833 -75.5 -53.5s-38.333 -49.167 -51 -79.5s-19 -62.833 -19 -97.5z" />
    <glyph glyph-name="ordfeminine" unicode="&#xaa;" horiz-adv-x="424" 
d="M161 700c24.667 0 44.3311 -6.66895 58.998 -20.002s25.667 -31 33 -53c5.33301 -15.333 12 -31 20 -47s16.5 -30.5 25.5 -43.5s18.167 -23.5 27.5 -31.5s18.333 -12 27 -12s14.334 -2.16699 17.001 -6.5s4 -8.5 4 -12.5c0 -5.33301 -1.83301 -10.166 -5.5 -14.499
s-8.83398 -6.5 -15.501 -6.5c-18 0 -35.667 7.83301 -53 23.5s-33.333 34.5 -48 56.5c-6.66699 -23.333 -18.5 -43 -35.5 -59s-38.5 -24 -64.5 -24c-30 0 -54.5 9.5 -73.5 28.5s-28.5 46.5 -28.5 82.5c0 16.667 2.33301 33.334 7 50.001s11.834 31.667 21.501 45
s21.334 24 35.001 32s29.5 12 47.5 12zM220.997 576.998c0 25.333 -5.00098 45.6689 -15.001 61.002s-25 23 -45 23c-12 0 -22.5 -2.83301 -31.5 -8.5s-16.5 -13.334 -22.5 -23.001s-10.5 -20.5 -13.5 -32.5s-4.5 -24 -4.5 -36c0 -23.333 6 -41.166 18 -53.499
s27 -18.5 45 -18.5c11.333 0 21.333 2.5 30 7.5s15.834 11.667 21.501 20s10 17.666 13 27.999s4.5 21.166 4.5 32.499z" />
    <glyph glyph-name="guillemotleft" unicode="&#xab;" horiz-adv-x="510" 
d="M93 213l172 -172.003c7.33301 -7.33301 11 -13.333 11 -18c0 -5.33301 -1.66699 -10.166 -5 -14.499s-8 -6.5 -14 -6.5c-8 0 -14 2.66699 -18 8c-3.33301 4 -8.5 9.66699 -15.5 17l-24 24.5l-28.5 29.5l-30 31l-77 78c-9.33301 8.66699 -14 16.334 -14 23.001
c0 5.33301 1.33301 9.5 4 12.5s6 6.5 10 10.5l77 78l30 31l28.5 29.5l24 24.5c7 7.33301 12.167 13 15.5 17c4 5.33301 10 8 18 8c6 0 10.667 -2.16699 14 -6.5s5 -9.16602 5 -14.499c0 -4.66699 -3.66699 -10.667 -11 -18zM277 212.997l172 -172.003
c7.33301 -7.33301 11 -13.333 11 -18c0 -5.33301 -1.66699 -10.166 -5 -14.499s-8 -6.5 -14 -6.5c-8 0 -14 2.66699 -18 8c-3.33301 4 -8.5 9.66699 -15.5 17l-24 24.5l-28.5 29.5l-30 31l-77 78c-9.33301 8.66699 -14 16.334 -14 23.001c0 5.33301 1.16699 9.5 3.5 12.5
s5.83301 6.5 10.5 10.5l77 78l30 31l28.5 29.5l24 24.5c7 7.33301 12.167 13 15.5 17c4 5.33301 10 8 18 8c6 0 10.667 -2.16699 14 -6.5s5 -9.16602 5 -14.499c0 -4.66699 -3.66699 -10.667 -11 -18z" />
    <glyph glyph-name="logicalnot" unicode="&#xac;" horiz-adv-x="601" 
d="M526 329c8.66699 0 15 -2 19 -6s6 -9 6 -15v-152c0 -8.66699 -2 -15 -6 -19s-9 -6 -15 -6c-7.33301 0 -12.5 2.5 -15.5 7.5s-4.5 10.833 -4.5 17.5v132h-435c-6.66699 0 -12.5 1.5 -17.5 4.5s-7.5 8.16699 -7.5 15.5c0 14 8.33301 21 25 21h451z" />
    <glyph glyph-name="registered" unicode="&#xae;" horiz-adv-x="659" 
d="M50 342c0 40 7.33301 77.667 22 113s34.667 66.166 60 92.499s54.833 47 88.5 62s69.834 22.5 108.501 22.5s75 -7.5 109 -22.5s63.667 -35.667 89 -62s45.333 -57.166 60 -92.499s22 -73 22 -113s-7.33301 -77.5 -22 -112.5s-34.667 -65.667 -60 -92s-55 -47 -89 -62
s-70.333 -22.5 -109 -22.5s-74.834 7.5 -108.501 22.5s-63.167 35.667 -88.5 62s-45.333 57 -60 92s-22 72.5 -22 112.5zM90 342c0 -34.667 6.3418 -67.1641 19.0088 -97.4971s29.667 -56.666 51 -78.999s46.5 -40 75.5 -53s60.167 -19.5 93.5 -19.5c40 0 76.667 9 110 27
s61 42.333 83 73c-7.33301 -2 -14.333 -3 -21 -3c-24.667 0 -43.834 6.5 -57.501 19.5s-24.834 28.5 -33.501 46.5s-15.834 36.333 -21.501 55s-12.834 34 -21.501 46c-6 -2 -11.667 -3.33301 -17 -4s-10 -1 -14 -1c-14 0 -23.5 3.16699 -28.5 9.5s-7.5 12.5 -7.5 18.5
c0 9.33301 3 17 9 23s14.333 9 25 9c15.333 0 28.666 -3.66699 39.999 -11c5.33301 4 10 9.33301 14 16s6 14.667 6 24c0 4 -0.666992 8.83301 -2 14.5s-4 11.167 -8 16.5s-9.66699 9.83301 -17 13.5s-17 5.5 -29 5.5c-13.333 0 -26 -2.5 -38 -7.5l-36 -15.5
c9.33301 -16.667 16.333 -35.5 21 -56.5s7 -42.167 7 -63.5c0 -14.667 -1.66699 -31.334 -5 -50.001s-8.83301 -36.334 -16.5 -53.001s-17.834 -30.834 -30.501 -42.501s-28 -17.5 -46 -17.5c-15.333 0 -27.5 5 -36.5 15s-13.5 22 -13.5 36s4.16699 26 12.5 36
s20.166 15 35.499 15c4 0 8.33301 -1.33301 13 -4s7 -7.66699 7 -15c0 -9.33301 -2.5 -14.666 -7.5 -15.999s-9.16699 -2 -12.5 -2c-8 0 -12 -4.66699 -12 -14c0 -10 4.66699 -15 14 -15c11.333 0 20.833 4.5 28.5 13.5s14 20 19 33s8.66699 26.833 11 41.5
s3.5 27.667 3.5 39c0 19.333 -2.5 38.666 -7.5 57.999s-11.167 35.333 -18.5 48c-9.33301 -2 -18.333 -3 -27 -3c-12.667 0 -22.334 3 -29.001 9s-10 13.667 -10 23s3.33301 17 10 23s15.667 9 27 9c14 0 27.667 -6 41 -18l45.5 19.5c16.333 7 33.166 10.5 50.499 10.5
c19.333 0 35 -3.16699 47 -9.5s21.333 -14 28 -23s11.167 -18.333 13.5 -28s3.5 -18.167 3.5 -25.5c0 -15.333 -2.83301 -28.333 -8.5 -39s-12.834 -19.667 -21.501 -27c8.66699 -13.333 16 -28.666 22 -45.999s12.333 -33.5 19 -48.5s14.834 -27.667 24.501 -38
s22.834 -15.5 39.501 -15.5c12.667 0 23.167 4 31.5 12s15 17.667 20 29s8.33301 23.666 10 36.999s2.5 25.666 2.5 36.999c0 34.667 -6.33301 67.167 -19 97.5s-29.834 56.833 -51.501 79.5s-47 40.5 -76 53.5s-60.167 19.5 -93.5 19.5s-64.5 -6.5 -93.5 -19.5
s-54.167 -30.833 -75.5 -53.5s-38.333 -49.167 -51 -79.5s-19 -62.833 -19 -97.5z" />
    <glyph glyph-name="degree" unicode="&#xb0;" horiz-adv-x="329" 
d="M171 660c36.667 0 63.834 -11.333 81.501 -34s26.5 -52.334 26.5 -89.001c0 -16 -2.66699 -31.5 -8 -46.5s-13 -28.5 -23 -40.5s-22.167 -21.667 -36.5 -29s-30.833 -11 -49.5 -11c-33.333 0 -60.333 9 -81 27s-31 46 -31 84c0 16.667 2.66699 33.334 8 50.001
s13.166 31.667 23.499 45s23 24 38 32s32.167 12 51.5 12zM241 537c0 25.333 -5.83398 45.6689 -17.501 61.002s-29.167 23 -52.5 23c-13.333 0 -25.166 -2.83301 -35.499 -8.5s-19 -13.334 -26 -23.001s-12.167 -20.5 -15.5 -32.5s-5 -24 -5 -36
c0 -24.667 6.83301 -42.834 20.5 -54.501s31.167 -17.5 52.5 -17.5c26.667 0 46.5 9.16699 59.5 27.5s19.5 38.5 19.5 60.5z" />
    <glyph glyph-name="plusminus" unicode="&#xb1;" horiz-adv-x="441" 
d="M241 310h125c8.66699 0 15 -2 19 -6s6 -9 6 -15c0 -7.33301 -2.5 -12.5 -7.5 -15.5s-10.833 -4.5 -17.5 -4.5h-125v-126c0 -8.66699 -2 -15 -6 -19s-9 -6 -15 -6c-7.33301 0 -12.5 2.5 -15.5 7.5s-4.5 10.833 -4.5 17.5v126h-125c-6.66699 0 -12.5 1.5 -17.5 4.5
s-7.5 8.16699 -7.5 15.5c0 14 8.33301 21 25 21h125v124c0 6.66699 1.5 12.5 4.5 17.5s8.16699 7.5 15.5 7.5c14 0 21 -8.33301 21 -25v-124zM366 41c8.66699 0 15 -2 19 -6s6 -9 6 -15c0 -7.33301 -2.5 -12.5 -7.5 -15.5s-10.833 -4.5 -17.5 -4.5h-291
c-6.66699 0 -12.5 1.5 -17.5 4.5s-7.5 8.16699 -7.5 15.5c0 14 8.33301 21 25 21h291z" />
    <glyph glyph-name="uni00B2" unicode="&#xb2;" horiz-adv-x="392" 
d="M50 579c0 18.667 3.33398 36.1689 10.001 52.502s16 30.166 28 41.499s26 20.333 42 27s33.333 10 52 10c42.667 0 76.334 -13 101.001 -39s37 -59.333 37 -100c0 -20 -2.83301 -40 -8.5 -60s-13.5 -39.333 -23.5 -58s-21.667 -36.167 -35 -52.5s-28 -30.5 -44 -42.5
c12.667 -6 28 -11.167 46 -15.5s41 -6.5 69 -6.5c12 0 18 -5.33301 18 -16s-6 -16 -18 -16c-38 0 -68 3.66699 -90 11s-40.667 15 -56 23c-22.667 -11.333 -44.667 -17 -66 -17c-19.333 0 -32.833 3.83301 -40.5 11.5s-11.5 17.167 -11.5 28.5c0 12 3.66699 21.5 11 28.5
s18.666 10.5 33.999 10.5c16 0 29.333 -2.5 40 -7.5s21.334 -10.833 32.001 -17.5c14.667 10 28.667 22.333 42 37s25 30.667 35 48s18 35.666 24 54.999s9 38 9 56c0 31.333 -9.33301 56.833 -28 76.5s-44.334 29.5 -77.001 29.5c-28 0 -51.333 -9.33301 -70 -28
s-28.334 -42 -29.001 -70c0 -23.333 5.16699 -41.333 15.5 -54s24.166 -19 41.499 -19c12.667 0 23 3.83301 31 11.5s12 17.5 12 29.5c0 3.33301 1 6.83301 3 10.5s6.33301 5.5 13 5.5c7.33301 0 11.833 -2 13.5 -6s2.5 -7.33301 2.5 -10c0 -21.333 -7 -38.833 -21 -52.5
s-32 -20.5 -54 -20.5c-25.333 0 -46.666 9 -63.999 27s-26 44 -26 78zM112.001 353.002c11.333 0 21.333 1.66602 30 4.99902c-5.33301 2.66699 -11 4.83398 -17 6.50098s-12.667 2.5 -20 2.5c-8.66699 0 -13 -2 -13 -6c0 -5.33301 6.66699 -8 20 -8z" />
    <glyph glyph-name="uni00B3" unicode="&#xb3;" horiz-adv-x="341" 
d="M162 510c10.667 0 22.001 5.33301 34.001 16c-4.66699 1.33301 -9.33398 2.33301 -14.001 3s-9.66699 1 -15 1c-10.667 0 -17.667 -1.16699 -21 -3.5s-5 -4.5 -5 -6.5c0 -3.33301 2 -5.83301 6 -7.5s9 -2.5 15 -2.5zM168.001 360c28 0 50.334 6.99902 67.001 20.999
s25 34 25 60c0 15.333 -3.16699 29 -9.5 41s-14.833 22 -25.5 30c-18.667 -20.667 -39.667 -31 -63 -31c-15.333 0 -27.833 3 -37.5 9s-14.5 16 -14.5 30c0 11.333 4.66699 20.833 14 28.5s23.666 11.5 42.999 11.5c16 0 32 -2.66699 48 -8c7.33301 14.667 11 31 11 49
c0 22 -7.33301 39.833 -22 53.5s-33.667 20.5 -57 20.5c-20 0 -34.5 -4.5 -43.5 -13.5s-13.5 -18.833 -13.5 -29.5c0 -7.33301 2 -13.333 6 -18s9.33301 -7 16 -7c8 0 13.5 2.16699 16.5 6.5s4.5 8.83301 4.5 13.5c0 11.333 5.33301 17 16 17
c3.33301 0 6.66602 -1.33301 9.99902 -4s5 -7 5 -13c0 -16 -5 -28.5 -15 -37.5s-22.333 -13.5 -37 -13.5c-15.333 0 -28 5.33301 -38 16s-15 24 -15 40c0 18.667 6.83301 35.667 20.5 51s36.167 23 67.5 23s57.5 -9.5 78.5 -28.5s31.5 -44.5 31.5 -76.5
c0 -12.667 -1.33301 -24.167 -4 -34.5s-6.33398 -19.833 -11.001 -28.5c15.333 -10 27.333 -23.333 36 -40s13 -35.667 13 -57c0 -36 -11.5 -63.667 -34.5 -83s-52.5 -29 -88.5 -29c-18 0 -34.333 2.83301 -49 8.5s-27.167 13 -37.5 22s-18.166 19 -23.499 30
s-8 22.167 -8 33.5c0 10.667 5.33301 16 16 16c10 0 15 -5.33301 15 -16c0 -15.333 7.33301 -29.666 22 -42.999s36.334 -20 65.001 -20z" />
    <glyph glyph-name="acute" unicode="&#xb4;" horiz-adv-x="236" 
d="M88 419c-4.66699 -7.33301 -10.668 -11 -18.001 -11c-5.33301 0 -10 1.66699 -14 5s-6 8 -6 14c0 4 1 8 3 12l4 6l26 42l29 46l32 51c3.33301 4.66699 6.5 8.66699 9.5 12s7.83301 5 14.5 5c4.66699 0 8.83398 -1.5 12.501 -4.5s5.5 -7.16699 5.5 -12.5
c0 -4.66699 -2 -10 -6 -16l-34 -55l-30 -48.5z" />
    <glyph glyph-name="mu" unicode="&#xb5;" horiz-adv-x="869" 
d="M138 191c0 -21.333 2.00098 -42.168 6.00098 -62.501s10.333 -38.5 19 -54.5s19.5 -28.833 32.5 -38.5s28.167 -14.5 45.5 -14.5c18 0 35.833 6.66699 53.5 20s33.667 32 48 56s25.833 53 34.5 87s13 71.667 13 113c0 22 6.66699 33 20 33c7.33301 0 12.5 -2 15.5 -6
s4.5 -8.66699 4.5 -14c0 -27.333 1.33301 -57.833 4 -91.5s8.83398 -65 18.501 -94s23.5 -53.333 41.5 -73s42.667 -29.5 74 -29.5c33.333 0 64.666 7.16699 93.999 21.5s56.5 32.5 81.5 54.5s47.667 45.833 68 71.5s37.5 49.834 51.5 72.501l5 5c4 4 8.33301 6 13 6
c12.667 0 19 -5.33301 19 -16c0 -4 -1.33301 -9.33301 -4 -16l-4 -8c-16 -24 -35 -49.667 -57 -77s-46.667 -52.333 -74 -75s-57.166 -41.5 -89.499 -56.5s-66.833 -22.5 -103.5 -22.5c-24.667 0 -46.167 4.5 -64.5 13.5s-34 21 -47 36s-23.667 32.5 -32 52.5
s-14.833 41 -19.5 63c-16.667 -49.333 -39.334 -89.333 -68.001 -120s-61 -46 -97 -46c-22.667 0 -42.5 5.5 -59.5 16.5s-31.167 25.5 -42.5 43.5v-169c0 -34 -4.83301 -61.667 -14.5 -83s-27.5 -32.333 -53.5 -33c-13.333 0 -20 6.66699 -20 20s6.66699 20 20 20
c11.333 0 18.833 7.33301 22.5 22s5.5 32.667 5.5 54v438c0 6.66699 1.83301 11.5 5.5 14.5s8.16699 4.5 13.5 4.5c9.33301 0 15.166 -1.66699 17.499 -5s3.5 -8 3.5 -14v-119z" />
    <glyph glyph-name="paragraph" unicode="&#xb6;" horiz-adv-x="647" 
d="M490 657v-650c0 -8.66699 -2 -15 -6 -19s-9 -6 -15 -6c-7.33301 0 -12.5 2.5 -15.5 7.5s-4.5 10.833 -4.5 17.5v650h-120v-650c0 -8.66699 -2 -15 -6 -19s-9 -6 -15 -6c-7.33301 0 -12.5 2.5 -15.5 7.5s-4.5 10.833 -4.5 17.5v258c-34.667 2 -66.5 8.33301 -95.5 19
s-54 25.334 -75 44.001s-37.5 41.667 -49.5 69s-18 58.666 -18 93.999c0 28 5.16699 54.667 15.5 80s26 47.333 47 66s47.667 33.5 80 44.5s70.5 16.5 114.5 16.5h265c6.66699 0 12.5 -1.5 17.5 -4.5s7.5 -8.16699 7.5 -15.5c0 -14 -8.33301 -21 -25 -21h-82z" />
    <glyph glyph-name="periodcentered" unicode="&#xb7;" horiz-adv-x="204" 
d="M70 170c0 12 2.83301 23.167 8.5 33.5s14.167 15.5 25.5 15.5s19.166 -3.66699 23.499 -11s6.5 -17 6.5 -29c0 -16 -3.33301 -28.333 -10 -37s-14.667 -13 -24 -13c-11.333 0 -19.166 3.83301 -23.499 11.5s-6.5 17.5 -6.5 29.5z" />
    <glyph glyph-name="cedilla" unicode="&#xb8;" horiz-adv-x="273" 
d="M78 0c0 5.33301 1.5 10.166 4.5 14.499s7.83301 6.5 14.5 6.5s11.5 -2 14.5 -6s4.5 -9 4.5 -15v-42c5.33301 5.33301 11.5 9.66602 18.5 12.999s15.833 5 26.5 5c19.333 0 34.5 -6.5 45.5 -19.5s16.5 -27.833 16.5 -44.5c0 -18 -3.83301 -33.667 -11.5 -47
s-18.5 -24.166 -32.5 -32.499s-30.5 -14.666 -49.5 -18.999s-39.5 -6.5 -61.5 -6.5c-12 0 -18 6.66699 -18 20c0 12 6 18 18 18c34 0 62 5.33301 84 16s33 27.667 33 51c0 7.33301 -2.5 13.5 -7.5 18.5s-11.833 7.5 -20.5 7.5c-10.667 0 -19.667 -2.5 -27 -7.5
s-12.666 -9.83301 -15.999 -14.5c-4.66699 -7.33301 -10.334 -11 -17.001 -11c-12.667 0 -19 6.33301 -19 19v76z" />
    <glyph glyph-name="uni00B9" unicode="&#xb9;" horiz-adv-x="309" 
d="M76 480c-2 -1.33301 -3.66113 -2.33301 -4.99414 -3c-4 -1.33301 -6.33301 -2 -7 -2c-4.66699 0 -8.16699 2.16699 -10.5 6.5s-3.5 8.16602 -3.5 11.499s1.5 6.33301 4.5 9s6.16699 5 9.5 7c8 4 16 9 24 15c7.33301 4.66699 15.166 10.334 23.499 17.001
s16.833 14 25.5 22v76c0 24 3.66699 40.333 11 49s16.666 13 27.999 13s20.833 -3.66699 28.5 -11s11.5 -19.666 11.5 -36.999c0 -19.333 -4.5 -37.666 -13.5 -54.999s-20.167 -33 -33.5 -47v-195c3.33301 -0.666992 6.66602 -1.16699 9.99902 -1.5s7 -0.5 11 -0.5
c8 0 14.667 0.833008 20 2.5s9.66602 3.5 12.999 5.5c4 2.66699 7.33301 5.66699 10 9c3.33301 5.33301 7.66602 8 12.999 8c3.33301 0 6.33301 -1.5 9 -4.5s4 -6.16699 4 -9.5c0 -2.66699 -0.333008 -4.83398 -1 -6.50098s-1.33398 -3.16699 -2.00098 -4.5
c-0.666992 -2 -1.33398 -3.33301 -2.00098 -4c-4 -5.33301 -9 -10 -15 -14c-5.33301 -3.33301 -12 -6.33301 -20 -9s-17.667 -4 -29 -4c-10 0 -18.667 1 -26 3s-14.166 4.33301 -20.499 7s-12.333 5 -18 7s-11.5 3 -17.5 3c-5.33301 0 -10 -0.666992 -14 -2
s-7.33301 -2.66602 -10 -3.99902c-3.33301 -2 -6 -3.66699 -8 -5c-4.66699 -4.66699 -8.66699 -7 -12 -7c-2 0 -4.83301 1.5 -8.5 4.5s-5.5 7.16699 -5.5 12.5c0 3.33301 0.833008 6.16602 2.5 8.49902s3.16699 4.16602 4.5 5.49902c4 3.33301 8.66699 6.33301 14 9
c4.66699 2 10 4 16 6s13 3 21 3c5.33301 0 10.333 -0.666992 15 -2l14 -4v153c-8 -6.66699 -15.833 -12.5 -23.5 -17.5l-19.5 -12.5zM169.006 603c4.66699 7.33301 8.33301 15 11 23s4 16.667 4 26c0 4 -0.5 7.66699 -1.5 11s-3.16699 5 -6.5 5
c-2.66699 0 -4.5 -1.66699 -5.5 -5s-1.5 -11.333 -1.5 -24v-36z" />
    <glyph glyph-name="ordmasculine" unicode="&#xba;" horiz-adv-x="309" 
d="M161 700c33.333 0 57.9971 -11.333 73.9971 -34s24 -52.334 24 -89.001c0 -16 -2.33301 -31.5 -7 -46.5s-11.667 -28.5 -21 -40.5s-20.666 -21.667 -33.999 -29s-28.333 -11 -45 -11c-30 0 -54.5 9 -73.5 27s-28.5 46 -28.5 84c0 16.667 2.33301 33.334 7 50.001
s11.834 31.667 21.501 45s21.334 24 35.001 32s29.5 12 47.5 12zM220.997 577c0 25.333 -5.00098 45.6709 -15.001 61.0039s-25 23 -45 23c-12 0 -22.5 -2.83301 -31.5 -8.5s-16.5 -13.334 -22.5 -23.001s-10.5 -20.5 -13.5 -32.5s-4.5 -24 -4.5 -36
c0 -24.667 6 -42.834 18 -54.501s27 -17.5 45 -17.5c11.333 0 21.333 2.5 30 7.5s15.834 11.667 21.501 20s10 17.666 13 27.999s4.5 21.166 4.5 32.499z" />
    <glyph glyph-name="guillemotright" unicode="&#xbb;" horiz-adv-x="510" 
d="M245 385c-7.33301 7.33301 -11 13.3359 -11 18.0029c0 5.33301 1.66699 10.166 5 14.499s8 6.5 14 6.5c8 0 14 -2.66699 18 -8c3.33301 -4 8.5 -9.66699 15.5 -17l24 -24.5l28.5 -29.5l30 -31l77 -78c9.33301 -8 14 -15.667 14 -23
c0 -6.66699 -4.66699 -14.334 -14 -23.001l-77 -78l-30 -31l-28.5 -29.5l-24 -24.5c-7 -7.33301 -12.167 -13 -15.5 -17c-4 -5.33301 -10 -8 -18 -8c-6 0 -10.667 2.16699 -14 6.5s-5 9.16602 -5 14.499c0 4.66699 3.66699 10.667 11 18l172 172zM61 385.003
c-7.33301 7.33301 -11 13.335 -11 18.002c0 5.33301 1.66699 10.166 5 14.499s8 6.5 14 6.5c8 0 14 -2.66699 18 -8c3.33301 -4 8.5 -9.66699 15.5 -17l24 -24.5l28.5 -29.5l30 -31l77 -78c4 -4 7.33301 -7.5 10 -10.5s4 -7.16699 4 -12.5c0 -7.33301 -4.66699 -15 -14 -23
l-77 -78l-30 -31l-28.5 -29.5l-24 -24.5c-7 -7.33301 -12.167 -13 -15.5 -17c-4 -5.33301 -10 -8 -18 -8c-6 0 -10.667 2.16699 -14 6.5s-5 9.16602 -5 14.499c0 4.66699 3.66699 10.667 11 18l172 172z" />
    <glyph glyph-name="onequarter" unicode="&#xbc;" horiz-adv-x="746" 
d="M396 303c0 16 4.16602 29.1641 12.499 39.4971s19.5 15.5 33.5 15.5c19.333 0 34.333 -6.5 45 -19.5s16 -34.833 16 -65.5c0 -46 -5.66699 -85 -17 -117c12.667 -4 25 -8.5 37 -13.5s24.333 -9.5 37 -13.5v212c0 4.66699 1.16699 8.83398 3.5 12.501s6.5 5.5 12.5 5.5
c7.33301 0 11.833 -2.16699 13.5 -6.5s2.5 -8.16602 2.5 -11.499v-220c4.66699 -0.666992 9.33398 -1.16699 14.001 -1.5s9.66699 -0.5 15 -0.5c10 0 18 1 24 3s10.333 4.5 13 7.5s4.33398 6 5.00098 9s1 5.5 1 7.5c0 3.33301 1.16699 6.83301 3.5 10.5s6.5 5.5 12.5 5.5
c6.66699 0 11 -2 13 -6s3 -7.66699 3 -11c0 -13.333 -5.33301 -26.333 -16 -39s-30.334 -19 -59.001 -19c-5.33301 0 -10.333 0.166992 -15 0.5s-9.33398 0.833008 -14.001 1.5v-76h5c8 0 14.667 0.833008 20 2.5s9.66602 3.5 12.999 5.5c4 2.66699 7.33301 5.66699 10 9
c2.66699 4 6.33398 6 11.001 6c4 0 7 -1.5 9 -4.5s3 -6.16699 3 -9.5c0 -2.66699 -1.33301 -6.33398 -4 -11.001c-3.33301 -6 -8 -11 -14 -15c-5.33301 -3.33301 -11.833 -6.5 -19.5 -9.5s-17.167 -4.5 -28.5 -4.5c-10 0 -18.667 1 -26 3s-14.166 4.33301 -20.499 7
s-12.333 5 -18 7s-11.5 3 -17.5 3c-5.33301 0 -9.83301 -0.5 -13.5 -1.5s-6.83398 -2.16699 -9.50098 -3.5c-2.66699 -2 -5.33398 -3.66699 -8.00098 -5c-4.66699 -4.66699 -8.66699 -7 -12 -7s-6.33301 1.5 -9 4.5s-4 6.16699 -4 9.5c0 4.66699 2.33301 9.33398 7 14.001
c3.33301 4 7.66602 7.33301 12.999 10c4 2.66699 9.16699 5 15.5 7s13.166 3 20.499 3c8.66699 0 16.5 -1.33301 23.5 -4l21.5 -8v74c-16 4.66699 -30.667 10.167 -44 16.5s-27 11.833 -41 16.5c-15.333 -30 -35.666 -45 -60.999 -45
c-15.333 0 -26.166 3.83301 -32.499 11.5s-9.5 16.167 -9.5 25.5c0 14.667 5.16699 26 15.5 34s23.833 12 40.5 12c4.66699 0 9.33398 -0.333008 14.001 -1l14 -2c4.66699 14 8.33398 30.333 11.001 49s4 39 4 61c0 19.333 -2.33301 33 -7 41s-10.667 12 -18 12
s-12.333 -2.33301 -15 -7s-4 -10 -4 -16c0 -3.33301 -1 -7.16602 -3 -11.499s-6 -6.5 -12 -6.5c-10.667 0 -16 6 -16 18zM75.999 479.997c-2 -1.33301 -3.66113 -2.33301 -4.99414 -3c-4 -1.33301 -6.33301 -2 -7 -2c-4.66699 0 -8.16699 2.16699 -10.5 6.5
s-3.5 8.16602 -3.5 11.499s1.5 6.33301 4.5 9s6.16699 5 9.5 7c8 4 16 9 24 15c7.33301 4.66699 15.166 10.334 23.499 17.001s16.833 14 25.5 22v76c0 24 3.66699 40.333 11 49s16.666 13 27.999 13s20.833 -3.66699 28.5 -11s11.5 -19.666 11.5 -36.999
c0 -19.333 -4.5 -37.666 -13.5 -54.999s-20.167 -33 -33.5 -47v-195c3.33301 -0.666992 6.66602 -1.16699 9.99902 -1.5s7 -0.5 11 -0.5c8 0 14.667 0.833008 20 2.5s9.66602 3.5 12.999 5.5c4 2.66699 7.33301 5.66699 10 9c3.33301 5.33301 7.66602 8 12.999 8
c3.33301 0 6.33301 -1.5 9 -4.5s4 -6.16699 4 -9.5c0 -2.66699 -0.333008 -4.83398 -1 -6.50098s-1.33398 -3.16699 -2.00098 -4.5c-0.666992 -2 -1.33398 -3.33301 -2.00098 -4c-4 -5.33301 -9 -10 -15 -14c-5.33301 -3.33301 -12 -6.33301 -20 -9s-17.667 -4 -29 -4
c-10 0 -18.667 1 -26 3s-14.166 4.33301 -20.499 7s-12.333 5 -18 7s-11.5 3 -17.5 3c-5.33301 0 -10 -0.666992 -14 -2s-7.33301 -2.66602 -10 -3.99902c-3.33301 -2 -6 -3.66699 -8 -5c-4.66699 -4.66699 -8.66699 -7 -12 -7c-2 0 -4.83301 1.5 -8.5 4.5
s-5.5 7.16699 -5.5 12.5c0 3.33301 0.833008 6.16602 2.5 8.49902s3.16699 4.16602 4.5 5.49902c4 3.33301 8.66699 6.33301 14 9c4.66699 2 10 4 16 6s13 3 21 3c5.33301 0 10.333 -0.666992 15 -2l14 -4v153c-8 -6.66699 -15.833 -12.5 -23.5 -17.5l-19.5 -12.5z
M169.005 602.997c4.66699 7.33301 8.33301 15 11 23s4 16.667 4 26c0 4 -0.5 7.66699 -1.5 11s-3.16699 5 -6.5 5c-2.66699 0 -4.5 -1.66699 -5.5 -5s-1.5 -11.333 -1.5 -24v-36zM414.004 113.997c11.333 0 20.999 6.66699 28.999 20c-2.66699 0 -5.16699 0.166992 -7.5 0.5
s-4.83301 0.5 -7.5 0.5c-7.33301 0 -13.166 -1.33301 -17.499 -4s-6.5 -5.66699 -6.5 -9c0 -5.33301 3.33301 -8 10 -8zM473.003 695.997c4.66699 10.667 11.667 16.001 21 16.001c5.33301 0 10 -1.66699 14 -5s6 -8 6 -14c0 -4.66699 -1 -9.33398 -3 -14.001l-297 -697
c-2 -4.66699 -4.66699 -8.66699 -8 -12s-7.33301 -5 -12 -5c-5.33301 0 -10.333 2 -15 6s-7 9 -7 15c0 4 1 8 3 12z" />
    <glyph glyph-name="onehalf" unicode="&#xbd;" horiz-adv-x="761" 
d="M419 249c0 18.667 3.50098 36.1689 10.501 52.502s16.333 30.166 28 41.499s25.5 20.333 41.5 27s33.333 10 52 10c42.667 0 76.334 -13 101.001 -39s37 -59.333 37 -100c0 -20 -2.83301 -40 -8.5 -60s-13.5 -39.333 -23.5 -58s-21.667 -36.167 -35 -52.5
s-28 -30.5 -44 -42.5c12.667 -6 28 -11.167 46 -15.5s41 -6.5 69 -6.5c12 0 18 -5.33301 18 -16s-6 -16 -18 -16c-38 0 -68 3.66699 -90 11s-40.667 15 -56 23c-11.333 -5.33301 -22.333 -9.5 -33 -12.5s-21.667 -4.5 -33 -4.5c-19.333 0 -32.833 3.83301 -40.5 11.5
s-11.5 17.167 -11.5 28.5c0 12 3.66699 21.5 11 28.5s18.666 10.5 33.999 10.5c16 0 29.333 -2.5 40 -7.5s21.334 -10.833 32.001 -17.5c14.667 10 28.667 22.333 42 37s25 30.667 35 48s18 35.666 24 54.999s9 38 9 56c0 31.333 -9.33301 56.833 -28 76.5
s-44.334 29.5 -77.001 29.5c-28 0 -51.333 -9.33301 -70 -28s-28.334 -42 -29.001 -70c0 -23.333 5.16699 -41.333 15.5 -54s24.166 -19 41.499 -19c12.667 0 23 3.83301 31 11.5s12 17.5 12 29.5c0 3.33301 1 6.83301 3 10.5s6.33301 5.5 13 5.5
c7.33301 0 11.833 -2 13.5 -6s2.5 -7.33301 2.5 -10c0 -21.333 -7 -38.833 -21 -52.5s-32 -20.5 -54 -20.5c-25.333 0 -46.666 9 -63.999 27s-26 44 -26 78zM76.001 480.002c-1.33301 -1.33301 -2.66016 -2.33301 -3.99316 -3c-2.66699 -1.33301 -5.33398 -2 -8.00098 -2
c-4.66699 0 -8.16699 2.16699 -10.5 6.5s-3.5 8.16602 -3.5 11.499s1.5 6.33301 4.5 9s6.16699 5 9.5 7c8 4 16 9 24 15c7.33301 4.66699 15.166 10.334 23.499 17.001s16.833 14 25.5 22v76c0 24 3.66699 40.333 11 49s16.666 13 27.999 13s20.833 -3.66699 28.5 -11
s11.5 -19.666 11.5 -36.999c0 -19.333 -4.5 -37.666 -13.5 -54.999s-20.167 -33 -33.5 -47v-195c3.33301 -0.666992 6.66602 -1.16699 9.99902 -1.5s7 -0.5 11 -0.5c8 0 14.667 0.833008 20 2.5s9.66602 3.5 12.999 5.5c4 2.66699 7.33301 5.66699 10 9
c3.33301 5.33301 7.66602 8 12.999 8c3.33301 0 6.33301 -1.5 9 -4.5s4 -6.16699 4 -9.5c0 -2.66699 -0.333008 -4.83398 -1 -6.50098s-1.33398 -3.16699 -2.00098 -4.5c-0.666992 -2 -1.33398 -3.33301 -2.00098 -4c-4 -5.33301 -9 -10 -15 -14
c-5.33301 -3.33301 -12 -6.33301 -20 -9s-17.667 -4 -29 -4c-10 0 -18.667 1 -26 3s-14.166 4.33301 -20.499 7s-12.333 5 -18 7s-11.5 3 -17.5 3c-5.33301 0 -10 -0.666992 -14 -2s-7.33301 -2.66602 -10 -3.99902c-3.33301 -2 -6 -3.66699 -8 -5
c-4.66699 -4.66699 -8.66699 -7 -12 -7c-2 0 -4.83301 1.5 -8.5 4.5s-5.5 7.16699 -5.5 12.5c0 3.33301 0.833008 6.16602 2.5 8.49902s3.16699 4.16602 4.5 5.49902c4 3.33301 8.66699 6.33301 14 9c4.66699 2 10 4 16 6s13 3 21 3c5.33301 0 10.333 -0.666992 15 -2l14 -4
v153c-8 -6.66699 -15.833 -12.5 -23.5 -17.5l-19.5 -12.5zM169.007 603.002c4.66699 7.33301 8.33301 15 11 23s4 16.667 4 26c0 4 -0.5 7.66699 -1.5 11s-3.16699 5 -6.5 5c-2.66699 0 -4.5 -1.66699 -5.5 -5s-1.5 -11.333 -1.5 -24v-36zM481.006 23.002
c11.333 0 21.333 1.66602 30 4.99902c-5.33301 2.66699 -11 4.83398 -17 6.50098s-12.667 2.5 -20 2.5c-8.66699 0 -13 -2 -13 -6c0 -5.33301 6.66699 -8 20 -8zM474.006 696.001c4.66699 10.667 11.667 16.001 21 16.001c5.33301 0 10 -1.66699 14 -5s6 -8 6 -14
c0 -4.66699 -1 -9.33398 -3 -14.001l-297 -697c-2 -4.66699 -4.66699 -8.66699 -8 -12s-7.33301 -5 -12 -5c-5.33301 0 -10.333 2 -15 6s-7 9 -7 15c0 4 1 8 3 12z" />
    <glyph glyph-name="threequarters" unicode="&#xbe;" horiz-adv-x="718" 
d="M147 706c31.333 0 57.501 -9.50098 78.501 -28.501s31.5 -44.5 31.5 -76.5c0 -12.667 -1.33301 -24.167 -4 -34.5s-6.33398 -19.833 -11.001 -28.5c15.333 -10 27.333 -23.333 36 -40s13 -35.667 13 -57c0 -36 -11.5 -63.667 -34.5 -83s-52.5 -29 -88.5 -29
c-18 0 -34.333 2.83301 -49 8.5s-27.167 13 -37.5 22s-18.166 19 -23.499 30s-8 22.167 -8 33.5c0 10.667 5.33301 16 16 16c10 0 15 -5.33301 15 -16c0 -15.333 7.33301 -29.666 22 -42.999s36.334 -20 65.001 -20c28 0 50.333 7 67 21s25 34 25 60
c0 15.333 -3.16699 29 -9.5 41s-14.833 22 -25.5 30c-18.667 -20.667 -39.667 -31 -63 -31c-15.333 0 -27.833 3 -37.5 9s-14.5 16 -14.5 30c0 11.333 4.66699 20.833 14 28.5s23.666 11.5 42.999 11.5c16 0 32 -2.66699 48 -8c7.33301 14.667 11 31 11 49
c0 22 -7.33301 39.833 -22 53.5s-33.667 20.5 -57 20.5c-20 0 -34.5 -4.5 -43.5 -13.5s-13.5 -18.833 -13.5 -29.5c0 -7.33301 2 -13.333 6 -18s9.33301 -7 16 -7c8 0 13.5 2.16699 16.5 6.5s4.5 8.83301 4.5 13.5c0 11.333 5.33301 17 16 17
c3.33301 0 6.66602 -1.33301 9.99902 -4s5 -7 5 -13c0 -16 -5 -28.5 -15 -37.5s-22.333 -13.5 -37 -13.5c-15.333 0 -28 5.33301 -38 16s-15 24 -15 40c0 18.667 6.83301 35.667 20.5 51s36.167 23 67.5 23zM162.001 509.999c10.667 0 22.001 5.33301 34.001 16
c-4.66699 1.33301 -9.33398 2.33301 -14.001 3s-9.66699 1 -15 1c-10.667 0 -17.667 -1.16699 -21 -3.5s-5 -4.5 -5 -6.5c0 -3.33301 2 -5.83301 6 -7.5s9 -2.5 15 -2.5zM368.002 302.999c0 16 4.16602 29.1641 12.499 39.4971s19.5 15.5 33.5 15.5
c19.333 0 34.333 -6.5 45 -19.5s16 -34.833 16 -65.5c0 -46 -5.66699 -85 -17 -117c12.667 -4 25 -8.5 37 -13.5s24.333 -9.5 37 -13.5v212c0 4.66699 1.16699 8.83398 3.5 12.501s6.5 5.5 12.5 5.5c7.33301 0 11.833 -2.16699 13.5 -6.5s2.5 -8.16602 2.5 -11.499v-220
c4.66699 -0.666992 9.33398 -1.16699 14.001 -1.5s9.66699 -0.5 15 -0.5c10 0 18 1 24 3s10.333 4.5 13 7.5s4.33398 6 5.00098 9s1 5.5 1 7.5c0 3.33301 1.16699 6.83301 3.5 10.5s6.5 5.5 12.5 5.5c6.66699 0 11 -2 13 -6s3 -7.66699 3 -11
c0 -13.333 -5.33301 -26.333 -16 -39s-30.334 -19 -59.001 -19c-5.33301 0 -10.333 0.166992 -15 0.5s-9.33398 0.833008 -14.001 1.5v-76h5c8 0 14.667 0.833008 20 2.5s9.66602 3.5 12.999 5.5c4 2.66699 7.33301 5.66699 10 9c2.66699 4 6.33398 6 11.001 6
c4 0 7 -1.5 9 -4.5s3 -6.16699 3 -9.5c0 -2.66699 -1.33301 -6.33398 -4 -11.001c-3.33301 -6 -8 -11 -14 -15c-5.33301 -3.33301 -11.833 -6.5 -19.5 -9.5s-17.167 -4.5 -28.5 -4.5c-10 0 -18.667 1 -26 3s-14.166 4.33301 -20.499 7s-12.333 5 -18 7s-11.5 3 -17.5 3
c-5.33301 0 -9.83301 -0.5 -13.5 -1.5s-6.83398 -2.16699 -9.50098 -3.5c-2.66699 -2 -5.33398 -3.66699 -8.00098 -5c-4.66699 -4.66699 -8.66699 -7 -12 -7s-6.33301 1.5 -9 4.5s-4 6.16699 -4 9.5c0 4.66699 2.33301 9.33398 7 14.001
c3.33301 4 7.66602 7.33301 12.999 10c4 2.66699 9.16699 5 15.5 7s13.166 3 20.499 3c8.66699 0 16.5 -1.33301 23.5 -4l21.5 -8v74c-16 4.66699 -30.667 10.167 -44 16.5s-27 11.833 -41 16.5c-15.333 -30 -35.666 -45 -60.999 -45
c-15.333 0 -26.166 3.83301 -32.499 11.5s-9.5 16.167 -9.5 25.5c0 14.667 5.16699 26 15.5 34s23.833 12 40.5 12c4.66699 0 9.33398 -0.333008 14.001 -1l14 -2c4.66699 14 8.33398 30.333 11.001 49s4 39 4 61c0 19.333 -2.33301 33 -7 41s-10.667 12 -18 12
s-12.333 -2.33301 -15 -7s-4 -10 -4 -16c0 -3.33301 -1 -7.16602 -3 -11.499s-6 -6.5 -12 -6.5c-10.667 0 -16 6 -16 18zM386.001 113.996c11.333 0 20.999 6.66699 28.999 20c-2.66699 0 -5.16699 0.166992 -7.5 0.5s-4.83301 0.5 -7.5 0.5
c-7.33301 0 -13.166 -1.33301 -17.499 -4s-6.5 -5.66699 -6.5 -9c0 -5.33301 3.33301 -8 10 -8zM447 695.996c4.66699 10.667 11.667 16.001 21 16.001c5.33301 0 10 -1.66699 14 -5s6 -8 6 -14c0 -4.66699 -1 -9.33398 -3 -14.001l-297 -697
c-2 -4.66699 -4.66699 -8.66699 -8 -12s-7.33301 -5 -12 -5c-5.33301 0 -10.333 2 -15 6s-7 9 -7 15c0 4 1 8 3 12z" />
    <glyph glyph-name="questiondown" unicode="&#xbf;" horiz-adv-x="544" 
d="M548 -233c0 -31.333 -5.33398 -60.167 -16.001 -86.5s-26 -49 -46 -68s-44 -33.833 -72 -44.5s-59 -16 -93 -16s-64.333 5.5 -91 16.5s-49.334 26.167 -68.001 45.5s-33 42.5 -43 69.5s-15 56.5 -15 88.5c0 35.333 6.16699 66.166 18.5 92.499s27.5 50.166 45.5 71.499
s37.833 40.833 59.5 58.5s41.5 35.667 59.5 54s33.167 38 45.5 59s18.5 45.167 18.5 72.5c0 10 2.16699 17.5 6.5 22.5s9.16602 7.5 14.499 7.5s10 -2.5 14 -7.5s6 -12.5 6 -22.5c0 -30.667 -6 -57.667 -18 -81s-27.167 -45.166 -45.5 -65.499s-38.166 -39.5 -59.499 -57.5
s-41.166 -37.167 -59.499 -57.5s-33.5 -42.166 -45.5 -65.499s-18 -50.333 -18 -81c0 -26 4 -49.833 12 -71.5s19.5 -40.5 34.5 -56.5s33.333 -28.333 55 -37s46.167 -13 73.5 -13c28.667 0 54.334 4.33301 77.001 13s42 20.667 58 36s28.333 33.5 37 54.5
s13 44.167 13 69.5c0 40.667 -9.5 71.667 -28.5 93s-44.833 32 -77.5 32c-25.333 0 -46.5 -6.83301 -63.5 -20.5s-25.5 -31.834 -25.5 -54.501c0 -5.33301 -1.83301 -10.166 -5.5 -14.499s-8.5 -6.5 -14.5 -6.5c-6.66699 0 -12 2.16699 -16 6.5s-6 9.16602 -6 14.499
c0 34.667 12.333 62.834 37 84.501s56 32.5 94 32.5c42 0 77.167 -14.167 105.5 -42.5s42.5 -69.833 42.5 -124.5zM402.999 287.999c0 -12 -2.83301 -23.167 -8.5 -33.5s-14.167 -15.5 -25.5 -15.5s-19.166 3.66699 -23.499 11s-6.5 17 -6.5 29
c0 16.667 3.33301 29.167 10 37.5s14.667 12.5 24 12.5c11.333 0 19.166 -3.83301 23.499 -11.5s6.5 -17.5 6.5 -29.5z" />
    <glyph glyph-name="Agrave" unicode="&#xc0;" horiz-adv-x="1211" 
d="M880 238c0 5.33301 2.00195 9.99902 6.00195 13.999s8.66699 6 14 6s10 -2 14 -6s6 -8.66699 6 -14c0 -45.333 -14.667 -81.666 -44 -108.999s-69 -43.333 -119 -48c21.333 -36 44.166 -64.667 68.499 -86s49.166 -32 74.499 -32c33.333 0 64.5 9.16699 93.5 27.5
s56 41.333 81 69s48.333 57.834 70 90.501l60.5 92c2 3.33301 4.16699 5.83301 6.5 7.5s6.16602 2.5 11.499 2.5c12.667 0 19 -5.33301 19 -16c0 -4.66699 -1.33301 -9.66699 -4 -15l-4 -8c-18 -29.333 -38.667 -61 -62 -95s-49 -65.5 -77 -94.5s-58.333 -53.333 -91 -73
s-67 -29.5 -103 -29.5c-37.333 0 -72.166 14.667 -104.499 44s-62.166 67.666 -89.499 114.999c-23.333 2 -46.5 5.83301 -69.5 11.5s-46 12.334 -69 20.001l-69.5 24c-23.333 8.33301 -46.666 16.166 -69.999 23.499c-20.667 -40 -42 -77.5 -64 -112.5
s-44.167 -65.5 -66.5 -91.5s-44.333 -46.333 -66 -61s-42.167 -22 -61.5 -22c-36 0 -65.167 13.333 -87.5 40s-33.5 62.667 -33.5 108c0 29.333 6.5 56.5 19.5 81.5s30.333 46.667 52 65s47 32.666 76 42.999s59.5 15.5 91.5 15.5c20.667 0 40.667 -1.5 60 -4.5
s38.666 -6.83301 57.999 -11.5c17.333 36.667 33.833 74.834 49.5 114.501s29.5 79 41.5 118s22.167 77.167 30.5 114.5s14.166 72 17.499 104c-0.666992 9.33301 -1.16699 18.333 -1.5 27s-0.5 17 -0.5 25c0 17.333 8 26 24 26c15.333 0 23 -8.33301 23 -25
c0 -9.33301 -0.333008 -18.5 -1 -27.5l-2 -27.5c2.66699 -40 8.16699 -83.5 16.5 -130.5s19 -94.5 32 -142.5s27.833 -94.833 44.5 -140.5s35 -87.5 55 -125.5c20 0 38.833 2.66699 56.5 8s33 13.166 46 23.499s23.167 22.833 30.5 37.5s11 31.334 11 50.001z
M171.002 -86.001c15.333 0 32 6.5 50 19.5s36.333 31 55 54s37.667 50.167 57 81.5s38 65.333 56 102c-17.333 4 -34.333 7.33301 -51 10s-33.334 4 -50.001 4c-29.333 0 -56 -4.5 -80 -13.5s-44.667 -21.167 -62 -36.5s-30.666 -33 -39.999 -53s-14 -40.667 -14 -62
c0 -32 7.33301 -57.667 22 -77s33.667 -29 57 -29zM685.002 122.999c-14 28.667 -27.168 59.333 -39.501 92s-23.666 66 -33.999 100s-19.5 68.167 -27.5 102.5s-15 67.833 -21 100.5c-12.667 -52 -29 -105.5 -49 -160.5s-42.333 -108.5 -67 -160.5
c42 -13.333 82.5 -27.5 121.5 -42.5s77.833 -25.5 116.5 -31.5zM537.001 798.998l-28.001 45.5l-30 48.5l-34 55c-4 6 -6 11.333 -6 16c0 5.33301 1.83301 9.5 5.5 12.5s7.83398 4.5 12.501 4.5c6.66699 0 11.5 -1.66699 14.5 -5s6.16699 -7.33301 9.5 -12l32 -51l28.5 -46
c9.66699 -16 18.5 -30 26.5 -42c0.666992 -2 1.66699 -4 3 -6c2.66699 -5.33301 4 -9.33301 4 -12c0 -6 -2 -10.667 -6 -14s-8.66699 -5 -14 -5c-7.33301 0 -13.333 3.66699 -18 11z" />
    <glyph glyph-name="Aacute" unicode="&#xc1;" horiz-adv-x="1211" 
d="M880 238c0 5.33301 2.00195 9.99902 6.00195 13.999s8.66699 6 14 6s10 -2 14 -6s6 -8.66699 6 -14c0 -45.333 -14.667 -81.666 -44 -108.999s-69 -43.333 -119 -48c21.333 -36 44.166 -64.667 68.499 -86s49.166 -32 74.499 -32c33.333 0 64.5 9.16699 93.5 27.5
s56 41.333 81 69s48.333 57.834 70 90.501l60.5 92c2 3.33301 4.16699 5.83301 6.5 7.5s6.16602 2.5 11.499 2.5c12.667 0 19 -5.33301 19 -16c0 -4.66699 -1.33301 -9.66699 -4 -15l-4 -8c-18 -29.333 -38.667 -61 -62 -95s-49 -65.5 -77 -94.5s-58.333 -53.333 -91 -73
s-67 -29.5 -103 -29.5c-37.333 0 -72.166 14.667 -104.499 44s-62.166 67.666 -89.499 114.999c-23.333 2 -46.5 5.83301 -69.5 11.5s-46 12.334 -69 20.001l-69.5 24c-23.333 8.33301 -46.666 16.166 -69.999 23.499c-20.667 -40 -42 -77.5 -64 -112.5
s-44.167 -65.5 -66.5 -91.5s-44.333 -46.333 -66 -61s-42.167 -22 -61.5 -22c-36 0 -65.167 13.333 -87.5 40s-33.5 62.667 -33.5 108c0 29.333 6.5 56.5 19.5 81.5s30.333 46.667 52 65s47 32.666 76 42.999s59.5 15.5 91.5 15.5c20.667 0 40.667 -1.5 60 -4.5
s38.666 -6.83301 57.999 -11.5c17.333 36.667 33.833 74.834 49.5 114.501s29.5 79 41.5 118s22.167 77.167 30.5 114.5s14.166 72 17.499 104c-0.666992 9.33301 -1.16699 18.333 -1.5 27s-0.5 17 -0.5 25c0 17.333 8 26 24 26c15.333 0 23 -8.33301 23 -25
c0 -9.33301 -0.333008 -18.5 -1 -27.5l-2 -27.5c2.66699 -40 8.16699 -83.5 16.5 -130.5s19 -94.5 32 -142.5s27.833 -94.833 44.5 -140.5s35 -87.5 55 -125.5c20 0 38.833 2.66699 56.5 8s33 13.166 46 23.499s23.167 22.833 30.5 37.5s11 31.334 11 50.001z
M171.002 -86.001c15.333 0 32 6.5 50 19.5s36.333 31 55 54s37.667 50.167 57 81.5s38 65.333 56 102c-17.333 4 -34.333 7.33301 -51 10s-33.334 4 -50.001 4c-29.333 0 -56 -4.5 -80 -13.5s-44.667 -21.167 -62 -36.5s-30.666 -33 -39.999 -53s-14 -40.667 -14 -62
c0 -32 7.33301 -57.667 22 -77s33.667 -29 57 -29zM685.002 122.999c-14 28.667 -27.168 59.333 -39.501 92s-23.666 66 -33.999 100s-19.5 68.167 -27.5 102.5s-15 67.833 -21 100.5c-12.667 -52 -29 -105.5 -49 -160.5s-42.333 -108.5 -67 -160.5
c42 -13.333 82.5 -27.5 121.5 -42.5s77.833 -25.5 116.5 -31.5zM600.001 798.998c-4.66699 -7.33301 -10.668 -11 -18.001 -11c-5.33301 0 -10 1.66699 -14 5s-6 8 -6 14c0 4 1 8 3 12l4 6l26 42l29 46l32 51c3.33301 4.66699 6.5 8.66699 9.5 12s7.83301 5 14.5 5
c4.66699 0 8.83398 -1.5 12.501 -4.5s5.5 -7.16699 5.5 -12.5c0 -4.66699 -2 -10 -6 -16l-34 -55l-30 -48.5z" />
    <glyph glyph-name="Acircumflex" unicode="&#xc2;" horiz-adv-x="1211" 
d="M880 238c0 5.33301 2.00195 9.99902 6.00195 13.999s8.66699 6 14 6s10 -2 14 -6s6 -8.66699 6 -14c0 -45.333 -14.667 -81.666 -44 -108.999s-69 -43.333 -119 -48c21.333 -36 44.166 -64.667 68.499 -86s49.166 -32 74.499 -32c33.333 0 64.5 9.16699 93.5 27.5
s56 41.333 81 69s48.333 57.834 70 90.501l60.5 92c2 3.33301 4.16699 5.83301 6.5 7.5s6.16602 2.5 11.499 2.5c12.667 0 19 -5.33301 19 -16c0 -4.66699 -1.33301 -9.66699 -4 -15l-4 -8c-18 -29.333 -38.667 -61 -62 -95s-49 -65.5 -77 -94.5s-58.333 -53.333 -91 -73
s-67 -29.5 -103 -29.5c-37.333 0 -72.166 14.667 -104.499 44s-62.166 67.666 -89.499 114.999c-23.333 2 -46.5 5.83301 -69.5 11.5s-46 12.334 -69 20.001l-69.5 24c-23.333 8.33301 -46.666 16.166 -69.999 23.499c-20.667 -40 -42 -77.5 -64 -112.5
s-44.167 -65.5 -66.5 -91.5s-44.333 -46.333 -66 -61s-42.167 -22 -61.5 -22c-36 0 -65.167 13.333 -87.5 40s-33.5 62.667 -33.5 108c0 29.333 6.5 56.5 19.5 81.5s30.333 46.667 52 65s47 32.666 76 42.999s59.5 15.5 91.5 15.5c20.667 0 40.667 -1.5 60 -4.5
s38.666 -6.83301 57.999 -11.5c17.333 36.667 33.833 74.834 49.5 114.501s29.5 79 41.5 118s22.167 77.167 30.5 114.5s14.166 72 17.499 104c-0.666992 9.33301 -1.16699 18.333 -1.5 27s-0.5 17 -0.5 25c0 17.333 8 26 24 26c15.333 0 23 -8.33301 23 -25
c0 -9.33301 -0.333008 -18.5 -1 -27.5l-2 -27.5c2.66699 -40 8.16699 -83.5 16.5 -130.5s19 -94.5 32 -142.5s27.833 -94.833 44.5 -140.5s35 -87.5 55 -125.5c20 0 38.833 2.66699 56.5 8s33 13.166 46 23.499s23.167 22.833 30.5 37.5s11 31.334 11 50.001z
M171.002 -86.001c15.333 0 32 6.5 50 19.5s36.333 31 55 54s37.667 50.167 57 81.5s38 65.333 56 102c-17.333 4 -34.333 7.33301 -51 10s-33.334 4 -50.001 4c-29.333 0 -56 -4.5 -80 -13.5s-44.667 -21.167 -62 -36.5s-30.666 -33 -39.999 -53s-14 -40.667 -14 -62
c0 -32 7.33301 -57.667 22 -77s33.667 -29 57 -29zM685.002 122.999c-14 28.667 -27.168 59.333 -39.501 92s-23.666 66 -33.999 100s-19.5 68.167 -27.5 102.5s-15 67.833 -21 100.5c-12.667 -52 -29 -105.5 -49 -160.5s-42.333 -108.5 -67 -160.5
c42 -13.333 82.5 -27.5 121.5 -42.5s77.833 -25.5 116.5 -31.5zM564.001 926.998l-79 -128c-4.66699 -7.33301 -10.667 -11 -18 -11c-5.33301 0 -10 1.66699 -14 5s-6 8 -6 14c0 4 1 8 3 12l4 6l29.5 46.5l29 46l23 37c6.33301 10.333 10.5 16.5 12.5 18.5
c4.66699 5.33301 10 8 16 8c6.66699 0 11.667 -2.66699 15 -8l95 -148c0.666992 -2 1.66699 -4 3 -6c2.66699 -5.33301 4 -9.33301 4 -12c0 -6 -2 -10.667 -6 -14s-8.66699 -5 -14 -5c-7.33301 0 -13.333 3.66699 -18 11z" />
    <glyph glyph-name="Atilde" unicode="&#xc3;" horiz-adv-x="1211" 
d="M880 238c0 5.33301 2.00195 9.99902 6.00195 13.999s8.66699 6 14 6s10 -2 14 -6s6 -8.66699 6 -14c0 -45.333 -14.667 -81.666 -44 -108.999s-69 -43.333 -119 -48c21.333 -36 44.166 -64.667 68.499 -86s49.166 -32 74.499 -32c33.333 0 64.5 9.16699 93.5 27.5
s56 41.333 81 69s48.333 57.834 70 90.501l60.5 92c2 3.33301 4.16699 5.83301 6.5 7.5s6.16602 2.5 11.499 2.5c12.667 0 19 -5.33301 19 -16c0 -4.66699 -1.33301 -9.66699 -4 -15l-4 -8c-18 -29.333 -38.667 -61 -62 -95s-49 -65.5 -77 -94.5s-58.333 -53.333 -91 -73
s-67 -29.5 -103 -29.5c-37.333 0 -72.166 14.667 -104.499 44s-62.166 67.666 -89.499 114.999c-23.333 2 -46.5 5.83301 -69.5 11.5s-46 12.334 -69 20.001l-69.5 24c-23.333 8.33301 -46.666 16.166 -69.999 23.499c-20.667 -40 -42 -77.5 -64 -112.5
s-44.167 -65.5 -66.5 -91.5s-44.333 -46.333 -66 -61s-42.167 -22 -61.5 -22c-36 0 -65.167 13.333 -87.5 40s-33.5 62.667 -33.5 108c0 29.333 6.5 56.5 19.5 81.5s30.333 46.667 52 65s47 32.666 76 42.999s59.5 15.5 91.5 15.5c20.667 0 40.667 -1.5 60 -4.5
s38.666 -6.83301 57.999 -11.5c17.333 36.667 33.833 74.834 49.5 114.501s29.5 79 41.5 118s22.167 77.167 30.5 114.5s14.166 72 17.499 104c-0.666992 9.33301 -1.16699 18.333 -1.5 27s-0.5 17 -0.5 25c0 17.333 8 26 24 26c15.333 0 23 -8.33301 23 -25
c0 -9.33301 -0.333008 -18.5 -1 -27.5l-2 -27.5c2.66699 -40 8.16699 -83.5 16.5 -130.5s19 -94.5 32 -142.5s27.833 -94.833 44.5 -140.5s35 -87.5 55 -125.5c20 0 38.833 2.66699 56.5 8s33 13.166 46 23.499s23.167 22.833 30.5 37.5s11 31.334 11 50.001z
M171.002 -86.001c15.333 0 32 6.5 50 19.5s36.333 31 55 54s37.667 50.167 57 81.5s38 65.333 56 102c-17.333 4 -34.333 7.33301 -51 10s-33.334 4 -50.001 4c-29.333 0 -56 -4.5 -80 -13.5s-44.667 -21.167 -62 -36.5s-30.666 -33 -39.999 -53s-14 -40.667 -14 -62
c0 -32 7.33301 -57.667 22 -77s33.667 -29 57 -29zM685.002 122.999c-14 28.667 -27.168 59.333 -39.501 92s-23.666 66 -33.999 100s-19.5 68.167 -27.5 102.5s-15 67.833 -21 100.5c-12.667 -52 -29 -105.5 -49 -160.5s-42.333 -108.5 -67 -160.5
c42 -13.333 82.5 -27.5 121.5 -42.5s77.833 -25.5 116.5 -31.5zM423.001 836.998c-4 -4.66699 -7.3291 -8.16699 -9.99609 -10.5s-6 -3.5 -10 -3.5c-5.33301 0 -10 1.83301 -14 5.5s-6 8.5 -6 14.5c0 6.66699 2 12.667 6 18c6.66699 8 14 15.667 22 23
c7.33301 6 16.166 11.5 26.499 16.5s22.5 7.5 36.5 7.5c16 0 30.167 -3.66699 42.5 -11s24.333 -15.166 36 -23.499s23.667 -16.166 36 -23.499s26.166 -11 41.499 -11c13.333 0 24.666 2.66699 33.999 8s16.666 11.666 21.999 18.999c6.66699 7.33301 12 16.333 16 27
c2 3.33301 4.33301 7 7 11s6.66699 6 12 6c6.66699 0 11.834 -2 15.501 -6s5.5 -9 5.5 -15c0 -2.66699 -0.666992 -6 -2 -10c-0.666992 -2 -1.33398 -3.33301 -2.00098 -4c-6 -14 -14 -26.667 -24 -38c-8.66699 -9.33301 -19.834 -18 -33.501 -26s-30.5 -12 -50.5 -12
c-18.667 0 -35.167 3.66699 -49.5 11s-27.333 15.166 -39 23.499l-33.5 23.5c-10.667 7.33301 -22 11 -34 11c-8 0 -15.167 -1.66699 -21.5 -5s-11.833 -7 -16.5 -11c-5.33301 -4.66699 -9.66602 -9.66699 -12.999 -15z" />
    <glyph glyph-name="Adieresis" unicode="&#xc4;" horiz-adv-x="1211" 
d="M880 238c0 5.33301 2.00195 9.99902 6.00195 13.999s8.66699 6 14 6s10 -2 14 -6s6 -8.66699 6 -14c0 -45.333 -14.667 -81.666 -44 -108.999s-69 -43.333 -119 -48c21.333 -36 44.166 -64.667 68.499 -86s49.166 -32 74.499 -32c33.333 0 64.5 9.16699 93.5 27.5
s56 41.333 81 69s48.333 57.834 70 90.501l60.5 92c2 3.33301 4.16699 5.83301 6.5 7.5s6.16602 2.5 11.499 2.5c12.667 0 19 -5.33301 19 -16c0 -4.66699 -1.33301 -9.66699 -4 -15l-4 -8c-18 -29.333 -38.667 -61 -62 -95s-49 -65.5 -77 -94.5s-58.333 -53.333 -91 -73
s-67 -29.5 -103 -29.5c-37.333 0 -72.166 14.667 -104.499 44s-62.166 67.666 -89.499 114.999c-23.333 2 -46.5 5.83301 -69.5 11.5s-46 12.334 -69 20.001l-69.5 24c-23.333 8.33301 -46.666 16.166 -69.999 23.499c-20.667 -40 -42 -77.5 -64 -112.5
s-44.167 -65.5 -66.5 -91.5s-44.333 -46.333 -66 -61s-42.167 -22 -61.5 -22c-36 0 -65.167 13.333 -87.5 40s-33.5 62.667 -33.5 108c0 29.333 6.5 56.5 19.5 81.5s30.333 46.667 52 65s47 32.666 76 42.999s59.5 15.5 91.5 15.5c20.667 0 40.667 -1.5 60 -4.5
s38.666 -6.83301 57.999 -11.5c17.333 36.667 33.833 74.834 49.5 114.501s29.5 79 41.5 118s22.167 77.167 30.5 114.5s14.166 72 17.499 104c-0.666992 9.33301 -1.16699 18.333 -1.5 27s-0.5 17 -0.5 25c0 17.333 8 26 24 26c15.333 0 23 -8.33301 23 -25
c0 -9.33301 -0.333008 -18.5 -1 -27.5l-2 -27.5c2.66699 -40 8.16699 -83.5 16.5 -130.5s19 -94.5 32 -142.5s27.833 -94.833 44.5 -140.5s35 -87.5 55 -125.5c20 0 38.833 2.66699 56.5 8s33 13.166 46 23.499s23.167 22.833 30.5 37.5s11 31.334 11 50.001z
M171.002 -86.001c15.333 0 32 6.5 50 19.5s36.333 31 55 54s37.667 50.167 57 81.5s38 65.333 56 102c-17.333 4 -34.333 7.33301 -51 10s-33.334 4 -50.001 4c-29.333 0 -56 -4.5 -80 -13.5s-44.667 -21.167 -62 -36.5s-30.666 -33 -39.999 -53s-14 -40.667 -14 -62
c0 -32 7.33301 -57.667 22 -77s33.667 -29 57 -29zM685.002 122.999c-14 28.667 -27.168 59.333 -39.501 92s-23.666 66 -33.999 100s-19.5 68.167 -27.5 102.5s-15 67.833 -21 100.5c-12.667 -52 -29 -105.5 -49 -160.5s-42.333 -108.5 -67 -160.5
c42 -13.333 82.5 -27.5 121.5 -42.5s77.833 -25.5 116.5 -31.5zM476.001 839.998c0 12 2.83301 23.167 8.5 33.5s14.167 15.5 25.5 15.5s19.166 -3.66699 23.499 -11s6.5 -17 6.5 -29c0 -16 -3.33301 -28.333 -10 -37s-14.667 -13 -24 -13
c-11.333 0 -19.166 3.83301 -23.499 11.5s-6.5 17.5 -6.5 29.5zM636.001 839.998c0 12 2.83301 23.167 8.5 33.5s14.167 15.5 25.5 15.5s19.166 -3.66699 23.499 -11s6.5 -17 6.5 -29c0 -16 -3.33301 -28.333 -10 -37s-14.667 -13 -24 -13
c-11.333 0 -19.166 3.83301 -23.499 11.5s-6.5 17.5 -6.5 29.5z" />
    <glyph glyph-name="Aring" unicode="&#xc5;" horiz-adv-x="1211" 
d="M880 238c0 5.33301 2.00195 9.99902 6.00195 13.999s8.66699 6 14 6s10 -2 14 -6s6 -8.66699 6 -14c0 -45.333 -14.667 -81.666 -44 -108.999s-69 -43.333 -119 -48c21.333 -36 44.166 -64.667 68.499 -86s49.166 -32 74.499 -32c33.333 0 64.5 9.16699 93.5 27.5
s56 41.333 81 69s48.333 57.834 70 90.501l60.5 92c2 3.33301 4.16699 5.83301 6.5 7.5s6.16602 2.5 11.499 2.5c12.667 0 19 -5.33301 19 -16c0 -4.66699 -1.33301 -9.66699 -4 -15l-4 -8c-18 -29.333 -38.667 -61 -62 -95s-49 -65.5 -77 -94.5s-58.333 -53.333 -91 -73
s-67 -29.5 -103 -29.5c-37.333 0 -72.166 14.667 -104.499 44s-62.166 67.666 -89.499 114.999c-23.333 2 -46.5 5.83301 -69.5 11.5s-46 12.334 -69 20.001l-69.5 24c-23.333 8.33301 -46.666 16.166 -69.999 23.499c-20.667 -40 -42 -77.5 -64 -112.5
s-44.167 -65.5 -66.5 -91.5s-44.333 -46.333 -66 -61s-42.167 -22 -61.5 -22c-36 0 -65.167 13.333 -87.5 40s-33.5 62.667 -33.5 108c0 29.333 6.5 56.5 19.5 81.5s30.333 46.667 52 65s47 32.666 76 42.999s59.5 15.5 91.5 15.5c20.667 0 40.667 -1.5 60 -4.5
s38.666 -6.83301 57.999 -11.5c17.333 36.667 33.833 74.834 49.5 114.501s29.5 79 41.5 118s22.167 77.167 30.5 114.5s14.166 72 17.499 104c-0.666992 9.33301 -1.16699 18.333 -1.5 27s-0.5 17 -0.5 25c0 17.333 8 26 24 26c15.333 0 23 -8.33301 23 -25
c0 -9.33301 -0.333008 -18.5 -1 -27.5l-2 -27.5c2.66699 -40 8.16699 -83.5 16.5 -130.5s19 -94.5 32 -142.5s27.833 -94.833 44.5 -140.5s35 -87.5 55 -125.5c20 0 38.833 2.66699 56.5 8s33 13.166 46 23.499s23.167 22.833 30.5 37.5s11 31.334 11 50.001z
M171.002 -86.001c15.333 0 32 6.5 50 19.5s36.333 31 55 54s37.667 50.167 57 81.5s38 65.333 56 102c-17.333 4 -34.333 7.33301 -51 10s-33.334 4 -50.001 4c-29.333 0 -56 -4.5 -80 -13.5s-44.667 -21.167 -62 -36.5s-30.666 -33 -39.999 -53s-14 -40.667 -14 -62
c0 -32 7.33301 -57.667 22 -77s33.667 -29 57 -29zM685.002 122.999c-14 28.667 -27.168 59.333 -39.501 92s-23.666 66 -33.999 100s-19.5 68.167 -27.5 102.5s-15 67.833 -21 100.5c-12.667 -52 -29 -105.5 -49 -160.5s-42.333 -108.5 -67 -160.5
c42 -13.333 82.5 -27.5 121.5 -42.5s77.833 -25.5 116.5 -31.5zM570.001 968.998c25.333 0 44.666 -8.50098 57.999 -25.501s20 -37.167 20 -60.5s-6.66699 -43.166 -20 -59.499s-32.666 -24.5 -57.999 -24.5c-23.333 0 -42.333 7.5 -57 22.5s-22 34.5 -22 58.5
s7.16699 44.833 21.5 62.5s33.5 26.5 57.5 26.5zM611.001 882.997c0 12.667 -3.33301 24 -10 34s-17 15 -31 15c-12.667 0 -22.667 -5.33301 -30 -16s-11 -22.667 -11 -36s3.66699 -24.166 11 -32.499s17.333 -12.5 30 -12.5c12 0 21.833 4.66699 29.5 14
s11.5 20.666 11.5 33.999z" />
    <glyph glyph-name="AE" unicode="&#xc6;" horiz-adv-x="1445" 
d="M1023 -128c-41.333 0 -77.1631 5.00488 -107.496 15.0049s-57.166 24.167 -80.499 42.5s-43.833 40.333 -61.5 66s-34.5 53.834 -50.5 84.501c-24.667 0.666992 -49.167 3.66699 -73.5 9s-48.833 12 -73.5 20s-49.167 16.5 -73.5 25.5s-48.833 17.167 -73.5 24.5
c-20.667 -40 -42 -77.5 -64 -112.5s-44.167 -65.5 -66.5 -91.5s-44.333 -46.333 -66 -61s-42.167 -22 -61.5 -22c-36 0 -65.167 13.333 -87.5 40s-33.5 62.667 -33.5 108c0 29.333 6.5 56.5 19.5 81.5s30.333 46.667 52 65s47 32.666 76 42.999s59.5 15.5 91.5 15.5
c20.667 0 40.667 -1.5 60 -4.5s38.666 -6.83301 57.999 -11.5c18 37.333 34.667 76.166 50 116.499s29.166 80.166 41.499 119.499s22.5 77.833 30.5 115.5s13.667 72.5 17 104.5c-0.666992 8.66699 -1.16699 16.834 -1.5 24.501s-0.5 15.167 -0.5 22.5c0 17.333 8 26 24 26
c15.333 0 23 -8.33301 23 -25s-1 -33.334 -3 -50.001c3.33301 -32 9.16602 -67.833 17.499 -107.5s18.666 -81.167 30.999 -124.5s26.5 -87.333 42.5 -132s33 -88 51 -130c3.33301 48 16 89.5 38 124.5s50.333 62.5 85 82.5c-11.333 18.667 -20.333 39.334 -27 62.001
s-10 47.667 -10 75c0 32 5.83301 61 17.5 87s27.167 48.167 46.5 66.5s41.666 32.333 66.999 42s51.666 14.5 78.999 14.5c36 0 67 -4.16699 93 -12.5s47.333 -19.5 64 -33.5s29 -30.5 37 -49.5s12 -39.833 12 -62.5c0 -34.667 -10.833 -63.5 -32.5 -86.5
s-49.834 -34.5 -84.501 -34.5c-16 0 -30.333 3 -43 9s-23.5 14 -32.5 24s-15.833 21 -20.5 33s-7 24 -7 36c0 4.66699 1.5 9.5 4.5 14.5s8.16699 7.5 15.5 7.5c14.667 0 22 -7.33301 22 -22c0 -14 5.33301 -27.5 16 -40.5s25.667 -19.5 45 -19.5
c22.667 0 40.834 7.5 54.501 22.5s20.5 33.833 20.5 56.5c0 34.667 -13 62.5 -39 83.5s-67.667 31.833 -125 32.5c-22.667 0 -44.167 -4 -64.5 -12s-38.166 -19.333 -53.499 -34s-27.5 -32.334 -36.5 -53.001s-13.5 -43.667 -13.5 -69c0 -23.333 3 -45 9 -65
s14.667 -38 26 -54c30.667 12 65 18 103 18c32 0 55.5 -5.83301 70.5 -17.5s22.5 -27.167 22.5 -46.5c0 -22.667 -7.83301 -39 -23.5 -49s-35.5 -15 -59.5 -15c-22.667 0 -45 5.16699 -67 15.5s-42 25.166 -60 44.499c-34 -19.333 -60.5 -46.166 -79.5 -80.499
s-28.5 -73.833 -28.5 -118.5v-11.5c0 -3.66699 0.333008 -7.5 1 -11.5c32 6 57.667 18.667 77 38s29.666 44 30.999 74v4c0 5.33301 2 10 6 14s8.66699 6 14 6s10 -2 14 -6s6 -8.66699 6 -14c0 -42 -12.667 -76.333 -38 -103s-60.333 -43.667 -105 -51
c6.66699 -27.333 17.834 -51.5 33.501 -72.5s34.334 -38.833 56.001 -53.5s45.834 -25.667 72.501 -33s54.667 -11 84 -11c34.667 0 67.667 6.16699 99 18.5s60.833 28.166 88.5 47.499s53.5 41.166 77.5 65.499s45.667 48.666 65 72.999s36.166 47.333 50.499 69l35.5 54.5
c1.33301 2.66699 3.33301 5 6 7s6.66699 3 12 3c12.667 0 19 -5.33301 19 -16c0 -4.66699 -1.33301 -9.66699 -4 -15l-4 -8c-12.667 -20.667 -27.5 -43.5 -44.5 -68.5s-36.333 -50 -58 -75s-45.334 -49.5 -71.001 -73.5s-53 -45.167 -82 -63.5s-59.333 -33 -91 -44
s-64.5 -16.5 -98.5 -16.5zM171.003 -85.9951c15.333 0 32 6.5 50 19.5s36.333 31 55 54s37.667 50.167 57 81.5s38 65.333 56 102c-17.333 4 -34.333 7.33301 -51 10s-33.334 4 -50.001 4c-29.333 0 -56 -4.5 -80 -13.5s-44.667 -21.167 -62 -36.5s-30.666 -33 -39.999 -53
s-14 -40.667 -14 -62c0 -32 7.33301 -57.667 22 -77s33.667 -29 57 -29zM704.003 120.005c-13.333 30.667 -26.6689 63.499 -40.002 98.499s-25.833 70.5 -37.5 106.5s-22.5 72 -32.5 108s-18.667 70.667 -26 104c-12.667 -55.333 -29.667 -112.166 -51 -170.499
s-44.666 -114.833 -69.999 -169.5c22.667 -7.33301 44.834 -15 66.501 -23l64.5 -23c21.333 -7.33301 42.5 -13.833 63.5 -19.5s41.833 -9.5 62.5 -11.5zM996 373.004c-28 0 -53.333 -4 -76 -12c27.333 -25.333 56 -38 86 -38c12 0 22 2.33301 30 7s12 10.667 12 18
c0 6.66699 -3.5 12.5 -10.5 17.5s-20.833 7.5 -41.5 7.5z" />
    </font>
</defs>
</svg>
