<?xml version="1.0" standalone="no"?>
<!DOCTYPE svg PUBLIC "-//W3C//DTD SVG 1.1//EN" "http://www.w3.org/Graphics/SVG/1.1/DTD/svg11.dtd" >
<svg>
<metadata>
Created by FontForge 20090914 at Mon Mar  2 09:27:28 2020
 By www-data
Copyright 2016 The Dancing Script Project Authors (impallari@gmail.com), with Reserved Font Name 'Dancing Script'.
</metadata>
<defs>
<font id="DancingScript-Medium" horiz-adv-x="0" >
  <font-face 
    font-family="Dancing Script Medium"
    font-weight="500"
    font-stretch="normal"
    units-per-em="1000"
    panose-1="0 0 0 0 0 0 0 0 0 0"
    ascent="800"
    descent="-200"
    x-height="298.004"
    cap-height="717.999"
    bbox="-193.999 -291.005 1328 1095"
    underline-thickness="50"
    underline-position="-75"
    unicode-range="U+000D-U+FB02"
  />
<missing-glyph horiz-adv-x="428" 
d="M0 0v720h428v-720h-428zM80 70h268v580h-268v-580z" />
    <glyph glyph-name="fi" unicode="fi" horiz-adv-x="562" 
d="M-9 -280c-6.66699 0 -14.665 2.16797 -23.998 6.50098s-17.333 13 -24 26s-10 32.167 -10 57.5c0 29.333 4.83301 67.333 14.5 114s23.167 98.334 40.5 155.001s37.333 114.834 60 174.501s47.167 117.167 73.5 172.5s53.5 105.166 81.5 149.499s55.5 79.5 82.5 105.5
s52.833 39 77.5 39c15.333 0 25.333 -4.5 30 -13.5s7 -19.5 7 -31.5c0 -28.667 -7.83301 -60 -23.5 -94s-36.334 -68.333 -62.001 -103s-54.5 -67.334 -86.5 -98.001s-64.333 -57.334 -97 -80.001l-8 -20l-8 -21c10 -4 17.667 -12.333 23 -25c9.33301 -30 22 -51.333 38 -64
s33.333 -19 52 -19c21.333 0 43.166 6.33301 65.499 19s42.166 27.667 59.499 45c9.33301 22 19.833 42.667 31.5 62s23.834 34.833 36.501 46.5s25.334 17.5 38.001 17.5c6.66699 0 12.5 -2.16699 17.5 -6.5s7.5 -10.5 7.5 -18.5s-5.16699 -21 -15.5 -39l-36.5 -61.5
c-14 -23 -26.167 -47.167 -36.5 -72.5s-15.5 -49.666 -15.5 -72.999s4 -38.833 12 -46.5s20 -11.5 36 -11.5c22.667 0 47 11.5 73 34.5s53.333 62.833 82 119.5l12 -11c-20.667 -58 -49.334 -102.833 -86.001 -134.5s-75 -47.5 -115 -47.5
c-27.333 0 -47.666 8.33301 -60.999 25s-20 37 -20 61c0 12.667 1.83301 28.5 5.5 47.5s8.83398 38.833 15.501 59.5c-18.667 -14 -38.667 -25.167 -60 -33.5s-42.333 -12.5 -63 -12.5c-10 0 -20.833 1.16699 -32.5 3.5s-23.5 6.16602 -35.5 11.499
c1.33301 -10 2.33301 -20.167 3 -30.5s1 -20.166 1 -29.499c0 -42 -4.33301 -84 -13 -126s-20.334 -80.333 -35.001 -115s-31.334 -62.334 -50.001 -83.001s-38 -31 -58 -31zM17.002 -226.999c9.33301 0 19.667 9.49902 31 28.499s22.166 43.833 32.499 74.5
s19 63.667 26 99s10.5 68.666 10.5 99.999c0 12 -0.5 24.833 -1.5 38.5s-3.5 26.834 -7.5 39.501s-10.333 23 -19 31c-18 -49.333 -33.667 -97.666 -47 -144.999s-23.666 -89.833 -30.999 -127.5s-11 -68.167 -11 -91.5c0 -31.333 5.66699 -47 17 -47zM151.003 351
c42 38.667 78.3311 77.502 108.998 116.502s54.5 73.667 71.5 104s25.5 52.166 25.5 65.499c0 7.33301 -4 11 -12 11c-17.333 0 -36.666 -13.5 -57.999 -40.5s-43.666 -62.833 -66.999 -107.5s-46.333 -94.334 -69 -149.001zM513.001 429.002
c-11.333 0 -21.499 2.83398 -30.499 8.50098s-13.5 14.5 -13.5 26.5c0 9.33301 3.83301 18.166 11.5 26.499s17.5 15 29.5 20s23.333 7.5 34 7.5c11.333 0 20.166 -2.5 26.499 -7.5s9.5 -13.5 9.5 -25.5c0 -13.333 -7 -26 -21 -38s-29.333 -18 -46 -18z" />
    <glyph glyph-name="fl" unicode="fl" horiz-adv-x="557" 
d="M-9 -280c-6.66699 0 -14.6689 2.16504 -24.002 6.49805s-17.333 13 -24 26s-10 32.167 -10 57.5c0 29.333 4.83301 67.333 14.5 114s23.167 98.334 40.5 155.001s37.333 114.834 60 174.501s47.167 117.167 73.5 172.5s53.5 105.166 81.5 149.499s55.5 79.5 82.5 105.5
s52.833 39 77.5 39c15.333 0 25.333 -4.5 30 -13.5s7 -19.5 7 -31.5c0 -28.667 -7.83301 -60 -23.5 -94s-36.334 -68.333 -62.001 -103s-54.5 -67.334 -86.5 -98.001s-64.333 -57.334 -97 -80.001l-8 -20l-8 -21c6.66699 -2 12 -6 16 -12s6.33301 -12.667 7 -20
c5.33301 -36 16.5 -61.333 33.5 -76s36.5 -22 58.5 -22c16.667 0 33.834 3 51.501 9s34.5 13.667 50.5 23c8 36 19.5 74.667 34.5 116s32.167 82.833 51.5 124.5s39.5 81.667 60.5 120s41.5 72.333 61.5 102s38.167 53.167 54.5 70.5s29.5 26 39.5 26
c8 0 14.667 -4.33301 20 -13s9.5 -19 12.5 -31s4.5 -22.667 4.5 -32c0 -18 -4.5 -41.5 -13.5 -70.5s-21.667 -61.167 -38 -96.5s-35.666 -71 -57.999 -107s-46.833 -70.5 -73.5 -103.5s-55 -61.833 -85 -86.5c-3.33301 -17.333 -6.16602 -34.666 -8.49902 -51.999
s-3.5 -33.333 -3.5 -48c0 -25.333 3.66699 -44.166 11 -56.499s18 -18.5 32 -18.5c18 0 35.833 8 53.5 24s34.5 36.167 50.5 60.5s29.667 49.5 41 75.5l19 -10c-27.333 -57.333 -57.166 -102.666 -89.499 -135.999s-66.833 -50 -103.5 -50
c-30.667 0 -52.334 10.333 -65.001 31s-19 46.667 -19 78c0 15.333 1.66699 32.333 5 51c-37.333 -19.333 -74 -29 -110 -29c-11.333 0 -23.166 1.5 -35.499 4.5s-24.166 7.5 -35.499 13.5c0.666992 -7.33301 1.16699 -14.666 1.5 -21.999s0.5 -14.333 0.5 -21
c0 -42 -4.33301 -84 -13 -126s-20.334 -80.333 -35.001 -115s-31.334 -62.334 -50.001 -83.001s-38 -31 -58 -31zM16.998 -227.002c10 0 20.666 9.66504 31.999 28.998s22 44.333 32 75s18.333 63.334 25 98.001s10 67.334 10 98.001c0 16 -1.5 34.167 -4.5 54.5
s-11.167 37.833 -24.5 52.5c-16.667 -50 -31.667 -98.333 -45 -145s-23.666 -88.667 -30.999 -126s-11 -67.333 -11 -90c0 -30.667 5.66699 -46 17 -46zM150.997 350.996c42 38.667 78.3311 77.502 108.998 116.502s54.5 73.667 71.5 104s25.5 52.166 25.5 65.499
c0 7.33301 -4 11 -12 11c-17.333 0 -36.666 -13.5 -57.999 -40.5s-43.666 -62.833 -66.999 -107.5s-46.333 -94.334 -69 -149.001zM414.995 221.998c20 20.667 40.3311 44.8311 60.998 72.498s40.167 56.834 58.5 87.501s35 60.834 50 90.501s27 57.167 36 82.5
s13.833 46.333 14.5 63c0.666992 6 0.333984 10.167 -0.999023 12.5s-2.66602 3.83301 -3.99902 4.5c-4.66699 0 -13.334 -8 -26.001 -24s-27.5 -38 -44.5 -66s-34.333 -59.833 -52 -95.5s-34.667 -73 -51 -112s-30.166 -77.5 -41.499 -115.5z" />
    <glyph glyph-name="b_r" unicode="br" horiz-adv-x="752" 
d="M97 -73c-35.333 0 -62.001 11.5 -80.001 34.5s-27 54.167 -27 93.5c0 33.333 5.66699 72.666 17 117.999s26.333 92.666 45 141.999s39.5 97.666 62.5 144.999s46.333 90 70 128s46 68.5 67 91.5s38.5 34.5 52.5 34.5c12 0 20.667 -7.16699 26 -21.5s8 -29.166 8 -44.499
c0 -18 -4 -40.333 -12 -67s-19.333 -55.167 -34 -85.5s-31.667 -60.166 -51 -89.499s-40.166 -56 -62.499 -80s-45.5 -43 -69.5 -57c-4 -8 -9.83301 -23.167 -17.5 -45.5s-14.5 -48 -20.5 -77s-9 -57.167 -9 -84.5c0 -26.667 4.16699 -48.667 12.5 -66s22.5 -26 42.5 -26
c18.667 0 38 7.5 58 22.5s36.333 34.167 49 57.5c-24.667 12.667 -43 31.167 -55 55.5s-18 49.166 -18 74.499c0 32 8.33301 57.833 25 77.5s37 29.5 61 29.5c20 0 36.167 -8 48.5 -24s18.5 -40 18.5 -72c0 -20.667 -2.5 -41.834 -7.5 -63.501s-12.833 -43.167 -23.5 -64.5
c2.66699 -0.666992 5.5 -1.16699 8.5 -1.5s5.83301 -0.5 8.5 -0.5c26.667 0 50.334 8.83301 71.001 26.5s38.667 40 54 67s28.333 55.167 39 84.5l28 77c-2.66699 3.33301 -5 6.83301 -7 10.5s-3 8.83398 -3 15.501c0 18 5.66699 34 17 48s21 21 29 21
c6.66699 0 10.834 -3.66699 12.501 -11s2.5 -12.333 2.5 -15c0 -5.33301 -1.83301 -12 -5.5 -20s-5.5 -14.333 -5.5 -19c0 -7.33301 5.33301 -14.666 16 -21.999l36.5 -25.5c13.667 -9.66699 25.667 -21.667 36 -36s15.5 -32.166 15.5 -53.499c0 -20 -4 -40.167 -12 -60.5
s-16.167 -39.833 -24.5 -58.5s-12.5 -35 -12.5 -49c0 -10.667 2.83301 -17.834 8.5 -21.501s12.167 -5.5 19.5 -5.5c16 0 32.5 5 49.5 15s33.5 22.833 49.5 38.5s30.167 32 42.5 49s21.833 32.833 28.5 47.5l14 -11c-12.667 -28 -30 -55.833 -52 -83.5
s-46.5 -50.5 -73.5 -68.5s-55.167 -27 -84.5 -27c-23.333 0 -42 6 -56 18s-21 28.667 -21 50c0 19.333 4.66699 39.833 14 61.5l27.5 65c9 21.667 13.5 41.167 13.5 58.5c0 19.333 -5.83301 34 -17.5 44s-23.834 19.333 -36.501 28c-8 -26 -17.667 -54.333 -29 -85
s-25.333 -59.5 -42 -86.5s-36.834 -49.333 -60.501 -67s-51.834 -26.5 -84.501 -26.5c-4.66699 0 -9.16699 0.333008 -13.5 1s-9.16602 1.33398 -14.499 2.00098c-18 -30.667 -40.5 -56.667 -67.5 -78s-58.5 -32 -94.5 -32zM236.999 74
c6.66699 14.667 11.832 29.833 15.499 45.5s5.5 32.5 5.5 50.5c0 22 -3 39.667 -9 53s-13.667 20 -23 20s-17.666 -6.5 -24.999 -19.5s-11 -29.5 -11 -49.5c0 -17.333 3.66699 -35.5 11 -54.5s19.333 -34.167 36 -45.5zM122.997 315.999
c17.333 14.667 34.498 32.8311 51.498 54.498s32.833 44.667 47.5 69s27.667 48.333 39 72s20.333 45 27 64s10.334 33.833 11.001 44.5c0.666992 2.66699 0.666992 4.83398 0 6.50098s-1.66699 2.5 -3 2.5c-5.33301 -0.666992 -15.166 -10.167 -29.499 -28.5
s-30.5 -42.666 -48.5 -72.999s-35.5 -64 -52.5 -101s-31.167 -73.833 -42.5 -110.5z" />
    <glyph glyph-name="e_e" unicode="ee" horiz-adv-x="673" 
d="M446 -49c-40.667 0 -71.1709 11.8291 -91.5039 35.4961s-31.166 52.167 -32.499 85.5c-28.667 -36.667 -61.5 -65.167 -98.5 -85.5s-74.5 -30.5 -112.5 -30.5c-41.333 0 -72.666 11.333 -93.999 34s-32 50.334 -32 83.001c0 30 7.5 61.5 22.5 94.5s35 64.167 60 93.5
s52.667 53.166 83 71.499s60.5 27.5 90.5 27.5c16 0 30.833 -4.16699 44.5 -12.5s20.5 -25.166 20.5 -50.499c0 -24.667 -7.33301 -48.167 -22 -70.5s-34.334 -42 -59.001 -59s-51.5 -31 -80.5 -42s-58.167 -17.833 -87.5 -20.5
c-1.33301 -5.33301 -2.16602 -10.666 -2.49902 -15.999s-0.5 -10.666 -0.5 -15.999c0 -13.333 2.16699 -26.333 6.5 -39s12.166 -23.167 23.499 -31.5s27.333 -12.5 48 -12.5c35.333 0 70.166 12.167 104.499 36.5s64.5 54.5 90.5 90.5c6 27.333 16.667 54.5 32 81.5
s34 51.667 56 74s45.833 40.166 71.5 53.499s51.5 20 77.5 20c16.667 0 31.834 -4 45.501 -12s20.5 -25 20.5 -51c0 -33.333 -11.5 -62.833 -34.5 -88.5s-52.667 -46.167 -89 -61.5s-73.833 -25 -112.5 -29c-1.33301 -6 -2.16602 -11.5 -2.49902 -16.5
s-0.5 -10.167 -0.5 -15.5c0 -13.333 2 -26.666 6 -39.999s11.5 -24.5 22.5 -33.5s26.833 -13.5 47.5 -13.5c28.667 0 57.334 8.33301 86.001 25s55.5 38.834 80.5 66.501s45.5 57.167 61.5 88.5l14 -10c-18 -40 -41.167 -75.333 -69.5 -106s-59.166 -54.667 -92.499 -72
s-67 -26 -101 -26zM63.9961 127.996c18 6.66699 38.165 15.668 60.498 27.001s43.666 24.666 63.999 39.999s37 32.166 50 50.499s19.5 37.5 19.5 57.5c0 6.66699 -1.33301 11.834 -4 15.501s-8 5.5 -16 5.5c-15.333 0 -31.666 -5.83301 -48.999 -17.5
s-34.166 -27 -50.499 -46s-31.166 -40 -44.499 -63s-23.333 -46.167 -30 -69.5zM400.994 127.997c18 6 37.3311 13.834 57.998 23.501s40.334 21.167 59.001 34.5s34.167 28.333 46.5 45s18.5 35 18.5 55c0 8 -1.66699 14.167 -5 18.5s-9 6.5 -17 6.5
c-20.667 0 -41.5 -8.83301 -62.5 -26.5s-40.167 -40.334 -57.5 -68.001s-30.666 -57.167 -39.999 -88.5z" />
    <glyph glyph-name="l_l" unicode="ll" horiz-adv-x="479" 
d="M87 -30c-30 0 -51.5029 9.99121 -64.5029 29.9912s-19.5 45.333 -19.5 76c0 31.333 6 69 18 113s27.833 90.167 47.5 138.5s41.167 95.666 64.5 141.999s46.833 88.333 70.5 126s45.334 67.834 65.001 90.501s35.5 34 47.5 34c8 0 14.5 -4.33301 19.5 -13s9 -19 12 -31
s4.5 -23 4.5 -33c0 -17.333 -4.5 -40.5 -13.5 -69.5s-21.667 -61 -38 -96s-35.666 -70.5 -57.999 -106.5s-46.833 -70.5 -73.5 -103.5s-54.667 -61.5 -84 -85.5c-4 -18 -7.16699 -35.667 -9.5 -53s-3.5 -33.333 -3.5 -48c0 -49.333 14.667 -74 44 -74
c15.333 0 31.166 6.5 47.499 19.5s31.833 30 46.5 51s28 43.5 40 67.5c6.66699 34.667 16.667 71.834 30 111.501s28.666 79.334 45.999 119.001s35.833 77.834 55.5 114.501s38.834 69.334 57.501 98.001s36.167 51.167 52.5 67.5s29.5 24.5 39.5 24.5
c8 0 14.5 -4.16699 19.5 -12.5s9 -18.666 12 -30.999s4.5 -23.5 4.5 -33.5c0 -21.333 -5.66699 -49.5 -17 -84.5s-27.5 -72.667 -48.5 -113s-46.333 -80.166 -76 -119.499s-63.167 -74 -100.5 -104c-3.33301 -17.333 -6.16602 -34.5 -8.49902 -51.5s-3.5 -32.833 -3.5 -47.5
c0 -50.667 14.333 -76 43 -76c18 0 35.833 7.83301 53.5 23.5s34.334 35.834 50.001 60.501s29.167 49.667 40.5 75l19 -9c-27.333 -58 -57 -103.667 -89 -137s-66.333 -50 -103 -50c-32 0 -54.333 11.333 -67 34s-18 51.334 -16 86.001
c-23.333 -37.333 -48 -66.666 -74 -87.999s-53.667 -32 -83 -32zM96.9971 222.991c22.667 23.333 44.6689 49.832 66.002 79.499s41.333 60.334 60 92.001s35 62.167 49 91.5s24.833 55.833 32.5 79.5s11.5 42.167 11.5 55.5c0 5.33301 -0.5 9 -1.5 11s-2.16699 3 -3.5 3
c-5.33301 0 -14.333 -8.16699 -27 -24.5s-27.334 -38.333 -44.001 -66s-33.834 -59.167 -51.501 -94.5s-34.5 -72.5 -50.5 -111.5s-29.667 -77.5 -41 -115.5zM336.999 222.99c28 28.667 53.8311 60.168 77.498 94.501s44.334 68.5 62.001 102.5s31.334 65.167 41.001 93.5
s14.5 50.833 14.5 67.5c0 5.33301 -0.666992 9 -2 11s-2.33301 3 -3 3c-6.66699 0 -17.667 -10.333 -33 -31s-32.5 -48.834 -51.5 -84.501s-37.833 -75.667 -56.5 -120s-35 -89.833 -49 -136.5z" />
    <glyph glyph-name="o_r" unicode="or" horiz-adv-x="751" 
d="M72 -32c-27.333 0 -48.167 8.49707 -62.5 25.4971s-21.5 38.5 -21.5 64.5c0 25.333 5.16699 51.833 15.5 79.5s24 54.334 41 80.001s35.833 48.667 56.5 69s42.167 36.666 64.5 48.999s43.5 18.5 63.5 18.5c9.33301 0 17.333 -1.5 24 -4.5s11.334 -7.5 14.001 -13.5
c1.33301 0.666992 2.66602 1.16699 3.99902 1.5s3 0.5 5 0.5c14.667 0 24.667 -5.16699 30 -15.5s8 -19.5 8 -27.5c0 -9.33301 -3.33301 -20.666 -10 -33.999s-13.167 -28.333 -19.5 -45s-9.5 -34.667 -9.5 -54c0 -16.667 4.33301 -29 13 -37s21.334 -12 38.001 -12
c17.333 0 33.833 6.16699 49.5 18.5s30.167 28.5 43.5 48.5s25.166 41.833 35.499 65.5s18.5 46.834 24.5 69.501c-6.66699 6.66699 -10 14.667 -10 24c0 14 2.83301 26.167 8.5 36.5s12.167 18.5 19.5 24.5s12.666 9 15.999 9c8.66699 0 13.667 -3.5 15 -10.5
s2 -12.167 2 -15.5s-1.83301 -9.66602 -5.5 -18.999s-5.5 -15.333 -5.5 -18c0 -8.66699 5.33301 -16.667 16 -24l36 -25.5c13.333 -9.66699 25.333 -21.334 36 -35.001s16 -31.167 16 -52.5c0 -20 -4.16699 -40.333 -12.5 -61l-24.5 -58c-8 -18 -12 -34 -12 -48
c0 -11.333 2.83301 -18.833 8.5 -22.5s12.167 -5.5 19.5 -5.5c16 0 32.5 5 49.5 15s33.5 22.667 49.5 38s30.333 31.5 43 48.5s22 32.833 28 47.5l15 -12c-12.667 -28 -30 -55.667 -52 -83s-46.667 -49.833 -74 -67.5s-55.666 -26.5 -84.999 -26.5
c-23.333 0 -41.833 6.16699 -55.5 18.5s-20.5 28.5 -20.5 48.5c0 19.333 4.5 40 13.5 62l27 64.5c9 21 13.5 39.833 13.5 56.5c0 20 -6 35.333 -18 46s-24.333 20 -37 28c-8 -23.333 -17.667 -47.5 -29 -72.5s-24.5 -48.167 -39.5 -69.5s-31.833 -38.666 -50.5 -51.999
s-40 -20 -64 -20c-15.333 0 -29.833 3 -43.5 9s-24.167 14.667 -31.5 26c-20 -44.667 -45 -81 -75 -109s-61.333 -42 -94 -42zM92.999 12.9971c12.667 0 27.0029 6 43.0029 18s31.667 28.167 47 48.5s28.333 42.833 39 67.5c-7.33301 16.667 -11 38.667 -11 66
c0 12.667 1 25 3 37s4.66699 23.333 8 34s7 19.334 11 26.001c-19.333 -4 -37.833 -12.667 -55.5 -26s-33.834 -29.5 -48.501 -48.5s-27.334 -38.833 -38.001 -59.5s-19 -40.834 -25 -60.501s-9 -37.167 -9 -52.5c0 -16 3.16699 -28.333 9.5 -37s15.166 -13 26.499 -13z" />
    <glyph glyph-name="t_h" unicode="th" horiz-adv-x="772" 
d="M88 -46c-29.333 0 -52.165 8.50293 -68.498 25.5029s-24.5 42.167 -24.5 75.5c0 19.333 2.83301 42.833 8.5 70.5s13.167 57.167 22.5 88.5s19.666 61.666 30.999 90.999c-6.66699 2 -12.834 4.16699 -18.501 6.5l-17.5 7.5v22
c7.33301 -0.666992 14.5 -2.16699 21.5 -4.5s14.833 -4.16602 23.5 -5.49902c18.667 48 38.667 92.167 60 132.5s41.666 72.833 60.999 97.5s36 37 50 37c6 0 11.5 -2.16699 16.5 -6.5s7.5 -10.166 7.5 -17.499c0 -6.66699 -3.16699 -17.167 -9.5 -31.5
s-14.666 -30.833 -24.999 -49.5l-33 -59l-35 -61.5c-11.667 -20.333 -21.5 -39.5 -29.5 -57.5c16.667 -2.66699 32.667 -5 48 -7s31 -3 47 -3c18.667 0 38.334 1.33301 59.001 4s44 6.66699 70 12c17.333 47.333 37 94.333 59 141s44.167 89 66.5 127s43.833 68.333 64.5 91
s38.667 34 54 34c12 0 21 -7.33301 27 -22s9 -29.334 9 -44.001c0 -22.667 -5.83301 -49.834 -17.5 -81.501s-27.5 -64.167 -47.5 -97.5s-43.333 -64.666 -70 -93.999s-55 -53 -85 -71c-10 -23.333 -18.833 -51 -26.5 -83s-13.334 -63.5 -17.001 -94.5
s-4.5 -56.5 -2.5 -76.5c16 44.667 34 86 54 124s42.5 68.667 67.5 92s52.167 35 81.5 35c28 0 48.333 -9.83301 61 -29.5s19 -40.834 19 -63.501c0 -20 -3.5 -39.667 -10.5 -59s-14.167 -38 -21.5 -56s-11 -35 -11 -51c0 -12.667 2.83301 -21.834 8.5 -27.501
s12.5 -8.5 20.5 -8.5c15.333 0 32.5 7.5 51.5 22.5s38 34.667 57 59s34.833 50.833 47.5 79.5l15 -14c-14 -33.333 -31.167 -63.333 -51.5 -90s-42.666 -47.834 -66.999 -63.501s-49.833 -23.5 -76.5 -23.5c-23.333 0 -41.166 6.16699 -53.499 18.5s-18.5 27.833 -18.5 46.5
c0 14 2.66699 29.5 8 46.5s10.333 34.333 15 52s7 34.5 7 50.5c0 16.667 -3.5 28.5 -10.5 35.5s-15.833 10.5 -26.5 10.5c-16 0 -30.667 -6.66699 -44 -20s-25.5 -30.333 -36.5 -51s-21.167 -42.667 -30.5 -66l-27.5 -66.5c-9 -21 -18 -38 -27 -51s-18.5 -19.5 -28.5 -19.5
c-8 0 -15 4 -21 12s-11 18.833 -15 32.5s-6.33301 28.667 -7 45s-0.333984 32.5 0.999023 48.5c-25.333 -42.667 -56.333 -77.667 -93 -105s-75.334 -41 -116.001 -41zM117.001 -4.99707c34.667 0 68.667 15.1689 102 45.502s62.666 71.5 87.999 123.5
c4 21.333 8.5 41.666 13.5 60.999s11.5 40.666 19.5 63.999c-21.333 -4.66699 -42 -8 -62 -10s-39 -3 -57 -3c-18.667 0 -36.5 1 -53.5 3s-34.167 4.66699 -51.5 8c-15.333 -34.667 -28.166 -70 -38.499 -106s-15.5 -71.667 -15.5 -107c0 -28 4.16699 -48.167 12.5 -60.5
s22.5 -18.5 42.5 -18.5zM429.001 351.005c22 18 42.499 39.332 61.499 63.999s36 49.834 51 75.501s27 49.667 36 72s14.167 40.166 15.5 53.499c0.666992 6.66699 0 10.667 -2 12c-4.66699 0 -13.5 -7.16699 -26.5 -21.5s-27.667 -34 -44 -59
s-32.666 -54.167 -48.999 -87.5s-30.5 -69.666 -42.5 -108.999z" />
    <glyph glyph-name="v_r" unicode="vr" horiz-adv-x="763" 
d="M68 -39c-22 0 -37.3359 10.6699 -46.0029 32.0029s-13 48.666 -13 81.999c0 4 0.333008 16.333 1 37s2 50.667 4 90c1.33301 18.667 3.5 31.5 6.5 38.5s12.5 10.5 28.5 10.5c12.667 0 20.5 -2.5 23.5 -7.5s4.5 -14.167 4.5 -27.5c0 -14 -0.666992 -30.167 -2 -48.5
l-4 -56c-1.33301 -19 -2 -36.5 -2 -52.5c0 -20 1.66699 -34.167 5 -42.5s9 -12.5 17 -12.5c12 0 25.167 6.83301 39.5 20.5s29 31.334 44 53.001s29.333 45 43 70s25.834 48.833 36.501 71.5c1.33301 46 6.33301 76.5 15 91.5s19.334 22.5 32.001 22.5
c14 0 24 -4.83301 30 -14.5s9.33301 -18.167 10 -25.5c0 -1.33301 -2.33301 -8.33301 -7 -21s-9.5 -28.167 -14.5 -46.5s-7.5 -35.833 -7.5 -52.5c0 -14.667 3.33301 -27.334 10 -38.001s18 -16 34 -16c17.333 0 33 6.66699 47 20s26.5 30.333 37.5 51
s20.833 42.167 29.5 64.5s16 42.5 22 60.5c-2.66699 3.33301 -4.83398 6.83301 -6.50098 10.5s-2.5 8.16699 -2.5 13.5c0 19.333 5.5 35.833 16.5 49.5s20.167 20.5 27.5 20.5s11.833 -2.66699 13.5 -8s2.5 -10 2.5 -14c0 -4.66699 -1.83301 -12 -5.5 -22
s-5.5 -16.333 -5.5 -19c0 -8 5.33301 -15.833 16 -23.5l36 -26c13.333 -9.66699 25.333 -21.667 36 -36s16 -32.166 16 -53.499c0 -20 -4.16699 -40.167 -12.5 -60.5l-24.5 -57.5c-8 -18 -12 -33.667 -12 -47c0 -11.333 2.83301 -18.833 8.5 -22.5s12.167 -5.5 19.5 -5.5
c16 0 32.5 5 49.5 15s33.333 22.667 49 38s29.834 31.666 42.501 48.999s22.334 33 29.001 47l14 -10c-12.667 -28 -29.834 -55.833 -51.501 -83.5s-46.167 -50.5 -73.5 -68.5s-55.666 -27 -84.999 -27c-23.333 0 -41.833 6.16699 -55.5 18.5s-20.5 28.5 -20.5 48.5
c0 19.333 4.5 40 13.5 62l27 65c9 21.333 13.5 40.333 13.5 57c0 19.333 -5.83301 34.166 -17.5 44.499s-23.834 19.5 -36.501 27.5c-7.33301 -20.667 -15.833 -43 -25.5 -67s-21 -46.5 -34 -67.5s-28.167 -38.333 -45.5 -52s-37.333 -20.5 -60 -20.5
c-22 0 -41.167 6.16699 -57.5 18.5s-26.833 28.166 -31.5 47.499c-16 -32 -34.833 -62.833 -56.5 -92.5s-44.167 -54.167 -67.5 -73.5s-45.666 -29 -66.999 -29z" />
    <glyph glyph-name="w_r" unicode="wr" horiz-adv-x="976" 
d="M287 -39c-21.333 0 -36.1602 9.83887 -44.4932 29.5059s-12.5 43.834 -12.5 72.501c0 12.667 0.5 25.5 1.5 38.5s2.5 26.167 4.5 39.5c-14.667 -28 -30.334 -55.167 -47.001 -81.5s-34.167 -47.833 -52.5 -64.5s-37.833 -25 -58.5 -25
c-22.667 0 -41.334 10.167 -56.001 30.5s-22 44.5 -22 72.5c0 19.333 3.16699 41.666 9.5 66.999s14.166 50.166 23.499 74.499s19.166 44.5 29.499 60.5s19.166 24 26.499 24c2.66699 0 7.16699 -1 13.5 -3s12.333 -4.66699 18 -8s8.5 -7.33301 8.5 -12
c-7.33301 -11.333 -16.333 -28.666 -27 -51.999s-20 -48.166 -28 -74.499s-12 -49.833 -12 -70.5c0 -5.33301 0.666992 -13.333 2 -24s4.5 -20.167 9.5 -28.5s12.5 -12.5 22.5 -12.5c15.333 0 31.5 9.5 48.5 28.5s34.167 42.833 51.5 71.5s33.333 58 48 88
c5.33301 27.333 9.83301 47.166 13.5 59.499s7.5 20.333 11.5 24s9.33301 5.5 16 5.5c9.33301 0 17.333 -1.83301 24 -5.5s9.66699 -9.5 9 -17.5c-6 -26 -12.333 -58.333 -19 -97s-10 -77.334 -10 -116.001c0 -16 1.5 -28.5 4.5 -37.5s8.5 -13.5 16.5 -13.5
c9.33301 0 21 7 35 21s28.5 32.333 43.5 55s29.667 46.667 44 72s26.833 49.666 37.5 72.999c0 35.333 1.83301 60.5 5.5 75.5s8.83398 24.167 15.501 27.5s14.334 5 23.001 5c14 0 24 -4.83301 30 -14.5s9 -18.5 9 -26.5c-4.66699 -10.667 -10.5 -25 -17.5 -43
s-10.5 -39.333 -10.5 -64c0 -15.333 3.66699 -28.333 11 -39s19.666 -16 36.999 -16c16 0 30.667 6.16699 44 18.5s25.5 28.166 36.5 47.499s20.667 39.5 29 60.5l22.5 58.5c-2.66699 3.33301 -5 7 -7 11s-3 8.66699 -3 14c0 19.333 5.66699 35.666 17 48.999
s20.666 20 27.999 20c8 0 12.667 -3.66699 14 -11s2 -12.333 2 -15c0 -4 -2 -10.333 -6 -19s-6 -14.667 -6 -18c0 -8.66699 5.33301 -16.667 16 -24l36.5 -25.5c13.667 -9.66699 25.834 -21.334 36.501 -35.001s16 -31.5 16 -53.5c0 -19.333 -4.16699 -39.166 -12.5 -59.499
s-16.666 -39.666 -24.999 -57.999s-12.5 -34.5 -12.5 -48.5c0 -11.333 2.83301 -18.833 8.5 -22.5s12.167 -5.5 19.5 -5.5c16 0 32.5 5 49.5 15s33.667 22.667 50 38s30.666 31.5 42.999 48.5s21.5 32.833 27.5 47.5l16 -11c-12.667 -28.667 -30 -56.667 -52 -84
s-46.833 -49.833 -74.5 -67.5s-55.834 -26.5 -84.501 -26.5c-23.333 0 -42 6.16699 -56 18.5s-21 28.5 -21 48.5c0 19.333 4.66699 39.833 14 61.5l27 64.5c8.66699 21.333 13 40.666 13 57.999c0 20 -5.83301 35.167 -17.5 45.5s-23.5 19.166 -35.5 26.499
c-7.33301 -20 -16 -41.5 -26 -64.5s-21.5 -44.667 -34.5 -65s-27.833 -37 -44.5 -50s-35.334 -19.5 -56.001 -19.5c-20 0 -37.333 5.66699 -52 17s-25.667 27.333 -33 48c-12.667 -23.333 -26.834 -46.833 -42.501 -70.5s-32.167 -45.334 -49.5 -65.001
s-34.5 -35.667 -51.5 -48s-33.5 -18.5 -49.5 -18.5z" />
    <glyph glyph-name=".notdef" horiz-adv-x="428" 
d="M0 0v720h428v-720h-428zM80 70h268v580h-268v-580z" />
    <glyph glyph-name="NULL" 
 />
    <glyph glyph-name="NULL" 
 />
    <glyph glyph-name="CR" unicode="&#xd;" horiz-adv-x="260" 
 />
    <glyph glyph-name="space" unicode=" " horiz-adv-x="260" 
 />
    <glyph glyph-name="exclam" unicode="!" horiz-adv-x="272" 
d="M100 293l40.999 103.999l46 114c16 38 32 72.833 48 104.5s31.5 57 46.5 76s28.833 28.5 41.5 28.5c6 0 11.333 -2.33301 16 -7s7 -10.667 7 -18c0 -9.33301 -5.16699 -27 -15.5 -53s-23.833 -57.167 -40.5 -93.5s-35.5 -75.166 -56.5 -116.499l-64.5 -124l-63.5 -115.5
c-20.333 -35.667 -38.5 -65.5 -54.5 -89.5l-3 1.5l-3 1.5c4.66699 26 10.334 50.833 17.001 74.5s13.5 45.167 20.5 64.5zM20.999 -10.001c-9.33301 0 -17.499 2.33301 -24.499 7s-10.5 12 -10.5 22c0 12 6.66699 22.167 20 30.5s26.666 12.5 39.999 12.5
c8.66699 0 15.667 -1.83301 21 -5.5s8 -10.5 8 -20.5c0 -10.667 -5.5 -21 -16.5 -31s-23.5 -15 -37.5 -15z" />
    <glyph glyph-name="quotedbl" unicode="&#x22;" horiz-adv-x="253" 
d="M276 576c-7.33301 4 -12.501 9.50098 -15.501 16.501s-4.5 14.5 -4.5 22.5c0 14 3 29.167 9 45.5s13.667 30.5 23 42.5s19 18 29 18c7.33301 0 13.833 -3 19.5 -9s8.5 -13.333 8.5 -22c-17.333 -18 -31.166 -36.833 -41.499 -56.5s-19.5 -38.834 -27.5 -57.501z
M157.999 576.001c-7.33301 4 -12.501 9.50098 -15.501 16.501s-4.5 14.5 -4.5 22.5c0 14 3 29.167 9 45.5s13.667 30.5 23 42.5s19 18 29 18c7.33301 0 13.833 -3 19.5 -9s8.5 -13.333 8.5 -22c-17.333 -18 -31.166 -36.833 -41.499 -56.5s-19.5 -38.834 -27.5 -57.501z" />
    <glyph glyph-name="numbersign" unicode="#" horiz-adv-x="685" 
d="M106 -162c12 14.667 24.3262 38.3369 36.9932 71.0039s25.334 71.5 38.001 116.5s25 92.5 37 142.5c-22.667 -0.666992 -45.5 -1.83398 -68.5 -3.50098s-48.833 -3.83398 -77.5 -6.50098l-60 -5c1.33301 18.667 11.833 33.167 31.5 43.5s45.834 18 78.501 23
s69.334 7.83301 110.001 8.5l5.5 29.5c2.33301 12.333 4.5 21.833 6.5 28.5c-20 -0.666992 -40.833 -1.83398 -62.5 -3.50098l-72.5 -5.5l-60 -5c1.33301 17.333 11.333 31.166 30 41.499s43.5 18 74.5 23s65.5 7.83301 103.5 8.5c14.667 70 27.334 133.167 38.001 189.5
s20 102.5 28 138.5c2 10 5.5 19.167 10.5 27.5s18.167 15.166 39.5 20.499c-2 -12 -6.5 -36.667 -13.5 -74l-25 -134.5l-31.5 -166.5c22.667 0 44.334 -0.333008 65.001 -1s41 -1.66699 61 -3c15.333 70.667 28.333 134.334 39 191.001l27 140c2 10 5.66699 19.167 11 27.5
s18.666 15.166 39.999 20.499c-2.66699 -9.33301 -6.16699 -26.166 -10.5 -50.499l-16 -88l-21 -113.5l-24.5 -129c36.667 -2 73.167 -4.33301 109.5 -7s69.5 -4 99.5 -4c-20.667 -17.333 -40 -27.666 -58 -30.999s-35 -5 -51 -5c-20.667 0 -40 -0.166992 -58 -0.5
s-35 -0.5 -51 -0.5c-2 -11.333 -4.5 -23.833 -7.5 -37.5s-5.16699 -24.834 -6.5 -33.501c33.333 -2 67 -4.16699 101 -6.5s65 -3.5 93 -3.5c-20.667 -18 -39.834 -28.667 -57.501 -32s-34.5 -5 -50.5 -5h-50c-15.333 0 -30.666 -0.333008 -45.999 -1
c-14 -73.333 -28 -134.833 -42 -184.5s-30.167 -87.167 -48.5 -112.5s-42.166 -38 -71.499 -38c12.667 15.333 25.334 39.5 38.001 72.5s25.334 72 38.001 117s24.667 92.5 36 142.5h-123c-15.333 -72.667 -29.5 -133.667 -42.5 -183s-28.667 -86.5 -47 -111.5
s-42.5 -37.5 -72.5 -37.5zM402.993 224.003l15 67c-25.333 0 -48 -0.166992 -68 -0.5s-39.667 -0.833008 -59 -1.5l-12 -61c21.333 0 42.5 -0.333008 63.5 -1s41.167 -1.66699 60.5 -3z" />
    <glyph glyph-name="dollar" unicode="$" horiz-adv-x="542" 
d="M140 -162c8 10.667 16.335 25.1719 25.002 43.5049s17.334 39.166 26.001 62.499c-33.333 2 -64 9 -92 21s-50.667 28.833 -68 50.5s-26 48.5 -26 80.5c0 30.667 7.16699 55.667 21.5 75s32.166 33.833 53.499 43.5s42 14.5 62 14.5
c-19.333 -20.667 -34 -42.834 -44 -66.501s-15 -46.5 -15 -68.5c0 -32.667 10.5 -58.667 31.5 -78s50.5 -31.333 88.5 -36c11.333 40 23 84.167 35 132.5s23.667 98.166 35 149.499c-22.667 13.333 -44.834 27.166 -66.501 41.499s-39.334 31.833 -53.001 52.5
s-20.5 46 -20.5 76c0 37.333 10 71.5 30 102.5s46.667 56.833 80 77.5s69.666 34 108.999 40c1.33301 8.66699 3.5 17.667 6.5 27s8.33301 17.666 16 24.999s18.5 12.666 32.5 15.999c-0.666992 -6 -2.16699 -14.5 -4.5 -25.5s-4.83301 -24.167 -7.5 -39.5
c44.667 0 75 -9.83301 91 -29.5s24 -44.834 24 -75.501c0 -26.667 -4.33301 -54 -13 -82s-20.667 -55 -36 -81c-13.333 2.66699 -23.166 8.33398 -29.499 17.001s-9.5 17.667 -9.5 27c0 11.333 3.16699 26 9.5 44s12.5 36.5 18.5 55.5s9 35.167 9 48.5
c0 15.333 -5.16699 27 -15.5 35s-28.5 12.333 -54.5 13l-28.5 -153.5l-28.5 -153.5c23.333 -12 46 -25.5 68 -40.5s40.167 -33.167 54.5 -54.5s21.5 -48.333 21.5 -81c0 -40 -10.667 -74.333 -32 -103s-49.5 -51.167 -84.5 -67.5s-72.5 -26.166 -112.5 -29.499
c-12.667 -34.667 -27.667 -61 -45 -79s-38 -27 -62 -27zM259.002 -18.9951c44 4.66699 78.834 19.168 104.501 43.501s38.5 54.166 38.5 89.499c0 30 -8.33301 54.5 -25 73.5s-37.334 35.833 -62.001 50.5c-12 -64 -22.833 -118 -32.5 -162s-17.5 -75.667 -23.5 -95z
M291.003 342.006l30.499 153.5l24.5 126.5c-29.333 -6 -55 -17.833 -77 -35.5s-38.833 -38 -50.5 -61s-17.5 -45.833 -17.5 -68.5c0 -28 8.83301 -50.667 26.5 -68s38.834 -33 63.501 -47z" />
    <glyph glyph-name="percent" unicode="%" horiz-adv-x="712" 
d="M81 -87c16 15.333 36.001 40.499 60.001 75.499s50.5 75.833 79.5 122.5l88 149l85 156.5l73 144.5c21.667 44.667 38.5 82.334 50.5 113.001c2.66699 6.66699 8.66699 13.5 18 20.5s20.333 13 33 18s24.334 7.5 35.001 7.5c-2.66699 -10 -10.834 -29 -24.501 -57
l-50 -100.5l-64 -125l-70 -132l-66.5 -119.5c-20.667 -36 -38.334 -65.667 -53.001 -89c-34.667 -54.667 -67.667 -99 -99 -133s-63 -51 -95 -51zM188.001 343.999c-30 0 -51.835 11.166 -65.502 33.499s-20.5 47.833 -20.5 76.5c0 22.667 3.5 46.5 10.5 71.5
s17 48.333 30 70s28.5 39.334 46.5 53.001s38 20.5 60 20.5c26.667 0 48.167 -9.5 64.5 -28.5s24.5 -44.5 24.5 -76.5c0 -21.333 -3.66699 -44.666 -11 -69.999s-17.666 -49.333 -30.999 -72s-29.166 -41.334 -47.499 -56.001s-38.5 -22 -60.5 -22zM193.999 386.998
c11.333 0 22.333 5.99902 33 17.999s20 27.333 28 46s14.333 38.667 19 60s7 41.333 7 60c0 16.667 -2.5 30.5 -7.5 41.5s-12.833 16.5 -23.5 16.5c-14.667 0 -27.5 -6.33301 -38.5 -19s-20 -28.667 -27 -48s-12.5 -39.166 -16.5 -59.499s-6 -38.5 -6 -54.5
c0 -18 2.66699 -32.667 8 -44s13.333 -17 24 -17zM517.999 -0.00292969c-30 0 -51.835 10.9971 -65.502 32.9971s-20.5 47.333 -20.5 76c0 22.667 3.5 46.5 10.5 71.5s17 48.333 30 70s28.5 39.334 46.5 53.001s38.333 20.5 61 20.5c26 0 47.167 -9.5 63.5 -28.5
s24.5 -44.5 24.5 -76.5c0 -21.333 -3.66699 -44.666 -11 -69.999s-17.666 -49.166 -30.999 -71.499s-29.166 -40.833 -47.499 -55.5s-38.5 -22 -60.5 -22zM523.997 41.9941c11.333 0 22.333 6 33 18s20 27.333 28 46s14.333 38.667 19 60s7 41.333 7 60
c0 16.667 -2.5 30.5 -7.5 41.5s-12.833 16.5 -23.5 16.5c-14.667 0 -27.5 -6.33301 -38.5 -19s-20 -28.667 -27 -48s-12.5 -39.333 -16.5 -60s-6 -38.667 -6 -54c0 -18 2.83301 -32.667 8.5 -44s13.5 -17 23.5 -17z" />
    <glyph glyph-name="ampersand" unicode="&#x26;" horiz-adv-x="636" 
d="M205 -87c-40.667 0 -76.167 8.33105 -106.5 24.998s-53.666 39 -69.999 67s-24.5 58.333 -24.5 91c0 30.667 6.5 60.5 19.5 89.5s31.167 55.667 54.5 80s50.666 44.5 81.999 60.5s65 26 101 30c-24.667 21.333 -43.167 45.666 -55.5 72.999s-18.5 54.666 -18.5 81.999
c0 35.333 9 69 27 101s42.833 57.833 74.5 77.5s67.834 29.5 108.501 29.5c37.333 0 65.666 -9.16699 84.999 -27.5s29 -45.166 29 -80.499c0 -24.667 -4.16699 -49 -12.5 -73s-18.5 -43.5 -30.5 -58.5s-23.667 -22.5 -35 -22.5c-8 0 -15.667 3.5 -23 10.5
s-13.333 15.167 -18 24.5c24 20 43.833 41.167 59.5 63.5s23.5 46.166 23.5 71.499c0 20 -5.33301 36.167 -16 48.5s-27.667 18.5 -51 18.5c-31.333 0 -57.5 -9.16699 -78.5 -27.5s-37 -42.5 -48 -72.5s-16.5 -62.333 -16.5 -97c0 -16 1.5 -33 4.5 -51s9.16699 -36 18.5 -54
s22.666 -34.667 39.999 -50c-45.333 -7.33301 -85 -24.166 -119 -50.499s-60.333 -57.166 -79 -92.499s-28 -70.333 -28 -105c0 -21.333 4.16699 -43 12.5 -65s22 -40.333 41 -55s44.167 -22 75.5 -22c35.333 0 69.5 8.66699 102.5 26s63 40.833 90 70.5
s49.167 62.834 66.5 99.501s28.333 74.667 33 114c-13.333 -0.666992 -25.833 -1.66699 -37.5 -3s-24.667 -3.16602 -39 -5.49902s-33.166 -5.83301 -56.499 -10.5c1.33301 30 12.333 50 33 60s45.334 15 74.001 15c20.667 0 40 -1.33301 58 -4s35.333 -5.5 52 -8.5
s33 -4.5 49 -4.5c-8 -18 -15.833 -28.667 -23.5 -32s-14.834 -5 -21.501 -5c-12 0 -22.5 -0.166992 -31.5 -0.5s-17.833 -0.5 -26.5 -0.5c-4.66699 -46 -17.167 -89.833 -37.5 -131.5s-46.5 -79 -78.5 -112s-67.833 -59 -107.5 -78s-81.167 -28.5 -124.5 -28.5z" />
    <glyph glyph-name="quotesingle" unicode="'" horiz-adv-x="135" 
d="M158 576c-7.33301 4 -12.5 9.49902 -15.5 16.499s-4.5 14.5 -4.5 22.5c0 14 3 29.167 9 45.5s13.667 30.5 23 42.5s19 18 29 18c7.33301 0 13.833 -3 19.5 -9s8.5 -13.333 8.5 -22c-17.333 -18 -31.5 -37.167 -42.5 -57.5s-19.833 -39.166 -26.5 -56.499z" />
    <glyph glyph-name="parenleft" unicode="(" horiz-adv-x="270" 
d="M154 -87c-16.667 10 -31.998 28.501 -45.998 55.501s-24.833 59.833 -32.5 98.5s-11.5 79.667 -11.5 123c0 64 7.66699 123.167 23 177.5s35.166 103.166 59.499 146.499s50.5 80.333 78.5 111s55.167 54.167 81.5 70.5s48.833 24.5 67.5 24.5
c-44 -32 -81.667 -69.333 -113 -112s-56.833 -88.667 -76.5 -138s-34.167 -99.666 -43.5 -150.999s-14 -101.666 -14 -150.999c0 -50.667 4.5 -95.834 13.5 -135.501s21.167 -71.5 36.5 -95.5c-3.33301 -6.66699 -6.83301 -11.834 -10.5 -15.501s-7.83398 -6.5 -12.501 -8.5
z" />
    <glyph glyph-name="parenright" unicode=")" horiz-adv-x="284" 
d="M-26 -87c-5.33301 0.666992 -10.3291 4 -14.9961 10s-8.33398 11.667 -11.001 17c47.333 32.667 90.5 74.5 129.5 125.5s70.333 110.333 94 178s35.5 142.5 35.5 224.5c0 42 -4.83301 84 -14.5 126s-30.5 84.667 -62.5 128c19.333 -5.33301 39.333 -20 60 -44
s38 -56.5 52 -97.5s21 -89.833 21 -146.5c0 -60 -7.5 -116.333 -22.5 -169s-34.333 -100.5 -58 -143.5s-48.834 -80.167 -75.501 -111.5s-51.834 -55.333 -75.501 -72s-42.834 -25 -57.501 -25z" />
    <glyph glyph-name="asterisk" unicode="*" horiz-adv-x="399" 
d="M367 404c-10.667 12 -24.4971 30.1631 -41.4971 54.4961l-51.5 73.5c-16.667 -32 -33.834 -60.167 -51.501 -84.5s-36.5 -36.833 -56.5 -37.5c10.667 16 19.667 30.833 27 44.5s14.166 27.334 20.499 41.001l21.5 44.5c-28.667 0 -54 2.16699 -76 6.5
s-35 14.833 -39 31.5c16 0.666992 33.5 1.33398 52.5 2.00098s40.167 1.66699 63.5 3c-14 22 -25.333 42.833 -34 62.5s-13 35.5 -13 47.5c0 8 2.33301 14.167 7 18.5s7.66699 8.16602 9 11.499c14 -26.667 25.667 -49.667 35 -69s20.666 -38.666 33.999 -57.999
c13.333 31.333 27.166 58.833 41.499 82.5s33.5 38.167 57.5 43.5c-7.33301 -19.333 -17.333 -41 -30 -65s-24.667 -48.667 -36 -74c14.667 0.666992 30.5 0.833984 47.5 0.500977s33.5 -2.66602 49.5 -6.99902s30.333 -12.5 43 -24.5l-132 -11
c8.66699 -12 16.834 -23.833 24.501 -35.5s14 -25.5 19 -41.5s7.83301 -36 8.5 -60z" />
    <glyph glyph-name="plus" unicode="+" horiz-adv-x="419" 
d="M158 -10c2.66699 20.667 4.83398 39.3311 6.50098 55.998s2.66699 33.334 3 50.001s0.5 35.667 0.5 57c-20.667 0 -39.167 -0.333008 -55.5 -1s-32.666 -1.83398 -48.999 -3.50098s-35.5 -4.16699 -57.5 -7.5c7.33301 20 25.666 33.833 54.999 41.5
s64.666 11.834 105.999 12.501v47c0 14.667 2 31.334 6 50.001s12.667 37.667 26 57c2 -14 4.16699 -35.167 6.5 -63.5s3.83301 -58.5 4.5 -90.5c34 -0.666992 66.333 -2 97 -4s53.667 -3.66699 69 -5c-19.333 -14 -39 -23 -59 -27s-37.333 -6 -52 -6h-55
c0 -28.667 -1.66699 -54.5 -5 -77.5s-8.5 -42 -15.5 -57s-17.5 -24.5 -31.5 -28.5z" />
    <glyph glyph-name="comma" unicode="," horiz-adv-x="203" 
d="M15 -88c-6.66699 4 -11.666 9.5 -14.999 16.5s-5 14.5 -5 22.5c0 13.333 3 28.333 9 45s13.667 31 23 43s19.333 18 30 18c7.33301 0 13.666 -3 18.999 -9s8 -13 8 -21c-18 -18.667 -31.333 -37.167 -40 -55.5z" />
    <glyph glyph-name="hyphen" unicode="-" horiz-adv-x="492" 
d="M42 143c4.66699 12 12.9971 21.501 24.9971 28.501s26.333 12.333 43 16s34.667 6.16699 54 7.5s38.333 2 57 2c15.333 0 31.833 -0.333008 49.5 -1s35.334 -1.5 53.001 -2.5s33.834 -1.83301 48.501 -2.5s25.667 -1.33398 33 -2.00098
c-19.333 -16.667 -40.666 -27.167 -63.999 -31.5s-47.333 -6.5 -72 -6.5c-16.667 0 -34.5 0.333008 -53.5 1s-37.5 1 -55.5 1c-12.667 0 -26 -0.5 -40 -1.5s-27.5 -2.16699 -40.5 -3.5s-25.5 -3 -37.5 -5z" />
    <glyph glyph-name="period" unicode="." horiz-adv-x="223" 
d="M51 -10c-11.333 0 -20.167 2.83496 -26.5 8.50195s-9.5 13.167 -9.5 22.5c0 7.33301 3 14.5 9 21.5s13.667 12.667 23 17s18.333 6.5 27 6.5c8 0 14.833 -1.83301 20.5 -5.5s8.5 -10.834 8.5 -21.501c0 -6 -2.33301 -12.833 -7 -20.5s-11 -14.334 -19 -20.001
s-16.667 -8.5 -26 -8.5z" />
    <glyph glyph-name="slash" unicode="/" horiz-adv-x="338" 
d="M-66 -162c14 14 30 36.333 48 67s37.333 67 58 109s41.834 87.333 63.501 136l64 148.5l60 147l52 130.5l38.5 98c2.66699 6.66699 8.83398 13.5 18.501 20.5s21 13 34 18s25.833 7.5 38.5 7.5l-20 -49l-37 -90l-48.5 -116l-53.5 -128.5l-53 -126l-46.5 -109.5l-32.5 -78
c-24.667 -59.333 -53.834 -105 -87.501 -137s-65.834 -48 -96.501 -48z" />
    <glyph glyph-name="zero" unicode="0" horiz-adv-x="640" 
d="M254 -87c-45.333 0 -82.499 12.166 -111.499 36.499s-50.667 56.5 -65 96.5s-21.5 84 -21.5 132c0 44.667 5.66699 91.834 17 141.501s27.666 98.167 48.999 145.5s46.833 90.166 76.5 128.499s63.334 69 101.001 92s78.5 34.5 122.5 34.5
c41.333 0 77.333 -10.333 108 -31s54.334 -50.167 71.001 -88.5s25 -84.166 25 -137.499c0 -52 -6 -104.333 -18 -157s-29.167 -102.5 -51.5 -149.5s-48.833 -88.833 -79.5 -125.5s-64.834 -65.5 -102.501 -86.5s-77.834 -31.5 -120.501 -31.5zM268.001 -48.001
c30 0 58.833 11.332 86.5 33.999s53 53.334 76 92.001s43.167 81.667 60.5 129s30.666 95.5 39.999 144.5s14 95.167 14 138.5c0 38 -4 71.833 -12 101.5s-21 53.167 -39 70.5s-41.667 26 -71 26c-30 0 -57.833 -8.66699 -83.5 -26s-48.667 -40.833 -69 -70.5
s-38.333 -63 -54 -100s-28.667 -75.5 -39 -115.5s-18.166 -78.667 -23.499 -116s-8 -71.333 -8 -102c0 -62 10.833 -111.833 32.5 -149.5s51.5 -56.5 89.5 -56.5z" />
    <glyph glyph-name="one" unicode="1" horiz-adv-x="374" 
d="M44 -87c-16 0 -31.6699 3.99805 -47.0029 11.998s-28.333 19.333 -39 34c7.33301 -0.666992 14 -1.16699 20 -1.5s12.333 -0.5 19 -0.5c16 0 33.333 1 52 3s36.667 4.33301 54 7c12 28 23.5 62.167 34.5 102.5s21.333 83.833 31 130.5s18.834 93.334 27.501 140.001
l25 132c8 41.333 15.333 76.333 22 105c-36.667 -25.333 -63 -42.166 -79 -50.499s-27.667 -12.5 -35 -12.5c-8 0 -14.333 2.16699 -19 6.5s-7 13.166 -7 26.499c12.667 6.66699 31.167 18.667 55.5 36s50.833 38 79.5 62s55.334 49 80.001 75
c4 -3.33301 6.83301 -8.33301 8.5 -15s2.5 -13 2.5 -19c0 -16 -3 -33.167 -9 -51.5s-10.667 -38.166 -14 -59.499c-6.66699 -45.333 -14.667 -94.333 -24 -147s-20.166 -106.167 -32.499 -160.5s-26.166 -106.666 -41.499 -156.999s-32.333 -95.5 -51 -135.5
c6.66699 1.33301 13.167 2.16602 19.5 2.49902s12.5 0.5 18.5 0.5c25.333 0 47.166 -3.83301 65.499 -11.5s30.166 -24.167 35.499 -49.5c-14.667 1.33301 -29 2.5 -43 3.5s-27.667 1.5 -41 1.5c-20 0 -40 -0.666992 -60 -2s-39.167 -2.83301 -57.5 -4.5
s-35.166 -2.5 -50.499 -2.5z" />
    <glyph glyph-name="two" unicode="2" horiz-adv-x="572" 
d="M411 -87c-20 0 -43.002 3.83691 -69.002 11.5039s-53.5 17.334 -82.5 29.001l-86.5 34.5c-21.333 -12.667 -41.666 -22.834 -60.999 -30.501s-37.666 -11.5 -54.999 -11.5c-20.667 0 -37.834 5.16699 -51.501 15.5s-20.5 23.833 -20.5 40.5c0 16 6.16699 28.333 18.5 37
s32.166 13 59.499 13c15.333 0 31.833 -1.33301 49.5 -4s36.834 -6 57.501 -10c30.667 27.333 61.5 60.833 92.5 100.5s59.667 82.834 86 129.501s47.666 94.167 63.999 142.5s24.5 94.166 24.5 137.499c0 48.667 -10.167 84.167 -30.5 106.5s-45.833 33.5 -76.5 33.5
c-29.333 0 -54.166 -8.83301 -74.499 -26.5s-35.666 -41.334 -45.999 -71.001s-15.5 -61.834 -15.5 -96.501c0 -14 1 -26.5 3 -37.5s5.66699 -23.167 11 -36.5h-4c-1.33301 0 -3 0.333008 -5 1c-22 4.66699 -39.667 13.667 -53 27s-20 34.666 -20 63.999
c0 36 9.33301 69.833 28 101.5s44.334 57.334 77.001 77.001s70.334 29.5 113.001 29.5c36 0 66.333 -8.33301 91 -25s43.667 -39 57 -67s20 -59.667 20 -95c0 -31.333 -4.16699 -62.833 -12.5 -94.5s-19.166 -62.834 -32.499 -93.501
c-17.333 -39.333 -38.833 -78.5 -64.5 -117.5s-53.834 -75.667 -84.501 -110s-62 -64.833 -94 -91.5c47.333 -10 88.666 -18.333 123.999 -25s64.666 -10 87.999 -10c14 0 26.667 2 38 6s26 11 44 21c-9.33301 -36.667 -22.5 -63.334 -39.5 -80.001s-39.5 -25 -67.5 -25z
M55.998 -21.9961c10 0 20.834 2.5 32.501 7.5s24.167 11.5 37.5 19.5c-14.667 5.33301 -28.167 9.33301 -40.5 12s-22.833 4 -31.5 4c-12.667 0 -21.334 -2.5 -26.001 -7.5s-7 -9.5 -7 -13.5c0 -6.66699 3.66699 -12 11 -16s15.333 -6 24 -6z" />
    <glyph glyph-name="three" unicode="3" horiz-adv-x="521" 
d="M180 -87c-41.333 0 -74.4961 7.66797 -99.4961 23.001s-43 34.166 -54 56.499s-16.5 43.833 -16.5 64.5c0 17.333 3.16699 34.333 9.5 51s15.666 30.5 27.999 41.5s27.833 16.5 46.5 16.5h10.5c3.66699 0 8.16699 -0.666992 13.5 -2
c-10.667 -8.66699 -19.334 -22.167 -26.001 -40.5s-10 -36.166 -10 -53.499c0 -20 4.5 -39.167 13.5 -57.5s21.5 -33.333 37.5 -45s34.667 -17.5 56 -17.5c26.667 0 52.167 9 76.5 27s44.5 43.5 60.5 76.5s24 70.833 24 113.5c0 25.333 -3.66699 50.666 -11 75.999
s-19.666 47.666 -36.999 66.999s-41 32.666 -71 39.999c34 15.333 63.5 36.833 88.5 64.5s44.5 57.667 58.5 90s21 62.166 21 89.499c0 34.667 -9.33301 59 -28 73s-39.334 21 -62.001 21c-18.667 0 -36.667 -4 -54 -12s-31.5 -19.667 -42.5 -35s-16.5 -34 -16.5 -56
c0 -10.667 1.33301 -21.834 4 -33.501s7 -23.167 13 -34.5c-3.33301 -7.33301 -9.33301 -14.166 -18 -20.499s-17 -9.5 -25 -9.5c-8.66699 0 -16 4.16699 -22 12.5s-10.5 19 -13.5 32s-4.5 25.5 -4.5 37.5c0 32 9.33301 59.333 28 82s42.667 39.834 72 51.501
s59.666 17.5 90.999 17.5c27.333 0 53 -4.83301 77 -14.5s43.667 -24.334 59 -44.001s23 -44.5 23 -74.5c0 -21.333 -4.33301 -43.666 -13 -66.999s-20.667 -45.666 -36 -66.999s-33.333 -40.166 -54 -56.499s-43 -28.166 -67 -35.499c37.333 -10 66.666 -26 87.999 -48
s36.5 -45.833 45.5 -71.5s13.5 -50.167 13.5 -73.5c0 -30.667 -6.83301 -61.167 -20.5 -91.5s-33 -57.833 -58 -82.5s-54.167 -44.334 -87.5 -59.001s-70.333 -22 -111 -22z" />
    <glyph glyph-name="four" unicode="4" horiz-adv-x="488" 
d="M312 -87c-25.333 2 -45.502 7 -60.502 15s-22.5 19.333 -22.5 34c0 1.33301 0.666992 7.16602 2 17.499s3.83301 27.333 7.5 51s9.5 56.167 17.5 97.5l7.5 40c3.66699 19.333 8.16699 41.333 13.5 66c-14 0.666992 -28.333 1.16699 -43 1.5s-26.667 0.5 -36 0.5
c-13.333 0 -27.666 -0.166992 -42.999 -0.5s-30.833 -1 -46.5 -2s-30.667 -2.33301 -45 -4s-27.333 -3.33398 -39 -5.00098s-21.167 -3.5 -28.5 -5.5c0 12 2.66699 22.333 8 31s12 16.667 20 24c26 28.667 57.333 60.5 94 95.5l116 111c40.667 39 79 78.833 115 119.5
s66 80.667 90 120c3.33301 -1.33301 6.83301 -4.33301 10.5 -9s5.5 -11.334 5.5 -20.001c0 -15.333 -6.66699 -33.666 -20 -54.999l-16 -73.5c-7.33301 -33.667 -15.5 -73.667 -24.5 -120l-29.5 -151.5h16.5h16.5c17.333 0 31.333 0.5 42 1.5s21.334 2.83301 32.001 5.5
c-14 -18.667 -30.333 -34 -49 -46s-35.667 -18.333 -51 -19h-8.5h-8.5c-2 -7.33301 -3.83301 -15.666 -5.5 -24.999s-3.16699 -19.666 -4.5 -30.999l-10 -61c-4 -24.667 -7.83301 -50.167 -11.5 -76.5s-6.5 -51 -8.5 -74s-3 -40.5 -3 -52.5zM92.998 291
c14 2 29.165 3.33301 45.498 4s33.5 1 51.5 1c18.667 0 36.334 -0.166992 53.001 -0.5s32.334 -0.833008 47.001 -1.5l29 127c10 42.667 20.333 81 31 115l-75 -70l-78 -72l-71 -68l-17 -18.5z" />
    <glyph glyph-name="five" unicode="5" horiz-adv-x="493" 
d="M176 -87c-44.667 0 -79.666 7.66602 -104.999 22.999s-43.333 34 -54 56s-16 43.333 -16 64c0 17.333 3 34.5 9 51.5s15.333 31 28 42s28 16.5 46 16.5h10.5c3.66699 0 8.16699 -0.666992 13.5 -2c-10 -8.66699 -18.333 -22 -25 -40s-10 -37.333 -10 -58
c0 -19.333 3.33301 -37.833 10 -55.5s17.667 -32.167 33 -43.5s35 -17 59 -17c26.667 0 50.334 6.66699 71.001 20s38.167 30.833 52.5 52.5s25.166 45.667 32.499 72s11 52.5 11 78.5c0 27.333 -4.5 52.666 -13.5 75.999s-23.167 42.333 -42.5 57s-45.333 22 -78 22
c-12 0 -26.5 -1.16699 -43.5 -3.5s-34.833 -5.16602 -53.5 -8.49902c3.33301 20 8.33301 44.167 15 72.5s14.334 58.333 23.001 90l26.5 93.5l24 83l16.5 59c20.667 -5.33301 40 -9 58 -11s35 -3 51 -3c27.333 0 53.666 2 78.999 6s51.666 8.66699 78.999 14
c2 -6 3.33301 -11.5 4 -16.5s1 -9.5 1 -13.5c0 -19.333 -6.5 -34.666 -19.5 -45.999s-29.167 -19.166 -48.5 -23.499s-38.666 -6.5 -57.999 -6.5c-24.667 0 -46.167 2.16699 -64.5 6.5s-33.833 6.5 -46.5 6.5c-4.66699 0 -8.33398 -1.16699 -11.001 -3.5
s-5.66699 -6.83301 -9 -13.5c-5.33301 -11.333 -11.333 -26.833 -18 -46.5s-13 -40.667 -19 -63l-17 -65.5l-14 -54.5c-4 -15 -6.66699 -24.833 -8 -29.5c14 3.33301 28.167 5.66602 42.5 6.99902s28.833 2 43.5 2c46 0 84 -8.16699 114 -24.5s52.5 -39 67.5 -68
s22.5 -61.833 22.5 -98.5c0 -47.333 -11.5 -90.5 -34.5 -129.5s-54.667 -69.833 -95 -92.5s-86.833 -34 -139.5 -34z" />
    <glyph glyph-name="six" unicode="6" horiz-adv-x="571" 
d="M263 -87c-50.667 0 -91.499 11.002 -122.499 33.002s-53.5 52 -67.5 90s-21 80.333 -21 127c0 44.667 5.83301 92.334 17.5 143.001s28.667 100.5 51 149.5s49.333 93.5 81 133.5s67.5 71.833 107.5 95.5s84 35.5 132 35.5c28 0 51.333 -4.83301 70 -14.5
s28 -24.834 28 -45.501c0 -10 -3.33301 -19.5 -10 -28.5s-20.334 -16.5 -41.001 -22.5c0.666992 5.33301 1.16699 10.166 1.5 14.499s0.5 9.5 0.5 15.5c0 14.667 -3.33301 27.167 -10 37.5s-21.334 15.5 -44.001 15.5c-31.333 0 -61 -11 -89 -33s-53.333 -51.5 -76 -88.5
s-42.667 -77.667 -60 -122s-31.333 -88.833 -42 -133.5c22.667 19.333 48.667 34.333 78 45s59.333 16 90 16c34 0 65.333 -6.83301 94 -20.5s51.667 -34.834 69 -63.501s26 -66 26 -112c0 -50 -11.167 -95.167 -33.5 -135.5s-53.166 -72.333 -92.499 -96
s-85 -35.5 -137 -35.5zM268.001 -49.998c25.333 0 48.1699 6.83398 68.5029 20.501s37.666 32 51.999 55s25.333 48.333 33 76s11.5 55.834 11.5 84.501c0 35.333 -5.66699 64.166 -17 86.499s-26.833 38.833 -46.5 49.5s-41.167 16 -64.5 16
c-38.667 0 -69.667 -9.33301 -93 -28s-40 -42.834 -50 -72.501s-15 -61.5 -15 -95.5c0 -18.667 1.66699 -39 5 -61s9.16602 -43 17.499 -63s20.666 -36.333 36.999 -49s36.833 -19 61.5 -19z" />
    <glyph glyph-name="seven" unicode="7" horiz-adv-x="415" 
d="M105 -87c-9.33301 0 -17.8311 3.99805 -25.498 11.998s-11.5 19.667 -11.5 35c0 19.333 5.83301 45.833 17.5 79.5s27.5 72.5 47.5 116.5l67 141c-12 0 -26.5 -0.5 -43.5 -1.5s-33.833 -2.16699 -50.5 -3.5s-31.334 -3 -44.001 -5c0.666992 20 8 34.833 22 44.5
s32.167 16.167 54.5 19.5s45.166 5 68.499 5h12h13c23.333 42.667 49.5 87.667 78.5 135l83.5 140c-13.333 0 -29.333 -0.5 -48 -1.5l-57 -3c-19.333 -1 -36.666 -1.5 -51.999 -1.5c-41.333 0 -69.666 4.66699 -84.999 14s-23 21 -23 35c0 12.667 4.66699 27.334 14 44.001
c19.333 -2.66699 38 -5.66699 56 -9s37.5 -6 58.5 -8s45.167 -3 72.5 -3c32 0 63.667 1.83301 95 5.5s58.666 9.16699 81.999 16.5c-6.66699 -10 -15.334 -22.333 -26.001 -37s-21 -28 -31 -40c-26.667 -38.667 -53.334 -82 -80.001 -130s-53.667 -101.333 -81 -160
c16.667 -0.666992 32.334 -1.66699 47.001 -3s29.667 -2 45 -2c10 0 18.167 0.5 24.5 1.5s12.5 2.16699 18.5 3.5c-12.667 -18 -25.834 -32 -39.501 -42s-28.834 -15 -45.501 -15h-34c-12.667 0 -26.667 0.333008 -42 1l-38 -91c-14 -33.333 -25.833 -66.666 -35.5 -99.999
s-14.5 -63.666 -14.5 -90.999c0 -8.66699 0.833008 -16.334 2.5 -23.001s5.16699 -12 10.5 -16c-11.333 -24 -25.666 -40.5 -42.999 -49.5s-30.666 -13.5 -39.999 -13.5z" />
    <glyph glyph-name="eight" unicode="8" horiz-adv-x="538" 
d="M215 -87c-35.333 0 -64.5 5.1709 -87.5 15.5039s-41.333 24.166 -55 41.499s-23.5 35.666 -29.5 54.999s-9 37.333 -9 54c0 29.333 6.33301 55.5 19 78.5s29.667 44.667 51 65s44.666 39.666 69.999 57.999l76 55.5c-19.333 20.667 -37.666 42 -54.999 64
s-31.5 45.5 -42.5 70.5s-16.5 52.5 -16.5 82.5c0 40 9.5 72.167 28.5 96.5s43 42 72 53s58.5 16.5 88.5 16.5c46 0 83.5 -12.333 112.5 -37s43.5 -61 43.5 -109c0 -32 -6.5 -61.167 -19.5 -87.5s-30.167 -50.666 -51.5 -72.999s-45 -43.5 -71 -63.5l61.5 -68.5
c19.667 -23 35.667 -47.333 48 -73s18.5 -53.834 18.5 -84.501c0 -42.667 -12.167 -79.834 -36.5 -111.501s-55.833 -56 -94.5 -73s-79 -25.5 -121 -25.5zM224 -42.9961c24.667 0 48.8311 6.66504 72.498 19.998s43.334 32.166 59.001 56.499s23.5 52.833 23.5 85.5
c0 36.667 -10 69.667 -30 99s-43 58 -69 86c-30.667 -21.333 -59.667 -43.166 -87 -65.499s-49.666 -46.166 -66.999 -71.499s-26 -53.666 -26 -84.999c0 -26 6 -48.333 18 -67s27.5 -33 46.5 -43s38.833 -15 59.5 -15zM308.997 382.002
c31.333 26 57.334 54.332 78.001 84.999s31 66 31 106c0 38.667 -9.16699 67.334 -27.5 86.001s-39.833 28 -64.5 28c-14.667 0 -30.334 -3.83301 -47.001 -11.5s-30.834 -20.334 -42.501 -38.001s-17.5 -41.5 -17.5 -71.5c0 -36.667 8.83301 -69.667 26.5 -99
s38.834 -57.666 63.501 -84.999z" />
    <glyph glyph-name="nine" unicode="9" horiz-adv-x="577" 
d="M194 -87c-28.667 0 -52.6699 5.00098 -72.0029 15.001s-29 25.667 -29 47c0 10 3.33301 19.333 10 28s19.667 16 39 22c0 -4.66699 -0.166992 -9.16699 -0.5 -13.5s-0.166016 -9.16602 0.500977 -14.499c0.666992 -14 4.66699 -26.833 12 -38.5
s21.666 -17.5 42.999 -17.5c32 0 61.333 11 88 33s50.834 51.5 72.501 88.5s40.334 77.667 56.001 122s27.834 88.833 36.501 133.5c-21.333 -19.333 -46.666 -34.333 -75.999 -45s-59.333 -16 -90 -16c-35.333 0 -67.833 7.33301 -97.5 22s-53.334 37.167 -71.001 67.5
s-26.5 68.5 -26.5 114.5c0 49.333 10.667 93.5 32 132.5s51 69.833 89 92.5s82.333 34 133 34c54 0 97 -12.167 129 -36.5s55.167 -56.833 69.5 -97.5s21.5 -85.334 21.5 -134.001c0 -44.667 -5.5 -91.834 -16.5 -141.501s-27 -98 -48 -145s-46.333 -89.5 -76 -127.5
s-63.667 -68.333 -102 -91s-80.5 -34 -126.5 -34zM315.997 296.001c52 0 90 16.002 114 48.002s36 74 36 126c0 22.667 -2 46.5 -6 71.5s-10.5 48.167 -19.5 69.5s-21.833 38.666 -38.5 51.999s-37.667 20 -63 20c-24.667 0 -46.667 -6.5 -66 -19.5
s-35.833 -30.5 -49.5 -52.5s-24 -46.333 -31 -73s-10.5 -54 -10.5 -82c0 -36.667 6 -66.834 18 -90.501s28.333 -41.167 49 -52.5s43 -17 67 -17z" />
    <glyph glyph-name="colon" unicode=":" horiz-adv-x="228" 
d="M111 236c-9.33301 0 -17.499 2.33301 -24.499 7s-10.5 12 -10.5 22c0 12 6.66699 22.167 20 30.5s26.666 12.5 39.999 12.5c8.66699 0 15.667 -1.83301 21 -5.5s8 -10.5 8 -20.5c0 -10.667 -5.5 -21 -16.5 -31s-23.5 -15 -37.5 -15zM52.001 -10
c-8.66699 0 -16.667 2.33301 -24 7s-11 12 -11 22c0 12 6.66699 22.167 20 30.5s27 12.5 41 12.5c8.66699 0 15.5 -1.83301 20.5 -5.5s7.5 -10.5 7.5 -20.5c0 -10.667 -5.5 -21 -16.5 -31s-23.5 -15 -37.5 -15z" />
    <glyph glyph-name="semicolon" unicode=";" horiz-adv-x="225" 
d="M29 -88c-7.33301 4 -12.668 9.5 -16.001 16.5s-5 14.833 -5 23.5c0 13.333 3.16699 28.5 9.5 45.5s14.333 31.667 24 44s19.5 18.5 29.5 18.5c7.33301 0 13.833 -3 19.5 -9s8.83398 -13 9.50098 -21c-18 -19.333 -31.833 -38.333 -41.5 -57s-19.5 -39 -29.5 -61z
M110.998 236c-9.33301 0 -17.499 2.33203 -24.499 6.99902s-10.5 12.334 -10.5 23.001c0 11.333 6.66699 21.333 20 30s26.666 13 39.999 13c8.66699 0 15.667 -2 21 -6s8 -11 8 -21s-5.5 -20.167 -16.5 -30.5s-23.5 -15.5 -37.5 -15.5z" />
    <glyph glyph-name="less" unicode="&#x3c;" horiz-adv-x="316" 
d="M187 44c-12 0 -26.667 4.00293 -44 12.0029s-34.5 18.167 -51.5 30.5s-31.833 25.166 -44.5 38.499s-20.334 25 -23.001 35c22.667 10 46 23.5 70 40.5s46.667 35.833 68 56.5s39.333 41 54 61c2 -1.33301 3.83301 -4.83301 5.5 -10.5s2.5 -10.834 2.5 -15.501
c0 -13.333 -5.33301 -26.833 -16 -40.5s-24.5 -26.834 -41.5 -39.501s-35.167 -24.5 -54.5 -35.5l-54 -29.5l41.5 -27.5c13 -8.33301 28.833 -16.833 47.5 -25.5s43.334 -19 74.001 -31c-4 -4 -8.83301 -8.16699 -14.5 -12.5s-12.167 -6.5 -19.5 -6.5z" />
    <glyph glyph-name="equal" unicode="=" horiz-adv-x="508" 
d="M55 202c4.66699 14.667 15.834 25.832 33.501 33.499s40 12.834 67 15.501s56.5 4 88.5 4c23.333 0 46.333 -0.5 69 -1.5s43.167 -2.33301 61.5 -4s32.5 -3.16699 42.5 -4.5c-19.333 -13.333 -38.833 -22 -58.5 -26s-36.5 -6 -50.5 -6h-100
c-19.333 0 -36.833 -0.166992 -52.5 -0.5s-31.334 -1.33301 -47.001 -3s-33.5 -4.16699 -53.5 -7.5zM56 105.998c4 14.667 14.835 25.832 32.502 33.499s40.167 12.834 67.5 15.501s56.666 4 87.999 4c24 0 47.167 -0.5 69.5 -1.5s42.833 -2.33301 61.5 -4
s33 -3.16699 43 -4.5c-19.333 -13.333 -38.833 -22 -58.5 -26s-36.5 -6 -50.5 -6h-100c-19.333 0 -36.833 -0.166992 -52.5 -0.5s-31.334 -1.33301 -47.001 -3s-33.5 -4.16699 -53.5 -7.5z" />
    <glyph glyph-name="greater" unicode="&#x3e;" horiz-adv-x="328" 
d="M103 44c-7.33301 0 -13.8359 2.16504 -19.5029 6.49805s-10.5 8.5 -14.5 12.5c31.333 12 56 22.333 74 31s33.667 17.167 47 25.5s27 17.5 41 27.5c-17.333 8.66699 -35.666 18.5 -54.999 29.5s-37.666 22.833 -54.999 35.5s-31.333 25.834 -42 39.501
s-16 27.167 -16 40.5c0 4 0.666992 8.5 2 13.5s3 8.83301 5 11.5c14 -18.667 31.833 -38.334 53.5 -59.001s44.834 -39.667 69.501 -57s48.667 -30.666 72 -39.999c-2.66699 -10.667 -10.167 -22.667 -22.5 -36s-27 -26.166 -44 -38.499s-34 -22.5 -51 -30.5
s-31.833 -12 -44.5 -12z" />
    <glyph glyph-name="question" unicode="?" horiz-adv-x="445" 
d="M244 122c-14 7.33301 -23.3359 14.1719 -28.0029 20.5049s-7 16.166 -7 29.499c0 32 6.5 61 19.5 87s29 50.667 48 74l56.5 71c18.667 24 34.5 50 47.5 78s19.5 59.333 19.5 94c0 36.667 -7.5 64.5 -22.5 83.5s-33.833 28.5 -56.5 28.5s-45.667 -9.33301 -69 -28
s-42.5 -43.667 -57.5 -75s-22.5 -66.333 -22.5 -105c0 -11.333 0.666992 -21.5 2 -30.5s3.33301 -18.833 6 -29.5c-28 4 -46.5 13 -55.5 27s-13.5 31.333 -13.5 52c0 38 9 73.833 27 107.5s43 61 75 82s69.333 31.5 112 31.5s76.667 -11.5 102 -34.5s38 -56.5 38 -100.5
c0 -29.333 -5.16699 -55.333 -15.5 -78s-23.666 -43.834 -39.999 -63.501s-33.666 -39.5 -51.999 -59.5s-35.333 -41.833 -51 -65.5s-28.167 -50.834 -37.5 -81.501c-6.66699 -22.667 -10.667 -42.834 -12 -60.501s-5.66602 -35.834 -12.999 -54.501zM201.997 -9.99414
c-9.33301 0 -17.5 2.33301 -24.5 7s-10.5 11.667 -10.5 21c0 12.667 6.83301 23.167 20.5 31.5s27.167 12.5 40.5 12.5c8.66699 0 15.667 -2 21 -6s8 -10 8 -18c0 -12 -5.66699 -23 -17 -33s-24 -15 -38 -15z" />
    <glyph glyph-name="at" unicode="@" horiz-adv-x="593" 
d="M225 -121c-51.333 0 -92.9922 9.99707 -124.992 29.9971s-55.667 46.167 -71 78.5s-23 66.166 -23 101.499c0 38 7.66699 75.167 23 111.5s37.333 69.166 66 98.499s62.667 52.666 102 69.999s83.333 26 132 26c50 0 90.833 -8.83301 122.5 -26.5
s55.334 -40.5 71.001 -68.5s23.5 -57 23.5 -87c0 -24.667 -4.5 -49 -13.5 -73s-21.667 -46 -38 -66s-35.166 -36 -56.499 -48s-44 -18 -68 -18c-22 0 -38.167 4.83301 -48.5 14.5s-16.5 22.5 -18.5 38.5v12.5v11.5c-22 -29.333 -44 -51.833 -66 -67.5
s-43.333 -23.5 -64 -23.5c-16.667 0 -31 5.66699 -43 17s-18 28.333 -18 51c0 24 6.5 50.167 19.5 78.5s30.5 55.166 52.5 80.499s46.167 46.166 72.5 62.499s52.833 24.5 79.5 24.5c22 0 40.167 -5.5 54.5 -16.5s21.5 -25.167 21.5 -42.5c0 -10 -2.16699 -17.667 -6.5 -23
s-10 -8.83301 -17 -10.5s-13.5 -2.5 -19.5 -2.5l2 12.5c0.666992 4.33301 1 8.5 1 12.5c0 12 -2.33301 22.5 -7 31.5s-14.334 13.5 -29.001 13.5c-18.667 0 -37.834 -8 -57.501 -24s-37.667 -35.833 -54 -59.5s-29.5 -48.167 -39.5 -73.5s-15 -47.333 -15 -66
c0 -10.667 1.83301 -18.334 5.5 -23.001s8.5 -7 14.5 -7c11.333 0 24.666 6.16699 39.999 18.5s31.333 27.833 48 46.5s32.167 37.834 46.5 57.501s26.166 36.834 35.499 51.501c6.66699 -1.33301 14.167 -4 22.5 -8s12.5 -9 12.5 -15
c0 -6.66699 -3.83301 -16.167 -11.5 -28.5s-15.334 -25.833 -23.001 -40.5s-11.5 -28.667 -11.5 -42c0 -6 2 -12.667 6 -20s13 -11 27 -11c21.333 0 41.666 8.33301 60.999 25s35.166 37.834 47.499 63.501s18.5 51.834 18.5 78.501c0 24.667 -6.16699 48.834 -18.5 72.501
s-31.5 43.334 -57.5 59.001s-60.667 23.5 -104 23.5c-42.667 0 -81.334 -8 -116.001 -24s-64.334 -37.333 -89.001 -64s-43.667 -56.167 -57 -88.5s-20 -65.166 -20 -98.499c0 -29.333 6 -57.666 18 -84.999s31.667 -49.666 59 -66.999s63.333 -26 108 -26
c34.667 0 70.667 6.66699 108 20s73 35.333 107 66l9 -12c-26 -28.667 -58.333 -53 -97 -73s-83.334 -30 -134.001 -30z" />
    <glyph glyph-name="A" unicode="A" horiz-adv-x="605" 
d="M27 -87c-16.667 9.33301 -27.1611 19.168 -31.4941 29.501s-6.5 18.833 -6.5 25.5c0 18.667 6.66699 43.667 20 75s31.333 67.333 54 108s48 82.667 76 126c-23.333 2 -43.833 3.33301 -61.5 4s-35.834 1 -54.501 1h-28c8 20.667 21.5 35.167 40.5 43.5
s41.5 12.5 67.5 12.5c11.333 0 23 -0.666992 35 -2s24.333 -3 37 -5c34 50.667 68.333 99.167 103 145.5s67.167 87.833 97.5 124.5s56.166 65 77.499 85c23.333 23.333 41.666 35 54.999 35c8 0 17 -3.16699 27 -9.5s20.333 -14.833 31 -25.5
c-6.66699 -5.33301 -15.167 -19.333 -25.5 -42s-21.333 -51.167 -33 -85.5s-23.167 -71.833 -34.5 -112.5s-21.833 -82.334 -31.5 -125.001s-17.334 -83.167 -23.001 -121.5s-8.5 -71.833 -8.5 -100.5c0 -26 2.83301 -45.833 8.5 -59.5s14.834 -20.5 27.501 -20.5
c16.667 0 36.167 11.833 58.5 35.5s46.833 61.167 73.5 112.5l13 -13c-20.667 -53.333 -46.834 -97.333 -78.501 -132s-64.834 -52 -99.501 -52c-28.667 0 -49.334 12.833 -62.001 38.5s-19 59.834 -19 102.501c0 19.333 1.33301 40.666 4 63.999s6.66699 49 12 77
c-29.333 4.66699 -56 8.5 -80 11.5l-67 8.5c-31.333 -58 -61.833 -117.5 -91.5 -178.5s-57.167 -121.167 -82.5 -180.5zM356.006 292.002c9.33301 42 20.334 84.832 33.001 128.499s26.167 85.167 40.5 124.5s28.166 74 41.499 104c-20.667 -13.333 -44 -35.833 -70 -67.5
s-53.5 -69.667 -82.5 -114s-58.833 -93.166 -89.5 -146.499c22 -4 43.833 -8.66699 65.5 -14z" />
    <glyph glyph-name="B" unicode="B" horiz-adv-x="622" 
d="M142 -87c-38 0 -66.6709 6.33105 -86.0039 18.998s-29.333 33.667 -30 63c0 3.33301 2.33301 5 7 5c5.33301 0 14 -1.5 26 -4.5s35.333 -4.5 70 -4.5c57.333 0 110.5 6.33301 159.5 19s91.5 30 127.5 52s63.833 46.833 83.5 74.5s29.5 56.5 29.5 86.5
c0 26.667 -7.66699 48.167 -23 64.5s-35.666 28.833 -60.999 37.5s-52.833 14.334 -82.5 17.001s-58.834 4 -87.501 4c-12.667 0 -25.5 -0.166992 -38.5 -0.5s-25.167 -0.5 -36.5 -0.5c-15.333 -52.667 -30.166 -106.167 -44.499 -160.5s-29.166 -107.5 -44.499 -159.5
c-18 0 -33.167 5 -45.5 15s-18.5 22 -18.5 36c0 7.33301 1.5 16.166 4.5 26.499s6.16699 20.5 9.5 30.5c4 13.333 11 35.333 21 66l36 108c14 41.333 29.5 84.666 46.5 129.999l52.5 133.5c18 43.667 35.667 82.5 53 116.5c-27.333 -5.33301 -50.333 -12.166 -69 -20.499
s-33.167 -15.833 -43.5 -22.5s-17.833 -10 -22.5 -10c-4 0 -8.66699 1.66699 -14 5s-10.166 7.5 -14.499 12.5s-6.5 9.5 -6.5 13.5c34 14 69.667 26.667 107 38s82.333 17 135 17c22.667 0 47.667 -1.83301 75 -5.5s53.333 -11 78 -22s45 -27.167 61 -48.5
s24 -49.333 24 -84c0 -31.333 -6.83301 -58.166 -20.5 -80.499s-31.5 -41 -53.5 -56s-46 -27 -72 -36s-51.667 -15.833 -77 -20.5c46.667 -4 84.834 -11.667 114.501 -23s52.334 -24.833 68.001 -40.5s26.5 -32 32.5 -49s9 -33.167 9 -48.5
c0 -39.333 -10.167 -74.666 -30.5 -105.999s-47 -58.666 -80 -81.999s-69 -42.833 -108 -58.5s-77.833 -27.334 -116.5 -35.001s-73.334 -11.5 -104.001 -11.5zM206.996 372.998c37.333 1.33301 73.998 5.66797 109.998 13.001s68.833 18.5 98.5 33.5s53.5 34.5 71.5 58.5
s27 54 27 90c0 33.333 -8.33301 59.166 -25 77.499s-38.167 31 -64.5 38s-54.5 10.5 -84.5 10.5h-6.5h-7.5c-23.333 -46 -44.666 -96.5 -63.999 -151.5s-37.666 -111.5 -54.999 -169.5z" />
    <glyph glyph-name="C" unicode="C" horiz-adv-x="546" 
d="M229 -87c-48 0 -87.166 11.8271 -117.499 35.4941s-52.333 54.334 -66 92.001s-20.5 76.834 -20.5 117.501c0 52.667 8 105.667 24 159s38 104 66 152s59.833 90.833 95.5 128.5s73.334 67.334 113.001 89.001s78.834 32.5 117.501 32.5c28 0 51 -6.66699 69 -20
s27 -36 27 -68c0 -19.333 -3.33301 -41.166 -10 -65.499s-15.834 -47.833 -27.501 -70.5s-24.5 -41.334 -38.5 -56.001s-28 -22 -42 -22c-6 0 -12.167 1.83301 -18.5 5.5s-11.833 10.5 -16.5 20.5c10 11.333 21.333 25.333 34 42s24.667 34.334 36 53.001
s20.5 37.167 27.5 55.5s10.5 34.166 10.5 47.499s-3.66699 23.833 -11 31.5s-19.666 11.5 -36.999 11.5c-28.667 0 -58.5 -11.333 -89.5 -34s-61 -53.167 -90 -91.5s-55 -81.166 -78 -128.499s-41.333 -95.666 -55 -144.999s-20.5 -96.333 -20.5 -141
c0 -32.667 4.66699 -63.667 14 -93s24.666 -53.166 45.999 -71.499s48.666 -27.5 81.999 -27.5c36 0 71.5 10 106.5 30s67.333 46.333 97 79s53.167 67.667 70.5 105l18 -12c-22.667 -44 -49.834 -84.167 -81.501 -120.5s-67.167 -65.5 -106.5 -87.5s-82 -33 -128 -33z" />
    <glyph glyph-name="D" unicode="D" horiz-adv-x="664" 
d="M172 -87c-21.333 0 -41.667 3.00391 -61 9.00391s-36 18.667 -50 38c4.66699 26.667 11.5 57.334 20.5 92.001s19.167 71.5 30.5 110.5l35 117l35 110l30.5 90.5l20.5 58c2 5.33301 5.33301 13.166 10 23.499s10.5 21 17.5 32s15 20.333 24 28s18.5 11.5 28.5 11.5
s20.667 -4 32 -12c-20.667 -47.333 -41.5 -99.833 -62.5 -157.5s-41.167 -117.167 -60.5 -178.5s-37 -121 -53 -179s-29 -111 -39 -159c8 -1.33301 15.667 -2.33301 23 -3s14.666 -1 21.999 -1c42.667 0 83.834 10 123.501 30s76.5 47.333 110.5 82s63.667 74 89 118
s45 90.167 59 138.5s21 96.166 21 143.499c0 54 -8.83301 98.167 -26.5 132.5s-42 59.666 -73 75.999s-66.833 24.5 -107.5 24.5c-43.333 0 -82.333 -8.33301 -117 -25s-62 -39.334 -82 -68.001s-30 -61 -30 -97c0 -7.33301 0.5 -14.5 1.5 -21.5s2.5 -13.167 4.5 -18.5
c-24 0 -41 5.66699 -51 17s-15 25 -15 41c0 23.333 8.16699 47 24.5 71s39.333 46 69 66s63.834 36.167 102.501 48.5s80 18.5 124 18.5c61.333 0 110.666 -12.333 147.999 -37s64.5 -57.834 81.5 -99.501s25.5 -88.167 25.5 -139.5c0 -58 -9 -113.333 -27 -166
s-43 -101.167 -75 -145.5s-68.5 -82.833 -109.5 -115.5s-85 -58.167 -132 -76.5s-94.167 -27.5 -141.5 -27.5z" />
    <glyph glyph-name="E" unicode="E" horiz-adv-x="510" 
d="M190 -87c-41.333 0 -77.001 8.3291 -107.001 24.9961s-53.167 39 -69.5 67s-24.5 58.667 -24.5 92c0 30 6.5 59.667 19.5 89s31.167 56 54.5 80s50.666 44 81.999 60s65 26 101 30c-25.333 21.333 -44 45.666 -56 72.999s-18 54.666 -18 81.999
c0 35.333 8.83301 69 26.5 101s42.334 57.833 74.001 77.5s67.834 29.5 108.501 29.5c38.667 0 68.167 -9.5 88.5 -28.5s30.5 -46.167 30.5 -81.5c0 -25.333 -4.5 -49.666 -13.5 -72.999s-19.833 -42.333 -32.5 -57s-24.667 -22 -36 -22c-8 0 -15.667 3.5 -23 10.5
s-13.333 15.167 -18 24.5c24 20 44.167 41.5 60.5 64.5s24.5 47.167 24.5 72.5c0 20.667 -6.16699 36.5 -18.5 47.5s-29.833 16.5 -52.5 16.5c-30.667 0 -56.5 -9.16699 -77.5 -27.5s-36.833 -42.333 -47.5 -72s-16 -61.834 -16 -96.501
c0 -25.333 4.16699 -52.166 12.5 -80.499s25.166 -53.166 50.499 -74.499c-45.333 -7.33301 -85 -24.166 -119 -50.499s-60.333 -57.166 -79 -92.499s-28 -70.333 -28 -105c0 -21.333 4.16699 -43 12.5 -65s22 -40.5 41 -55.5s44.167 -22.5 75.5 -22.5
c36 0 71.5 10 106.5 30s67.167 46.5 96.5 79.5s53 68.167 71 105.5l18 -12c-24 -45.333 -52 -86.166 -84 -122.499s-67.667 -65.166 -107 -86.499s-81.666 -32 -126.999 -32z" />
    <glyph glyph-name="F" unicode="F" horiz-adv-x="495" 
d="M164 -87c-32 2.66699 -52.333 11.167 -61 25.5s-13 32.5 -13 54.5c0 24 4.83301 53.5 14.5 88.5s21.834 72.833 36.501 113.5l45 121l-28 -2.5c-11.333 -1 -24.166 -2.33301 -38.499 -4s-30.166 -3.83398 -47.499 -6.50098c1.33301 18 8.16602 32.167 20.499 42.5
s28.5 18 48.5 23s42.333 7.83301 67 8.5c18 50 36.667 99 56 147s38.666 92 57.999 132c-6 0.666992 -12 1.16699 -18 1.5s-12.667 0.5 -20 0.5c-42 0 -74.5 -4.33301 -97.5 -13s-38.833 -21.667 -47.5 -39s-13 -39.333 -13 -66c0 -15.333 1.16699 -29.333 3.5 -42
s6.16602 -26.334 11.499 -41.001c-25.333 4.66699 -43.833 14 -55.5 28s-17.5 31.667 -17.5 53c0 34.667 12.5 65.334 37.5 92.001s58.667 47.5 101 62.5s89.5 22.5 141.5 22.5c35.333 0 70 -2.5 104 -7.5s66.333 -7.5 97 -7.5c15.333 0 29.333 1 42 3s26.334 5 41.001 9
c-26.667 -30.667 -49 -51 -67 -61s-36 -15 -54 -15c-15.333 0 -35.333 2.16699 -60 6.5s-52.334 7.5 -83.001 9.5c-8.66699 -21.333 -18.167 -47 -28.5 -77l-32 -96l-33.5 -103c34 -2 65.5 -5 94.5 -9s57.167 -6.33301 84.5 -7c-6 -8.66699 -12.667 -15.5 -20 -20.5
s-17.5 -8.66699 -30.5 -11s-31 -4 -54 -5s-53.167 -1.83301 -90.5 -2.5l-16 -54c-6 -20 -11.167 -38.167 -15.5 -54.5s-7.83301 -27.833 -10.5 -34.5c-16 -55.333 -28.5 -104.666 -37.5 -147.999s-13.833 -82.333 -14.5 -117z" />
    <glyph glyph-name="G" unicode="G" horiz-adv-x="564" 
d="M219 -87c-36 0 -68.6709 9.82617 -98.0039 29.4932s-52.666 48.167 -69.999 85.5s-26 82 -26 134c0 51.333 8 103.333 24 156s38 103 66 151s59.667 90.667 95 128s72.833 67 112.5 89s78.834 33 117.501 33c26.667 0 48 -5.33301 64 -16s27.5 -24.667 34.5 -42
s10.5 -36.333 10.5 -57c0 -23.333 -4 -46.333 -12 -69s-18.833 -41.334 -32.5 -56.001s-28.834 -22 -45.501 -22c-6 0 -12 1.83301 -18 5.5s-11.667 10.5 -17 20.5c10 6.66699 21.167 18.5 33.5 35.5s23 36 32 57s13.5 40.167 13.5 57.5
c0 14.667 -4.33301 26.834 -13 36.501s-23.667 14.5 -45 14.5c-29.333 0 -59.5 -11.5 -90.5 -34.5s-61 -53.667 -90 -92s-55.167 -81 -78.5 -128s-41.666 -95.167 -54.999 -144.5s-20 -96 -20 -140c0 -60.667 12.833 -108 38.5 -142s57.5 -51 95.5 -51
c26 0 50.667 9.16699 74 27.5s44 42.333 62 72s32.333 61.834 43 96.501s17.334 68.334 20.001 101.001c-22 4.66699 -41 7.83398 -57 9.50098s-31.667 2.5 -47 2.5c-9.33301 0 -19 -0.166992 -29 -0.5s-21.333 -0.833008 -34 -1.5c5.33301 20.667 14 35.5 26 44.5
s27.333 13.5 46 13.5c19.333 0 39.166 -3.16699 59.499 -9.5s40.5 -13.166 60.5 -20.499s38 -13.333 54 -18l-8 -31l-30 -89c-8 -24.667 -14.167 -46.167 -18.5 -64.5s-7.16602 -34.666 -8.49902 -48.999s-2 -28.166 -2 -41.499s0.333008 -26.5 1 -39.5
s1.33398 -27.5 2.00098 -43.5c-13.333 4 -24.5 9.66699 -33.5 17s-15.333 16 -19 26s-5.5 21 -5.5 33c0 6 0.333008 12 1 18s2 12.333 4 19c-24 -31.333 -51.5 -57.666 -82.5 -78.999s-65.833 -32 -104.5 -32z" />
    <glyph glyph-name="H" unicode="H" horiz-adv-x="632" 
d="M61 -87c4 23.333 8.50781 47.333 13.5078 72s11.667 52 20 82l30 104.5c11.667 39.667 26.5 86.167 44.5 139.5c-10.667 -0.666992 -21.667 -1.66699 -33 -3s-22.333 -2.33301 -33 -3c0.666992 18 8.66699 32.167 24 42.5s35.333 17.833 60 22.5l12 36.5l13 38l15.5 44.5
l19.5 56l25 73l8 25c3.33301 10.667 5 20.667 5 30c0 5.33301 -0.833008 9 -2.5 11s-5.5 3 -11.5 3c-14.667 0 -29.334 -6.33301 -44.001 -19s-27.834 -28.667 -39.501 -48s-20.834 -39.333 -27.501 -60s-10 -39.334 -10 -56.001c0 -5.33301 0.666992 -11.166 2 -17.499
s3 -12.833 5 -19.5c-24 0 -41 5.66699 -51 17s-15 25.666 -15 42.999c0 22.667 6.66699 45.334 20 68.001s30.666 43.5 51.999 62.5s43.666 34.167 66.999 45.5s44.666 17 63.999 17s32.333 -5.16699 39 -15.5s10 -21.833 10 -34.5
c0 -7.33301 -0.833008 -14.666 -2.5 -21.999s-3.5 -14.333 -5.5 -21l-76 -250c8.66699 0.666992 17.667 1.16699 27 1.5s18.666 0.5 27.999 0.5c32 0 62.167 -0.833008 90.5 -2.5s55.5 -3.83398 81.5 -6.50098l40.5 130.5c12.333 39.667 23.666 73.667 33.999 102
s18.833 49.833 25.5 64.5c2.66699 5.33301 6.33398 12.166 11.001 20.499s11.167 15.833 19.5 22.5s18.5 10 30.5 10c-9.33301 -24 -20 -55.167 -32 -93.5s-24.333 -80.166 -37 -125.499s-24.667 -90.333 -36 -135c12 -0.666992 24.833 -1.5 38.5 -2.5
s27.167 -1.5 40.5 -1.5c-16.667 -16.667 -32.334 -26.834 -47.001 -30.501s-28.667 -5.5 -42 -5.5l-18.5 -77c-5.66699 -24.667 -10.5 -48 -14.5 -70c-10.667 -52 -18.167 -96.667 -22.5 -134s-6.5 -67.333 -6.5 -90c0 -9.33301 0.166992 -17.166 0.5 -23.499
s1.16602 -12.5 2.49902 -18.5c-28.667 2.66699 -48.5 10.167 -59.5 22.5s-16.5 32.5 -16.5 60.5c0 16.667 1.83301 36.834 5.5 60.501s9.16699 50.167 16.5 79.5c5.33301 21.333 12.666 48.333 21.999 81l32 108c-40.667 0 -74.667 -0.333008 -102 -1
s-51 -1.33398 -71 -2.00098s-40 -2 -60 -4l-25.5 -82.5l-26.5 -85l-26.5 -86l-26.5 -86.5c-7.33301 -23.333 -18.666 -40 -33.999 -50s-28.666 -15 -39.999 -15z" />
    <glyph glyph-name="I" unicode="I" horiz-adv-x="474" 
d="M-31 -88c2.66699 26 11.665 44.834 26.998 56.501s35.166 19.334 59.499 23.001s50.833 5.5 79.5 5.5c12 25.333 23.833 56.5 35.5 93.5s22.834 76.833 33.501 119.5l31.5 130l29 127c9 40.667 17.667 77.5 26 110.5s15.833 59.5 22.5 79.5
c-34 -0.666992 -63.5 -1.83398 -88.5 -3.50098s-48.5 -3.83398 -70.5 -6.50098s-45.333 -6.33398 -70 -11.001c6 28 25.333 48.667 58 62s83.334 20 152.001 20c34 0 68.833 -1.33301 104.5 -4s68.334 -5.5 98.001 -8.5s52.834 -5.83301 69.501 -8.5
c-18.667 -18 -37.167 -29 -55.5 -33s-34.5 -6 -48.5 -6h-58c-18 0 -34.667 -0.333008 -50 -1l-13.5 -71l-19 -103l-22 -117l-22.5 -113c-7.33301 -35.333 -14 -65.333 -20 -90c-10 -40 -21.5 -74.667 -34.5 -104s-28.167 -50.666 -45.5 -63.999
c34.667 -2 71.167 -5.33301 109.5 -10s75.166 -7.33398 110.499 -8.00098c-22 -21.333 -44 -34.666 -66 -39.999s-40.333 -8 -55 -8c-32.667 0 -62.5 -0.166992 -89.5 -0.5s-52.5 -0.833008 -76.5 -1.5s-47.5 -2.16699 -70.5 -4.5s-46.5 -5.83301 -70.5 -10.5z" />
    <glyph glyph-name="J" unicode="J" horiz-adv-x="421" 
d="M86 -86c-16 0 -32.835 3 -50.502 9s-32.5 18.5 -44.5 37.5s-18 47.5 -18 85.5c0 26 3.16699 52 9.5 78s15.333 47.667 27 65s25.5 26 41.5 26c8.66699 0 19.334 -3 32.001 -9c-12 -30.667 -21.167 -59.5 -27.5 -86.5s-9.5 -51.5 -9.5 -73.5c0 -29.333 5.5 -52 16.5 -68
s26.5 -24 46.5 -24c16.667 0 31.834 7.16699 45.501 21.5s27.834 41.166 42.501 80.499c10 29.333 20.833 64.666 32.5 105.999s23.334 85.333 35.001 132s22.667 93.334 33 140.001l28 129.5c8.33301 39.667 14.833 72.834 19.5 99.501
c-32 -0.666992 -59.5 -1.66699 -82.5 -3s-44 -3.5 -63 -6.5s-39.167 -6.83301 -60.5 -11.5c4 25.333 19.333 44.333 46 57s67.667 19 123 19c27.333 0 55 -1.33301 83 -4s54 -5.5 78 -8.5s42.333 -5.83301 55 -8.5c-8.66699 -14.667 -21.667 -23.834 -39 -27.501
s-31.666 -5.5 -42.999 -5.5c-12 0 -23.833 -0.166992 -35.5 -0.5s-21.834 -0.5 -30.501 -0.5c6 -6 10.5 -13.167 13.5 -21.5s4.5 -16.166 4.5 -23.499c0 -8.66699 -2.33301 -27.667 -7 -57s-11.334 -65 -20.001 -107s-18.834 -86.5 -30.501 -133.5s-24.5 -93 -38.5 -138
s-29 -85.167 -45 -120.5c-17.333 -40 -35 -70.5 -53 -91.5s-36.5 -35.667 -55.5 -44s-38.5 -12.5 -58.5 -12.5z" />
    <glyph glyph-name="K" unicode="K" horiz-adv-x="606" 
d="M511 -87c-15.333 0 -32.8301 8.49512 -52.4971 25.4951s-40.5 39.5 -62.5 67.5s-43.667 58.5 -65 91.5s-41.166 66 -59.499 99s-33.833 62.833 -46.5 89.5l-95 -308c-4.66699 -15.333 -12.5 -26.333 -23.5 -33s-22.833 -10.667 -35.5 -12s-25 -2 -37 -2
c9.33301 19.333 18.5 41 27.5 65l31.5 86.5l43 123l59.5 173.5l82.5 239l8 21.5c3.33301 9 5 17.5 5 25.5c0 6.66699 -1.66699 12 -5 16s-9.33301 6 -18 6c-16 0 -31.333 -6.33301 -46 -19s-27.834 -28.667 -39.501 -48s-20.667 -39.333 -27 -60s-9.5 -39 -9.5 -55
c0 -14 2 -26.667 6 -38c-24 0 -41 5.66699 -51 17s-15 25.333 -15 42c0 22.667 6.66699 45.5 20 68.5s30.666 44 51.999 63s43.666 34.167 66.999 45.5s44.666 17 63.999 17c20 0 33.167 -5.33301 39.5 -16s9.5 -22.334 9.5 -35.001
c0 -7.33301 -0.666992 -14.666 -2 -21.999s-3 -14 -5 -20l-81 -262c8.66699 10.667 19.667 21 33 31l47 37c32.667 26 66.167 55 100.5 87s66.833 65.333 97.5 100s56.667 68.334 78 101.001c4.66699 -5.33301 7.83398 -13.166 9.50098 -23.499s2.5 -18.166 2.5 -23.499
c0 -20.667 -8.5 -43.334 -25.5 -68.001s-39.167 -50.167 -66.5 -76.5s-57.333 -52.166 -90 -77.499l-97 -72l-86 -59l59 -95.5c19.333 -30.333 40.5 -60 63.5 -89s49.833 -58.667 80.5 -89s67.667 -63.166 111 -98.499c-4.66699 -9.33301 -12.334 -17.666 -23.001 -24.999
s-21.667 -11 -33 -11z" />
    <glyph glyph-name="L" unicode="L" horiz-adv-x="583" 
d="M410 -87c-24 0 -50.8271 5 -80.4941 15s-60 22.167 -91 36.5s-61.833 27.833 -92.5 40.5c-16.667 -18 -34.167 -32.167 -52.5 -42.5s-38.166 -15.5 -59.499 -15.5c-22 0 -40.833 5 -56.5 15s-27.667 22 -36 36s-12.5 26.667 -12.5 38c0 12.667 5.66699 23.5 17 32.5
s31 13.5 59 13.5c18 0 37.5 -2 58.5 -6s42.833 -9 65.5 -15c16 28 30.667 60.333 44 97s26.666 75.667 39.999 117l39 123c-31.333 10.667 -55.833 25.834 -73.5 45.501s-26.5 40.5 -26.5 62.5c0 12 2.66699 24.167 8 36.5s13.333 22.833 24 31.5s23 13 37 13
c-6 -8 -10 -18.5 -12 -31.5s-3 -23.833 -3 -32.5c0 -24 5.16699 -44.333 15.5 -61s23.5 -29.334 39.5 -38.001c13.333 39.333 27.166 76.666 41.499 111.999s30.166 66.833 47.499 94.5s36.5 49.5 57.5 65.5s44.5 24 70.5 24c14 0 28.833 -3 44.5 -9
s29.167 -16.5 40.5 -31.5s17 -36.167 17 -63.5c0 -22.667 -4.83301 -47.167 -14.5 -73.5s-24.334 -51.333 -44.001 -75s-44.834 -43 -75.501 -58s-67.334 -23.167 -110.001 -24.5h-4.5h-11.5c-12.667 -40 -26.334 -80.5 -41.001 -121.5s-30.334 -80 -47.001 -117
s-34.334 -70.167 -53.001 -99.5l90.5 -27c31.667 -9.33301 62.5 -17.166 92.5 -23.499s57.333 -9.5 82 -9.5c14.667 0 28 1.5 40 4.5s24 7.5 36 13.5c-11.333 -33.333 -26.166 -57 -44.499 -71s-40.166 -21 -65.499 -21zM28.0059 -21c15.333 0 29.167 3.83301 41.5 11.5
s23.833 18.5 34.5 32.5c-20.667 8 -40.667 14.667 -60 20s-36.333 8 -51 8c-12.667 0 -21.5 -1.83301 -26.5 -5.5s-7.5 -8.5 -7.5 -14.5c0 -11.333 6.5 -22.833 19.5 -34.5s29.5 -17.5 49.5 -17.5zM328.007 409c30 0.666992 56.8311 9.49902 80.498 26.499
s43.834 37.833 60.501 62.5s29.334 50 38.001 76s13 48.667 13 68c0 18.667 -3.5 31.334 -10.5 38.001s-15.167 10 -24.5 10c-20 0 -38.833 -13 -56.5 -39s-34.667 -60.167 -51 -102.5s-32.833 -88.833 -49.5 -139.5z" />
    <glyph glyph-name="M" unicode="M" horiz-adv-x="777" 
d="M-13 -87l32.0029 71.501l69 151l98 215.5l119 264c2.66699 5.33301 5 11.5 7 18.5s3 13.833 3 20.5s-2.16699 12.334 -6.5 17.001s-12.833 7 -25.5 7c-28 0 -51.167 -9.16699 -69.5 -27.5s-31.833 -40.833 -40.5 -67.5s-13 -53.334 -13 -80.001
c0 -6 0.166992 -12 0.5 -18s1.16602 -12 2.49902 -18c-14 0 -25.333 4.5 -34 13.5s-15 20.333 -19 34s-6 26.167 -6 37.5c0 21.333 6 42 18 62s27.667 38.167 47 54.5s40.666 29 63.999 38s46.333 13.5 69 13.5c23.333 0 42.833 -6.33301 58.5 -19s27.667 -35.667 36 -69
s12.5 -81.333 12.5 -144c0 -42 -1.5 -86 -4.5 -132s-6.16699 -90.5 -9.5 -133.5s-5.66602 -81.5 -6.99902 -115.5c12 40 27.833 82.833 47.5 128.5s41.167 91 64.5 136s46.333 87.167 69 126.5l61.5 103c18.333 29.333 32.166 50.666 41.499 63.999
c9.33301 14 17.333 24.5 24 31.5s15.667 10.5 27 10.5c9.33301 0 21.333 -2.66699 36 -8c-4.66699 -12 -11.167 -30.5 -19.5 -55.5s-16.833 -55.167 -25.5 -90.5c-10.667 -40 -21.167 -85.167 -31.5 -135.5s-19.833 -101.5 -28.5 -153.5s-15.667 -100.833 -21 -146.5
s-8 -84.834 -8 -117.501c0 -15.333 0.666992 -27.333 2 -36s3.33301 -16.5 6 -23.5s5.66699 -16.167 9 -27.5c-24.667 0 -43.5 3.83301 -56.5 11.5s-21.667 20.167 -26 37.5s-6.5 40.333 -6.5 69c0 77.333 9.5 160 28.5 248s41.167 179 66.5 273
c-19.333 -25.333 -39.333 -56.666 -60 -93.999s-41.167 -77.333 -61.5 -120l-58.5 -127.5c-18.667 -42.333 -35 -81.5 -49 -117.5s-25 -66 -33 -90c-4.66699 -1.33301 -7.83398 -2.33301 -9.50098 -3s-4.16699 -1 -7.5 -1c-20 0 -32.833 11.833 -38.5 35.5
s-8.5 56.5 -8.5 98.5c0 26.667 0.666992 57.5 2 92.5s2.83301 71 4.5 108s3.16699 73 4.5 108s2 66.167 2 93.5c0 12 -0.166992 22.5 -0.5 31.5s-0.833008 17.5 -1.5 25.5l-131.5 -312.5c-35.667 -86.333 -65.834 -156.5 -90.501 -210.5s-46.667 -93.5 -66 -118.5
s-38.666 -37.5 -57.999 -37.5z" />
    <glyph glyph-name="N" unicode="N" horiz-adv-x="651" 
d="M49 -87c8.66699 32.667 19.166 68.6699 31.499 108.003l44 140l59 193l77.5 264c1.33301 2.66699 2.83301 8.16699 4.5 16.5s2.5 16.166 2.5 23.499c0 6.66699 -1 11.667 -3 15s-5.66699 5 -11 5c-15.333 0 -30 -6 -44 -18s-26.167 -27 -36.5 -45
s-18.333 -36.833 -24 -56.5s-8.5 -37.167 -8.5 -52.5c0 -14.667 2 -27.667 6 -39c-24 0 -41 5.66699 -51 17s-15 25.333 -15 42c0 22.667 6.66699 45.5 20 68.5s30.5 44 51.5 63s43.167 34.167 66.5 45.5s44.666 17 63.999 17c21.333 0 38.833 -8.5 52.5 -25.5
s24.667 -40.333 33 -70s15.5 -63.167 21.5 -100.5s11.333 -76 16 -116l14.5 -109l12 -88l10 -70c3 -20.667 5.83301 -39 8.5 -55c6 31.333 13.333 66.166 22 104.499s18.167 78 28.5 119l31.5 120l30.5 108c9.66699 33 18.5 61.167 26.5 84.5s14.333 39.333 19 48
c4 9.33301 12.167 20 24.5 32s27.166 18 44.499 18c-11.333 -30 -24.166 -67.167 -38.499 -111.5s-28.833 -92.333 -43.5 -144l-43 -158c-14 -53.667 -26.5 -105.667 -37.5 -156s-19.667 -96 -26 -137s-9.5 -74.5 -9.5 -100.5c-22 0 -40 6 -54 18s-24 33.667 -30 65
c-3.33301 15.333 -7.5 37.5 -12.5 66.5l-16.5 99l-19 116l-19 118l-16 105c-4.66699 31.667 -8.66699 57.5 -12 77.5l-80.5 -287.5c-22.333 -78.333 -41.333 -142.333 -57 -192s-29.667 -87.834 -42 -114.501s-24.166 -45.167 -35.499 -55.5s-23.666 -15.5 -36.999 -15.5z
" />
    <glyph glyph-name="O" unicode="O" horiz-adv-x="634" 
d="M223 -87c-38.667 0 -72.8311 10.1621 -102.498 30.4951s-53 49.166 -70 86.499s-25.5 81.333 -25.5 132c0 51.333 8 103.333 24 156s38 102.834 66 150.501s60 90.334 96 128.001s74.167 67.5 114.5 89.5s80.833 33 121.5 33c10.667 0 21.5 -1.16699 32.5 -3.5
s20.833 -6.83301 29.5 -13.5h-10.5h-6.5c-34.667 0 -69.667 -11.167 -105 -33.5s-69 -52.666 -101 -90.999s-60.667 -81.333 -86 -129s-45.333 -97.167 -60 -148.5s-22 -101 -22 -149c0 -35.333 4.5 -68.166 13.5 -98.499s23.667 -54.666 44 -72.999s46.5 -27.5 78.5 -27.5
c37.333 0 72.166 11.333 104.499 34s61.666 53.167 87.999 91.5s49 81.333 68 129s33.5 96.667 43.5 147s15 98.833 15 145.5c0 18.667 -1.33301 38.834 -4 60.501s-7.16699 40.334 -13.5 56.001s-15.5 23.5 -27.5 23.5c-11.333 0 -24 -7.5 -38 -22.5
s-27.333 -33.667 -40 -56s-24 -45.666 -34 -69.999s-17 -45.833 -21 -64.5c-18.667 4 -32.167 10.667 -40.5 20s-12.5 20 -12.5 32c0 18 6.16699 37.833 18.5 59.5s28.333 42.667 48 63s40 37 61 50s40.5 19.5 58.5 19.5s32.667 -6.5 44 -19.5s20.333 -29.833 27 -50.5
s11.167 -42.834 13.5 -66.501s3.5 -45.5 3.5 -65.5c0 -71.333 -8.16699 -136.166 -24.5 -194.499s-38.5 -109.833 -66.5 -154.5s-59.167 -82.334 -93.5 -113.001s-69.5 -53.834 -105.5 -69.501s-70.333 -23.5 -103 -23.5z" />
    <glyph glyph-name="P" unicode="P" horiz-adv-x="538" 
d="M97 -87c-18 0 -34.834 4.83301 -50.501 14.5s-23.5 22.167 -23.5 37.5c0 8 1.66699 17.167 5 27.5l9 28.5l59.5 181l55.5 163c18.667 52.667 38.334 105.334 59.001 158.001s44 107.667 70 165c-25.333 -5.33301 -47.666 -12.333 -66.999 -21
s-34.833 -16.334 -46.5 -23.001s-19.834 -10 -24.501 -10c-2.66699 0 -6.66699 1.66699 -12 5s-10.166 7.5 -14.499 12.5s-6.5 9.5 -6.5 13.5c18 7.33301 39 15.333 63 24s50 16 78 22s56.333 9 85 9c30 0 60.5 -4 91.5 -12s59.5 -20.167 85.5 -36.5s47 -36.666 63 -60.999
s24 -52.5 24 -84.5c0 -34.667 -7.83301 -64.667 -23.5 -90s-36.334 -46.5 -62.001 -63.5s-53.334 -30.667 -83.001 -41s-59.167 -18.333 -88.5 -24s-55.666 -9.33398 -78.999 -11.001s-40.333 -2.5 -51 -2.5h-9l-56.5 -201.5zM209.999 315
c36.667 2 73.833 7.99902 111.5 17.999s72 24.333 103 43s56 41.834 75 69.501s28.5 60.167 28.5 97.5c0 34.667 -8.66699 63 -26 85s-39.833 38.5 -67.5 49.5s-57.167 16.5 -88.5 16.5c-24 -48 -47.5 -105.167 -70.5 -171.5s-44.833 -135.5 -65.5 -207.5z" />
    <glyph glyph-name="Q" unicode="Q" horiz-adv-x="705" 
d="M530 -119c-30.667 0 -59.3242 8.3291 -85.9912 24.9961s-52.334 35.334 -77.001 56.001c-16 -8 -32.5 -14.167 -49.5 -18.5s-34.5 -6.5 -52.5 -6.5c-24 0 -43.5 3.5 -58.5 10.5s-26.333 15.5 -34 25.5s-13 19.833 -16 29.5s-4.5 17.167 -4.5 22.5
c0 12 5.66699 24.333 17 37s31 19 59 19c27.333 0 54.166 -6.5 80.499 -19.5s53.166 -27.833 80.499 -44.5c29.333 26.667 55.5 60.334 78.5 101.001s42.167 84.167 57.5 130.5s27.166 91.833 35.499 136.5s12.5 84.667 12.5 120c0 54 -10.5 98 -31.5 132
s-55.167 51 -102.5 51c-38.667 0 -74.667 -11.167 -108 -33.5s-63.333 -52.5 -90 -90.5s-49.667 -80.5 -69 -127.5s-34 -95.333 -44 -145s-15 -97.5 -15 -143.5c0 -13.333 0.666992 -27.5 2 -42.5s3.66602 -30.5 6.99902 -46.5c-22 0 -39.167 6.66699 -51.5 20
s-20.833 30.666 -25.5 51.999s-7 44.333 -7 69c0 49.333 6.66699 98.833 20 148.5s32.166 96.834 56.499 141.501s53.166 84.167 86.499 118.5s70.166 61.5 110.499 81.5s82.833 30 127.5 30c65.333 0 116.5 -21.833 153.5 -65.5s55.5 -103.5 55.5 -179.5
c0 -41.333 -5.5 -84.5 -16.5 -129.5s-26.667 -89.167 -47 -132.5s-44.166 -83.666 -71.499 -120.999s-57 -68.666 -89 -93.999c22 -12 45.167 -22.333 69.5 -31s49.833 -13 76.5 -13c15.333 0 26.666 1.5 33.999 4.5s16.666 5.83301 27.999 8.5
c-6.66699 -24.667 -16.167 -43.167 -28.5 -55.5s-24.833 -20.5 -37.5 -24.5s-24.667 -6 -36 -6zM259.01 -37.0039c15.333 0 29.835 2.16699 43.502 6.5s26.5 9.5 38.5 15.5c-20.667 17.333 -41 32.666 -61 45.999s-40.667 20 -62 20
c-14.667 0 -24.834 -3.16699 -30.501 -9.5s-8.5 -12.833 -8.5 -19.5c0 -6 2.33301 -13.667 7 -23s12.667 -17.666 24 -24.999s27.666 -11 48.999 -11z" />
    <glyph glyph-name="R" unicode="R" horiz-adv-x="590" 
d="M478 -121c-15.333 0 -33.0039 9.00293 -53.0039 27.0029s-40.833 41.5 -62.5 70.5s-43.167 61 -64.5 96s-41 69.833 -59 104.5s-33.333 66 -46 94l-53.5 -189l-47.5 -169c-18 0 -34.333 4.83301 -49 14.5s-22 22.167 -22 37.5c0 7.33301 1.66699 16.166 5 26.499l9 28.5
l50 151.5l46 132l45.5 124l50 125.5l58.5 137c-27.333 -5.33301 -51.166 -12.333 -71.499 -21s-36.666 -16.667 -48.999 -24s-20.833 -11 -25.5 -11c-3.33301 0 -7.66602 1.66699 -12.999 5s-10.166 7.5 -14.499 12.5s-6.5 9.5 -6.5 13.5c17.333 7.33301 38 15.333 62 24
s50.333 16 79 22s58.334 9 89.001 9c29.333 0 59.166 -3.5 89.499 -10.5s58.333 -18 84 -33s46.5 -34.5 62.5 -58.5s24 -53 24 -87c0 -32 -7.33301 -59.833 -22 -83.5s-34 -43.5 -58 -59.5s-50.333 -28.833 -79 -38.5s-57 -17.167 -85 -22.5s-53.667 -8.83301 -77 -10.5
s-41.333 -2.5 -54 -2.5l60 -102c19.333 -32.667 40.333 -65.334 63 -98.001s49.167 -65.334 79.5 -98.001s66.833 -66 109.5 -100c-3.33301 -10.667 -10.833 -19.5 -22.5 -26.5s-22.167 -10.5 -31.5 -10.5zM210.996 334.003c36.667 2.66699 73.333 8.66895 110 18.002
s70.167 22.666 100.5 39.999s54.666 39.166 72.999 65.499s27.5 57.833 27.5 94.5c0 36 -8.66699 64.167 -26 84.5s-39.666 35 -66.999 44s-56 13.5 -86 13.5c-22.667 -45.333 -45 -99.5 -67 -162.5s-43.667 -128.833 -65 -197.5z" />
    <glyph glyph-name="S" unicode="S" horiz-adv-x="546" 
d="M213 -87c-36.667 0 -71.498 6.49512 -104.498 19.4951s-59.833 33 -80.5 60s-31 60.5 -31 100.5c0 35.333 7.33301 62.833 22 82.5s32.667 33.5 54 41.5s41.666 12 60.999 12c-19.333 -20.667 -33.833 -42.667 -43.5 -66s-14.5 -46.666 -14.5 -69.999
c0 -24 5.5 -46.333 16.5 -67s28 -37.334 51 -50.001s51.833 -19 86.5 -19c30 0 59.333 5.33301 88 16s52.167 26.5 70.5 47.5s27.5 47.167 27.5 78.5c0 28 -7.5 52.167 -22.5 72.5s-34.333 38.5 -58 54.5s-48.667 31.333 -75 46s-51.333 30.167 -75 46.5s-43 35.333 -58 57
s-22.5 47.5 -22.5 77.5c0 28 6.66699 57.333 20 88s32.666 59.667 57.999 87s55.666 49.5 90.999 66.5s74.666 25.5 117.999 25.5c41.333 0 70.333 -9.5 87 -28.5s25 -43.5 25 -73.5c0 -24 -4.33301 -49.833 -13 -77.5s-19 -54.167 -31 -79.5s-23.333 -46.666 -34 -63.999
c-13.333 2.66699 -22.833 8 -28.5 16s-8.5 18 -8.5 30c0 14 3 29.833 9 47.5s12.833 36 20.5 55s14.334 37.667 20.001 56s8.5 34.5 8.5 48.5c0 12.667 -3.83301 22.667 -11.5 30s-22.167 11 -43.5 11c-31.333 0 -60.333 -7.16699 -87 -21.5s-50 -32.666 -70 -54.999
s-35.333 -46 -46 -71s-16 -47.5 -16 -67.5c0 -24.667 7.33301 -45.667 22 -63s33.5 -33.166 56.5 -47.499s47.667 -28.5 74 -42.5s51 -29.667 74 -47s41.833 -38 56.5 -62s22 -53 22 -87c0 -34.667 -7.66699 -65.167 -23 -91.5s-36 -48.666 -62 -66.999
s-54.667 -32.166 -86 -41.499s-62.666 -14 -93.999 -14z" />
    <glyph glyph-name="T" unicode="T" horiz-adv-x="507" 
d="M202 -87c-32 0 -54.167 6.83496 -66.5 20.502s-18.5 31.167 -18.5 52.5c0 19.333 4 42.333 12 69l24 77l44.5 124l51.5 136l54.5 135l52.5 121c-46 -0.666992 -84.833 -1.83398 -116.5 -3.50098s-60.334 -3.83398 -86.001 -6.50098s-53.167 -6.66699 -82.5 -12
c2.66699 24.667 15 43.667 37 57s51.333 22.833 88 28.5s78.667 8.5 126 8.5c39.333 0 75 -1.33301 107 -4s62.167 -5.5 90.5 -8.5s56.5 -5.16699 84.5 -6.5c-1.33301 -14.667 -7.5 -24 -18.5 -28s-25.833 -6 -44.5 -6c-11.333 -6.66699 -24.666 -11.167 -39.999 -13.5
s-31.333 -3.83301 -48 -4.5s-32.667 -1 -48 -1c-24.667 -62 -50.667 -134.167 -78 -216.5s-54 -171.5 -80 -267.5l-24.5 -90c-7 -26 -12.333 -49.833 -16 -71.5s-5.5 -43.5 -5.5 -65.5v-11c0 -4 0.333008 -8.33301 1 -13z" />
    <glyph glyph-name="U" unicode="U" horiz-adv-x="721" 
d="M557 -99c-24.667 0 -44.833 10.665 -60.5 31.998s-23.5 46.666 -23.5 75.999c0 8 0.5 18.833 1.5 32.5s2.5 28.834 4.5 45.501c-24 -51.333 -53.667 -93.166 -89 -125.499s-77.333 -48.5 -126 -48.5c-43.333 0 -76.5 13 -99.5 39s-34.5 60 -34.5 102
c0 27.333 4.16699 58.5 12.5 93.5s18.666 72.333 30.999 112l37 120c12.333 40.333 22.666 79.333 30.999 117s12.5 71.834 12.5 102.501c0 58.667 -18.667 88 -56 88c-18 0 -33.5 -5.66699 -46.5 -17s-23.833 -25.833 -32.5 -43.5s-15 -36.167 -19 -55.5s-6 -36.333 -6 -51
c0 -9.33301 0.833008 -18.833 2.5 -28.5s3.83398 -18.167 6.50098 -25.5c-27.333 0 -46.666 7 -57.999 21s-17 31 -17 51c0 20.667 5 41.667 15 63s23.833 41 41.5 59s38.334 32.5 62.001 43.5s48.834 16.5 75.501 16.5c38 0 65.5 -11.333 82.5 -34s25.5 -52.667 25.5 -90
c0 -24.667 -3 -51.834 -9 -81.501s-13.667 -60.667 -23 -93s-19.333 -64.5 -30 -96.5c-15.333 -50 -29 -96.833 -41 -140.5s-18 -82.5 -18 -116.5c0 -30.667 6.33301 -56.834 19 -78.501s34 -32.5 64 -32.5c27.333 0 52.333 8.83301 75 26.5s42.667 40.334 60 68.001
s32 56.834 44 87.501s21.333 59.334 28 86.001l31 127c11.333 44.667 23.166 88.834 35.499 132.501s24.666 83.167 36.999 118.5s24.5 63.666 36.5 84.999s23.667 32 35 32c6 0 14 -3.16699 24 -9.5s20.333 -14.833 31 -25.5c-6 -4 -14.667 -18 -26 -42
s-24 -54.833 -38 -92.5s-28 -79 -42 -124s-27 -90.833 -39 -137.5s-21.667 -91.334 -29 -134.001s-11 -80 -11 -112c0 -44.667 6.5 -74.5 19.5 -89.5s34.833 -22.5 65.5 -22.5c-10.667 -10 -22.667 -17.5 -36 -22.5s-25.333 -7.5 -36 -7.5z" />
    <glyph glyph-name="V" unicode="V" horiz-adv-x="644" 
d="M222 -87c-10 0 -21.9971 2.17285 -35.9971 6.50586s-26.5 12.5 -37.5 24.5s-16.5 29.333 -16.5 52c0 20 4.16699 45.333 12.5 76s18.666 65 30.999 103l37.5 120.5c12.667 42.333 23 85.5 31 129.5s12 87 12 129c0 24.667 -1 47 -3 67s-7.33301 36 -16 48
s-22.334 18 -41.001 18c-18 0 -33.333 -5.33301 -46 -16s-23.167 -24.334 -31.5 -41.001s-14.333 -34.334 -18 -53.001s-5.5 -36.334 -5.5 -53.001c0 -10.667 1 -20.834 3 -30.501s4.66699 -18.5 8 -26.5c-28 0 -48 7.33301 -60 22s-18 32 -18 52
c0 20.667 4.83301 41.5 14.5 62.5s23.167 40.333 40.5 58s37.333 31.834 60 42.501s46.667 16 72 16c42.667 0 74.667 -16.333 96 -49s32 -76.334 32 -131.001c0 -38 -4.33301 -77.833 -13 -119.5s-19.167 -83.167 -31.5 -124.5s-25 -81.333 -38 -120
s-23.667 -74.167 -32 -106.5s-12.5 -60.166 -12.5 -83.499c0 -11.333 1.66699 -20.333 5 -27s10.333 -10 21 -10c19.333 0 41.166 9.33301 65.499 28s49.666 44.167 75.999 76.5s52 68.833 77 109.5s47.5 83 67.5 127s35.833 87.5 47.5 130.5s17.5 82.5 17.5 118.5
c0 34 -5.33301 59.333 -16 76s-25 27.667 -43 33c9.33301 17.333 19.833 30 31.5 38s22.167 12 31.5 12c15.333 0 30 -9.83301 44 -29.5s21 -48.834 21 -87.501c0 -36.667 -6.83301 -78.334 -20.5 -125.001s-32.167 -95 -55.5 -145s-50.166 -98.667 -80.499 -146
s-62 -89.833 -95 -127.5s-65.667 -67.834 -98 -90.501s-62.5 -34 -90.5 -34z" />
    <glyph glyph-name="W" unicode="W" horiz-adv-x="922" 
d="M222 -87c-7.33301 0 -15.9971 1.16699 -25.9971 3.5s-19.833 6.33301 -29.5 12s-17.834 13.834 -24.501 24.501s-10 25 -10 43c0 21.333 5 49.166 15 83.499l37 124.5c12 37.333 23.5 75.166 34.5 113.499s20 77.333 27 117s10.5 79.167 10.5 118.5
c0 25.333 -1 48.166 -3 68.499s-7.33301 36.5 -16 48.5s-22.334 18 -41.001 18c-18 0 -33.333 -5.16699 -46 -15.5s-23 -23.666 -31 -39.999s-14 -33.833 -18 -52.5s-6 -36.334 -6 -53.001c0 -24.667 3.66699 -44.667 11 -60c-28 0 -48 7.33301 -60 22s-18 32 -18 52
c0 20.667 4.83301 41.5 14.5 62.5s23.167 40.333 40.5 58s37.166 31.834 59.499 42.501s46.166 16 71.499 16c42.667 0 74.834 -16.333 96.501 -49s32.5 -77.334 32.5 -134.001c0 -47.333 -6.66699 -97.5 -20 -150.5s-28.666 -106.167 -45.999 -159.5l-28 -87.5
c-9.33301 -29 -17.166 -56.333 -23.499 -82s-9.5 -49.5 -9.5 -71.5c0 -12.667 1.83301 -22 5.5 -28s10.834 -9 21.501 -9c17.333 0 36.166 7.66699 56.499 23s40.833 36.333 61.5 63s40.834 56 60.501 88s37.5 65 53.5 99s29.5 66.333 40.5 97s17.833 57 20.5 79
c23.333 0 40.333 -6.16699 51 -18.5s16 -23.833 16 -34.5c0 -9.33301 -3.83301 -24 -11.5 -44s-17.834 -44.333 -30.501 -73l-31 -78.5c-10.667 -27.667 -19.667 -55.167 -27 -82.5s-11 -53.333 -11 -78c0 -12.667 1.83301 -22.5 5.5 -29.5s11.167 -10.5 22.5 -10.5
c18.667 0 40.167 9.33301 64.5 28s49.666 44.334 75.999 77.001s52 69.334 77 110.001s47.5 83.167 67.5 127.5s35.833 87.833 47.5 130.5s17.5 81.667 17.5 117c0 34.667 -5.5 59.834 -16.5 75.501s-25.167 26.167 -42.5 31.5c10 16.667 20.833 29 32.5 37
s22.167 12 31.5 12c14 0 28.167 -9.33301 42.5 -28s21.5 -47.667 21.5 -87c0 -36 -6.83301 -77.167 -20.5 -123.5s-32.167 -94.666 -55.5 -144.999s-50 -99 -80 -146s-61.667 -89.5 -95 -127.5s-66.5 -68.333 -99.5 -91s-63.833 -34 -92.5 -34c-14 0 -27.667 3 -41 9
s-24.333 14.833 -33 26.5s-13 26.167 -13 43.5c0 9.33301 1.5 20.666 4.5 33.999s7.16699 27.666 12.5 42.999c-34 -46 -68.333 -83.5 -103 -112.5s-68.334 -43.5 -101.001 -43.5z" />
    <glyph glyph-name="X" unicode="X" horiz-adv-x="677" 
d="M32 -112c2 16.667 4.83105 30.0029 8.49805 40.0029s9 19.333 16 28s15.5 18.334 25.5 29.001l60.5 67l56 63.5l54.5 64.5l57 70c-2 22 -3.66699 41.667 -5 59s-2.5 34.166 -3.5 50.499s-1.83301 33.5 -2.5 51.5s-1.33398 38.667 -2.00098 62
c-0.666992 50 -2.16699 90.833 -4.5 122.5s-7.33301 55.167 -15 70.5s-20.834 23 -39.501 23c-16.667 0 -31.334 -5.33301 -44.001 -16s-23.167 -24.5 -31.5 -41.5s-14.666 -35 -18.999 -54s-6.5 -37.167 -6.5 -54.5c0 -20.667 3 -38.667 9 -54
c-27.333 0 -46.666 7 -57.999 21s-17 31 -17 51c0 20.667 5 41.667 15 63s24 40.666 42 57.999s38.333 31.5 61 42.5s46.667 16.5 72 16.5c28 0 50.333 -7.16699 67 -21.5s29.167 -33.666 37.5 -57.999s13.833 -52.333 16.5 -84s4.16699 -65 4.5 -100
s0.833008 -69.833 1.5 -104.5c52.667 72 97.5 139.5 134.5 202.5s66.167 119.167 87.5 168.5c5.33301 -3.33301 10.833 -10 16.5 -20s8.5 -20 8.5 -30c0 -13.333 -6.5 -32.833 -19.5 -58.5s-30.833 -56 -53.5 -91s-48.834 -72.333 -78.501 -112l-93.5 -121.5
c1.33301 -42.667 4 -83.834 8 -123.501s9.66699 -75.334 17 -107.001s16.666 -56.834 27.999 -75.501s25 -28 41 -28c20.667 0 45.334 19 74.001 57s61.334 89.667 98.001 155l16 -13c-26 -52 -50.167 -96 -72.5 -132s-44.666 -63.167 -66.999 -81.5
s-47.166 -27.5 -74.499 -27.5c-28 0 -51 8.83301 -69 26.5s-32 40.5 -42 68.5s-17.5 58.5 -22.5 91.5s-8.5 64.5 -10.5 94.5l-115 -135l-100 -108.5c-29.333 -30.333 -51.666 -51.833 -66.999 -64.5z" />
    <glyph glyph-name="Y" unicode="Y" horiz-adv-x="679" 
d="M265 -187c-38.667 0 -71.6689 8.16797 -99.002 24.501s-41 40.166 -41 71.499c0 18 5.5 34.167 16.5 48.5s27.5 24.5 49.5 30.5c-3.33301 -12.667 -5.66602 -23.667 -6.99902 -33s-2 -17.666 -2 -24.999c0 -27.333 7.33301 -49 22 -65s36.667 -24 66 -24
c25.333 0 48 5.83301 68 17.5s37.333 27 52 46s27.334 39.833 38.001 62.5s19.667 45.834 27 69.501s13.333 45.167 18 64.5c6.66699 29.333 13.334 63 20.001 101s14.334 75 23.001 111c-26.667 -48 -57.334 -87.333 -92.001 -118s-75.334 -46 -122.001 -46
c-41.333 0 -70.666 11.5 -87.999 34.5s-26 52.167 -26 87.5c0 25.333 3.33301 53.166 10 83.499s14.334 60.833 23.001 91.5s16.5 60.334 23.5 89.001s10.5 54 10.5 76c0 21.333 -4.16699 39.333 -12.5 54s-22.833 22 -43.5 22c-18.667 0 -34.667 -5.5 -48 -16.5
s-24.333 -25.333 -33 -43s-15.167 -36.167 -19.5 -55.5s-6.5 -37.333 -6.5 -54c0 -10 0.833008 -19.167 2.5 -27.5s4.16699 -16.5 7.5 -24.5c-28 0 -47.667 7.16699 -59 21.5s-17 31.166 -17 50.499c0 20.667 5 41.667 15 63s24 41 42 59s38.667 32.5 62 43.5
s48.666 16.5 75.999 16.5c25.333 0 46 -5.16699 62 -15.5s27.667 -23.333 35 -39s11 -32.167 11 -49.5s-3.16699 -38.666 -9.5 -63.999l-22.5 -86c-8.66699 -31.333 -16.5 -62 -23.5 -92s-10.5 -58.333 -10.5 -85c0 -28.667 5.5 -51.667 16.5 -69s28.833 -26 53.5 -26
c23.333 0 45.333 7 66 21s40 33 58 57s34.333 50.5 49 79.5s27.334 58.5 38.001 88.5l27.5 97.5c9.66699 33 19.5 63.333 29.5 91s20.5 49.834 31.5 66.501s22.167 25 33.5 25c7.33301 0 16.666 -3 27.999 -9s22 -14.333 32 -25c-14 -22 -26 -42.833 -36 -62.5
s-19.5 -41.167 -28.5 -64.5s-18.167 -50.833 -27.5 -82.5s-19.833 -70.334 -31.5 -116.001l-41.5 -166.5c-8.66699 -34.667 -18.167 -69.834 -28.5 -105.501s-22.833 -69.834 -37.5 -102.501s-32.334 -62 -53.001 -88s-45.5 -46.667 -74.5 -62s-63.167 -23 -102.5 -23z" />
    <glyph glyph-name="Z" unicode="Z" horiz-adv-x="647" 
d="M461 -87c-24.667 0 -51.4971 4.82324 -80.4971 14.4902s-58.333 21.334 -88 35.001l-86.5 38.5c-22.667 -16.667 -44.834 -30 -66.501 -40s-42.5 -15 -62.5 -15c-20.667 0 -38 4.33301 -52 13s-24.833 19.334 -32.5 32.001s-11.5 25 -11.5 37
c0 14.667 5.83301 27.334 17.5 38.001s32.167 16 61.5 16c20 0 41.667 -2.5 65 -7.5s47.666 -11.167 72.999 -18.5c32 32.667 64.5 72.334 97.5 119.001s64.833 94.667 95.5 144c-23.333 -0.666992 -44.333 -2 -63 -4s-41.667 -4.66699 -69 -8l-33 -5
c1.33301 20 9 35.5 23 46.5s32.333 18.5 55 22.5s47.334 6 74.001 6c8.66699 0 16.667 -0.166992 24 -0.5s14.666 -0.833008 21.999 -1.5c25.333 45.333 48.166 88.166 68.499 128.499s35.833 74.833 46.5 103.5c-12 2.66699 -24.333 6.33398 -37 11.001l-42 16
c-38.667 14.667 -75.167 27.167 -109.5 37.5s-64.5 15.5 -90.5 15.5c-21.333 0 -40.5 -4.16699 -57.5 -12.5s-30.333 -23.166 -40 -44.499s-14.5 -50.666 -14.5 -87.999c0 -2 0.166992 -5 0.5 -9s1 -8.16699 2 -12.5s1.83301 -8.16602 2.5 -11.499
c-21.333 4 -36.666 12.333 -45.999 25s-14 29 -14 49c0 45.333 17.333 79.5 52 102.5s83 34.5 145 34.5c35.333 0 68.5 -3.16699 99.5 -9.5s60.667 -13.833 89 -22.5s55.833 -16.167 82.5 -22.5s53.334 -9.5 80.001 -9.5c6.66699 0 13.334 0.333008 20.001 1
s12.667 1.33398 18 2.00098c-11.333 -10 -21.333 -18.167 -30 -24.5s-16.667 -11.5 -24 -15.5c-14.667 -34 -33 -72.667 -55 -116s-46.333 -88 -73 -134c21.333 -2 40.666 -4 57.999 -6s34 -3 50 -3c-8 -12 -16.833 -20.667 -26.5 -26s-22.834 -8.66602 -39.501 -9.99902
s-40.334 -2.33301 -71.001 -3c-32.667 -53.333 -67.5 -104.5 -104.5 -153.5s-74.167 -91.167 -111.5 -126.5c43.333 -13.333 86.5 -25.666 129.5 -36.999s80.833 -17 113.5 -17c15.333 0 29 1.5 41 4.5s24.333 7.5 37 13.5c-12 -34 -27.167 -57.833 -45.5 -71.5
s-40.5 -20.5 -66.5 -20.5zM71.0029 -25.0098c12.667 0 26.5 4.16797 41.5 12.501s30.833 19.5 47.5 33.5c-22 8.66699 -42.667 16 -62 22s-36.333 9 -51 9s-24.667 -2.33301 -30 -7s-8 -10.334 -8 -17.001c0 -10.667 5.66699 -22.167 17 -34.5s26.333 -18.5 45 -18.5z" />
    <glyph glyph-name="bracketleft" unicode="[" horiz-adv-x="408" 
d="M208 -87c-20.667 0 -42.5059 1.16602 -65.5059 3.49902s-44 5.33301 -63 9l-44.5 8.5c2 2.66699 3.83301 6.16699 5.5 10.5s3.83398 12.166 6.50098 23.499s6.33398 28.833 11.001 52.5l18.5 96l28.5 153.5l42 227c10 57.333 22.667 100.666 38 129.999
s31.333 49.333 48 60s32 16 46 16c8.66699 0 19.5 -0.5 32.5 -1.5s26.5 -1.5 40.5 -1.5c18 0 36 1.5 54 4.5s34.667 8.83301 50 17.5c-1.33301 -26 -7.16602 -45.167 -17.499 -57.5s-23.333 -20.166 -39 -23.499s-32.834 -5 -51.501 -5c-17.333 0 -35.166 2 -53.499 6
s-36.5 7.33301 -54.5 10c-9.33301 -27.333 -18.666 -60.5 -27.999 -99.5s-18.333 -81 -27 -126l-25 -135.5l-23 -130.5c-7.33301 -41.667 -14.166 -78.667 -20.499 -111s-12.166 -57.833 -17.499 -76.5c36 0 65.833 0.333008 89.5 1s44 1.66699 61 3s32.5 3.33301 46.5 6
s29 6.33398 45 11.001c-2 -27.333 -13.333 -47.666 -34 -60.999s-53.667 -20 -99 -20z" />
    <glyph glyph-name="backslash" unicode="\" horiz-adv-x="575" 
d="M453 -164c-30 6 -55.001 23.332 -75.001 51.999s-39 74 -57 136c-6.66699 23.333 -14.167 53 -22.5 89s-17 76 -26 120l-27.5 136l-28 136.5l-26.5 122.5c-8.33301 37.333 -16.166 68.333 -23.499 93c16.667 0 31.167 -5.33301 43.5 -16s20.5 -21 24.5 -31
c10 -26 20.5 -59.833 31.5 -101.5s22.333 -87.5 34 -137.5s23 -101.5 34 -154.5l33 -155c11 -50.333 21.667 -96.166 32 -137.499s20 -75.5 29 -102.5s17.167 -43.5 24.5 -49.5z" />
    <glyph glyph-name="bracketright" unicode="]" horiz-adv-x="426" 
d="M-5 -88c2 20 8.17188 35.333 18.5049 46s23.666 18.167 39.999 22.5s33.5 6.5 51.5 6.5c17.333 0 37.166 -1 59.499 -3s43.5 -3.66699 63.5 -5c11.333 32 22.666 71.833 33.999 119.5s22.5 98.834 33.5 153.501s21.333 108.834 31 162.501l27.5 147.5
c8.66699 44.667 16.334 80.667 23.001 108h-65c-36 0 -70.333 -1.33301 -103 -4s-65 -8.33398 -97 -17.001c0 30.667 11.5 50.334 34.5 59.001s54.5 13 94.5 13c27.333 0 55.666 -1.83301 84.999 -5.5s59 -8.83398 89 -15.501c-1.33301 -10.667 -3.83301 -28.5 -7.5 -53.5
l-13.5 -89l-17 -110c-6 -39 -12.333 -78 -19 -117l-19 -109.5l-16 -88c-2.66699 -15.333 -6.83398 -34.333 -12.501 -57s-13.334 -45.167 -23.001 -67.5s-22.167 -41 -37.5 -56s-34.666 -22.5 -57.999 -22.5c-35.333 0 -70.333 -0.833008 -105 -2.5
s-65.334 -6.83398 -92.001 -15.501z" />
    <glyph glyph-name="asciicircum" unicode="^" horiz-adv-x="205" 
d="M186 406c-9.33301 18.667 -20.0029 34.668 -32.0029 48.001s-25.667 27 -41 41c-19.333 -7.33301 -37.166 -15 -53.499 -23s-32.5 -18.333 -48.5 -31c-4 2.66699 -6.83301 6 -8.5 10s-2.5 7.33301 -2.5 10c0 10 4.5 20 13.5 30s20 19.5 33 28.5s25.833 16.167 38.5 21.5
s22.334 8 29.001 8c8 0 17.333 -3.66699 28 -11s20.834 -16.666 30.501 -27.999s17.667 -23.333 24 -36s9.5 -24.334 9.5 -35.001c0 -6.66699 -1.5 -12.834 -4.5 -18.501s-8.16699 -10.5 -15.5 -14.5z" />
    <glyph glyph-name="underscore" unicode="_" horiz-adv-x="859" 
d="M-14 -68c3.33301 23.333 19.6689 41.1699 49.002 53.5029s69.166 20.833 119.499 25.5s107.833 7 172.5 7c48 0 89.833 -0.833008 125.5 -2.5s68 -3.66699 97 -6s57.833 -4.5 86.5 -6.5s59.667 -3.33301 93 -4c-29.333 -20 -59 -33.333 -89 -40s-55.333 -10 -76 -10
c-58.667 0 -110.834 0.166992 -156.501 0.5s-85.167 0.666016 -118.5 0.999023s-61.333 0.5 -84 0.5c-23.333 -0.666992 -44 -1.33398 -62 -2.00098s-35 -1.83398 -51 -3.50098s-32.333 -3.66699 -49 -6s-35.667 -4.83301 -57 -7.5z" />
    <glyph glyph-name="grave" unicode="`" horiz-adv-x="129" 
d="M112 404c-15.333 19.333 -31.833 38.001 -49.5 56.001s-39.167 37.333 -64.5 58c1.33301 12.667 4.33301 21.5 9 26.5s10 7.5 16 7.5c10 0 21.167 -4.83301 33.5 -14.5s24 -21.5 35 -35.5s20 -27.5 27 -40.5s10.5 -22.5 10.5 -28.5c0 -3.33301 -1.33301 -8.33301 -4 -15
s-7 -11.334 -13 -14.001z" />
    <glyph glyph-name="a" unicode="a" horiz-adv-x="439" 
d="M51 -47c-21.333 0 -39.5029 7.00098 -54.5029 21.001s-22.5 35.333 -22.5 64c0 23.333 5.33301 48.833 16 76.5s25.334 55 44.001 82s39.834 51.5 63.501 73.5s48.834 39.667 75.501 53s53.334 20 80.001 20s49.167 -7 67.5 -21s27.5 -32.667 27.5 -56
c0 -16.667 -5.16699 -28.334 -15.5 -35.001s-23.166 -9.66699 -38.499 -9c1.33301 6 2.5 12 3.5 18s1.5 12 1.5 18c0 14.667 -3.33301 27.5 -10 38.5s-19 16.5 -37 16.5c-18.667 0 -37.667 -6.5 -57 -19.5s-37.833 -30.167 -55.5 -51.5s-33.5 -44.5 -47.5 -69.5
s-25 -49.5 -33 -73.5s-12 -45.667 -12 -65c0 -24.667 8.33301 -37 25 -37c15.333 0 32.166 7.33301 50.499 22s37 33.167 56 55.5s37.167 45.5 54.5 69.5l46 64c2 4 4 6 6 6c3.33301 -0.666992 8.33301 -2 15 -4s12.667 -5 18 -9s8 -9 8 -15s-2.83301 -14.167 -8.5 -24.5
l-20 -35c-7.66699 -13 -14.334 -26.167 -20.001 -39.5s-8.5 -25.666 -8.5 -36.999c0 -10 2.5 -19.5 7.5 -28.5s13.167 -13.5 24.5 -13.5c17.333 0 40.666 12.833 69.999 38.5s59 65.5 89 119.5l13 -13c-14.667 -36 -33 -67.833 -55 -95.5s-45.5 -49.167 -70.5 -64.5
s-49.833 -23 -74.5 -23c-25.333 0 -44.166 7.83301 -56.499 23.5s-18.5 32.5 -18.5 50.5c0 3.33301 0.166992 6.66602 0.5 9.99902s0.833008 7 1.5 11c-28 -36.667 -53.667 -64.5 -77 -83.5s-47.333 -28.5 -72 -28.5z" />
    <glyph glyph-name="b" unicode="b" horiz-adv-x="399" 
d="M97 -73c-36 0 -62.8291 11.501 -80.4961 34.501s-26.5 54.167 -26.5 93.5c0 33.333 5.66699 72.5 17 117.5s26.333 92.333 45 142s39.5 98 62.5 145s46.167 89.667 69.5 128s45.5 69 66.5 92s38.5 34.5 52.5 34.5c12 0 20.833 -7.16699 26.5 -21.5s8.5 -28.833 8.5 -43.5
c0 -18.667 -4 -41.334 -12 -68.001s-19.333 -55.167 -34 -85.5s-31.667 -60.166 -51 -89.499s-40.333 -56 -63 -80s-45.667 -43 -69 -57c-4.66699 -8 -10.667 -23.167 -18 -45.5s-14 -48 -20 -77s-9 -57.5 -9 -85.5c0 -26.667 4 -49.167 12 -67.5s22 -27.5 42 -27.5
c18.667 0 38.167 8 58.5 24s36.833 36 49.5 60c-24.667 12.667 -43.167 31.167 -55.5 55.5s-18.5 49.166 -18.5 74.499c0 32 8.5 57.833 25.5 77.5s37.5 29.5 61.5 29.5c20 0 36 -8 48 -24s18 -39.667 18 -71c0 -21.333 -2.83301 -43.333 -8.5 -66s-13.834 -45 -24.501 -67
c4 0 7.83301 -0.333008 11.5 -1s7.5 -1 11.5 -1c24 0 44.167 6 60.5 18s30 26.5 41 43.5s20.167 33.167 27.5 48.5l13 -16c-18 -44 -39.667 -74.333 -65 -91s-53 -25 -83 -25c-4.66699 0 -9.33398 0.166992 -14.001 0.5s-9.33398 0.833008 -14.001 1.5
c-18.667 -30.667 -41.334 -56.667 -68.001 -78s-58 -32 -94 -32zM236.004 74.001c7.33301 14.667 12.832 30.001 16.499 46.001s5.5 32.667 5.5 50c0 23.333 -3.16699 41.333 -9.5 54s-13.833 19 -22.5 19c-9.33301 0 -17.666 -6.5 -24.999 -19.5s-11 -29.167 -11 -48.5
c0 -16.667 3.5 -34.834 10.5 -54.501s18.833 -35.167 35.5 -46.5zM122.003 316.002c18 14.667 35.499 33.002 52.499 55.002s33 45.167 48 69.5s28.167 48.333 39.5 72s20.333 45.167 27 64.5s10.334 34 11.001 44c0 2.66699 -0.333008 4.5 -1 5.5
s-1.33398 1.83301 -2.00098 2.5c-5.33301 -0.666992 -15.333 -10.334 -30 -29.001s-31 -43.167 -49 -73.5s-35.667 -63.833 -53 -100.5s-31.666 -73.334 -42.999 -110.001z" />
    <glyph glyph-name="c" unicode="c" horiz-adv-x="326" 
d="M109 -56c-32.667 0 -59.833 10.6719 -81.5 32.0049s-32.5 53.666 -32.5 96.999c0 33.333 6.33301 65.833 19 97.5s29.667 60 51 85s45.166 45 71.499 60s52.5 22.5 78.5 22.5c27.333 0 46.333 -7.66699 57 -23s16 -32 16 -50c0 -18.667 -4.5 -35.834 -13.5 -51.501
s-21.167 -23.5 -36.5 -23.5c-11.333 0 -21 5.33301 -29 16c8.66699 5.33301 16.667 15.5 24 30.5s11 30.833 11 47.5c0 6.66699 -1.5 12 -4.5 16s-8.5 6 -16.5 6c-17.333 0 -35.5 -7.83301 -54.5 -23.5s-36.5 -35.834 -52.5 -60.501s-29 -50.834 -39 -78.501
s-15 -53.167 -15 -76.5c0 -20 4.83301 -38.5 14.5 -55.5s28.834 -25.5 57.501 -25.5c26 0 52.667 7.33301 80 22s52.666 35.5 75.999 62.5s42.333 58.833 57 95.5l15 -12c-15.333 -40.667 -36.666 -76.834 -63.999 -108.501s-57.333 -56.5 -90 -74.5s-65.667 -27 -99 -27z
" />
    <glyph glyph-name="d" unicode="d" horiz-adv-x="479" 
d="M62 -30c-11.333 0 -23.166 2.99902 -35.499 8.99902s-22.5 15.333 -30.5 28s-12 29 -12 49c0 22 5.33301 46.667 16 74s25 54.5 43 81.5s38.833 52 62.5 75s48.5 41.333 74.5 55s52 20.5 78 20.5c14.667 0 26 -2.5 34 -7.5s12 -12.833 12 -23.5
c0 -2.66699 -0.333008 -5.5 -1 -8.5s-2.33398 -5.83301 -5.00098 -8.5c-2.66699 4.66699 -7.33398 8.16699 -14.001 10.5s-14.334 3.5 -23.001 3.5c-21.333 0 -42.166 -6.5 -62.499 -19.5s-38.833 -29.667 -55.5 -50s-31.334 -42.333 -44.001 -66
s-22.5 -46.334 -29.5 -68.001s-10.5 -40.167 -10.5 -55.5c0 -14 3.16699 -25.167 9.5 -33.5s14.833 -12.5 25.5 -12.5c18 0 39.667 11 65 33s51.333 53.333 78 94s50.667 88.667 72 144l45.5 118c15.667 40 31.5 78.333 47.5 115s31.667 69.5 47 98.5s30 52 44 69
s26.333 25.5 37 25.5c6 0 11.333 -2.33301 16 -7s7 -10.667 7 -18c0 -11.333 -5.5 -29.666 -16.5 -54.999s-25.167 -55.666 -42.5 -90.999l-55.5 -115c-19.667 -41.333 -38.167 -83.5 -55.5 -126.5s-31.5 -84.833 -42.5 -125.5s-16.5 -78 -16.5 -112
c0 -18 1.16699 -31 3.5 -39s8.5 -12 18.5 -12c14 0 30.333 5.83301 49 17.5s37.334 28.5 56.001 50.5s35 48.667 49 80l15 -12c-13.333 -34.667 -31.166 -65.667 -53.499 -93s-46.166 -48.833 -71.499 -64.5s-49.666 -23.5 -72.999 -23.5c-26 0 -44 8.33301 -54 25
s-15 34.667 -15 54c0 11.333 1.5 25 4.5 41s6.83301 33.333 11.5 52c-21.333 -33.333 -43.833 -63.5 -67.5 -90.5s-46.834 -48 -69.501 -63s-44.334 -22.5 -65.001 -22.5z" />
    <glyph glyph-name="e" unicode="e" horiz-adv-x="336" 
d="M111 -44c-41.333 0 -72.668 11.334 -94.001 34.001s-32 50.667 -32 84c0 29.333 7.5 60.666 22.5 93.999s35 64.666 60 93.999s52.667 53 83 71s60.5 27 90.5 27c16 0 30.833 -4.16699 44.5 -12.5s20.5 -25.166 20.5 -50.499s-7.33301 -49 -22 -71
s-34.334 -41.667 -59.001 -59s-51.5 -31.5 -80.5 -42.5s-58.167 -18.167 -87.5 -21.5c-1.33301 -5.33301 -2.16602 -10.5 -2.49902 -15.5s-0.5 -10.167 -0.5 -15.5c0 -8 0.833008 -16.667 2.5 -26s5.33398 -18.333 11.001 -27s13.667 -15.667 24 -21s23.833 -8 40.5 -8
c28.667 0 57 8 85 24s54.167 37.167 78.5 63.5s44.833 55.5 61.5 87.5l15 -11c-18 -40 -41 -74.833 -69 -104.5s-58.5 -52.667 -91.5 -69s-66.5 -24.5 -100.5 -24.5zM63.998 128.001c18 4.66699 37.999 12.668 59.999 24.001s43.333 24.833 64 40.5s37.667 33 51 52
s20 38.833 20 59.5c0 7.33301 -1.33301 12.666 -4 15.999s-8 5 -16 5c-15.333 0 -31.833 -5.83301 -49.5 -17.5s-34.667 -27.167 -51 -46.5s-31.166 -40.5 -44.499 -63.5s-23.333 -46.167 -30 -69.5z" />
    <glyph glyph-name="f" unicode="f" horiz-adv-x="318" 
d="M-9 -280c-6.66699 0 -14.667 2.16797 -24 6.50098s-17.333 13 -24 26s-10 32.5 -10 58.5c0 28.667 4.83301 66.5 14.5 113.5s23.167 98.667 40.5 155s37.333 114.333 60 174s47.167 117.167 73.5 172.5s53.5 105.166 81.5 149.499s55.5 79.5 82.5 105.5
s52.833 39 77.5 39c15.333 0 25.333 -4.66699 30 -14s7 -20 7 -32c0 -28.667 -7.83301 -60 -23.5 -94s-36.5 -68.167 -62.5 -102.5s-54.833 -67 -86.5 -98s-63.834 -57.5 -96.501 -79.5c-3.33301 -7.33301 -6.33301 -15 -9 -23s-5.66699 -16 -9 -24
c7.33301 -1.33301 13.166 -5.33301 17.499 -12s6.83301 -13.667 7.5 -21c4.66699 -29.333 9.66699 -55.666 15 -78.999s13.5 -41.5 24.5 -54.5s26.833 -19.5 47.5 -19.5c23.333 0 43.333 8.5 60 25.5s34.334 41.167 53.001 72.5l18 -12
c-18.667 -40.667 -41 -70.334 -67 -89.001s-49 -28 -69 -28c-11.333 0 -23.5 2.83301 -36.5 8.5s-25.167 13.167 -36.5 22.5c0 -41.333 -4.5 -82.5 -13.5 -123.5s-21 -78.333 -36 -112s-31.667 -60.667 -50 -81s-37.166 -30.5 -56.499 -30.5zM18 -226.999
c7.33301 0 15.5 6.50098 24.5 19.501s17.833 30.167 26.5 51.5s16.5 44.833 23.5 70.5s12.667 51.167 17 76.5s6.5 48.333 6.5 69c0 20 -2.5 38.167 -7.5 54.5s-13.167 35.5 -24.5 57.5c-16 -48.667 -30.5 -95.667 -43.5 -141s-23 -86.333 -30 -123
s-10.5 -66.334 -10.5 -89.001c0 -30.667 6 -46 18 -46zM151 351.002c42.667 39.333 79.3301 78.334 109.997 117.001s54.334 73.167 71.001 103.5s25 51.833 25 64.5c0 8 -4 12 -12 12c-17.333 0 -36.666 -13.5 -57.999 -40.5s-43.666 -62.833 -66.999 -107.5
s-46.333 -94.334 -69 -149.001z" />
    <glyph glyph-name="g" unicode="g" horiz-adv-x="394" 
d="M42 -280c-15.333 0 -29.332 4.6709 -41.999 14.0039s-19 24.666 -19 45.999c0 20.667 6.16699 39.5 18.5 56.5s28.333 32.667 48 47s41 27.5 64 39.5l66.5 34c8.66699 21.333 16.834 44.5 24.501 69.5s15.167 52.167 22.5 81.5c-24.667 -34 -50.5 -62.333 -77.5 -85
s-54.167 -34 -81.5 -34c-25.333 0 -44.833 9.16699 -58.5 27.5s-20.5 42.166 -20.5 71.499c0 34.667 8.5 67.667 25.5 99s39.333 59 67 83s57 42.833 88 56.5s60.5 20.5 88.5 20.5c20 0 34.5 -3.33301 43.5 -10s13.5 -14.667 13.5 -24
c0 -6.66699 -1.83301 -11.834 -5.5 -15.501s-6.16699 -5.83398 -7.5 -6.50098c-4.66699 6 -10.334 10.167 -17.001 12.5s-15 3.5 -25 3.5c-26 0 -51.167 -7.66699 -75.5 -23s-45.666 -34.833 -63.999 -58.5s-33 -48.167 -44 -73.5s-16.5 -48.333 -16.5 -69
c0 -15.333 3.16699 -26.833 9.5 -34.5s14.5 -11.5 24.5 -11.5c18.667 0 41.5 12.5 68.5 37.5s53.167 55.5 78.5 91.5c1.33301 8 2.83301 15.167 4.5 21.5s3.5 14.166 5.5 23.499c3.33301 14.667 9.16602 28.334 17.499 41.001s20.833 19 37.5 19
c3.33301 0 6.83301 -0.333008 10.5 -1s7.83398 -1.66699 12.501 -3c0 -10.667 -3.16699 -30 -9.5 -58s-15.333 -60.667 -27 -98s-24.834 -75.666 -39.501 -114.999c21.333 10 42.666 23.167 63.999 39.5s40.666 35.5 57.999 57.5s31 46 41 72l15 -13
c-10.667 -30 -27 -57.5 -49 -82.5s-45.667 -46.5 -71 -64.5s-48.666 -32 -69.999 -42c-18 -44.667 -37.5 -85.334 -58.5 -122.001s-42.833 -66 -65.5 -88s-47 -33 -73 -33zM39.001 -242.996c12.667 0 30.167 12.5 52.5 37.5s46.5 67.833 72.5 128.5
c-26 -12.667 -50.167 -26 -72.5 -40s-40.5 -28.667 -54.5 -44s-21 -32 -21 -50c0 -10 2.16699 -17.833 6.5 -23.5s9.83301 -8.5 16.5 -8.5z" />
    <glyph glyph-name="h" unicode="h" horiz-adv-x="482" 
d="M47 -38c-13.333 0 -23.501 10.835 -30.501 32.502s-10.5 46.5 -10.5 74.5c0 31.333 5.16699 69 15.5 113s24.333 90.167 42 138.5s37.334 95.666 59.001 141.999s43.834 88.5 66.501 126.5s44.167 68.333 64.5 91s38.166 34 53.499 34
c12.667 0 21.834 -7.33301 27.501 -22s8.5 -29.334 8.5 -44.001c0 -18 -4.16699 -40.333 -12.5 -67s-19.833 -55.167 -34.5 -85.5s-31.667 -60 -51 -89s-40.5 -55.667 -63.5 -80s-46.167 -43.5 -69.5 -57.5c-8.66699 -20.667 -15.667 -42.334 -21 -65.001
s-9.16602 -44.5 -11.499 -65.5s-3.5 -40.167 -3.5 -57.5c0 -6 0.166992 -11.5 0.5 -16.5s0.5 -9.5 0.5 -13.5l25 63c9.33301 22.667 20 45 32 67s25.333 42 40 60s30.667 32.5 48 43.5s36.666 16.5 57.999 16.5c20 0 35.667 -4.83301 47 -14.5s19.666 -21.5 24.999 -35.5
s8 -28.333 8 -43c0 -21.333 -3.5 -41.5 -10.5 -60.5s-14.167 -37.167 -21.5 -54.5s-11 -34 -11 -50c0 -13.333 2.83301 -22.666 8.5 -27.999s12.5 -8 20.5 -8c15.333 0 32.5 7.33301 51.5 22s38 34.167 57 58.5s35.5 50.833 49.5 79.5l14 -14
c-14.667 -32.667 -32.167 -62.5 -52.5 -89.5s-42.5 -48.333 -66.5 -64s-49.667 -23.5 -77 -23.5c-23.333 0 -41.166 6.16699 -53.499 18.5s-18.5 27.833 -18.5 46.5c0 14 2.66699 29.667 8 47l15.5 52.5c5 17.667 7.5 34.167 7.5 49.5c0 17.333 -3.66699 29.333 -11 36
s-16.333 10 -27 10c-16.667 0 -31.667 -6.5 -45 -19.5s-25.333 -30 -36 -51s-20.834 -43.167 -30.501 -66.5l-28 -66c-9 -20.667 -18 -37.667 -27 -51s-18.833 -20 -29.5 -20zM126.999 316.002c18.667 14.667 36.5 33.165 53.5 55.498s32.833 45.833 47.5 70.5
s27.834 48.834 39.501 72.501s20.667 45.167 27 64.5s9.5 33.666 9.5 42.999c0 2.66699 -0.166992 4.33398 -0.5 5.00098s-0.833008 1.33398 -1.5 2.00098c-4.66699 0 -14 -8.83301 -28 -26.5s-30 -41.334 -48 -71.001s-35.833 -63.167 -53.5 -100.5
s-32.834 -75.666 -45.501 -114.999z" />
    <glyph glyph-name="i" unicode="i" horiz-adv-x="242" 
d="M75 -27c-27.333 0 -47.666 8.33105 -60.999 24.998s-20 36.667 -20 60c0 15.333 2.83301 34.666 8.5 57.999s13.167 47.833 22.5 73.5s20.166 49.834 32.499 72.501s25.666 41.167 39.999 55.5s28.5 21.5 42.5 21.5c6.66699 0 12.334 -2 17.001 -6s7 -10 7 -18
s-5.16699 -21 -15.5 -39l-36 -61.5c-13.667 -23 -25.667 -47.167 -36 -72.5s-15.5 -49.333 -15.5 -72c0 -23.333 3.83301 -38.833 11.5 -46.5s19.5 -11.5 35.5 -11.5c22.667 0 47 11.333 73 34s53.333 62.334 82 119.001l11 -12c-20.667 -57.333 -49 -101.666 -85 -132.999
s-74 -47 -114 -47zM194 427.998c-11.333 0 -21.501 2.83301 -30.501 8.5s-13.5 14.5 -13.5 26.5c0 14.667 8.33301 27.334 25 38.001s33.334 16 50.001 16c10.667 0 19.5 -2.33301 26.5 -7s10.5 -13.334 10.5 -26.001s-7.16699 -25.167 -21.5 -37.5
s-29.833 -18.5 -46.5 -18.5z" />
    <glyph glyph-name="j" unicode="j" horiz-adv-x="221" 
d="M-138 -280c-17.333 0 -30.999 5 -40.999 15s-15 23 -15 39c0 24.667 12 51.334 36 80.001s54.333 53.667 91 75c10 6 20.333 11.5 31 16.5l35 16.5c12.667 30 24.334 64.333 35.001 103s20 81.334 28 128.001c-8 -14.667 -15.833 -28 -23.5 -40l-19.5 -31l-11 19
c11.333 21.333 21.5 43.833 30.5 67.5l26.5 67.5c8.66699 21.333 17.334 38.666 26.001 51.999s18.667 20 30 20c8 0 14.333 -3 19 -9s7 -13.667 7 -23c0 -7.33301 -1.83301 -21.333 -5.5 -42s-8.83398 -45.834 -15.501 -75.501s-14.834 -61.834 -24.501 -96.501
s-20.167 -69.667 -31.5 -105c19.333 10.667 38.5 22.167 57.5 34.5s38 28.5 57 48.5s37.833 46.667 56.5 80l15 -9c-18 -40 -38.5 -71.667 -61.5 -95s-46.333 -41.5 -70 -54.5s-45.834 -25.833 -66.501 -38.5c-14.667 -40.667 -32 -79.667 -52 -117s-42 -67.666 -66 -90.999
s-50 -35 -78 -35zM-147.999 -241c13.333 0 32 13.667 56 41s48.667 68.333 74 123c-48.667 -24 -85 -48.667 -109 -74s-36 -48.333 -36 -69c0 -8 1.5 -13.5 4.5 -16.5s6.5 -4.5 10.5 -4.5zM136.001 433c-11.333 0 -21.333 2.83301 -30 8.5s-13 14.167 -13 25.5
c0 10 4 19.167 12 27.5s17.833 15 29.5 20s23.167 7.5 34.5 7.5c10 0 18.5 -2.5 25.5 -7.5s10.5 -12.5 10.5 -22.5c0 -15.333 -7 -29 -21 -41s-30 -18 -48 -18z" />
    <glyph glyph-name="k" unicode="k" horiz-adv-x="451" 
d="M304 -38c-19.333 0 -35.999 6.49414 -49.999 19.4941s-25.167 29.167 -33.5 48.5s-14.5 39.333 -18.5 60s-6 38.667 -6 54c8 0.666992 19 2.83398 33 6.50098s28.333 9.33398 43 17.001s27 17.334 37 29.001s15 25.5 15 41.5c0 13.333 -4.5 23.833 -13.5 31.5
s-20.5 11.5 -34.5 11.5c-20 0 -38.667 -6.83301 -56 -20.5s-33.166 -31.5 -47.499 -53.5s-27.333 -45.5 -39 -70.5s-21.667 -49 -30 -72l-20.5 -57.5c-5.33301 -14.667 -11.5 -24.667 -18.5 -30s-15.167 -8 -24.5 -8s-16.666 3.5 -21.999 10.5s-9.16602 17.167 -11.499 30.5
s-3.5 29 -3.5 47c0 36.667 5.66699 78.167 17 124.5s26.5 94.166 45.5 143.499s39.833 97 62.5 143s45.5 87.667 68.5 125s44.333 66.833 64 88.5s35.834 32.5 48.501 32.5c10 0 18.167 -6.5 24.5 -19.5s9.5 -29.167 9.5 -48.5c0 -22.667 -5 -48 -15 -76
s-24.167 -56.333 -42.5 -85s-40.166 -55.667 -65.499 -81s-52.666 -47 -81.999 -65c-21.333 -50 -37.333 -99.167 -48 -147.5s-16.334 -89.5 -17.001 -123.5c11.333 27.333 24.5 56.333 39.5 87s32 60 51 88s39.667 50.833 62 68.5s45.833 26.5 70.5 26.5
c25.333 0 47.166 -9 65.499 -27s27.5 -39.667 27.5 -65c0 -21.333 -5.5 -39.333 -16.5 -54s-24.333 -26.667 -40 -36s-31.334 -16.166 -47.001 -20.499s-28.834 -6.83301 -39.501 -7.5l7 -30c3.33301 -14 8.16602 -28.167 14.499 -42.5s14.166 -26.666 23.499 -36.999
s20.666 -15.5 33.999 -15.5c18 0 35.833 7.5 53.5 22.5s34.5 34.833 50.5 59.5s30.667 52.334 44 83.001l11 -12c-10 -33.333 -24.667 -64.666 -44 -93.999s-40.833 -53.333 -64.5 -72s-47.5 -28 -71.5 -28zM159.001 388.994c26 21.333 50.001 46.5 72.001 75.5
s39.667 57.667 53 86s20 52.166 20 71.499v4.5c0 1 -0.666992 1.83301 -2 2.5c-6.66699 -1.33301 -17.834 -13.166 -33.501 -35.499s-33.167 -51.5 -52.5 -87.5s-38.333 -75 -57 -117z" />
    <glyph glyph-name="l" unicode="l" horiz-adv-x="239" 
d="M84 -30c-29.333 0 -50.168 10 -62.501 30s-18.5 44.667 -18.5 74c0 32 6 70 18 114s27.833 90.333 47.5 139s41.167 96.167 64.5 142.5s46.833 88.333 70.5 126s45.334 67.834 65.001 90.501s35.5 34 47.5 34c8 0 14.5 -4.33301 19.5 -13s9 -18.834 12 -30.501
s4.5 -22.5 4.5 -32.5c0 -18 -4.5 -41.5 -13.5 -70.5s-21.667 -61.167 -38 -96.5s-35.666 -71.166 -57.999 -107.499s-46.833 -71 -73.5 -104s-54.667 -61.5 -84 -85.5c-4 -18 -7.16699 -35.333 -9.5 -52s-3.5 -32.334 -3.5 -47.001c0 -25.333 3.83301 -44 11.5 -56
s18.5 -18 32.5 -18c17.333 0 34.833 7.83301 52.5 23.5s34.5 35.667 50.5 60s29.667 49.5 41 75.5l18 -9c-27.333 -58 -57.333 -103.667 -90 -137s-67.334 -50 -104.001 -50zM96.998 223c22.667 24 44.832 50.832 66.499 80.499s41.667 60.5 60 92.5s34.5 62.833 48.5 92.5
s24.833 56.334 32.5 80.001s11.5 42.167 11.5 55.5c0 4.66699 -0.5 7.66699 -1.5 9s-2.16699 2.33301 -3.5 3c-5.33301 0 -14.166 -8.16699 -26.499 -24.5s-27 -38.5 -44 -66.5s-34.333 -59.667 -52 -95s-34.5 -72.5 -50.5 -111.5s-29.667 -77.5 -41 -115.5z" />
    <glyph glyph-name="m" unicode="m" horiz-adv-x="651" 
d="M510 -31c-24 0 -41.6582 7.3291 -52.9912 21.9961s-17 32.334 -17 53.001c0 16 2.5 32.167 7.5 48.5l14.5 48c4.66699 15.667 7 29.5 7 41.5c0 12.667 -2.66699 21.5 -8 26.5s-11.666 7.5 -18.999 7.5c-16 0 -34 -12.5 -54 -37.5s-45.333 -60.833 -76 -107.5
c-10.667 -16 -20 -32.333 -28 -49l-22 -44c-6 0 -13.167 0.666992 -21.5 2s-15.833 3.66602 -22.5 6.99902s-10 7.66602 -10 12.999c0 4.66699 3.16699 15.834 9.5 33.501l22 61.5c8.33301 23.333 15.833 46.833 22.5 70.5s10 43.834 10 60.501
c0 10.667 -1.83301 19.334 -5.5 26.001s-9.83398 10 -18.501 10c-14.667 0 -32.167 -8.66699 -52.5 -26s-41.333 -40.166 -63 -68.499s-42.334 -59.333 -62.001 -93s-35.5 -67.5 -47.5 -101.5c-6 0 -13.667 1.16699 -23 3.5s-17.5 5.33301 -24.5 9s-10.5 7.16699 -10.5 10.5
c0 2.66699 3.16699 13.667 9.5 33s13.5 42.833 21.5 70.5s15.667 55.834 23 84.501s11.666 53.667 12.999 75c3.33301 6 10 11.5 20 16.5s19.667 7.5 29 7.5s16.666 -2.66699 21.999 -8s8 -12.333 8 -21c0 -8 -2.16699 -21 -6.5 -39s-9.5 -38.333 -15.5 -61
c13.333 20.667 28.333 41.5 45 62.5s34 40.167 52 57.5s36.167 31.333 54.5 42s36.166 16 53.499 16c22 0 37 -8 45 -24s12 -34.333 12 -55c0 -14 -1.33301 -28.5 -4 -43.5s-6 -29 -10 -42s-8 -24.5 -12 -34.5c13.333 22.667 28.166 44.5 44.499 65.5
s34.166 38.167 53.499 51.5s39.666 20 60.999 20c22.667 0 38.5 -6.83301 47.5 -20.5s13.5 -29.5 13.5 -47.5c0 -17.333 -3 -36 -9 -56l-18 -58c-6 -18.667 -9 -34.667 -9 -48c0 -8 2 -15.333 6 -22s11.333 -10 22 -10c18.667 0 36.167 8.5 52.5 25.5
s31.666 37.667 45.999 62s26.5 47.833 36.5 70.5l13 -17c-10.667 -27.333 -24.334 -55 -41.001 -83s-36.167 -51.167 -58.5 -69.5s-47.5 -27.5 -75.5 -27.5z" />
    <glyph glyph-name="n" unicode="n" horiz-adv-x="468" 
d="M328 -20c-24.667 0 -43.167 6.16992 -55.5 18.5029s-18.5 28.166 -18.5 47.499c0 13.333 2.5 27.666 7.5 42.999s9.83301 31 14.5 47s7 31.333 7 46c0 17.333 -3.66699 29.333 -11 36s-16.333 10 -27 10c-20.667 0 -41.667 -8.33301 -63 -25s-41.833 -38 -61.5 -64
s-38.167 -52.667 -55.5 -80l-46 -74c-11.333 0 -22.166 2 -32.499 6s-18.5 10 -24.5 18c0 3.33301 3.5 13.666 10.5 30.999l24.5 63c9.33301 24.667 17.5 50.334 24.5 77.001s10.5 50.667 10.5 72c4 5.33301 10.5 10.333 19.5 15s18.5 7 28.5 7c20 0 30 -9 30 -27
c0 -10 -2.5 -25.833 -7.5 -47.5s-11.5 -45.167 -19.5 -70.5c17.333 26 37 51.5 59 76.5s45.167 45.667 69.5 62s48.5 24.5 72.5 24.5c27.333 0 47.166 -9.5 59.499 -28.5s18.5 -39.833 18.5 -62.5c0 -20.667 -3.33301 -39.667 -10 -57s-13.5 -34 -20.5 -50
s-10.5 -32 -10.5 -48c0 -13.333 2.83301 -22.5 8.5 -27.5s12.167 -7.5 19.5 -7.5c16.667 0 33.5 7.66699 50.5 23s33.333 35 49 59s29.5 48.333 41.5 73l13 -14c-14 -32.667 -29.833 -61.834 -47.5 -87.501s-37 -46.167 -58 -61.5s-44.167 -23 -69.5 -23z" />
    <glyph glyph-name="o" unicode="o" horiz-adv-x="367" 
d="M68 -32c-29.333 0 -49.832 9.16797 -61.499 27.501s-17.5 39.833 -17.5 64.5c0 20.667 3.33301 42.167 10 64.5s15.667 43.166 27 62.499s24 34.833 38 46.5s28 17.5 42 17.5c4 0 8.16699 -0.5 12.5 -1.5s8.16602 -2.5 11.499 -4.5
c-6.66699 -7.33301 -14.167 -18.166 -22.5 -32.499s-16.166 -30.333 -23.499 -48s-13.333 -35.334 -18 -53.001s-7 -32.834 -7 -45.501c0 -18 3.16699 -31.5 9.5 -40.5s15.166 -13.5 26.499 -13.5c13.333 0 29.333 7.5 48 22.5s37 33.167 55 54.5
c-19.333 16.667 -34 37.167 -44 61.5s-15 50.833 -15 79.5c0 19.333 3.66699 38.333 11 57s18.5 34.167 33.5 46.5s33.833 18.5 56.5 18.5c28 0 47 -7.5 57 -22.5s15 -33.5 15 -55.5c0 -26 -6.33301 -54.667 -19 -86s-28.667 -61.333 -48 -90
c10.667 -5.33301 22.334 -8 35.001 -8c10.667 0 22.667 2.16699 36 6.5s26.666 11.833 39.999 22.5s24 25.334 32 44.001l14 -11c-14 -32.667 -33.167 -55.834 -57.5 -69.501s-47.833 -20.5 -70.5 -20.5c-8.66699 0 -17 0.833008 -25 2.5s-15.667 3.83398 -23 6.50098
c-22.667 -28.667 -48 -53 -76 -73s-55.333 -30 -82 -30zM219.001 117.001c16 24.667 29.665 50.333 40.998 77s17 52 17 76c0 18 -2.66699 31.167 -8 39.5s-12.666 12.5 -21.999 12.5c-12.667 0 -26 -9.5 -40 -28.5s-21 -42.833 -21 -71.5c0 -17.333 2.83301 -36 8.5 -56
s13.834 -36.333 24.501 -49z" />
    <glyph glyph-name="p" unicode="p" horiz-adv-x="398" 
d="M-61 -280c-5.33301 0 -10.666 2.33496 -15.999 7.00195s-9.5 9.83398 -12.5 15.501s-4.83301 9.5 -5.5 11.5l33 100.5c10 29 19.333 57.667 28 86s16.834 60.333 24.501 96s15.667 79 24 130s17.166 113.5 26.499 187.5c0.666992 6.66699 2 11.5 4 14.5
s7.33301 4.5 16 4.5c18.667 0 32 -5 40 -15s12 -21 12 -33c0 -8.66699 -1.66699 -23.834 -5 -45.501s-8.33301 -47.167 -15 -76.5c12 21.333 26.333 42.5 43 63.5s35.667 38.333 57 52s44.666 20.5 69.999 20.5c30 0 55 -10.667 75 -32s30 -49.333 30 -84
c0 -26 -5.83301 -53.5 -17.5 -82.5s-28.167 -56.333 -49.5 -82s-46.5 -46.5 -75.5 -62.5s-61.167 -24 -96.5 -24c-18.667 0 -33.667 2.16699 -45 6.5s-17 9.16602 -17 14.499c0 3.33301 2.5 5.16602 7.5 5.49902s10.833 0.5 17.5 0.5c28 0.666992 54.5 7.33398 79.5 20.001
s47 29.5 66 50.5s33.833 44.167 44.5 69.5s16 50 16 74c0 21.333 -4.5 39.333 -13.5 54s-23.5 22 -43.5 22c-16.667 0 -33.5 -5.33301 -50.5 -16s-33 -24.5 -48 -41.5s-28.333 -34.5 -40 -52.5s-20.5 -34 -26.5 -48l-35 -140.5c-11.333 -45.667 -22.333 -87.167 -33 -124.5
s-20.5 -68.333 -29.5 -93s-17.5 -40.334 -25.5 -47.001c-4 -4 -8.66699 -6 -14 -6z" />
    <glyph glyph-name="q" unicode="q" horiz-adv-x="406" 
d="M201 -280c-9.33301 0 -17.8301 5.16699 -25.4971 15.5s-11.5 30.166 -11.5 59.499c0 22.667 2.16699 50.667 6.5 84s10.666 68.666 18.999 105.999s17.833 72.666 28.5 105.999c-26.667 -36 -53.167 -65.5 -79.5 -88.5s-51.5 -34.5 -75.5 -34.5c-11.333 0 -23 3 -35 9
s-22.167 15.333 -30.5 28s-12.5 29.667 -12.5 51c0 23.333 5.5 48.5 16.5 75.5s25.833 53.833 44.5 80.5s40.167 50.834 64.5 72.501s50 39.167 77 52.5s54.167 20 81.5 20c23.333 0 43 -4.83301 59 -14.5s24 -21.834 24 -36.501c0 -6 -1.5 -12.333 -4.5 -19
s-7.5 -11.667 -13.5 -15c-4 -2.66699 -10 -3.33398 -18 -2.00098c0 14.667 -4.5 27 -13.5 37s-23.167 15 -42.5 15c-22.667 0 -44 -6.33301 -64 -19s-38.167 -29 -54.5 -49s-30.666 -41.667 -42.999 -65s-21.833 -45.666 -28.5 -66.999s-10 -39.666 -10 -54.999
c0 -14 3 -25.333 9 -34s14.333 -13 25 -13c13.333 0 27.5 6.33301 42.5 19s30.667 29.334 47 50.001s32.666 43.334 48.999 68.001l47.5 73c5.33301 8 10.166 14 14.499 18s8.83301 7.66699 13.5 11c6 3.33301 12.667 4.33301 20 3s12.333 -3.33301 15 -6c4 -4 6 -9 6 -15
c0 -12 -5.33301 -26.833 -16 -44.5s-22.834 -40 -36.501 -67s-25.167 -60.5 -34.5 -100.5c28 2.66699 56.333 13.834 85 33.501s55.334 53.5 80.001 101.5l14 -13c-22.667 -50 -50.5 -86.167 -83.5 -108.5s-65.5 -35.5 -97.5 -39.5
c5.33301 -16.667 9.5 -34.334 12.5 -53.001s4.5 -37.667 4.5 -57c0 -32 -3.16699 -61 -9.5 -87s-15.333 -46.833 -27 -62.5s-24.834 -23.5 -39.501 -23.5zM226.003 -222c5.33301 0 9.5 6.16699 12.5 18.5s5.33301 28.166 7 47.499s2.5 38.333 2.5 57
c0 12.667 -0.333008 24.167 -1 34.5s-2 20.5 -4 30.5c-8 -32 -13.833 -62.167 -17.5 -90.5s-5.5 -52.166 -5.5 -71.499c0 -8.66699 0.5 -15.167 1.5 -19.5s2.5 -6.5 4.5 -6.5z" />
    <glyph glyph-name="r" unicode="r" horiz-adv-x="353" 
d="M177 -26c-23.333 0 -41.833 6.16895 -55.5 18.502s-20.5 28.5 -20.5 48.5s4.66699 40.833 14 62.5l27.5 64.5c9 21.333 13.5 40.333 13.5 57c0 19.333 -5.66699 34.166 -17 44.499s-23.666 19.5 -36.999 27.5c-14.667 -38 -30.667 -74.5 -48 -109.5
s-31.333 -61.833 -42 -80.5l-11 21c9.33301 17.333 21.5 42.5 36.5 75.5s29.833 70.167 44.5 111.5c-6.66699 6.66699 -10 15 -10 25c0 19.333 5.5 35.666 16.5 48.999s19.833 20 26.5 20c8 0 12.833 -3.5 14.5 -10.5s2.5 -12.167 2.5 -15.5s-1.66699 -9.66602 -5 -18.999
s-5.33301 -15.333 -6 -18c0.666992 -8.66699 6.16699 -16.834 16.5 -24.501l36 -25.5c13.667 -9.33301 25.667 -21 36 -35s15.5 -31.667 15.5 -53c0 -19.333 -4.16699 -39.333 -12.5 -60s-16.666 -40 -24.999 -58s-12.5 -34 -12.5 -48
c0 -10.667 2.83301 -17.834 8.5 -21.501s12.167 -5.5 19.5 -5.5c16 0 32.5 4.83301 49.5 14.5s33.667 22.167 50 37.5s30.833 31.5 43.5 48.5s22 32.833 28 47.5l17 -13c-12.667 -28 -30.334 -55.667 -53.001 -83s-47.834 -49.666 -75.501 -66.999s-56.167 -26 -85.5 -26z
" />
    <glyph glyph-name="s" unicode="s" horiz-adv-x="347" 
d="M109 -51c-32 0 -57.502 6.83301 -76.502 20.5s-32.5 30.667 -40.5 51s-12 40.833 -12 61.5c0 20 2.66699 35.333 8 46s11.833 18.5 19.5 23.5s15 8.83301 22 11.5s12.167 5.66699 15.5 9c18.667 20 36.5 41.833 53.5 65.5s31.833 49.167 44.5 76.5v11
c0 25.333 4.33301 43.333 13 54s18 16 28 16c6 0 10.5 -1.5 13.5 -4.5s4.83301 -6.5 5.5 -10.5c0 -4 -1 -9.33301 -3 -16s-3 -15.334 -3 -26.001c0 -21.333 4.5 -44.833 13.5 -70.5l27 -81c9 -28.333 13.5 -57.833 13.5 -88.5c0 -8 -0.5 -16 -1.5 -24
s-2.16699 -15.333 -3.5 -22c22 4.66699 43.333 15.5 64 32.5s40.334 43.833 59.001 80.5l10 -10c-12.667 -36.667 -31.5 -65.167 -56.5 -85.5s-52.833 -33.166 -83.5 -38.499c-10.667 -28 -27.667 -48.667 -51 -62s-49.666 -20 -78.999 -20zM107.998 -13
c10 0 21.332 2.83496 33.999 8.50195s22.334 18.167 29.001 37.5c-27.333 5.33301 -52 16.166 -74 32.499s-38.333 32.5 -49 48.5c-13.333 -0.666992 -20 -11.334 -20 -32.001c0 -23.333 7 -45 21 -65s33.667 -30 59 -30zM176.997 53.002
c1.33301 6 2.33203 12.4971 2.99902 19.4971s1 14.5 1 22.5c0 30.667 -3.83301 61.334 -11.5 92.001s-14.5 60 -20.5 88c-14 -23.333 -29.333 -46.666 -46 -69.999s-32.667 -42.666 -48 -57.999c10.667 -20 26.334 -39 47.001 -57s45.667 -30.333 75 -37z" />
    <glyph glyph-name="t" unicode="t" horiz-adv-x="286" 
d="M87 -46c-28.667 0 -51.167 8.50293 -67.5 25.5029s-24.5 42.167 -24.5 75.5c0 28.667 5.33301 64.167 16 106.5s24.334 85.833 41.001 130.5c-6 1.33301 -12 2.5 -18 3.5s-12 2.5 -18 4.5v22l22 -2c7.33301 -0.666992 15.333 -1.33398 24 -2.00098
c14 36 29 70.667 45 104s32 63.166 48 89.499s31.167 47.166 45.5 62.499s26.833 23 37.5 23c5.33301 0 10.5 -2 15.5 -6s7.5 -10 7.5 -18c0 -12 -7 -30.667 -21 -56l-51.5 -90c-20.333 -34.667 -40.166 -72 -59.499 -112h18h17c24.667 0 49 0.333008 73 1
s48.333 2.33398 73 5.00098v-23c-36.667 -3.33301 -69.667 -6 -99 -8s-56.333 -3.33301 -81 -4h-7h-7c-14.667 -34 -27.334 -69.167 -38.001 -105.5s-16 -71.833 -16 -106.5c0 -28 4.33301 -48 13 -60s22.667 -18 42 -18c34.667 0 68.834 15.167 102.501 45.5
s63.5 71.833 89.5 124.5l13 -10c-16.667 -38 -37.334 -72.333 -62.001 -103s-51.834 -54.834 -81.501 -72.501s-60.167 -26.5 -91.5 -26.5z" />
    <glyph glyph-name="u" unicode="u" horiz-adv-x="439" 
d="M75 -30c-22.667 0 -40.8311 10.3379 -54.498 31.0049s-20.5 44.334 -20.5 71.001c0 19.333 3 41.666 9 66.999s13.833 50.166 23.5 74.499s19.5 44.5 29.5 60.5s19 24 27 24c3.33301 0 9.33301 -2 18 -6s16 -9.33301 22 -16c-7.33301 -11.333 -16.333 -28.333 -27 -51
s-20 -47.167 -28 -73.5s-12 -50.5 -12 -72.5c0 -4.66699 0.666992 -12.334 2 -23.001s4.5 -20.334 9.5 -29.001s12.5 -13 22.5 -13c12.667 0 25.5 6.5 38.5 19.5s26.333 29.667 40 50s27 42.166 40 65.499s24.833 46 35.5 68l27 55
c4.66699 -0.666992 11.167 -2.16699 19.5 -4.5s15.833 -5.33301 22.5 -9s10 -8.83398 10 -15.501c0 -2.66699 -3.33301 -11.334 -10 -26.001s-14.334 -32.5 -23.001 -53.5s-16.334 -42.333 -23.001 -64s-10 -40.834 -10 -57.501c0 -11.333 2.33301 -20.5 7 -27.5
s12.667 -10.5 24 -10.5c14 0 30.833 6.33301 50.5 19s39.834 31 60.501 55s39 53 55 87l14 -10c-14 -36 -32.5 -68 -55.5 -96s-47.333 -49.833 -73 -65.5s-50.834 -23.5 -75.501 -23.5c-18 0 -32 3.66699 -42 11s-17 17.166 -21 29.499s-6.33301 25.5 -7 39.5
c0 6.66699 0.5 13.334 1.5 20.001s2.16699 13.334 3.5 20.001c-12 -20.667 -24.833 -40.167 -38.5 -58.5s-28.167 -33.166 -43.5 -44.499s-31.333 -17 -48 -17z" />
    <glyph glyph-name="v" unicode="v" horiz-adv-x="408" 
d="M68 -39c-22 0 -37.334 10.498 -46.001 31.498s-13 48.167 -13 81.5c0 3.33301 0.333008 14.833 1 34.5s2.33398 50.5 5.00098 92.5c0.666992 18.667 2.5 31.5 5.5 38.5s12.5 10.5 28.5 10.5c12.667 0 20.5 -2.5 23.5 -7.5s4.5 -14.833 4.5 -29.5
c0 -21.333 -1.33301 -45.666 -4 -72.999s-4 -53.333 -4 -78c0 -20 1.5 -34.5 4.5 -43.5s8.83301 -13.5 17.5 -13.5c12 0 25.167 6.66699 39.5 20s29 30.833 44 52.5s29.167 44.834 42.5 69.501s25.333 48.667 36 72c1.33301 45.333 6.33301 75.5 15 90.5
s19.667 22.5 33 22.5c14 0 23.833 -4.83301 29.5 -14.5s8.5 -18.167 8.5 -25.5c0 -9.33301 -2.66699 -18.333 -8 -27s-11 -20.667 -17 -36s-9 -38 -9 -68c0 -10 1 -20.833 3 -32.5s6.33301 -21.5 13 -29.5s16.667 -12 30 -12c14 0 27.333 5.5 40 16.5s25.667 30.167 39 57.5
l12 -9c-14.667 -34.667 -31.167 -58.167 -49.5 -70.5s-35.5 -18.5 -51.5 -18.5c-22 0 -40.167 8.16699 -54.5 24.5s-24.5 39.833 -30.5 70.5c-16 -31.333 -34.5 -62 -55.5 -92s-43 -55 -66 -75s-45.167 -30 -66.5 -30z" />
    <glyph glyph-name="w" unicode="w" horiz-adv-x="622" 
d="M285 -39c-21.333 0 -35.8242 9.66602 -43.4912 28.999s-11.834 42.333 -12.501 69c0.666992 12 1.5 25.5 2.5 40.5s2.16699 29.167 3.5 42.5c-14.667 -28 -30.334 -55.167 -47.001 -81.5s-34.334 -48 -53.001 -65s-38.334 -25.5 -59.001 -25.5c-22.667 0 -41 10 -55 30
s-21 44 -21 72c0 19.333 3.16699 41.666 9.5 66.999s14.166 50.166 23.499 74.499s19 44.5 29 60.5s19 24 27 24c3.33301 0 10.5 -2 21.5 -6s17.167 -9.66699 18.5 -17c-7.33301 -10.667 -16.333 -27.5 -27 -50.5s-20 -47.667 -28 -74s-12 -50.166 -12 -71.499
c0 -5.33301 0.666992 -13.166 2 -23.499s4.5 -19.833 9.5 -28.5s12.5 -13 22.5 -13c15.333 0 31.5 9.5 48.5 28.5s34 42.833 51 71.5s33.167 57.667 48.5 87c5.33301 28 9.83301 48.333 13.5 61s7.66699 20.834 12 24.501s9.5 5.5 15.5 5.5c10 0 17.833 -2.16699 23.5 -6.5
s8.5 -10.5 8.5 -18.5c0 -0.666992 -0.333008 -2.5 -1 -5.5s-1.33398 -5.5 -2.00098 -7.5c-4 -15.333 -8 -34.333 -12 -57s-7.33301 -46.5 -10 -71.5s-4 -48.833 -4 -71.5c0 -15.333 1.5 -27.333 4.5 -36s8.5 -13 16.5 -13c10 0 21.5 6 34.5 18s26.5 27.833 40.5 47.5
s27.667 41.167 41 64.5s25.333 46.666 36 69.999c0 34.667 2.5 61.167 7.5 79.5s11.5 30.833 19.5 37.5s16.333 10 25 10c14 0 24 -4.83301 30 -14.5s9 -18.167 9 -25.5c0 -5.33301 -1.33301 -10.5 -4 -15.5s-5.33398 -10.5 -8.00098 -16.5
c-5.33301 -10 -10.5 -22.5 -15.5 -37.5s-7.5 -35.167 -7.5 -60.5c0 -10.667 1.16699 -22 3.5 -34s6.66602 -21.833 12.999 -29.5s16.166 -11.5 29.499 -11.5s26.5 5.33301 39.5 16s26.167 30 39.5 58l15 -11c-14.667 -34 -31 -57 -49 -69s-35.333 -18 -52 -18
c-21.333 0 -39.333 7.33301 -54 22s-25.667 35.334 -33 62.001c-16.667 -30 -35.167 -59.333 -55.5 -88s-41.5 -52.167 -63.5 -70.5s-43.667 -27.5 -65 -27.5z" />
    <glyph glyph-name="x" unicode="x" horiz-adv-x="422" 
d="M48 -59c-4 0 -7.16699 1.66602 -9.5 4.99902s-3.5 7.33301 -3.5 12c0 8 7 22.167 21 42.5s32.167 44.333 54.5 72s46.5 55.834 72.5 84.501c-3.33301 31.333 -7.66602 57.666 -12.999 78.999s-15.666 32 -30.999 32s-29.333 -7.16699 -42 -21.5s-25 -32.333 -37 -54
l-39 -67.5l-12 20c9.33301 17.333 18.166 35.666 26.499 54.999s17.666 37.333 27.999 54s22.833 30.334 37.5 41.001s33 16 55 16c26 0 45.333 -8.66699 58 -26s22 -39.333 28 -66c30.667 32 58.5 58.833 83.5 80.5s42.167 32.5 51.5 32.5c3.33301 0 8.5 -1.33301 15.5 -4
s10.833 -6.66699 11.5 -12c-7.33301 0 -19.166 -6.33301 -35.499 -19s-34.833 -29.5 -55.5 -50.5s-42.334 -44.5 -65.001 -70.5c2 -16 3.83301 -33.5 5.5 -52.5s4 -36.833 7 -53.5s7.83301 -30.167 14.5 -40.5s16 -15.5 28 -15.5s24.833 5 38.5 15s27 22.833 40 38.5
s25 32.167 36 49.5s19.833 33 26.5 47l12 -11c-10 -29.333 -24.667 -57.666 -44 -84.999s-40.833 -49.833 -64.5 -67.5s-47.5 -26.5 -71.5 -26.5c-19.333 0 -34.833 6.33301 -46.5 19s-20.5 29.167 -26.5 49.5s-10.667 41.5 -14 63.5l-75.5 -91.5l-52.5 -65.5
c-4 -5.33301 -8.33301 -8 -13 -8z" />
    <glyph glyph-name="y" unicode="y" horiz-adv-x="393" 
d="M45 -280c-16.667 0 -31.666 4.66602 -44.999 13.999s-20 23.666 -20 42.999c0 21.333 5.66699 40.333 17 57s26.333 32.167 45 46.5s39.667 27.666 63 39.999s47 24.166 71 35.499c8.66699 23.333 17.667 50 27 80s18 61.333 26 94c-21.333 -32.667 -44 -61 -68 -85
s-49.667 -36 -77 -36c-12.667 0 -25.334 2.83301 -38.001 8.5s-23.167 14.5 -31.5 26.5s-12.5 27.667 -12.5 47c0 18 3.16699 39.333 9.5 64s14.166 48.834 23.499 72.501s19.166 43.167 29.499 58.5s19.166 23 26.499 23c3.33301 0 8.66602 -1.16699 15.999 -3.5
s14.333 -5.5 21 -9.5s10.334 -8.33301 11.001 -13c-6 -8.66699 -12.667 -20.834 -20 -36.501s-14.5 -33.167 -21.5 -52.5s-12.833 -38 -17.5 -56s-7 -33.667 -7 -47c0 -11.333 2.5 -20.666 7.5 -27.999s13.833 -11 26.5 -11c13.333 0 27.833 6.16699 43.5 18.5
s31.167 28 46.5 47s29.666 39.167 42.999 60.5c1.33301 6 2.83301 13.333 4.5 22s3.5 17.334 5.5 26.001c2.66699 10 7.83398 20.667 15.501 32s19.834 17 36.501 17c4 0 7.83301 -0.166992 11.5 -0.5s7.83398 -1.16602 12.501 -2.49902
c0 -10.667 -3.16699 -30.5 -9.5 -59.5s-15.333 -62.667 -27 -101s-25.167 -77.5 -40.5 -117.5c30 12 60.167 31.5 90.5 58.5s54.833 64.167 73.5 111.5l14 -12c-10 -32 -25.167 -60 -45.5 -84s-43.166 -44.667 -68.499 -62s-50.666 -31.666 -75.999 -42.999
c-17.333 -42.667 -36.333 -82.5 -57 -119.5s-42.334 -66.833 -65.001 -89.5s-46 -34 -70 -34zM38.001 -246.001c10.667 0 27.666 13.166 50.999 39.499s48 70.5 74 132.5c-25.333 -13.333 -49.5 -27.166 -72.5 -41.499s-41.5 -29.833 -55.5 -46.5s-21 -35 -21 -55
c0 -6 1.83301 -12.333 5.5 -19s9.83398 -10 18.501 -10z" />
    <glyph glyph-name="z" unicode="z" horiz-adv-x="322" 
d="M-1 -280c-21.333 0 -38.167 4 -50.5 12s-18.5 21.667 -18.5 41c0 22 7.16699 42.167 21.5 60.5s33.5 35.666 57.5 51.999s50.667 33 80 50s58.666 35.167 87.999 54.5c-0.666992 23.333 -6.33398 44.833 -17.001 64.5s-29.667 40.167 -57 61.5
c24 6.66699 44.5 18.167 61.5 34.5s29.833 34.5 38.5 54.5s13 38.333 13 55c0 14.667 -3.16699 26.834 -9.5 36.501s-16.5 14.5 -30.5 14.5c-21.333 0 -40.666 -8.33301 -57.999 -25s-33.5 -38.667 -48.5 -66s-30.167 -57.333 -45.5 -90l-14 12
c14.667 40 30 75.833 46 107.5s34.833 56.834 56.5 75.501s47.5 28 77.5 28c24.667 0 45.667 -7.5 63 -22.5s26 -35.833 26 -62.5c0 -22.667 -5.5 -44.167 -16.5 -64.5s-25.333 -38.5 -43 -54.5s-36.834 -29 -57.501 -39c16.667 -12.667 30.667 -26.5 42 -41.5
s20.333 -30.167 27 -45.5c24.667 18.667 46.834 39.5 66.501 62.5s34.5 48.833 44.5 77.5l11 -13c-9.33301 -30 -24.166 -57.333 -44.499 -82s-43.833 -47 -70.5 -67c1.33301 -4.66699 2.33301 -9.83398 3 -15.501s1 -11.5 1 -17.5c0 -29.333 -6.66699 -58.833 -20 -88.5
s-31.5 -56.5 -54.5 -80.5s-48.833 -43.167 -77.5 -57.5s-59 -21.5 -91 -21.5zM-10.001 -248c12 0 27.668 4.66602 47.001 13.999s38.833 23 58.5 41s37 39.833 52 65.5s24.167 55.167 27.5 88.5l-77 -46c-25.333 -14.667 -48.333 -29.167 -69 -43.5
s-37.334 -28.666 -50.001 -42.999s-19 -29.5 -19 -45.5c0 -10.667 3 -18.5 9 -23.5s13 -7.5 21 -7.5z" />
    <glyph glyph-name="braceleft" unicode="{" horiz-adv-x="275" 
d="M115 -87c-26.667 0 -45.0039 7.00293 -55.0039 21.0029s-15 29.667 -15 47s3.66699 36.5 11 57.5s16 42.667 26 65s18.667 44.666 26 66.999s11 43.5 11 63.5c0 18.667 -2.5 36.5 -7.5 53.5s-16.167 32.167 -33.5 45.5c24.667 2.66699 43 13.167 55 31.5
s20.5 41.166 25.5 68.499s8.5 56 10.5 86c2 25.333 4.33301 49.833 7 73.5s7.16699 45.167 13.5 64.5s15.5 34.666 27.5 45.999s28.667 17 50 17c8.66699 0 17.334 -1.66699 26.001 -5s15.834 -9.16602 21.501 -17.499s8.16699 -20.166 7.5 -35.499
c-8 4.66699 -14.667 8.16699 -20 10.5s-10.333 3.5 -15 3.5c-14 0 -24.833 -8.5 -32.5 -25.5s-13.667 -39 -18 -66s-8.16602 -55.167 -11.499 -84.5c-3.33301 -28.667 -7.5 -55.834 -12.5 -81.501s-11.833 -47 -20.5 -64s-21 -27.167 -37 -30.5
c8.66699 -9.33301 15 -19.166 19 -29.499s6 -23.5 6 -39.5c0 -30 -3.83301 -58 -11.5 -84s-16.5 -50.333 -26.5 -73s-18.667 -44.334 -26 -65.001s-11 -41 -11 -61c0 -8.66699 2.5 -15.834 7.5 -21.501s13.167 -8.5 24.5 -8.5c10 0 19 3 27 9
c-0.666992 -15.333 -6.16699 -25.5 -16.5 -30.5s-21.166 -7.5 -32.499 -7.5z" />
    <glyph glyph-name="bar" unicode="|" horiz-adv-x="271" 
d="M63 -132c8 22.667 15.333 52.668 22 90.001s12.834 79.166 18.501 125.499s10.667 94.833 15 145.5s8.33301 100.667 12 150s7.5 95.5 11.5 138.5s7.66699 80.167 11 111.5s7.33301 54 12 68c9.33301 -3.33301 16.166 -9.16602 20.499 -17.499s7.33301 -17 9 -26
s2.5 -16.833 2.5 -23.5c0 -24 -0.666992 -55.333 -2 -94s-3 -80.834 -5 -126.501s-4.33301 -91.167 -7 -136.5s-5.33398 -87.333 -8.00098 -126s-5.33398 -70 -8.00098 -94c-5.33301 -57.333 -16.166 -102.5 -32.499 -135.5s-40.166 -49.5 -71.499 -49.5z" />
    <glyph glyph-name="braceright" unicode="}" horiz-adv-x="271" 
d="M47 -87c-8.66699 0 -17.502 1.6709 -26.502 5.00391s-16.5 9.5 -22.5 18.5s-9.33301 21.167 -10 36.5c14 -9.33301 26.333 -14 37 -14c13.333 0 24 8.5 32 25.5s14.333 38.5 19 64.5s8.66699 53.333 12 82c3.33301 29.333 7.5 58.666 12.5 87.999
s12.333 55.666 22 78.999s23.5 40 41.5 50c-9.33301 10 -15.666 21.167 -18.999 33.5s-5 24.5 -5 36.5c0 21.333 3.5 43.833 10.5 67.5s15.167 47.167 24.5 70.5s17.5 44.666 24.5 63.999s10.5 35.333 10.5 48c0 5.33301 -1.16699 9.5 -3.5 12.5s-6.16602 4.5 -11.499 4.5
c-3.33301 0 -8 -1.16699 -14 -3.5s-13 -6.16602 -21 -11.499c0 13.333 6.16699 25.5 18.5 36.5s28.833 16.5 49.5 16.5c14.667 0 26.167 -3.5 34.5 -10.5s12.5 -16.167 12.5 -27.5c0 -12.667 -3.66699 -28.334 -11 -47.001l-25.5 -62
c-9.66699 -22.667 -18.167 -46.334 -25.5 -71.001s-11 -48.334 -11 -71.001c0 -17.333 2.33301 -34.833 7 -52.5s15.667 -32.167 33 -43.5c-25.333 -6 -44.5 -19.333 -57.5 -40s-22 -45.5 -27 -74.5s-8.83301 -59.167 -11.5 -90.5c-2 -27.333 -4.5 -54 -7.5 -80
s-7.33301 -49.667 -13 -71s-14.667 -38.166 -27 -50.499s-29.5 -18.5 -51.5 -18.5z" />
    <glyph glyph-name="asciitilde" unicode="~" horiz-adv-x="449" 
d="M280 127c-18 0 -37.6699 3.5 -59.0029 10.5s-42.666 13.667 -63.999 20s-42 9.5 -62 9.5c-7.33301 0 -15.166 -0.5 -23.499 -1.5s-16.833 -2.83301 -25.5 -5.5c12.667 15.333 26 27 40 35s28.667 12 44 12c13.333 0 27.666 -2.16699 42.999 -6.5s31.5 -9.33301 48.5 -15
s34 -10.667 51 -15s33.833 -6.5 50.5 -6.5c5.33301 0 11 0.5 17 1.5s13.667 2.16699 23 3.5c-15.333 -16 -29.666 -27 -42.999 -33s-26.666 -9 -39.999 -9z" />
    <glyph glyph-name="uni00A0" unicode="&#xa0;" horiz-adv-x="260" 
 />
    <glyph glyph-name="exclamdown" unicode="&#xa1;" horiz-adv-x="275" 
d="M-50 -250c-6 0 -11.333 2.33203 -16 6.99902s-7 10.667 -7 18c0 9.33301 5.16699 26.833 15.5 52.5s23.833 56.834 40.5 93.501s35.5 75.667 56.5 117l64.5 124l63.5 115.5c20.333 35.667 38.5 65.5 54.5 89.5l3 -1.5l3 -1.5c-4 -26 -9.5 -50.833 -16.5 -74.5
s-14 -45.167 -21 -64.5l-17.5 -48l-40.5 -104l-46.5 -114c-16 -38 -32 -72.833 -48 -104.5s-31.5 -57 -46.5 -76s-28.833 -28.5 -41.5 -28.5zM227 407.999c-8.66699 0 -15.666 1.83301 -20.999 5.5s-8 10.5 -8 20.5s5.66699 20.167 17 30.5s23.666 15.5 36.999 15.5
c9.33301 0 17.5 -2.33301 24.5 -7s10.5 -12.334 10.5 -23.001c0 -11.333 -6.5 -21.166 -19.5 -29.499s-26.5 -12.5 -40.5 -12.5z" />
    <glyph glyph-name="cent" unicode="&#xa2;" horiz-adv-x="411" 
d="M70 -162c9.33301 10 19.3301 28.1631 29.9971 54.4961s21.834 58.5 33.501 96.5s23.167 79.333 34.5 124c-32.667 0 -59.667 10.833 -81 32.5s-32 53.834 -32 96.501c0 29.333 5.83301 58 17.5 86s27.334 54 47.001 78s41.334 44.5 65.001 61.5
s47.834 28.833 72.501 35.5l18 95c5.33301 29.333 9.33301 54.333 12 75c1.33301 10 5.16602 19.333 11.499 28s19.5 15.334 39.5 20.001l-40 -212c28 0 47.833 -7.66699 59.5 -23s17.5 -33.333 17.5 -54c0 -18 -4.33301 -34.5 -13 -49.5s-20.667 -22.5 -36 -22.5
c-11.333 0 -21.333 5.33301 -30 16c8.66699 4.66699 16.167 14.5 22.5 29.5s9.5 29.167 9.5 42.5c0 10.667 -3.16699 18.334 -9.5 23.001s-15.166 6.33398 -26.499 5.00098l-31 -162.5l-30 -154.5c20 3.33301 40.333 9.83301 61 19.5s40 22.5 58 38.5l19 -18
c-20.667 -19.333 -43.834 -36 -69.501 -50s-51.167 -24 -76.5 -30c-12.667 -58 -25.5 -108 -38.5 -150s-28.167 -74.333 -45.5 -97s-40.333 -34 -69 -34zM178.997 154.996c12.667 50.667 24.833 102 36.5 154l32.5 151c-23.333 -14 -44.5 -33.833 -63.5 -59.5
s-34.167 -53.167 -45.5 -82.5s-17 -57 -17 -83c0 -18 4 -34.833 12 -50.5s23 -25.5 45 -29.5z" />
    <glyph glyph-name="sterling" unicode="&#xa3;" horiz-adv-x="664" 
d="M464 -87c-24.667 0 -51.6631 5 -80.9961 15s-59.666 22.167 -90.999 36.5l-92 40.5c-16.667 -18 -34.334 -32.167 -53.001 -42.5s-38.667 -15.5 -60 -15.5c-22 0 -40.833 5 -56.5 15s-27.5 22 -35.5 36s-12 26.667 -12 38c0 12.667 5.66699 23.5 17 32.5s31 13.5 59 13.5
c17.333 0 36.666 -2 57.999 -6s43.333 -9 66 -15c20 37.333 39.667 84.166 59 140.499s40.666 121.833 63.999 196.5c-31.333 10 -56 24.833 -74 44.5s-27 40.5 -27 62.5c0 12.667 2.66699 25.167 8 37.5s13.333 22.833 24 31.5s23 13 37 13
c-5.33301 -8 -9.16602 -18.167 -11.499 -30.5s-3.5 -23.166 -3.5 -32.499c0 -24 5.16699 -44.333 15.5 -61s23.5 -29.667 39.5 -39c17.333 52.667 36.166 101.5 56.499 146.5s43.666 81.167 69.999 108.5s56.5 41 90.5 41c14 0 28.833 -3 44.5 -9s29.167 -16.5 40.5 -31.5
s17 -36.167 17 -63.5c0 -22.667 -4.83301 -47.5 -14.5 -74.5s-24.834 -52.5 -45.501 -76.5s-47.5 -43.333 -80.5 -58s-72.5 -22 -118.5 -22l-47 -134.5c-14.667 -41 -29.667 -78.333 -45 -112s-32 -64.167 -50 -91.5l92.5 -27.5c31.667 -9.66699 62.167 -17.5 91.5 -23.5
s56.333 -9 81 -9c14.667 0 28 1.5 40 4.5s24.333 7.5 37 13.5c-12 -33.333 -27.167 -57 -45.5 -71s-39.833 -21 -64.5 -21zM80.0039 -22c14 0 27.6689 4.16797 41.002 12.501s25.333 19.166 36 32.499c-20.667 8 -40.667 14.667 -60 20s-36.333 8 -51 8
c-12 0 -21 -1.66699 -27 -5s-9 -8 -9 -14s3.16699 -13.333 9.5 -22s14.666 -16.167 24.999 -22.5s22.166 -9.5 35.499 -9.5zM124.006 218.001c4 14.667 14.833 26.832 32.5 36.499s39.834 16.834 66.501 21.501s55.667 7 87 7c37.333 0 72.833 -2.16699 106.5 -6.5
s63.167 -7.5 88.5 -9.5c-9.33301 -12.667 -21.5 -21.5 -36.5 -26.5s-36.833 -8 -65.5 -9s-67.667 -1.5 -117 -1.5c-32 0 -61.833 -1 -89.5 -3s-51.834 -5 -72.501 -9zM381.006 408.999c30 0.666992 56.833 9.49902 80.5 26.499s43.834 37.833 60.501 62.5s29.5 50 38.5 76
s13.5 48.667 13.5 68c0 18.667 -3.66699 31.334 -11 38.001s-15.333 10 -24 10c-20.667 0 -39.834 -13 -57.501 -39s-34.5 -60.167 -50.5 -102.5s-32.667 -88.833 -50 -139.5z" />
    <glyph glyph-name="currency" unicode="&#xa4;" horiz-adv-x="710" 
d="M615 23c-11.333 19.333 -30.001 40.3281 -56.001 62.9951s-55 50 -87 82c-17.333 -20.667 -36.5 -37.667 -57.5 -51s-43.833 -20 -68.5 -20c-18.667 0 -35 3.33301 -49 10s-25.667 16.334 -35 29.001c-30.667 -34 -61.167 -57.833 -91.5 -71.5s-58.833 -20.5 -85.5 -20.5
c14 13.333 28.833 25.333 44.5 36s32.667 23.667 51 39s36.833 36.666 55.5 63.999c-3.33301 10.667 -5.66602 21.334 -6.99902 32.001s-2 22 -2 34c0 27.333 3.83301 56.333 11.5 87s18.834 60 33.501 88c-22.667 24.667 -44.334 47 -65.001 67s-39 37 -55 51
c-4.66699 4.66699 -9 12.834 -13 24.501s-6 23.834 -6 36.501c0 6 0.666992 12.333 2 19s3 13 5 19c9.33301 -8.66699 28.833 -28.5 58.5 -59.5l102.5 -108.5c17.333 22 37 40 59 54s46 21 72 21c24 0 45.167 -5.83301 63.5 -17.5s32.5 -27.834 42.5 -48.501
c17.333 20.667 32 40.167 44 58.5s25.833 33.333 41.5 45s37.167 17.5 64.5 17.5c3.33301 0 7 -0.333008 11 -1l12 -2c-8 -12 -26.167 -34 -54.5 -66l-102.5 -117c0 -3.33301 0.166992 -6.66602 0.5 -9.99902s0.5 -6.66602 0.5 -9.99902c0 -28 -4.66699 -58 -14 -90
s-22.333 -62.667 -39 -92c33.333 -30.667 61 -60.5 83 -89.5s33 -55.5 33 -79.5v-10c0 -3.33301 -1 -7.66602 -3 -12.999zM353.999 153.995c17.333 0 34.332 8.33301 50.999 25s32 38.167 46 64.5s25.167 54.333 33.5 84s12.5 57.5 12.5 83.5
c0 24.667 -6.66699 44.667 -20 60s-28 23 -44 23c-20.667 0 -39.667 -9 -57 -27s-32.666 -40.667 -45.999 -68s-23.5 -55.333 -30.5 -84s-10.5 -53.667 -10.5 -75c0 -26 7.16699 -46.833 21.5 -62.5s28.833 -23.5 43.5 -23.5z" />
    <glyph glyph-name="yen" unicode="&#xa5;" horiz-adv-x="829" 
d="M355 -187c-26 0 -49.8281 3.6709 -71.4951 11.0039s-39 18.166 -52 32.499s-19.5 31.833 -19.5 52.5c0 18 5.33301 33.667 16 47s27.334 23.666 50.001 30.999c-2.66699 -9.33301 -4.83398 -19.333 -6.50098 -30s-2.5 -20 -2.5 -28c0 -26 7.5 -46.833 22.5 -62.5
s36.833 -23.5 65.5 -23.5c26 0 49 6.33301 69 19s37.667 29.167 53 49.5s28 41.833 38 64.5c-23.333 0 -47.5 -0.666992 -72.5 -2s-51.833 -4.33301 -80.5 -9c8 20 27.667 33.833 59 41.5s68.333 11.834 111 12.501c4 9.33301 7.5 18.833 10.5 28.5l8.5 28.5
c-30.667 -0.666992 -61.334 -1.5 -92.001 -2.5s-63 -4.16699 -97 -9.5c5.33301 14.667 17.166 25.834 35.499 33.501s41.666 13 69.999 16s59.5 4.5 93.5 4.5c7.33301 23.333 13.833 52.666 19.5 87.999s12.5 72.333 20.5 111c-17.333 -32 -36.666 -60.667 -57.999 -86
s-44.833 -45.333 -70.5 -60s-54.167 -22 -85.5 -22c-40.667 0 -69.834 11.333 -87.501 34s-26.5 52 -26.5 88c0 25.333 3.5 53.166 10.5 83.499s14.833 60.833 23.5 91.5s16.334 60.167 23.001 88.5s10 53.833 10 76.5c0 20.667 -4 38.667 -12 54s-22.667 23 -44 23
c-18.667 0 -34.667 -5.66699 -48 -17s-24.333 -25.666 -33 -42.999s-15.167 -35.666 -19.5 -54.999s-6.5 -37 -6.5 -53c0 -20.667 3.33301 -38.667 10 -54c-28 0 -47.667 7 -59 21s-17 31 -17 51c0 20.667 5 41.667 15 63s24 41 42 59s38.667 32.5 62 43.5
s48.666 16.5 75.999 16.5c26 0 47 -5.16699 63 -15.5s27.5 -23.333 34.5 -39s10.5 -31.834 10.5 -48.501c0 -18.667 -3.16699 -41.167 -9.5 -67.5s-14 -54.5 -23 -84.5s-16.833 -60.167 -23.5 -90.5s-10 -58.833 -10 -85.5c0 -28.667 5.5 -51.667 16.5 -69
s28.833 -26 53.5 -26c23.333 0 45.333 7.33301 66 22s40 34.167 58 58.5s34.333 50.833 49 79.5s27.667 57.334 39 86.001c11.333 48.667 23.666 94.167 36.999 136.5s27.166 76.833 41.499 103.5s28.833 40 43.5 40c6.66699 0 15.834 -3 27.501 -9s22.167 -14.333 31.5 -25
c-15.333 -24 -28.5 -47.667 -39.5 -71s-21.167 -48 -30.5 -74s-18.5 -54.833 -27.5 -86.5s-18.667 -68.334 -29 -110.001l-35.5 -144.5l-10.5 -42c-3.66699 -14 -7.83398 -28 -12.501 -42c23.333 -0.666992 44.666 -1.83398 63.999 -3.50098s34 -2.83398 44 -3.50098
c-19.333 -14 -39.333 -23 -60 -27s-40.334 -6 -59.001 -6c-2.66699 -10 -5.66699 -19.833 -9 -29.5s-7 -19.167 -11 -28.5c28 -0.666992 53.833 -1.83398 77.5 -3.50098s44.5 -3.5 62.5 -5.5c-19.333 -13.333 -39.166 -22.166 -59.499 -26.499s-37.5 -6.5 -51.5 -6.5h-47
c-14 -30.667 -31.167 -58.334 -51.5 -83.001s-44.666 -44.167 -72.999 -58.5s-61.5 -21.5 -99.5 -21.5z" />
    <glyph glyph-name="brokenbar" unicode="&#xa6;" horiz-adv-x="272" 
d="M63 -132c8 21.333 15.167 49 21.5 83s12 72 17 114s9.83301 86.333 14.5 133c4.66699 5.33301 11.5 10.333 20.5 15s18.167 7 27.5 7c6 0 10 -3 12 -9s3 -11.667 3 -17c-3.33301 -68 -8.33301 -126.333 -15 -175s-17.667 -86 -33 -112s-38 -39 -68 -39zM124 291
l14 173.499c4.66699 55 9.16699 103.167 13.5 144.5s8.83301 71 13.5 89c9.33301 -4 16.333 -9.83301 21 -17.5s7.66699 -15.5 9 -23.5s2 -15 2 -21c0 -26 -1.5 -62.167 -4.5 -108.5s-4.5 -95.166 -4.5 -146.499c0 -6 -2 -16.333 -6 -31s-12.667 -26.667 -26 -36z" />
    <glyph glyph-name="section" unicode="&#xa7;" horiz-adv-x="425" 
d="M149 -87c-23.333 0 -45.4951 4.33008 -66.4951 12.9971s-38.167 21.5 -51.5 38.5s-20 38.833 -20 65.5c0 22.667 4.83301 40.167 14.5 52.5s21.5 21.166 35.5 26.499s27.333 8 40 8c-12.667 -13.333 -22.334 -27.666 -29.001 -42.999s-10 -30.333 -10 -45
c0 -22 8.16699 -41.833 24.5 -59.5s41.166 -26.5 74.499 -26.5c19.333 0 38 3.33301 56 10s32.667 16.667 44 30s17 29.666 17 48.999c0 22 -6.83301 40.667 -20.5 56s-30.5 29.5 -50.5 42.5l-60 41c-20 14.333 -36.833 31 -50.5 50s-20.5 41.833 -20.5 68.5
c0 28 7 53.167 21 75.5s34.167 39.5 60.5 51.5s58.5 16.667 96.5 14c-16 9.33301 -31.667 19.333 -47 30s-27.833 23 -37.5 37s-14.5 30.667 -14.5 50c0 17.333 4.5 35.833 13.5 55.5s21.5 38.334 37.5 56.001s35.167 32 57.5 43s46.833 16.5 73.5 16.5
c28.667 0 48.167 -6 58.5 -18s15.5 -27.667 15.5 -47c0 -16 -2.66699 -33 -8 -51s-11.833 -35 -19.5 -51s-14.834 -29.667 -21.501 -41c-10 2 -16.667 5.83301 -20 11.5s-5 11.834 -5 18.501c0 12.667 3.16699 27 9.5 43l18.5 48.5c6 16.333 9 30.5 9 42.5
c0 8 -2.33301 14 -7 18s-13.667 6 -27 6c-26.667 0 -50.5 -7.66699 -71.5 -23s-37.667 -33.833 -50 -55.5s-18.5 -41.5 -18.5 -59.5c0 -18.667 6.16699 -34 18.5 -46s27.5 -23.167 45.5 -33.5s36.167 -22 54.5 -35s33.666 -29.5 45.999 -49.5s18.5 -45.667 18.5 -77
c0 -29.333 -6.5 -53.666 -19.5 -72.999s-30 -33.833 -51 -43.5s-44.167 -14.5 -69.5 -14.5c-8 0 -14.833 0.5 -20.5 1.5s-10.834 2.16699 -15.501 3.5c7.33301 -5.33301 17.5 -11.666 30.5 -18.999s26.5 -16.333 40.5 -27s25.667 -24 35 -40s14 -34.667 14 -56
c0 -28.667 -9.16699 -53.5 -27.5 -74.5s-41 -37 -68 -48s-54.5 -16.5 -82.5 -16.5zM227.005 230.997c30.667 0 54.167 7.33203 70.5 21.999s24.5 35.334 24.5 62.001c0 24.667 -7 44.834 -21 60.501s-36 23.5 -66 23.5c-26 0 -49.167 -6.83301 -69.5 -20.5
s-30.5 -35.834 -30.5 -66.501c0 -8 1.83301 -18.5 5.5 -31.5s12 -24.5 25 -34.5s33.5 -15 61.5 -15z" />
    <glyph glyph-name="dieresis" unicode="&#xa8;" horiz-adv-x="236" 
d="M181 410c-10 0 -18.999 2.5 -26.999 7.5s-12 12.833 -12 23.5c0 13.333 7.5 24.666 22.5 33.999s29.833 14 44.5 14c9.33301 0 17 -2.16699 23 -6.5s9 -12.166 9 -23.499s-6.33301 -22.333 -19 -33s-26.334 -16 -41.001 -16zM37.001 431c-10 0 -19.001 2.33301 -27.001 7
s-12 12.667 -12 24c0 12.667 7.33301 23.667 22 33s29.334 14 44.001 14c10 0 17.833 -2 23.5 -6s8.5 -11.667 8.5 -23s-6.16699 -22.333 -18.5 -33s-25.833 -16 -40.5 -16z" />
    <glyph glyph-name="copyright" unicode="&#xa9;" horiz-adv-x="601" 
d="M330 100c-28.667 0 -57.501 5.33301 -86.501 16s-55.667 26.667 -80 48s-43.833 48.166 -58.5 80.499s-22.334 70.166 -23.001 113.499c0 44.667 7.5 83.5 22.5 116.5s35 60.167 60 81.5s52.167 37.333 81.5 48s58.333 16 87 16s57.834 -5.33301 87.501 -16
s56.834 -26.667 81.501 -48s44.5 -48.166 59.5 -80.499s22.5 -70.166 22.5 -113.499c0 -44.667 -7.66699 -83.5 -23 -116.5s-35.666 -60.167 -60.999 -81.5s-52.833 -37.333 -82.5 -48s-58.834 -16 -87.501 -16zM329.999 133c42.667 0 80.667 9.49902 114 28.499
s59.666 45.833 78.999 80.5s29 74.667 29 120c0 44 -9.16699 82.833 -27.5 116.5s-43.833 60.167 -76.5 79.5s-70.667 29 -114 29c-42 0 -79.667 -9.5 -113 -28.5s-59.5 -45.667 -78.5 -80s-28.5 -74.166 -28.5 -119.499c0 -43.333 9 -82 27 -116s43.333 -60.833 76 -80.5
s70.334 -29.5 113.001 -29.5zM334.999 207.999c-23.333 0 -43.332 7.00195 -59.999 21.002s-25 37.333 -25 70v131c0 34 7.83301 58 23.5 72s35.5 21 59.5 21c21.333 0 38.333 -4.5 51 -13.5s21.667 -19.167 27 -30.5s8 -21 8 -29c0 -8.66699 -2 -14 -6 -16s-8 -3 -12 -3
c-6.66699 0 -11 1.33301 -13 4s-3.33301 5.66699 -4 9c-1.33301 6.66699 -3.33301 13.5 -6 20.5s-7.16699 13.167 -13.5 18.5s-16.5 8 -30.5 8c-16 0 -28.333 -4.83301 -37 -14.5s-13 -25.167 -13 -46.5v-131c0 -20.667 4.33301 -35.834 13 -45.501s22 -14.5 40 -14.5
c13.333 0 23.166 3 29.499 9s10.833 12.667 13.5 20s4.33398 13.333 5.00098 18s2.5 8 5.5 10s6.16699 3 9.5 3c12.667 0 19 -5.33301 19 -16c0 -20.667 -7.33301 -38.334 -22 -53.001s-35.334 -22 -62.001 -22z" />
    <glyph glyph-name="ordfeminine" unicode="&#xaa;" horiz-adv-x="392" 
d="M165 447c-14.667 0 -27.1631 5.00195 -37.4961 15.002s-15.5 25.333 -15.5 46c0 20 5.5 42.333 16.5 67s26 47.834 45 69.501s40.167 39.667 63.5 54s46.333 21.5 69 21.5c19.333 0 35.333 -4.83301 48 -14.5s19 -22.167 19 -37.5c0 -11.333 -4 -19.5 -12 -24.5
s-17 -7.16699 -27 -6.5c1.33301 4 2.33301 8.16699 3 12.5s1 8.16602 1 11.499c0 9.33301 -2.5 17.666 -7.5 24.999s-13.5 11 -25.5 11c-16.667 0 -33.167 -6.66699 -49.5 -20s-31.333 -30.333 -45 -51s-24.834 -41.667 -33.501 -63s-13 -40.666 -13 -57.999
c0 -16 5.66699 -24 17 -24c10.667 0 22.5 5.33301 35.5 16s26.5 24.167 40.5 40.5s27 33 39 50l30 43.5c6.66699 -2 13.667 -4.66699 21 -8s11 -7.33301 11 -12c0 -6 -3.33301 -14.333 -10 -25s-13.334 -22.334 -20.001 -35.001s-10 -24.334 -10 -35.001
c0 -6 1.66699 -12.167 5 -18.5s9 -9.5 17 -9.5c12 0 28.167 9 48.5 27s40.833 45.333 61.5 82l8 -10c-14.667 -38 -35.167 -68.833 -61.5 -92.5s-51.833 -35.5 -76.5 -35.5c-16.667 0 -28.834 4.83301 -36.501 14.5s-11.834 20.167 -12.501 31.5v10.5
c0 3.66699 0.333008 7.5 1 11.5c-20 -25.333 -38.5 -45 -55.5 -59s-34.167 -21 -51.5 -21z" />
    <glyph glyph-name="guillemotleft" unicode="&#xab;" horiz-adv-x="451" 
d="M328 44c-12.667 0 -27.665 4.00195 -44.998 12.002s-34.5 18.167 -51.5 30.5s-31.833 25.166 -44.5 38.499s-20.334 25 -23.001 35c22.667 10 46.167 23.5 70.5 40.5s47.166 35.833 68.499 56.5s39.333 40.667 54 60c1.33301 -1.33301 2.83301 -5 4.5 -11
s2.5 -10.667 2.5 -14c0 -13.333 -5.33301 -26.833 -16 -40.5s-24.5 -26.834 -41.5 -39.501s-35.167 -24.5 -54.5 -35.5l-54 -29.5l41.5 -27.5c13 -8.33301 28.833 -16.833 47.5 -25.5s43.334 -19 74.001 -31c-4 -4 -8.83301 -8.16699 -14.5 -12.5s-11.834 -6.5 -18.501 -6.5
zM177.002 44.002c-12.667 0 -27.665 4.00195 -44.998 12.002s-34.5 18.167 -51.5 30.5s-31.833 25.166 -44.5 38.499s-20.334 25 -23.001 35c22.667 10 46.167 23.5 70.5 40.5s47.166 35.833 68.499 56.5s39.333 40.667 54 60c1.33301 -1.33301 2.83301 -5 4.5 -11
s2.5 -10.667 2.5 -14c0 -13.333 -5.33301 -26.833 -16 -40.5s-24.5 -26.834 -41.5 -39.501s-35.167 -24.5 -54.5 -35.5l-54 -29.5l41.5 -27.5c13 -8.33301 28.833 -16.833 47.5 -25.5s43.334 -19 74.001 -31c-4 -4 -8.83301 -8.16699 -14.5 -12.5s-11.834 -6.5 -18.501 -6.5
z" />
    <glyph glyph-name="logicalnot" unicode="&#xac;" horiz-adv-x="670" 
d="M491 31c4 17.333 6.83008 33.4971 8.49707 48.4971s2.66699 31.333 3 49s0.5 39.167 0.5 64.5c-8 -0.666992 -16.333 -1 -25 -1h-23c-44.667 -0.666992 -83.167 -1.16699 -115.5 -1.5s-60.666 -0.5 -84.999 -0.5s-47 -0.333008 -68 -1s-42.667 -1.66699 -65 -3
s-48.166 -3.66602 -77.499 -6.99902c8.66699 15.333 27.5 26.833 56.5 34.5s65.167 13 108.5 16s90.333 4.5 141 4.5c27.333 0 54.166 -0.166992 80.499 -0.5s50.833 -1.16602 73.5 -2.49902c2 8.66699 5.33301 17.5 10 26.5s12 17.833 22 26.5
c0 -6 0.833008 -13.667 2.5 -23s2.83398 -20 3.50098 -32c16.667 -0.666992 32 -1.16699 46 -1.5s25 -1.16602 33 -2.49902c-11.333 -7.33301 -23.666 -13 -36.999 -17s-26.333 -7.33301 -39 -10c0 -18 -0.333008 -36 -1 -54s-2.5 -35 -5.5 -51s-8.16699 -29.5 -15.5 -40.5
s-18 -18.167 -32 -21.5z" />
    <glyph glyph-name="uni00AD" unicode="&#xad;" horiz-adv-x="485" 
d="M38 143c4 12 12.0029 21.5 24.0029 28.5s26.5 12.333 43.5 16s35.167 6.16699 54.5 7.5s38.333 2 57 2c14.667 0 30.834 -0.333008 48.501 -1s35.5 -1.5 53.5 -2.5s34.167 -1.83301 48.5 -2.5s25.5 -1.33398 33.5 -2.00098c-9.33301 -10 -22.833 -18.167 -40.5 -24.5
s-40.834 -10.166 -69.501 -11.499c-18 -0.666992 -40.5 -0.666992 -67.5 0s-52.833 0.666992 -77.5 0c-12.667 0 -25.334 -0.5 -38.001 -1.5s-24.834 -2.16699 -36.501 -3.5s-22.834 -3 -33.501 -5z" />
    <glyph glyph-name="registered" unicode="&#xae;" horiz-adv-x="601" 
d="M329 100c-28.667 0 -57.501 5.33301 -86.501 16s-55.667 26.667 -80 48s-43.833 48.166 -58.5 80.499s-22 70.166 -22 113.499c0 44.667 7.66699 83.5 23 116.5s35.5 60.167 60.5 81.5s52.333 37.333 82 48s58.834 16 87.501 16s57.667 -5.33301 87 -16
s56.166 -26.667 80.499 -48s44 -48.166 59 -80.499s22.5 -70.166 22.5 -113.499c0 -44.667 -7.66699 -83.5 -23 -116.5s-35.666 -60.167 -60.999 -81.5s-53 -37.333 -83 -48s-59.333 -16 -88 -16zM328.999 133c42.667 0 80.832 9.66895 114.499 29.002
s60.167 46.166 79.5 80.499s29 74.166 29 119.499c0 44 -9 82.833 -27 116.5s-43.333 60.167 -76 79.5s-70.667 29 -114 29c-42 0 -79.667 -9.5 -113 -28.5s-59.666 -45.667 -78.999 -80s-29 -74.5 -29 -120.5c0 -42.667 9 -81 27 -115s43.167 -60.833 75.5 -80.5
s69.833 -29.5 112.5 -29.5zM274.997 209.002c-4.66699 0 -9.00098 1.33398 -13.001 4.00098s-6 6.66699 -6 12l-1 281c0 4 1.5 7.66699 4.5 11s7.16699 5 12.5 5h64c15.333 0 29.833 -2.66699 43.5 -8s24.834 -14.166 33.501 -26.499s13 -29.5 13 -51.5
c0 -24.667 -5.66699 -43.667 -17 -57s-25.333 -22 -42 -26c7.33301 -14 14.5 -28.5 21.5 -43.5l20 -41.5c6.33301 -12.667 11.833 -24.334 16.5 -35.001c0.666992 -0.666992 1.16699 -1.83398 1.5 -3.50098s0.5 -3.16699 0.5 -4.5c0 -4 -1.5 -7.66699 -4.5 -11
s-7.16699 -5 -12.5 -5c-6 0 -11.333 4 -16 12s-8 14 -10 18l-54 112h-38v-126c0 -5.33301 -1.83301 -9.33301 -5.5 -12s-7.5 -4 -11.5 -4zM290.996 381.003h46c16 0 28.833 4.33301 38.5 13s14.5 22.667 14.5 42c0 20 -5 34 -15 42s-23 12 -39 12h-45v-109z" />
    <glyph glyph-name="macron" unicode="&#xaf;" horiz-adv-x="409" 
d="M310 419c-14.667 0 -33.1689 1.83301 -55.502 5.5s-45.666 8 -69.999 13l-69 14.5c-21.667 4.66699 -40.167 7.66699 -55.5 9c6.66699 18 22.334 27 47.001 27s51 -2.5 79 -7.5s56.333 -11 85 -18s54.667 -14.5 78 -22.5c-8.66699 -14 -21.667 -21 -39 -21z" />
    <glyph glyph-name="degree" unicode="&#xb0;" horiz-adv-x="274" 
d="M173 396c-26.667 0 -45.6689 5.33301 -57.002 16s-17 23.667 -17 39c0 16 5.33301 32.5 16 49.5s25.334 31.5 44.001 43.5s39.334 18 62.001 18c28 0 48 -5.33301 60 -16s18 -23.667 18 -39c0 -16 -5.66699 -32.5 -17 -49.5s-26.5 -31.5 -45.5 -43.5
s-40.167 -18 -63.5 -18zM177.998 418c14 0 27.499 5.00098 40.499 15.001s24 22 33 36s13.5 27 13.5 39c0 9.33301 -3.33301 17 -10 23s-18 9 -34 9c-14 0 -27.667 -4.83301 -41 -14.5s-24.166 -21.334 -32.499 -35.001s-12.5 -26.834 -12.5 -39.501
c0 -9.33301 3.33301 -17.166 10 -23.499s17.667 -9.5 33 -9.5z" />
    <glyph glyph-name="plusminus" unicode="&#xb1;" horiz-adv-x="461" 
d="M190 112c4.66699 24 7.66895 45.998 9.00195 65.998s2 42.333 2 67c-18.667 0 -35.334 -0.166992 -50.001 -0.5s-29.334 -1 -44.001 -2s-32 -2.83301 -52 -5.5c6 16 22.5 27.167 49.5 33.5s59.167 9.83301 96.5 10.5v37c0 12 1.66699 25.5 5 40.5s11 30.167 23 45.5
c2 -12 4 -29.167 6 -51.5s3.33301 -46.166 4 -71.499c20.667 0 41 -0.5 61 -1.5s38 -2.16699 54 -3.5l36 -3c-18 -11.333 -36 -18.833 -54 -22.5s-34 -5.5 -48 -5.5h-49c-0.666992 -33.333 -4 -62.166 -10 -86.499s-19 -39.833 -39 -46.5zM55.002 29.998
c4 12.667 14.4971 22.332 31.4971 28.999s38.167 11 63.5 13s52.333 3 81 3c32.667 0 63.834 -0.833008 93.501 -2.5s51.834 -3.16699 66.501 -4.5c-12 -7.33301 -24.667 -13 -38 -17s-29.5 -6.66699 -48.5 -8s-43.833 -2 -74.5 -2c-16.667 0 -32.167 -0.333008 -46.5 -1
s-28.166 -1.16699 -41.499 -1.5s-27 -1.16602 -41 -2.49902s-29.333 -3.33301 -46 -6z" />
    <glyph glyph-name="uni00B2" unicode="&#xb2;" horiz-adv-x="369" 
d="M294 303c-9.33301 0 -20.3291 1.66602 -32.9961 4.99902s-26.167 7.83301 -40.5 13.5s-28.833 11.834 -43.5 18.501c-21.333 -14 -40.333 -21 -57 -21c-11.333 0 -21 2.83301 -29 8.5s-12 13.167 -12 22.5c0 18.667 14.333 28 43 28c7.33301 0 15.166 -0.5 23.499 -1.5
s17.5 -2.5 27.5 -4.5c20 17.333 40 40.166 60 68.499s36.5 58.333 49.5 90s19.5 61.834 19.5 90.501c0 24 -4.5 41.167 -13.5 51.5s-20.5 15.5 -34.5 15.5c-19.333 0 -34.5 -9.16699 -45.5 -27.5s-16.5 -40.5 -16.5 -66.5c0 -6.66699 0.666992 -12.667 2 -18
s3.66602 -12.333 6.99902 -21h-12c-13.333 3.33301 -23.5 8.5 -30.5 15.5s-10.5 17.833 -10.5 32.5c0 18 4.83301 35.167 14.5 51.5s23.167 29.5 40.5 39.5s37 15 59 15c26 0 47.167 -9 63.5 -27s24.5 -40 24.5 -66c0 -29.333 -6.5 -59.5 -19.5 -90.5s-30 -60.5 -51 -88.5
s-43.5 -52.333 -67.5 -73c19.333 -4.66699 37.166 -8.5 53.499 -11.5s30.166 -4.5 41.499 -4.5c5.33301 0 11.5 1.5 18.5 4.5s16.833 8.16699 29.5 15.5c-5.33301 -22 -12.833 -38.333 -22.5 -49s-22.5 -16 -38.5 -16zM118.004 341.999c4 0 8.00098 0.833008 12.001 2.5
s8.66699 4.16699 14 7.5c-5.33301 2 -10.333 3.33301 -15 4s-8.33398 1 -11.001 1c-4.66699 0 -7.83398 -0.833008 -9.50098 -2.5s-2.5 -3.5 -2.5 -5.5s1.33301 -3.66699 4 -5s5.33398 -2 8.00098 -2z" />
    <glyph glyph-name="uni00B3" unicode="&#xb3;" horiz-adv-x="308" 
d="M177 314c-32 0 -54.8369 8.32715 -68.5039 24.9941s-20.5 33.334 -20.5 50.001c0 12.667 4 25.167 12 37.5s20 18.5 36 18.5h7c2.66699 0 6.66699 -1 12 -3c-6 -5.33301 -10.833 -12.5 -14.5 -21.5s-5.5 -17.5 -5.5 -25.5c0 -14 4.16699 -27.167 12.5 -39.5
s19.833 -18.5 34.5 -18.5c18 0 34.833 9.83301 50.5 29.5s23.5 44.5 23.5 74.5c0 19.333 -4.66699 37.833 -14 55.5s-26.333 29.5 -51 35.5c18.667 8.66699 34.5 19.834 47.5 33.501s23.167 28.334 30.5 44.001s11 29.834 11 42.501c0 16.667 -4 28.5 -12 35.5
s-17 10.5 -27 10.5c-12.667 0 -24.334 -4.66699 -35.001 -14s-16 -21.666 -16 -36.999c0 -4.66699 0.833008 -9.66699 2.5 -15s3.83398 -11 6.50098 -17c-2.66699 -4.66699 -6.66699 -9 -12 -13s-10.333 -6 -15 -6c-7.33301 0 -13.166 5 -17.499 15s-6.5 19.333 -6.5 28
c0 25.333 10.5 44.833 31.5 58.5s43.5 20.5 67.5 20.5c21.333 0 40.5 -5.66699 57.5 -17s25.5 -28.333 25.5 -51c0 -13.333 -3.16699 -27.666 -9.5 -42.999s-15.333 -29.166 -27 -41.499s-25.167 -21.5 -40.5 -27.5c24.667 -9.33301 41.834 -23.5 51.501 -42.5
s14.5 -36.5 14.5 -52.5c0 -21.333 -6.16699 -41.833 -18.5 -61.5s-29.166 -35.834 -50.499 -48.501s-45.666 -19 -72.999 -19z" />
    <glyph glyph-name="acute" unicode="&#xb4;" horiz-adv-x="130" 
d="M107 404c-6 2.66699 -10.3359 7.33203 -13.0029 13.999s-4 11.334 -4 14.001c0 6 3.5 15.333 10.5 28s15.833 26.167 26.5 40.5s21.834 26.333 33.501 36s22.834 14.5 33.501 14.5c6 0 11.333 -2.16699 16 -6.5s7.33398 -12.833 8.00098 -25.5
c-23.333 -21.333 -44 -41 -62 -59s-34.333 -36.667 -49 -56z" />
    <glyph glyph-name="uni00B5" unicode="&#xb5;" horiz-adv-x="595" 
d="M-2 -280c-6.66699 0 -12.5049 2.99609 -17.5049 8.99609s-9 12.5 -12 19.5s-4.5 11.167 -4.5 12.5c9.33301 32.667 18.833 61.667 28.5 87l29 78c9.66699 26.667 19.334 58 29.001 94s19.334 80.833 29.001 134.5s18.834 120.167 27.501 199.5
c0.666992 6.66699 2.16699 11.5 4.5 14.5s7.83301 4.5 16.5 4.5c18.667 0 31.834 -5 39.501 -15s11.5 -21 11.5 -33c-14 -64.667 -25.333 -119 -34 -163s-13 -78 -13 -102c0 -31.333 9.33301 -47 28 -47c12.667 0 25.667 6.5 39 19.5s26.833 29.833 40.5 50.5
s26.834 42.834 39.501 66.501l35 68c10.667 21.667 20 39.834 28 54.501c4 -0.666992 10.167 -2 18.5 -4s15.833 -5 22.5 -9s10 -9 10 -15c0 -2 -3.16699 -10.333 -9.5 -25l-23 -54c-9 -21.333 -16.833 -43.166 -23.5 -65.499s-10 -41.833 -10 -58.5
c0 -11.333 2.33301 -20.5 7 -27.5s13 -10.5 25 -10.5c14 0 31 6.33301 51 19s40.333 31 61 55s39 53 55 87l17 -11c-14.667 -36 -33.5 -68 -56.5 -96s-47.5 -49.833 -73.5 -65.5s-51 -23.5 -75 -23.5c-26 0 -44.833 7.33301 -56.5 22s-17.5 32.667 -17.5 54
c0 6 0.5 12.333 1.5 19s2.16699 13.334 3.5 20.001c-18 -31.333 -37.667 -58.333 -59 -81s-44.333 -34 -69 -34c-7.33301 0 -14.833 1.66699 -22.5 5s-14.167 7.33301 -19.5 12c-24.667 -86 -45.167 -151.667 -61.5 -197s-29.5 -68 -39.5 -68z" />
    <glyph glyph-name="paragraph" unicode="&#xb6;" horiz-adv-x="658" 
d="M339 -87c2 35.333 4.8291 73.5029 8.49609 114.503s7.16699 83.5 10.5 127.5c-16 0.666992 -36.5 2.66699 -61.5 6s-50.833 8.83301 -77.5 16.5s-51.667 18.167 -75 31.5s-42.5 30.5 -57.5 51.5s-22.5 46.167 -22.5 75.5c0 37.333 9.66699 70.333 29 99
s44.5 53.167 75.5 73.5s65 36.5 102 48.5s72.833 19.667 107.5 23c-1.33301 47.333 -4.66602 89.666 -9.99902 126.999c6.66699 4 12.5 6.5 17.5 7.5s9.83301 1.5 14.5 1.5c11.333 0 19.666 -4.66699 24.999 -14s9 -21.333 11 -36s3.16699 -29.667 3.5 -45s0.5 -29 0.5 -41
c6.66699 -0.666992 14 -1.5 22 -2.5s15 -2.5 21 -4.5c-1.33301 27.333 -2.5 52.666 -3.5 75.999s-2.5 42.666 -4.5 57.999c5.33301 4 10.5 6.5 15.5 7.5s9.5 1.5 13.5 1.5c8.66699 0 15.5 -7.33301 20.5 -22s9 -34 12 -58s5.5 -50 7.5 -78
c17.333 -4.66699 33.166 -10 47.499 -16s26.833 -11.667 37.5 -17c-1.33301 -4 -5.16602 -8.33301 -11.499 -13s-12.666 -8.66699 -18.999 -12s-10.833 -5 -13.5 -5c-3.33301 0 -8.16602 1.83301 -14.499 5.5s-14.833 8.16699 -25.5 13.5
c1.33301 -13.333 2 -26.666 2 -39.999v-38c0 -145.333 -1.66699 -257.833 -5 -337.5s-6.33301 -124.5 -9 -134.5c-5.33301 -16 -15 -28.5 -29 -37.5s-29 -13.5 -45 -13.5c0.666992 2 1.83398 12 3.50098 30s3.5 42.5 5.5 73.5s4 66.5 6 106.5s3.83301 83.167 5.5 129.5
s2.83398 94 3.50098 143s0.666992 97.833 0 146.5l-20 4.5c-7.33301 1.66699 -14.333 3.16699 -21 4.5c1.33301 -22.667 2.33301 -47.334 3 -74.001s1.16699 -53 1.5 -79s0.5 -49.667 0.5 -71c0 -50.667 -0.5 -97.5 -1.5 -140.5s-2.33301 -80.333 -4 -112
s-3.33398 -57 -5.00098 -76s-3.16699 -30.5 -4.5 -34.5c-3.33301 -9.33301 -10.166 -18 -20.499 -26s-22 -14.167 -35 -18.5s-25.5 -6.5 -37.5 -6.5z" />
    <glyph glyph-name="periodcentered" unicode="&#xb7;" horiz-adv-x="220" 
d="M80 121c-11.333 0 -19.999 2.83203 -25.999 8.49902s-9 12.834 -9 21.501c0 7.33301 3.16699 14.5 9.5 21.5s14.166 12.5 23.499 16.5s18.333 6 27 6c7.33301 0 13.833 -1.66699 19.5 -5s8.5 -10.333 8.5 -21c0 -6 -2.5 -12.667 -7.5 -20s-11.5 -13.833 -19.5 -19.5
s-16.667 -8.5 -26 -8.5z" />
    <glyph glyph-name="cedilla" unicode="&#xb8;" horiz-adv-x="222" 
d="M81 -218c-20 0 -35.5029 3.83496 -46.5029 11.502s-16.5 16.167 -16.5 25.5c0 6 2.16699 12.167 6.5 18.5s10.5 12.5 18.5 18.5c4 -16.667 9.83301 -28.334 17.5 -35.001s15.834 -10 24.501 -10c12 0 24.333 4.83301 37 14.5s23.334 21.167 32.001 34.5s13 25.333 13 36
c0 5.33301 -1.33301 10.333 -4 15s-7 7 -13 7c-8 0 -17.667 -3.16699 -29 -9.5s-22 -12.833 -32 -19.5s-17.333 -10 -22 -10s-8.5 2.33301 -11.5 7s-4.5 9 -4.5 13c0 1.33301 2.83301 6.16602 8.5 14.499s12.834 18.166 21.501 29.499l26 33c8.66699 10.667 16 18.667 22 24
h14l-51 -79c6.66699 4 15.167 8.33301 25.5 13s22.833 7 37.5 7c15.333 0 27.166 -3.66699 35.499 -11s12.5 -18.666 12.5 -33.999c0 -18 -5.83301 -35.833 -17.5 -53.5s-26.667 -32.167 -45 -43.5s-38.166 -17 -59.499 -17z" />
    <glyph glyph-name="uni00B9" unicode="&#xb9;" horiz-adv-x="276" 
d="M121 314c-6.66699 0 -14.665 2.33203 -23.998 6.99902s-17.333 12 -24 22c16.667 0 30.5 0.166992 41.5 0.5s22.167 1.16602 33.5 2.49902c7.33301 17.333 14 39 20 65s11.667 53.333 17 82l14.5 80.5c4.33301 25 8.5 44.833 12.5 59.5
c-14.667 -9.33301 -25.5 -15.5 -32.5 -18.5s-12.167 -4.5 -15.5 -4.5c-5.33301 0 -9.5 1.66699 -12.5 5s-4.5 9 -4.5 17c6 2.66699 15.167 8.33398 27.5 17.001s26 19 41 31s28.833 24.333 41.5 37h6c1.33301 -1.33301 2.33301 -3.16602 3 -5.49902s1 -4.83301 1 -7.5
c0.666992 -4 0.5 -8.5 -0.5 -13.5s-1.83301 -9.5 -2.5 -13.5c-2 -8.66699 -4.83301 -23 -8.5 -43s-8.16699 -42.667 -13.5 -68l-16 -78l-13 -62c-3.33301 -16.667 -6.83301 -31.167 -10.5 -43.5s-8.5 -22.5 -14.5 -30.5c16 0 29.833 -2 41.5 -6s19.167 -14 22.5 -30
c-6.66699 0.666992 -14.334 1.16699 -23.001 1.5s-16.334 0.5 -23.001 0.5c-17.333 0 -32.333 -0.666992 -45 -2s-26 -2 -40 -2z" />
    <glyph glyph-name="ordmasculine" unicode="&#xba;" horiz-adv-x="289" 
d="M172 452c-18 0 -32.166 5.83203 -42.499 17.499s-15.5 26.5 -15.5 44.5s4.66699 38.667 14 62s22.166 46 38.499 68s34.833 40.167 55.5 54.5s41.667 21.5 63 21.5c8.66699 0 15.5 -1.33301 20.5 -4s8.5 -6 10.5 -10c11.333 0 19.333 -3.33301 24 -10s7 -13 7 -19
c0 -5.33301 -2.33301 -12.666 -7 -21.999s-9.33398 -19.333 -14.001 -30s-7 -21.667 -7 -33c0 -6 1.83301 -10 5.5 -12s8.16699 -3 13.5 -3c4.66699 0 9.16699 0.333008 13.5 1s8.5 1.66699 12.5 3c-2 -8 -7 -14.167 -15 -18.5s-16.667 -6.5 -26 -6.5
c-11.333 0 -19.666 3.66699 -24.999 11c-14.667 -33.333 -33 -60.833 -55 -82.5s-45.667 -32.5 -71 -32.5zM189.001 484.999c10 0 21.0029 4.83008 33.0029 14.4971s23.667 22.334 35 38.001s20.666 32.834 27.999 51.501c-1.33301 6 -2.33301 11.833 -3 17.5
s-1 12.834 -1 21.501c0 15.333 1 27.666 3 36.999s4.66699 17 8 23c-18.667 -1.33301 -35.834 -8.33301 -51.501 -21s-29.334 -28.167 -41.001 -46.5s-20.834 -36.666 -27.501 -54.999s-10 -33.833 -10 -46.5c0 -10 2.33301 -18.167 7 -24.5s11.334 -9.5 20.001 -9.5z" />
    <glyph glyph-name="guillemotright" unicode="&#xbb;" horiz-adv-x="467" 
d="M245 44c-6.66699 0 -12.834 2.16504 -18.501 6.49805s-10.5 8.5 -14.5 12.5c30.667 12 55.334 22.333 74.001 31s34.5 17.167 47.5 25.5l41.5 27.5c-17.333 8.66699 -35.666 18.5 -54.999 29.5s-37.333 22.833 -54 35.5s-30.334 25.834 -41.001 39.501
s-16 27.167 -16 40.5c0 3.33301 1 8 3 14s3.33301 9.66699 4 11c14.667 -19.333 32.667 -39.333 54 -60s44.166 -39.5 68.499 -56.5s47.833 -30.5 70.5 -40.5c-3.33301 -10 -11.166 -21.667 -23.499 -35s-27 -26.166 -44 -38.499s-34.333 -22.5 -52 -30.5
s-32.5 -12 -44.5 -12zM94 43.998c-6.66699 0 -12.834 2.16504 -18.501 6.49805s-10.5 8.5 -14.5 12.5c30.667 12 55.334 22.333 74.001 31s34.5 17.167 47.5 25.5l41.5 27.5c-17.333 8.66699 -35.666 18.5 -54.999 29.5s-37.333 22.833 -54 35.5
s-30.334 25.834 -41.001 39.501s-16 27.167 -16 40.5c0 3.33301 1 8 3 14s3.33301 9.66699 4 11c14.667 -19.333 32.667 -39.333 54 -60s44.166 -39.5 68.499 -56.5s47.833 -30.5 70.5 -40.5c-3.33301 -10 -11.166 -21.667 -23.499 -35s-27 -26.166 -44 -38.499
s-34.333 -22.5 -52 -30.5s-32.5 -12 -44.5 -12z" />
    <glyph glyph-name="onequarter" unicode="&#xbc;" horiz-adv-x="657" 
d="M47 -87c16 15.333 36.001 40.4971 60.001 75.4971s50.333 75.833 79 122.5l87.5 149l85.5 156.5l73.5 144.5c21.667 44.667 38.167 82.334 49.5 113.001c2.66699 6.66699 9 13.334 19 20.001s21.333 12.334 34 17.001s24.667 6.66699 36 6
c-3.33301 -9.33301 -11.833 -27.833 -25.5 -55.5l-50.5 -100l-64.5 -124.5l-70 -131.5l-66.5 -119.5c-20.667 -36 -38.334 -65.667 -53.001 -89c-34.667 -54.667 -67.667 -99 -99 -133s-63 -51 -95 -51zM527.001 -26.0029c-16.667 1.33301 -29.666 4.16797 -38.999 8.50098
s-14 11.166 -14 20.499c0 2.66699 1.33301 13.167 4 31.5s9 51.166 19 98.499c-4 0 -8.5 0.166992 -13.5 0.5s-12.167 0.5 -21.5 0.5c-20.667 0 -39.667 -0.833008 -57 -2.5s-32.666 -4.16699 -45.999 -7.5c0 8 1.16699 14.333 3.5 19s4.83301 8.33398 7.5 11.001l72 64
c27.333 24.667 53.666 51 78.999 79s45.666 55.333 60.999 82c10 -1.33301 15 -6.66602 15 -15.999c0 -5.33301 -4.16699 -22.333 -12.5 -51s-19.166 -77 -32.499 -145h15c5.33301 0 11.333 0.666992 18 2s14.667 2.66602 24 3.99902
c-8.66699 -12 -18.334 -21.833 -29.001 -29.5s-22 -11.167 -34 -10.5c-0.666992 -6 -2 -15.667 -4 -29s-4.33301 -28 -7 -44s-4.66699 -31.833 -6 -47.5s-2 -28.5 -2 -38.5zM423.002 168.999c8.66699 0.666992 20.334 0.832031 35.001 0.499023s30.667 -0.5 48 -0.5
l9.5 45.5c2.33301 11.667 4.66602 21.834 6.99902 30.501l7.5 27l-38 -37l-25 -23l-22.5 -21c-7 -6.66699 -14.167 -14 -21.5 -22zM119.002 313.997c-6.66699 0 -14.665 2.33203 -23.998 6.99902s-17.333 12 -24 22c16.667 0 30.5 0.166992 41.5 0.5
s22.167 1.16602 33.5 2.49902c7.33301 17.333 14 39 20 65s11.667 53.333 17 82l14.5 80.5c4.33301 25 8.5 44.833 12.5 59.5c-14.667 -9.33301 -25.5 -15.5 -32.5 -18.5s-12.167 -4.5 -15.5 -4.5c-5.33301 0 -9.5 1.66699 -12.5 5s-4.5 9 -4.5 17
c6 2.66699 15.167 8.33398 27.5 17.001s25.833 19 40.5 31s28.667 24.333 42 37h6c1.33301 -1.33301 2.33301 -3.16602 3 -5.49902s1 -4.83301 1 -7.5c0.666992 -4 0.5 -8.5 -0.5 -13.5s-1.83301 -9.5 -2.5 -13.5l-16.5 -82.5l-34.5 -168.5
c-3.33301 -16.667 -6.83301 -31.167 -10.5 -43.5s-8.5 -22.5 -14.5 -30.5c16 0 29.833 -2 41.5 -6s19.167 -14 22.5 -30c-6.66699 0.666992 -14.334 1.16699 -23.001 1.5s-16.334 0.5 -23.001 0.5c-17.333 0 -32.333 -0.666992 -45 -2s-26 -2 -40 -2z" />
    <glyph glyph-name="onehalf" unicode="&#xbd;" horiz-adv-x="713" 
d="M54 -87c16 15.333 35.999 40.499 59.999 75.499s50.333 75.833 79 122.5l87.5 149l85.5 156.5l73.5 144.5c21.667 44.667 38.167 82.334 49.5 113.001c2.66699 6.66699 8.83398 13.5 18.501 20.5s20.667 13 33 18s24.166 7.5 35.499 7.5
c-3.33301 -10 -11.666 -29 -24.999 -57l-50 -100.5l-64.5 -125l-70 -132l-66 -119.5c-20.333 -36 -37.833 -65.667 -52.5 -89c-34.667 -54.667 -67.667 -99 -99 -133s-63 -51 -95 -51zM394.999 11.999c4 0 7.83203 1 11.499 3s8.16699 4.33301 13.5 7
c-5.33301 2 -10.166 3.33301 -14.499 4s-7.83301 1 -10.5 1c-4.66699 0 -7.83398 -0.833008 -9.50098 -2.5s-2.5 -3.16699 -2.5 -4.5c0 -2 1.33301 -3.83301 4 -5.5s5.33398 -2.5 8.00098 -2.5zM570.998 -26.001c-9.33301 0 -20.3311 1.50098 -32.998 4.50098
s-26.167 7.33301 -40.5 13l-44.5 18.5c-21.333 -13.333 -40.333 -20 -57 -20c-11.333 0 -21 2.83301 -29 8.5s-12 13.167 -12 22.5c0 18.667 14.667 28 44 28c7.33301 0 15.166 -0.666992 23.499 -2s17.5 -3 27.5 -5c20 18 39.833 41 59.5 69s36.167 58 49.5 90
s20 62.333 20 91c0 23.333 -4.66699 40.166 -14 50.499s-20.666 15.5 -33.999 15.5c-19.333 0 -34.5 -9 -45.5 -27s-16.5 -40.333 -16.5 -67c0 -6.66699 0.5 -12.667 1.5 -18s3.16699 -12.333 6.5 -21h-11c-13.333 3.33301 -23.5 8.5 -30.5 15.5s-10.5 17.833 -10.5 32.5
c0 18.667 4.66699 36.167 14 52.5s22.666 29.5 39.999 39.5s37.333 15 60 15c26 0 47.167 -9.16699 63.5 -27.5s24.5 -40.5 24.5 -66.5c0 -28.667 -6.5 -58.667 -19.5 -90s-30.167 -61 -51.5 -89s-44 -52 -68 -72c20 -4.66699 38.167 -8.66699 54.5 -12s30.166 -5 41.499 -5
c5.33301 0 11.5 1.5 18.5 4.5s16.833 8.5 29.5 16.5c-5.33301 -22.667 -12.833 -39.167 -22.5 -49.5s-22.5 -15.5 -38.5 -15.5zM123 314c-6.66699 0 -14.665 2.33203 -23.998 6.99902s-17.333 12 -24 22c16.667 0 30.5 0.166992 41.5 0.5s22.167 1.16602 33.5 2.49902
c7.33301 17.333 14 39 20 65s11.667 53.333 17 82l14.5 80.5c4.33301 25 8.5 44.833 12.5 59.5c-14.667 -9.33301 -25.5 -15.5 -32.5 -18.5s-12.167 -4.5 -15.5 -4.5c-5.33301 0 -9.5 1.66699 -12.5 5s-4.5 9 -4.5 17c6 2.66699 15.167 8.33398 27.5 17.001
s25.833 19 40.5 31s28.667 24.333 42 37h6c1.33301 -1.33301 2.33301 -3.16602 3 -5.49902s1 -4.83301 1 -7.5c0.666992 -4 0.5 -8.5 -0.5 -13.5s-1.83301 -9.5 -2.5 -13.5l-16.5 -82.5l-34.5 -168.5c-3.33301 -16.667 -6.83301 -31.167 -10.5 -43.5s-8.5 -22.5 -14.5 -30.5
c16 0 29.833 -2 41.5 -6s19.167 -14 22.5 -30c-6.66699 0.666992 -14.334 1.16699 -23.001 1.5s-16.334 0.5 -23.001 0.5c-17.333 0 -32.333 -0.666992 -45 -2s-26 -2 -40 -2z" />
    <glyph glyph-name="threequarters" unicode="&#xbe;" horiz-adv-x="701" 
d="M92 -87c22.667 25.333 47.3359 57.332 74.0029 95.999s54.167 81.5 82.5 128.5l84 145.5l78.5 147.5l67 135c20 41.667 36.333 77.834 49 108.501c3.33301 6.66699 9.66602 13.5 18.999 20.5s20.166 13 32.499 18s24.166 7.5 35.499 7.5
c-3.33301 -10 -11.5 -28.667 -24.5 -56l-49 -99l-63.5 -123.5l-69.5 -130.5l-67 -120.5c-21 -37 -39.5 -68.167 -55.5 -93.5c-34.667 -54.667 -67.5 -99 -98.5 -133s-62.5 -51 -94.5 -51zM176.002 311.999c-21.333 0 -38.6699 3.83105 -52.0029 11.498
s-22.833 17.334 -28.5 29.001s-8.5 23.167 -8.5 34.5c0 12.667 4 25.334 12 38.001s20 19 36 19c2 0 4.5 -0.166992 7.5 -0.5s6.83301 -1.5 11.5 -3.5c-6 -5.33301 -10.833 -12.5 -14.5 -21.5s-5.5 -17.833 -5.5 -26.5c0 -14 4.33301 -26.833 13 -38.5s20 -17.5 34 -17.5
c18.667 0 35.834 9.66699 51.501 29s23.5 44.333 23.5 75c0 18.667 -4.66699 37 -14 55s-26.333 30 -51 36c18 8.66699 33.667 19.834 47 33.501s23.833 28.5 31.5 44.5s11.5 30.333 11.5 43c0 16.667 -4.16699 28.5 -12.5 35.5s-17.5 10.5 -27.5 10.5
c-12.667 0 -24.5 -4.5 -35.5 -13.5s-16.5 -21.5 -16.5 -37.5c0 -4.66699 0.833008 -9.83398 2.5 -15.501s3.83398 -11.5 6.50098 -17.5c-2 -4.66699 -5.83301 -8.83398 -11.5 -12.501s-10.834 -5.5 -15.501 -5.5c-7.33301 0 -13 5 -17 15s-6.33301 19.333 -7 28
c0 17.333 4.83301 31.833 14.5 43.5s22.334 20.5 38.001 26.5s31.5 9 47.5 9c21.333 0 40.5 -5.66699 57.5 -17s25.5 -28.333 25.5 -51c0 -14 -3.16699 -28.667 -9.5 -44s-15.5 -29.166 -27.5 -41.499s-25.667 -21.5 -41 -27.5c24.667 -9.33301 42 -23.5 52 -42.5
s15 -36.833 15 -53.5c0 -20.667 -6.16699 -41 -18.5 -61s-29.166 -36.333 -50.499 -49s-46 -19 -74 -19zM570.998 -26.0029c-16.667 1.33301 -29.6689 4.16797 -39.002 8.50098s-14 11.166 -14 20.499c0 2.66699 1.5 13.167 4.5 31.5s9.5 51.166 19.5 98.499
c-4 0 -8.5 0.166992 -13.5 0.5s-12.167 0.5 -21.5 0.5c-20.667 0 -39.667 -0.833008 -57 -2.5s-32.666 -4.16699 -45.999 -7.5c0 8 1 14.333 3 19s4.33301 8.33398 7 11.001l72.5 64c27 24.667 53.333 51 79 79s45.834 55.333 60.501 82
c10.667 -1.33301 16 -6.66602 16 -15.999c0 -5.33301 -4.33301 -22.333 -13 -51s-19.334 -77 -32.001 -145h15c5.33301 0 11.333 0.666992 18 2s14.334 2.66602 23.001 3.99902c-8.66699 -12 -18.334 -21.833 -29.001 -29.5s-21.667 -11.167 -33 -10.5
c-0.666992 -6 -2.16699 -15.667 -4.5 -29s-4.66602 -28 -6.99902 -44s-4.33301 -31.833 -6 -47.5s-2.5 -28.5 -2.5 -38.5zM467.996 168.999c8.66699 0.666992 20.334 0.832031 35.001 0.499023s30.667 -0.5 48 -0.5l9.5 45.5c2.33301 11.667 4.66602 21.834 6.99902 30.501
l7.5 27l-39 -37l-24.5 -23l-22.5 -21c-7.33301 -6.66699 -14.333 -14 -21 -22z" />
    <glyph glyph-name="questiondown" unicode="&#xbf;" horiz-adv-x="422" 
d="M93 -280c-42.667 0 -76.6699 10.668 -102.003 32.001s-38 52.333 -38 93c0 26.667 5.16699 50 15.5 70s23.833 38.667 40.5 56l52.5 52.5c18.333 17.667 35.333 37 51 58s27.834 45.167 36.501 72.5c6.66699 21.333 10.834 40.166 12.501 56.499
s5.83398 33.166 12.501 50.499c14.667 -6.66699 24.167 -13 28.5 -19s6.5 -15.333 6.5 -28c0 -28 -6.5 -53.5 -19.5 -76.5s-28.833 -45 -47.5 -66l-56.5 -63.5c-19 -21.333 -35 -44.333 -48 -69s-19.5 -52.667 -19.5 -84c0 -34.667 7.5 -60.834 22.5 -78.501
s33.833 -26.5 56.5 -26.5c23.333 0 46.5 8.66699 69.5 26s42 40.666 57 69.999s22.5 62 22.5 98c0 10 -0.666992 19.333 -2 28s-3.33301 18 -6 28c28 -3.33301 46.5 -11.666 55.5 -24.999s13.5 -29.666 13.5 -48.999c0 -35.333 -9 -68.666 -27 -99.999
s-43 -56.833 -75 -76.5s-69.333 -29.5 -112 -29.5zM187.997 321.001c-8.66699 0 -15.667 2 -21 6s-8 10 -8 18c0 12 5.83301 23 17.5 33s24.167 15 37.5 15c9.33301 0 17.5 -2.33301 24.5 -7s10.5 -11.667 10.5 -21c0 -12.667 -6.66699 -23.167 -20 -31.5
s-27 -12.5 -41 -12.5z" />
    <glyph glyph-name="Agrave" unicode="&#xc0;" horiz-adv-x="605" 
d="M27 -87c-16.667 9.33301 -27.1611 19.168 -31.4941 29.501s-6.5 18.833 -6.5 25.5c0 18.667 6.66699 43.667 20 75s31.333 67.333 54 108s48 82.667 76 126c-23.333 2 -43.833 3.33301 -61.5 4s-35.834 1 -54.501 1h-28c8 20.667 21.5 35.167 40.5 43.5
s41.5 12.5 67.5 12.5c11.333 0 23 -0.666992 35 -2s24.333 -3 37 -5c34 50.667 68.333 99.167 103 145.5s67.167 87.833 97.5 124.5s56.166 65 77.499 85c23.333 23.333 41.666 35 54.999 35c8 0 17 -3.16699 27 -9.5s20.333 -14.833 31 -25.5
c-6.66699 -5.33301 -15.167 -19.333 -25.5 -42s-21.333 -51.167 -33 -85.5s-23.167 -71.833 -34.5 -112.5s-21.833 -82.334 -31.5 -125.001s-17.334 -83.167 -23.001 -121.5s-8.5 -71.833 -8.5 -100.5c0 -26 2.83301 -45.833 8.5 -59.5s14.834 -20.5 27.501 -20.5
c16.667 0 36.167 11.833 58.5 35.5s46.833 61.167 73.5 112.5l13 -13c-20.667 -53.333 -46.834 -97.333 -78.501 -132s-64.834 -52 -99.501 -52c-28.667 0 -49.334 12.833 -62.001 38.5s-19 59.834 -19 102.501c0 19.333 1.33301 40.666 4 63.999s6.66699 49 12 77
c-29.333 4.66699 -56 8.5 -80 11.5l-67 8.5c-31.333 -58 -61.833 -117.5 -91.5 -178.5s-57.167 -121.167 -82.5 -180.5zM356.006 292.002c9.33301 42 20.334 84.832 33.001 128.499s26.167 85.167 40.5 124.5s28.166 74 41.499 104c-20.667 -13.333 -44 -35.833 -70 -67.5
s-53.5 -69.667 -82.5 -114s-58.833 -93.166 -89.5 -146.499c22 -4 43.833 -8.66699 65.5 -14zM551.007 748.001c-15.333 19.333 -31.833 38.001 -49.5 56.001s-39.167 37.333 -64.5 58c1.33301 12.667 4.33301 21.5 9 26.5s10 7.5 16 7.5c10 0 21.167 -4.83301 33.5 -14.5
s24 -21.5 35 -35.5s20 -27.5 27 -40.5s10.5 -22.5 10.5 -28.5c0 -3.33301 -1.33301 -8.33301 -4 -15s-7 -11.334 -13 -14.001z" />
    <glyph glyph-name="Aacute" unicode="&#xc1;" horiz-adv-x="605" 
d="M27 -87c-16.667 9.33301 -27.1611 19.168 -31.4941 29.501s-6.5 18.833 -6.5 25.5c0 18.667 6.66699 43.667 20 75s31.333 67.333 54 108s48 82.667 76 126c-23.333 2 -43.833 3.33301 -61.5 4s-35.834 1 -54.501 1h-28c8 20.667 21.5 35.167 40.5 43.5
s41.5 12.5 67.5 12.5c11.333 0 23 -0.666992 35 -2s24.333 -3 37 -5c34 50.667 68.333 99.167 103 145.5s67.167 87.833 97.5 124.5s56.166 65 77.499 85c23.333 23.333 41.666 35 54.999 35c8 0 17 -3.16699 27 -9.5s20.333 -14.833 31 -25.5
c-6.66699 -5.33301 -15.167 -19.333 -25.5 -42s-21.333 -51.167 -33 -85.5s-23.167 -71.833 -34.5 -112.5s-21.833 -82.334 -31.5 -125.001s-17.334 -83.167 -23.001 -121.5s-8.5 -71.833 -8.5 -100.5c0 -26 2.83301 -45.833 8.5 -59.5s14.834 -20.5 27.501 -20.5
c16.667 0 36.167 11.833 58.5 35.5s46.833 61.167 73.5 112.5l13 -13c-20.667 -53.333 -46.834 -97.333 -78.501 -132s-64.834 -52 -99.501 -52c-28.667 0 -49.334 12.833 -62.001 38.5s-19 59.834 -19 102.501c0 19.333 1.33301 40.666 4 63.999s6.66699 49 12 77
c-29.333 4.66699 -56 8.5 -80 11.5l-67 8.5c-31.333 -58 -61.833 -117.5 -91.5 -178.5s-57.167 -121.167 -82.5 -180.5zM356.006 292.002c9.33301 42 20.334 84.832 33.001 128.499s26.167 85.167 40.5 124.5s28.166 74 41.499 104c-20.667 -13.333 -44 -35.833 -70 -67.5
s-53.5 -69.667 -82.5 -114s-58.833 -93.166 -89.5 -146.499c22 -4 43.833 -8.66699 65.5 -14zM555.007 748.001c-6 2.66699 -10.3359 7.33203 -13.0029 13.999s-4 11.334 -4 14.001c0 6 3.5 15.333 10.5 28s15.833 26.167 26.5 40.5s21.834 26.333 33.501 36
s22.834 14.5 33.501 14.5c6 0 11.333 -2.16699 16 -6.5s7.33398 -12.833 8.00098 -25.5c-23.333 -21.333 -44 -41 -62 -59s-34.333 -36.667 -49 -56z" />
    <glyph glyph-name="Acircumflex" unicode="&#xc2;" horiz-adv-x="605" 
d="M27 -87c-16.667 9.33301 -27.1611 19.168 -31.4941 29.501s-6.5 18.833 -6.5 25.5c0 18.667 6.66699 43.667 20 75s31.333 67.333 54 108s48 82.667 76 126c-23.333 2 -43.833 3.33301 -61.5 4s-35.834 1 -54.501 1h-28c8 20.667 21.5 35.167 40.5 43.5
s41.5 12.5 67.5 12.5c11.333 0 23 -0.666992 35 -2s24.333 -3 37 -5c34 50.667 68.333 99.167 103 145.5s67.167 87.833 97.5 124.5s56.166 65 77.499 85c23.333 23.333 41.666 35 54.999 35c8 0 17 -3.16699 27 -9.5s20.333 -14.833 31 -25.5
c-6.66699 -5.33301 -15.167 -19.333 -25.5 -42s-21.333 -51.167 -33 -85.5s-23.167 -71.833 -34.5 -112.5s-21.833 -82.334 -31.5 -125.001s-17.334 -83.167 -23.001 -121.5s-8.5 -71.833 -8.5 -100.5c0 -26 2.83301 -45.833 8.5 -59.5s14.834 -20.5 27.501 -20.5
c16.667 0 36.167 11.833 58.5 35.5s46.833 61.167 73.5 112.5l13 -13c-20.667 -53.333 -46.834 -97.333 -78.501 -132s-64.834 -52 -99.501 -52c-28.667 0 -49.334 12.833 -62.001 38.5s-19 59.834 -19 102.501c0 19.333 1.33301 40.666 4 63.999s6.66699 49 12 77
c-29.333 4.66699 -56 8.5 -80 11.5l-67 8.5c-31.333 -58 -61.833 -117.5 -91.5 -178.5s-57.167 -121.167 -82.5 -180.5zM356.006 292.002c9.33301 42 20.334 84.832 33.001 128.499s26.167 85.167 40.5 124.5s28.166 74 41.499 104c-20.667 -13.333 -44 -35.833 -70 -67.5
s-53.5 -69.667 -82.5 -114s-58.833 -93.166 -89.5 -146.499c22 -4 43.833 -8.66699 65.5 -14zM646.007 744.001c-10 18.667 -21.0029 34.6689 -33.0029 48.002s-25.667 27 -41 41c-19.333 -6.66699 -37.166 -14.334 -53.499 -23.001s-32.5 -19.334 -48.5 -32.001
c-4.66699 2.66699 -7.66699 6.16699 -9 10.5s-2 8.16602 -2 11.499c0 10 4.5 20 13.5 30s20 19.333 33 28s25.833 15.667 38.5 21s22.334 8 29.001 8c8 0 17.333 -3.66699 28 -11s20.834 -16.666 30.501 -27.999s17.667 -23.333 24 -36s9.5 -24 9.5 -34
c0 -6.66699 -1.5 -13 -4.5 -19s-7.83301 -11 -14.5 -15z" />
    <glyph glyph-name="Atilde" unicode="&#xc3;" horiz-adv-x="605" 
d="M27 -87c-16.667 9.33301 -27.1611 19.168 -31.4941 29.501s-6.5 18.833 -6.5 25.5c0 18.667 6.66699 43.667 20 75s31.333 67.333 54 108s48 82.667 76 126c-23.333 2 -43.833 3.33301 -61.5 4s-35.834 1 -54.501 1h-28c8 20.667 21.5 35.167 40.5 43.5
s41.5 12.5 67.5 12.5c11.333 0 23 -0.666992 35 -2s24.333 -3 37 -5c34 50.667 68.333 99.167 103 145.5s67.167 87.833 97.5 124.5s56.166 65 77.499 85c23.333 23.333 41.666 35 54.999 35c8 0 17 -3.16699 27 -9.5s20.333 -14.833 31 -25.5
c-6.66699 -5.33301 -15.167 -19.333 -25.5 -42s-21.333 -51.167 -33 -85.5s-23.167 -71.833 -34.5 -112.5s-21.833 -82.334 -31.5 -125.001s-17.334 -83.167 -23.001 -121.5s-8.5 -71.833 -8.5 -100.5c0 -26 2.83301 -45.833 8.5 -59.5s14.834 -20.5 27.501 -20.5
c16.667 0 36.167 11.833 58.5 35.5s46.833 61.167 73.5 112.5l13 -13c-20.667 -53.333 -46.834 -97.333 -78.501 -132s-64.834 -52 -99.501 -52c-28.667 0 -49.334 12.833 -62.001 38.5s-19 59.834 -19 102.501c0 19.333 1.33301 40.666 4 63.999s6.66699 49 12 77
c-29.333 4.66699 -56 8.5 -80 11.5l-67 8.5c-31.333 -58 -61.833 -117.5 -91.5 -178.5s-57.167 -121.167 -82.5 -180.5zM356.006 292.002c9.33301 42 20.334 84.832 33.001 128.499s26.167 85.167 40.5 124.5s28.166 74 41.499 104c-20.667 -13.333 -44 -35.833 -70 -67.5
s-53.5 -69.667 -82.5 -114s-58.833 -93.166 -89.5 -146.499c22 -4 43.833 -8.66699 65.5 -14zM636.007 759.001c-18 0 -36.833 3.83203 -56.5 11.499l-59 23.5c-19.667 8 -39.167 12 -58.5 12c-10 0 -19.833 -1.16699 -29.5 -3.5s-19.167 -6.16602 -28.5 -11.499
c11.333 19.333 24.5 33 39.5 41s31.167 12 48.5 12c18.667 0 38 -4 58 -12l61.5 -24c21 -8 42.5 -12 64.5 -12c14 0 28.333 3 43 9c-12 -16 -24.667 -27.667 -38 -35s-28.333 -11 -45 -11z" />
    <glyph glyph-name="Adieresis" unicode="&#xc4;" horiz-adv-x="605" 
d="M27 -87c-16.667 9.33301 -27.1611 19.168 -31.4941 29.501s-6.5 18.833 -6.5 25.5c0 18.667 6.66699 43.667 20 75s31.333 67.333 54 108s48 82.667 76 126c-23.333 2 -43.833 3.33301 -61.5 4s-35.834 1 -54.501 1h-28c8 20.667 21.5 35.167 40.5 43.5
s41.5 12.5 67.5 12.5c11.333 0 23 -0.666992 35 -2s24.333 -3 37 -5c34 50.667 68.333 99.167 103 145.5s67.167 87.833 97.5 124.5s56.166 65 77.499 85c23.333 23.333 41.666 35 54.999 35c8 0 17 -3.16699 27 -9.5s20.333 -14.833 31 -25.5
c-6.66699 -5.33301 -15.167 -19.333 -25.5 -42s-21.333 -51.167 -33 -85.5s-23.167 -71.833 -34.5 -112.5s-21.833 -82.334 -31.5 -125.001s-17.334 -83.167 -23.001 -121.5s-8.5 -71.833 -8.5 -100.5c0 -26 2.83301 -45.833 8.5 -59.5s14.834 -20.5 27.501 -20.5
c16.667 0 36.167 11.833 58.5 35.5s46.833 61.167 73.5 112.5l13 -13c-20.667 -53.333 -46.834 -97.333 -78.501 -132s-64.834 -52 -99.501 -52c-28.667 0 -49.334 12.833 -62.001 38.5s-19 59.834 -19 102.501c0 19.333 1.33301 40.666 4 63.999s6.66699 49 12 77
c-29.333 4.66699 -56 8.5 -80 11.5l-67 8.5c-31.333 -58 -61.833 -117.5 -91.5 -178.5s-57.167 -121.167 -82.5 -180.5zM356.006 292.002c9.33301 42 20.334 84.832 33.001 128.499s26.167 85.167 40.5 124.5s28.166 74 41.499 104c-20.667 -13.333 -44 -35.833 -70 -67.5
s-53.5 -69.667 -82.5 -114s-58.833 -93.166 -89.5 -146.499c22 -4 43.833 -8.66699 65.5 -14zM628.007 753.001c-10 0 -18.999 2.5 -26.999 7.5s-12 12.833 -12 23.5c0 13.333 7.5 24.666 22.5 33.999s29.833 14 44.5 14c9.33301 0 17 -2.16699 23 -6.5s9 -12.166 9 -23.499
s-6.33301 -22.333 -19 -33s-26.334 -16 -41.001 -16zM484.008 774.001c-10 0 -19.001 2.33301 -27.001 7s-12 12.667 -12 24c0 12.667 7.33301 23.667 22 33s29.334 14 44.001 14c10 0 17.833 -2 23.5 -6s8.5 -11.667 8.5 -23s-6.16699 -22.333 -18.5 -33
s-25.833 -16 -40.5 -16z" />
    <glyph glyph-name="Aring" unicode="&#xc5;" horiz-adv-x="605" 
d="M27 -87c-16.667 9.33301 -27.1611 19.168 -31.4941 29.501s-6.5 18.833 -6.5 25.5c0 18.667 6.66699 43.667 20 75s31.333 67.333 54 108s48 82.667 76 126c-23.333 2 -43.833 3.33301 -61.5 4s-35.834 1 -54.501 1h-28c8 20.667 21.5 35.167 40.5 43.5
s41.5 12.5 67.5 12.5c11.333 0 23 -0.666992 35 -2s24.333 -3 37 -5c34 50.667 68.333 99.167 103 145.5s67.167 87.833 97.5 124.5s56.166 65 77.499 85c23.333 23.333 41.666 35 54.999 35c8 0 17 -3.16699 27 -9.5s20.333 -14.833 31 -25.5
c-6.66699 -5.33301 -15.167 -19.333 -25.5 -42s-21.333 -51.167 -33 -85.5s-23.167 -71.833 -34.5 -112.5s-21.833 -82.334 -31.5 -125.001s-17.334 -83.167 -23.001 -121.5s-8.5 -71.833 -8.5 -100.5c0 -26 2.83301 -45.833 8.5 -59.5s14.834 -20.5 27.501 -20.5
c16.667 0 36.167 11.833 58.5 35.5s46.833 61.167 73.5 112.5l13 -13c-20.667 -53.333 -46.834 -97.333 -78.501 -132s-64.834 -52 -99.501 -52c-28.667 0 -49.334 12.833 -62.001 38.5s-19 59.834 -19 102.501c0 19.333 1.33301 40.666 4 63.999s6.66699 49 12 77
c-29.333 4.66699 -56 8.5 -80 11.5l-67 8.5c-31.333 -58 -61.833 -117.5 -91.5 -178.5s-57.167 -121.167 -82.5 -180.5zM356.006 292.002c9.33301 42 20.334 84.832 33.001 128.499s26.167 85.167 40.5 124.5s28.166 74 41.499 104c-20.667 -13.333 -44 -35.833 -70 -67.5
s-53.5 -69.667 -82.5 -114s-58.833 -93.166 -89.5 -146.499c22 -4 43.833 -8.66699 65.5 -14zM551.007 754.001c-26.667 0 -45.6699 5.33301 -57.0029 16s-17 23.667 -17 39c0 16 5.33301 32.5 16 49.5s25.334 31.5 44.001 43.5s39.334 18 62.001 18
c28 0 48 -5.33301 60 -16s18 -23.667 18 -39c0 -16 -5.66699 -32.5 -17 -49.5s-26.666 -31.5 -45.999 -43.5s-40.333 -18 -63 -18zM559.004 779.001c12.667 0 24.834 4.33105 36.501 12.998s21.334 19.334 29.001 32.001s11.5 24.334 11.5 35.001
c0 8 -3.33301 15.5 -10 22.5s-17 10.5 -31 10.5c-12.667 0 -24.834 -4 -36.501 -12s-21 -18 -28 -30s-10.5 -23.333 -10.5 -34c0 -8 3.16699 -16.167 9.5 -24.5s16.166 -12.5 29.499 -12.5z" />
    <glyph glyph-name="AE" unicode="&#xc6;" horiz-adv-x="761" 
d="M26 -87c-16 9.33301 -26.335 19.166 -31.002 29.499s-7 18.833 -7 25.5c0 18.667 6.83301 43.667 20.5 75s31.834 67.333 54.501 108s48 82.667 76 126c-24 2 -44.5 3.33301 -61.5 4s-31.833 1 -44.5 1h-39c8 20.667 21.5 35.167 40.5 43.5s41.833 12.5 68.5 12.5
c11.333 0 23 -0.666992 35 -2s24.333 -3 37 -5l103.5 147c34.333 46.667 66.833 88.167 97.5 124.5s57.5 65.166 80.5 86.499s40.167 32 51.5 32c27.333 0 56.333 -0.833008 87 -2.5s60.834 -3.66699 90.501 -6s56.667 -4.83301 81 -7.5s43.833 -5 58.5 -7
c-4 -11.333 -14.667 -19.833 -32 -25.5s-38.5 -9.66699 -63.5 -12s-51.5 -3.5 -79.5 -3.5c-18.667 0 -36.667 0.166992 -54 0.5s-34 0.833008 -50 1.5c-10.667 -22 -23.5 -54.833 -38.5 -98.5s-29.5 -91.167 -43.5 -142.5c46.667 -1.33301 87.667 -4.83301 123 -10.5
s65 -10.167 89 -13.5c-4 -10.667 -14.833 -19 -32.5 -25s-39 -10 -64 -12s-51.5 -3 -79.5 -3h-29c-8 0 -15.667 0.333008 -23 1c-11.333 -48 -20.5 -95 -27.5 -141s-10.5 -85.333 -10.5 -118c0 -7.33301 0.333008 -14.333 1 -21s1.33398 -12.334 2.00098 -17.001
c21.333 -3.33301 45.333 -6.16602 72 -8.49902l79.5 -7c26.333 -2.33301 50.666 -4.66602 72.999 -6.99902s39.833 -5.16602 52.5 -8.49902c-4 -10.667 -14.667 -18.834 -32 -24.501s-38.5 -9.66699 -63.5 -12s-51.5 -3.5 -79.5 -3.5s-55.333 0.166992 -82 0.5
s-50 1.5 -70 3.5c-11.333 10.667 -19.5 26.834 -24.5 48.501s-7.5 45.5 -7.5 71.5c0 20.667 1.5 43 4.5 67s6.83301 48.667 11.5 74c-29.333 4.66699 -55.833 8.5 -79.5 11.5l-66.5 8.5l-92 -178.5c-30 -61 -57.667 -121.167 -83 -180.5zM354.998 292
c10 42 21.334 84.832 34.001 128.499s26.167 85.167 40.5 124.5s28.166 74 41.499 104c-20.667 -13.333 -44.167 -35.833 -70.5 -67.5s-54 -69.667 -83 -114s-58.5 -93.166 -88.5 -146.499c22 -4 44 -8.83301 66 -14.5s42 -10.5 60 -14.5z" />
    <glyph glyph-name="Ccedilla" unicode="&#xc7;" horiz-adv-x="546" 
d="M229 -87c-48 0 -87.166 11.8271 -117.499 35.4941s-52.333 54.334 -66 92.001s-20.5 76.834 -20.5 117.501c0 52.667 8 105.667 24 159s38 104 66 152s59.833 90.833 95.5 128.5s73.334 67.334 113.001 89.001s78.834 32.5 117.501 32.5c28 0 51 -6.66699 69 -20
s27 -36 27 -68c0 -19.333 -3.33301 -41.166 -10 -65.499s-15.834 -47.833 -27.501 -70.5s-24.5 -41.334 -38.5 -56.001s-28 -22 -42 -22c-6 0 -12.167 1.83301 -18.5 5.5s-11.833 10.5 -16.5 20.5c10 11.333 21.333 25.333 34 42s24.667 34.334 36 53.001
s20.5 37.167 27.5 55.5s10.5 34.166 10.5 47.499s-3.66699 23.833 -11 31.5s-19.666 11.5 -36.999 11.5c-28.667 0 -58.5 -11.333 -89.5 -34s-61 -53.167 -90 -91.5s-55 -81.166 -78 -128.499s-41.333 -95.666 -55 -144.999s-20.5 -96.333 -20.5 -141
c0 -32.667 4.66699 -63.667 14 -93s24.666 -53.166 45.999 -71.499s48.666 -27.5 81.999 -27.5c36 0 71.5 10 106.5 30s67.333 46.333 97 79s53.167 67.667 70.5 105l18 -12c-22.667 -44 -49.834 -84.167 -81.501 -120.5s-67.167 -65.5 -106.5 -87.5s-82 -33 -128 -33z
M369.001 -218.006c-20 0 -35.5029 3.83496 -46.5029 11.502s-16.5 16.167 -16.5 25.5c0 6 2.16699 12.167 6.5 18.5s10.5 12.5 18.5 18.5c4 -16.667 9.83301 -28.334 17.5 -35.001s15.834 -10 24.501 -10c12 0 24.333 4.83301 37 14.5s23.334 21.167 32.001 34.5
s13 25.333 13 36c0 5.33301 -1.33301 10.333 -4 15s-7 7 -13 7c-8 0 -17.667 -3.16699 -29 -9.5s-22 -12.833 -32 -19.5s-17.333 -10 -22 -10s-8.5 2.33301 -11.5 7s-4.5 9 -4.5 13c0 1.33301 2.83301 6.16602 8.5 14.499s12.834 18.166 21.501 29.499l26 33
c8.66699 10.667 16 18.667 22 24h14l-51 -79c6.66699 4 15.167 8.33301 25.5 13s22.833 7 37.5 7c15.333 0 27.166 -3.66699 35.499 -11s12.5 -18.666 12.5 -33.999c0 -18 -5.83301 -35.833 -17.5 -53.5s-26.667 -32.167 -45 -43.5s-38.166 -17 -59.499 -17z" />
    <glyph glyph-name="Egrave" unicode="&#xc8;" horiz-adv-x="510" 
d="M190 -87c-41.333 0 -77.001 8.3291 -107.001 24.9961s-53.167 39 -69.5 67s-24.5 58.667 -24.5 92c0 30 6.5 59.667 19.5 89s31.167 56 54.5 80s50.666 44 81.999 60s65 26 101 30c-25.333 21.333 -44 45.666 -56 72.999s-18 54.666 -18 81.999
c0 35.333 8.83301 69 26.5 101s42.334 57.833 74.001 77.5s67.834 29.5 108.501 29.5c38.667 0 68.167 -9.5 88.5 -28.5s30.5 -46.167 30.5 -81.5c0 -25.333 -4.5 -49.666 -13.5 -72.999s-19.833 -42.333 -32.5 -57s-24.667 -22 -36 -22c-8 0 -15.667 3.5 -23 10.5
s-13.333 15.167 -18 24.5c24 20 44.167 41.5 60.5 64.5s24.5 47.167 24.5 72.5c0 20.667 -6.16699 36.5 -18.5 47.5s-29.833 16.5 -52.5 16.5c-30.667 0 -56.5 -9.16699 -77.5 -27.5s-36.833 -42.333 -47.5 -72s-16 -61.834 -16 -96.501
c0 -25.333 4.16699 -52.166 12.5 -80.499s25.166 -53.166 50.499 -74.499c-45.333 -7.33301 -85 -24.166 -119 -50.499s-60.333 -57.166 -79 -92.499s-28 -70.333 -28 -105c0 -21.333 4.16699 -43 12.5 -65s22 -40.5 41 -55.5s44.167 -22.5 75.5 -22.5
c36 0 71.5 10 106.5 30s67.167 46.5 96.5 79.5s53 68.167 71 105.5l18 -12c-24 -45.333 -52 -86.166 -84 -122.499s-67.667 -65.166 -107 -86.499s-81.666 -32 -126.999 -32zM429.999 747.996c-15.333 19.333 -31.833 38.001 -49.5 56.001s-39.167 37.333 -64.5 58
c1.33301 12.667 4.33301 21.5 9 26.5s10 7.5 16 7.5c10 0 21.167 -4.83301 33.5 -14.5s24 -21.5 35 -35.5s20 -27.5 27 -40.5s10.5 -22.5 10.5 -28.5c0 -3.33301 -1.33301 -8.33301 -4 -15s-7 -11.334 -13 -14.001z" />
    <glyph glyph-name="Eacute" unicode="&#xc9;" horiz-adv-x="510" 
d="M190 -87c-41.333 0 -77.001 8.3291 -107.001 24.9961s-53.167 39 -69.5 67s-24.5 58.667 -24.5 92c0 30 6.5 59.667 19.5 89s31.167 56 54.5 80s50.666 44 81.999 60s65 26 101 30c-25.333 21.333 -44 45.666 -56 72.999s-18 54.666 -18 81.999
c0 35.333 8.83301 69 26.5 101s42.334 57.833 74.001 77.5s67.834 29.5 108.501 29.5c38.667 0 68.167 -9.5 88.5 -28.5s30.5 -46.167 30.5 -81.5c0 -25.333 -4.5 -49.666 -13.5 -72.999s-19.833 -42.333 -32.5 -57s-24.667 -22 -36 -22c-8 0 -15.667 3.5 -23 10.5
s-13.333 15.167 -18 24.5c24 20 44.167 41.5 60.5 64.5s24.5 47.167 24.5 72.5c0 20.667 -6.16699 36.5 -18.5 47.5s-29.833 16.5 -52.5 16.5c-30.667 0 -56.5 -9.16699 -77.5 -27.5s-36.833 -42.333 -47.5 -72s-16 -61.834 -16 -96.501
c0 -25.333 4.16699 -52.166 12.5 -80.499s25.166 -53.166 50.499 -74.499c-45.333 -7.33301 -85 -24.166 -119 -50.499s-60.333 -57.166 -79 -92.499s-28 -70.333 -28 -105c0 -21.333 4.16699 -43 12.5 -65s22 -40.5 41 -55.5s44.167 -22.5 75.5 -22.5
c36 0 71.5 10 106.5 30s67.167 46.5 96.5 79.5s53 68.167 71 105.5l18 -12c-24 -45.333 -52 -86.166 -84 -122.499s-67.667 -65.166 -107 -86.499s-81.666 -32 -126.999 -32zM433.999 747.996c-6 2.66699 -10.3359 7.33203 -13.0029 13.999s-4 11.334 -4 14.001
c0 6 3.5 15.333 10.5 28s15.833 26.167 26.5 40.5s21.834 26.333 33.501 36s22.834 14.5 33.501 14.5c6 0 11.333 -2.16699 16 -6.5s7.33398 -12.833 8.00098 -25.5c-23.333 -21.333 -44 -41 -62 -59s-34.333 -36.667 -49 -56z" />
    <glyph glyph-name="Ecircumflex" unicode="&#xca;" horiz-adv-x="510" 
d="M190 -87c-41.333 0 -77.001 8.3291 -107.001 24.9961s-53.167 39 -69.5 67s-24.5 58.667 -24.5 92c0 30 6.5 59.667 19.5 89s31.167 56 54.5 80s50.666 44 81.999 60s65 26 101 30c-25.333 21.333 -44 45.666 -56 72.999s-18 54.666 -18 81.999
c0 35.333 8.83301 69 26.5 101s42.334 57.833 74.001 77.5s67.834 29.5 108.501 29.5c38.667 0 68.167 -9.5 88.5 -28.5s30.5 -46.167 30.5 -81.5c0 -25.333 -4.5 -49.666 -13.5 -72.999s-19.833 -42.333 -32.5 -57s-24.667 -22 -36 -22c-8 0 -15.667 3.5 -23 10.5
s-13.333 15.167 -18 24.5c24 20 44.167 41.5 60.5 64.5s24.5 47.167 24.5 72.5c0 20.667 -6.16699 36.5 -18.5 47.5s-29.833 16.5 -52.5 16.5c-30.667 0 -56.5 -9.16699 -77.5 -27.5s-36.833 -42.333 -47.5 -72s-16 -61.834 -16 -96.501
c0 -25.333 4.16699 -52.166 12.5 -80.499s25.166 -53.166 50.499 -74.499c-45.333 -7.33301 -85 -24.166 -119 -50.499s-60.333 -57.166 -79 -92.499s-28 -70.333 -28 -105c0 -21.333 4.16699 -43 12.5 -65s22 -40.5 41 -55.5s44.167 -22.5 75.5 -22.5
c36 0 71.5 10 106.5 30s67.167 46.5 96.5 79.5s53 68.167 71 105.5l18 -12c-24 -45.333 -52 -86.166 -84 -122.499s-67.667 -65.166 -107 -86.499s-81.666 -32 -126.999 -32zM524.999 743.996c-10 18.667 -21.0029 34.6689 -33.0029 48.002s-25.667 27 -41 41
c-19.333 -6.66699 -37.166 -14.334 -53.499 -23.001s-32.5 -19.334 -48.5 -32.001c-4.66699 2.66699 -7.66699 6.16699 -9 10.5s-2 8.16602 -2 11.499c0 10 4.5 20 13.5 30s20 19.333 33 28s25.833 15.667 38.5 21s22.334 8 29.001 8c8 0 17.333 -3.66699 28 -11
s20.834 -16.666 30.501 -27.999s17.667 -23.333 24 -36s9.5 -24 9.5 -34c0 -6.66699 -1.5 -13 -4.5 -19s-7.83301 -11 -14.5 -15z" />
    <glyph glyph-name="Edieresis" unicode="&#xcb;" horiz-adv-x="510" 
d="M190 -87c-41.333 0 -77.001 8.3291 -107.001 24.9961s-53.167 39 -69.5 67s-24.5 58.667 -24.5 92c0 30 6.5 59.667 19.5 89s31.167 56 54.5 80s50.666 44 81.999 60s65 26 101 30c-25.333 21.333 -44 45.666 -56 72.999s-18 54.666 -18 81.999
c0 35.333 8.83301 69 26.5 101s42.334 57.833 74.001 77.5s67.834 29.5 108.501 29.5c38.667 0 68.167 -9.5 88.5 -28.5s30.5 -46.167 30.5 -81.5c0 -25.333 -4.5 -49.666 -13.5 -72.999s-19.833 -42.333 -32.5 -57s-24.667 -22 -36 -22c-8 0 -15.667 3.5 -23 10.5
s-13.333 15.167 -18 24.5c24 20 44.167 41.5 60.5 64.5s24.5 47.167 24.5 72.5c0 20.667 -6.16699 36.5 -18.5 47.5s-29.833 16.5 -52.5 16.5c-30.667 0 -56.5 -9.16699 -77.5 -27.5s-36.833 -42.333 -47.5 -72s-16 -61.834 -16 -96.501
c0 -25.333 4.16699 -52.166 12.5 -80.499s25.166 -53.166 50.499 -74.499c-45.333 -7.33301 -85 -24.166 -119 -50.499s-60.333 -57.166 -79 -92.499s-28 -70.333 -28 -105c0 -21.333 4.16699 -43 12.5 -65s22 -40.5 41 -55.5s44.167 -22.5 75.5 -22.5
c36 0 71.5 10 106.5 30s67.167 46.5 96.5 79.5s53 68.167 71 105.5l18 -12c-24 -45.333 -52 -86.166 -84 -122.499s-67.667 -65.166 -107 -86.499s-81.666 -32 -126.999 -32zM506.999 752.996c-10 0 -18.999 2.5 -26.999 7.5s-12 12.833 -12 23.5
c0 13.333 7.5 24.666 22.5 33.999s29.833 14 44.5 14c9.33301 0 17 -2.16699 23 -6.5s9 -12.166 9 -23.499s-6.33301 -22.333 -19 -33s-26.334 -16 -41.001 -16zM363 773.996c-10 0 -19.001 2.33301 -27.001 7s-12 12.667 -12 24c0 12.667 7.33301 23.667 22 33
s29.334 14 44.001 14c10 0 17.833 -2 23.5 -6s8.5 -11.667 8.5 -23s-6.16699 -22.333 -18.5 -33s-25.833 -16 -40.5 -16z" />
    <glyph glyph-name="Igrave" unicode="&#xcc;" horiz-adv-x="474" 
d="M-31 -88c2.66699 26 11.665 44.834 26.998 56.501s35.166 19.334 59.499 23.001s50.833 5.5 79.5 5.5c12 25.333 23.833 56.5 35.5 93.5s22.834 76.833 33.501 119.5l31.5 130l29 127c9 40.667 17.667 77.5 26 110.5s15.833 59.5 22.5 79.5
c-34 -0.666992 -63.5 -1.83398 -88.5 -3.50098s-48.5 -3.83398 -70.5 -6.50098s-45.333 -6.33398 -70 -11.001c6 28 25.333 48.667 58 62s83.334 20 152.001 20c34 0 68.833 -1.33301 104.5 -4s68.334 -5.5 98.001 -8.5s52.834 -5.83301 69.501 -8.5
c-18.667 -18 -37.167 -29 -55.5 -33s-34.5 -6 -48.5 -6h-58c-18 0 -34.667 -0.333008 -50 -1l-13.5 -71l-19 -103l-22 -117l-22.5 -113c-7.33301 -35.333 -14 -65.333 -20 -90c-10 -40 -21.5 -74.667 -34.5 -104s-28.167 -50.666 -45.5 -63.999
c34.667 -2 71.167 -5.33301 109.5 -10s75.166 -7.33398 110.499 -8.00098c-22 -21.333 -44 -34.666 -66 -39.999s-40.333 -8 -55 -8c-32.667 0 -62.5 -0.166992 -89.5 -0.5s-52.5 -0.833008 -76.5 -1.5s-47.5 -2.16699 -70.5 -4.5s-46.5 -5.83301 -70.5 -10.5z
M354.998 748.001c-15.333 19.333 -31.833 38.001 -49.5 56.001s-39.167 37.333 -64.5 58c1.33301 12.667 4.33301 21.5 9 26.5s10 7.5 16 7.5c10 0 21.167 -4.83301 33.5 -14.5s24 -21.5 35 -35.5s20 -27.5 27 -40.5s10.5 -22.5 10.5 -28.5
c0 -3.33301 -1.33301 -8.33301 -4 -15s-7 -11.334 -13 -14.001z" />
    <glyph glyph-name="Iacute" unicode="&#xcd;" horiz-adv-x="474" 
d="M-31 -88c2.66699 26 11.665 44.834 26.998 56.501s35.166 19.334 59.499 23.001s50.833 5.5 79.5 5.5c12 25.333 23.833 56.5 35.5 93.5s22.834 76.833 33.501 119.5l31.5 130l29 127c9 40.667 17.667 77.5 26 110.5s15.833 59.5 22.5 79.5
c-34 -0.666992 -63.5 -1.83398 -88.5 -3.50098s-48.5 -3.83398 -70.5 -6.50098s-45.333 -6.33398 -70 -11.001c6 28 25.333 48.667 58 62s83.334 20 152.001 20c34 0 68.833 -1.33301 104.5 -4s68.334 -5.5 98.001 -8.5s52.834 -5.83301 69.501 -8.5
c-18.667 -18 -37.167 -29 -55.5 -33s-34.5 -6 -48.5 -6h-58c-18 0 -34.667 -0.333008 -50 -1l-13.5 -71l-19 -103l-22 -117l-22.5 -113c-7.33301 -35.333 -14 -65.333 -20 -90c-10 -40 -21.5 -74.667 -34.5 -104s-28.167 -50.666 -45.5 -63.999
c34.667 -2 71.167 -5.33301 109.5 -10s75.166 -7.33398 110.499 -8.00098c-22 -21.333 -44 -34.666 -66 -39.999s-40.333 -8 -55 -8c-32.667 0 -62.5 -0.166992 -89.5 -0.5s-52.5 -0.833008 -76.5 -1.5s-47.5 -2.16699 -70.5 -4.5s-46.5 -5.83301 -70.5 -10.5z
M357.998 748.001c-6 2.66699 -10.3359 7.33203 -13.0029 13.999s-4 11.334 -4 14.001c0 6 3.5 15.333 10.5 28s15.833 26.167 26.5 40.5s21.834 26.333 33.501 36s22.834 14.5 33.501 14.5c6 0 11.333 -2.16699 16 -6.5s7.33398 -12.833 8.00098 -25.5
c-23.333 -21.333 -44 -41 -62 -59s-34.333 -36.667 -49 -56z" />
    <glyph glyph-name="Icircumflex" unicode="&#xce;" horiz-adv-x="474" 
d="M-31 -88c2.66699 26 11.665 44.834 26.998 56.501s35.166 19.334 59.499 23.001s50.833 5.5 79.5 5.5c12 25.333 23.833 56.5 35.5 93.5s22.834 76.833 33.501 119.5l31.5 130l29 127c9 40.667 17.667 77.5 26 110.5s15.833 59.5 22.5 79.5
c-34 -0.666992 -63.5 -1.83398 -88.5 -3.50098s-48.5 -3.83398 -70.5 -6.50098s-45.333 -6.33398 -70 -11.001c6 28 25.333 48.667 58 62s83.334 20 152.001 20c34 0 68.833 -1.33301 104.5 -4s68.334 -5.5 98.001 -8.5s52.834 -5.83301 69.501 -8.5
c-18.667 -18 -37.167 -29 -55.5 -33s-34.5 -6 -48.5 -6h-58c-18 0 -34.667 -0.333008 -50 -1l-13.5 -71l-19 -103l-22 -117l-22.5 -113c-7.33301 -35.333 -14 -65.333 -20 -90c-10 -40 -21.5 -74.667 -34.5 -104s-28.167 -50.666 -45.5 -63.999
c34.667 -2 71.167 -5.33301 109.5 -10s75.166 -7.33398 110.499 -8.00098c-22 -21.333 -44 -34.666 -66 -39.999s-40.333 -8 -55 -8c-32.667 0 -62.5 -0.166992 -89.5 -0.5s-52.5 -0.833008 -76.5 -1.5s-47.5 -2.16699 -70.5 -4.5s-46.5 -5.83301 -70.5 -10.5z
M449.998 744.001c-10 18.667 -21.0029 34.6689 -33.0029 48.002s-25.667 27 -41 41c-19.333 -6.66699 -37.166 -14.334 -53.499 -23.001s-32.5 -19.334 -48.5 -32.001c-4.66699 2.66699 -7.66699 6.16699 -9 10.5s-2 8.16602 -2 11.499c0 10 4.5 20 13.5 30s20 19.333 33 28
s25.833 15.667 38.5 21s22.334 8 29.001 8c8 0 17.333 -3.66699 28 -11s20.834 -16.666 30.501 -27.999s17.667 -23.333 24 -36s9.5 -24 9.5 -34c0 -6.66699 -1.5 -13 -4.5 -19s-7.83301 -11 -14.5 -15z" />
    <glyph glyph-name="Idieresis" unicode="&#xcf;" horiz-adv-x="474" 
d="M-31 -88c2.66699 26 11.665 44.834 26.998 56.501s35.166 19.334 59.499 23.001s50.833 5.5 79.5 5.5c12 25.333 23.833 56.5 35.5 93.5s22.834 76.833 33.501 119.5l31.5 130l29 127c9 40.667 17.667 77.5 26 110.5s15.833 59.5 22.5 79.5
c-34 -0.666992 -63.5 -1.83398 -88.5 -3.50098s-48.5 -3.83398 -70.5 -6.50098s-45.333 -6.33398 -70 -11.001c6 28 25.333 48.667 58 62s83.334 20 152.001 20c34 0 68.833 -1.33301 104.5 -4s68.334 -5.5 98.001 -8.5s52.834 -5.83301 69.501 -8.5
c-18.667 -18 -37.167 -29 -55.5 -33s-34.5 -6 -48.5 -6h-58c-18 0 -34.667 -0.333008 -50 -1l-13.5 -71l-19 -103l-22 -117l-22.5 -113c-7.33301 -35.333 -14 -65.333 -20 -90c-10 -40 -21.5 -74.667 -34.5 -104s-28.167 -50.666 -45.5 -63.999
c34.667 -2 71.167 -5.33301 109.5 -10s75.166 -7.33398 110.499 -8.00098c-22 -21.333 -44 -34.666 -66 -39.999s-40.333 -8 -55 -8c-32.667 0 -62.5 -0.166992 -89.5 -0.5s-52.5 -0.833008 -76.5 -1.5s-47.5 -2.16699 -70.5 -4.5s-46.5 -5.83301 -70.5 -10.5z
M431.998 753.001c-10 0 -18.999 2.5 -26.999 7.5s-12 12.833 -12 23.5c0 13.333 7.5 24.666 22.5 33.999s29.833 14 44.5 14c9.33301 0 17 -2.16699 23 -6.5s9 -12.166 9 -23.499s-6.33301 -22.333 -19 -33s-26.334 -16 -41.001 -16zM287.999 774.001
c-10 0 -19.001 2.33301 -27.001 7s-12 12.667 -12 24c0 12.667 7.33301 23.667 22 33s29.334 14 44.001 14c10 0 17.833 -2 23.5 -6s8.5 -11.667 8.5 -23s-6.16699 -22.333 -18.5 -33s-25.833 -16 -40.5 -16z" />
    <glyph glyph-name="Eth" unicode="&#xd0;" horiz-adv-x="665" 
d="M173 -87c-21.333 0 -41.8311 2.99902 -61.498 8.99902s-36.5 18.667 -50.5 38c9.33301 46 22 97.667 38 155s32.333 113 49 167c-18.667 0 -37.167 -1 -55.5 -3s-38.833 -4.66699 -61.5 -8c7.33301 18 22.666 30.667 45.999 38s51.333 12 84 14l43 131.5
c13.333 39 23.333 66.833 30 83.5c2 5.33301 5.33301 13.166 10 23.499s10.334 21 17.001 32s14.5 20.333 23.5 28s18.833 11.5 29.5 11.5c10 0 20.333 -4 31 -12c-18.667 -42.667 -37.334 -89.334 -56.001 -140.001s-36.667 -102.667 -54 -156
c34.667 0 67.667 -1.16699 99 -3.5s55 -4.16602 71 -5.49902c-19.333 -13.333 -39 -22.166 -59 -26.499s-37.333 -6.5 -52 -6.5h-72c-19.333 -60 -36.833 -119 -52.5 -177s-28.834 -111 -39.501 -159c8.66699 -0.666992 16.167 -1.33398 22.5 -2.00098s12.833 -1 19.5 -1
c42.667 0 83.834 9.66699 123.501 29s76.667 45.833 111 79.5s64.5 72.334 90.5 116.001s46.167 89.834 60.5 138.501s21.5 97.334 21.5 146.001c0 81.333 -19.333 140.833 -58 178.5s-88.667 56.5 -150 56.5c-43.333 0 -82.333 -8.33301 -117 -25
s-61.834 -39.334 -81.501 -68.001s-29.5 -61 -29.5 -97c0 -7.33301 0.5 -14.5 1.5 -21.5s2.5 -13.167 4.5 -18.5c-24 0 -41.167 5.66699 -51.5 17s-15.5 25 -15.5 41c0 23.333 8.33301 47 25 71s39.667 46 69 66s63.333 36.167 102 48.5s80 18.5 124 18.5
c62 0 111.667 -12.5 149 -37.5s64.5 -58.333 81.5 -100s25.5 -88.5 25.5 -140.5c0 -57.333 -9 -112.333 -27 -165s-43 -101.167 -75 -145.5s-68.5 -82.833 -109.5 -115.5s-85 -58 -132 -76s-94.167 -27 -141.5 -27z" />
    <glyph glyph-name="Ntilde" unicode="&#xd1;" horiz-adv-x="651" 
d="M49 -87c8.66699 32.667 19.166 68.6699 31.499 108.003l44 140l59 193l77.5 264c1.33301 2.66699 2.83301 8.16699 4.5 16.5s2.5 16.166 2.5 23.499c0 6.66699 -1 11.667 -3 15s-5.66699 5 -11 5c-15.333 0 -30 -6 -44 -18s-26.167 -27 -36.5 -45
s-18.333 -36.833 -24 -56.5s-8.5 -37.167 -8.5 -52.5c0 -14.667 2 -27.667 6 -39c-24 0 -41 5.66699 -51 17s-15 25.333 -15 42c0 22.667 6.66699 45.5 20 68.5s30.5 44 51.5 63s43.167 34.167 66.5 45.5s44.666 17 63.999 17c21.333 0 38.833 -8.5 52.5 -25.5
s24.667 -40.333 33 -70s15.5 -63.167 21.5 -100.5s11.333 -76 16 -116l14.5 -109l12 -88l10 -70c3 -20.667 5.83301 -39 8.5 -55c6 31.333 13.333 66.166 22 104.499s18.167 78 28.5 119l31.5 120l30.5 108c9.66699 33 18.5 61.167 26.5 84.5s14.333 39.333 19 48
c4 9.33301 12.167 20 24.5 32s27.166 18 44.499 18c-11.333 -30 -24.166 -67.167 -38.499 -111.5s-28.833 -92.333 -43.5 -144l-43 -158c-14 -53.667 -26.5 -105.667 -37.5 -156s-19.667 -96 -26 -137s-9.5 -74.5 -9.5 -100.5c-22 0 -40 6 -54 18s-24 33.667 -30 65
c-3.33301 15.333 -7.5 37.5 -12.5 66.5l-16.5 99l-19 116l-19 118l-16 105c-4.66699 31.667 -8.66699 57.5 -12 77.5l-80.5 -287.5c-22.333 -78.333 -41.333 -142.333 -57 -192s-29.667 -87.834 -42 -114.501s-24.166 -45.167 -35.499 -55.5s-23.666 -15.5 -36.999 -15.5z
M570.999 759.003c-18 0 -36.833 3.83203 -56.5 11.499l-59 23.5c-19.667 8 -39.167 12 -58.5 12c-10 0 -19.833 -1.16699 -29.5 -3.5s-19.167 -6.16602 -28.5 -11.499c11.333 19.333 24.5 33 39.5 41s31.167 12 48.5 12c18.667 0 38 -4 58 -12l61.5 -24
c21 -8 42.5 -12 64.5 -12c14 0 28.333 3 43 9c-12 -16 -24.667 -27.667 -38 -35s-28.333 -11 -45 -11z" />
    <glyph glyph-name="Ograve" unicode="&#xd2;" horiz-adv-x="634" 
d="M223 -87c-38.667 0 -72.8311 10.1621 -102.498 30.4951s-53 49.166 -70 86.499s-25.5 81.333 -25.5 132c0 51.333 8 103.333 24 156s38 102.834 66 150.501s60 90.334 96 128.001s74.167 67.5 114.5 89.5s80.833 33 121.5 33c10.667 0 21.5 -1.16699 32.5 -3.5
s20.833 -6.83301 29.5 -13.5h-10.5h-6.5c-34.667 0 -69.667 -11.167 -105 -33.5s-69 -52.666 -101 -90.999s-60.667 -81.333 -86 -129s-45.333 -97.167 -60 -148.5s-22 -101 -22 -149c0 -35.333 4.5 -68.166 13.5 -98.499s23.667 -54.666 44 -72.999s46.5 -27.5 78.5 -27.5
c37.333 0 72.166 11.333 104.499 34s61.666 53.167 87.999 91.5s49 81.333 68 129s33.5 96.667 43.5 147s15 98.833 15 145.5c0 18.667 -1.33301 38.834 -4 60.501s-7.16699 40.334 -13.5 56.001s-15.5 23.5 -27.5 23.5c-11.333 0 -24 -7.5 -38 -22.5
s-27.333 -33.667 -40 -56s-24 -45.666 -34 -69.999s-17 -45.833 -21 -64.5c-18.667 4 -32.167 10.667 -40.5 20s-12.5 20 -12.5 32c0 18 6.16699 37.833 18.5 59.5s28.333 42.667 48 63s40 37 61 50s40.5 19.5 58.5 19.5s32.667 -6.5 44 -19.5s20.333 -29.833 27 -50.5
s11.167 -42.834 13.5 -66.501s3.5 -45.5 3.5 -65.5c0 -71.333 -8.16699 -136.166 -24.5 -194.499s-38.5 -109.833 -66.5 -154.5s-59.167 -82.334 -93.5 -113.001s-69.5 -53.834 -105.5 -69.501s-70.333 -23.5 -103 -23.5zM523.003 747.995
c-15.333 19.333 -31.833 38.001 -49.5 56.001s-39.167 37.333 -64.5 58c1.33301 12.667 4.33301 21.5 9 26.5s10 7.5 16 7.5c10 0 21.167 -4.83301 33.5 -14.5s24 -21.5 35 -35.5s20 -27.5 27 -40.5s10.5 -22.5 10.5 -28.5c0 -3.33301 -1.33301 -8.33301 -4 -15
s-7 -11.334 -13 -14.001z" />
    <glyph glyph-name="Oacute" unicode="&#xd3;" horiz-adv-x="634" 
d="M223 -87c-38.667 0 -72.8311 10.1621 -102.498 30.4951s-53 49.166 -70 86.499s-25.5 81.333 -25.5 132c0 51.333 8 103.333 24 156s38 102.834 66 150.501s60 90.334 96 128.001s74.167 67.5 114.5 89.5s80.833 33 121.5 33c10.667 0 21.5 -1.16699 32.5 -3.5
s20.833 -6.83301 29.5 -13.5h-10.5h-6.5c-34.667 0 -69.667 -11.167 -105 -33.5s-69 -52.666 -101 -90.999s-60.667 -81.333 -86 -129s-45.333 -97.167 -60 -148.5s-22 -101 -22 -149c0 -35.333 4.5 -68.166 13.5 -98.499s23.667 -54.666 44 -72.999s46.5 -27.5 78.5 -27.5
c37.333 0 72.166 11.333 104.499 34s61.666 53.167 87.999 91.5s49 81.333 68 129s33.5 96.667 43.5 147s15 98.833 15 145.5c0 18.667 -1.33301 38.834 -4 60.501s-7.16699 40.334 -13.5 56.001s-15.5 23.5 -27.5 23.5c-11.333 0 -24 -7.5 -38 -22.5
s-27.333 -33.667 -40 -56s-24 -45.666 -34 -69.999s-17 -45.833 -21 -64.5c-18.667 4 -32.167 10.667 -40.5 20s-12.5 20 -12.5 32c0 18 6.16699 37.833 18.5 59.5s28.333 42.667 48 63s40 37 61 50s40.5 19.5 58.5 19.5s32.667 -6.5 44 -19.5s20.333 -29.833 27 -50.5
s11.167 -42.834 13.5 -66.501s3.5 -45.5 3.5 -65.5c0 -71.333 -8.16699 -136.166 -24.5 -194.499s-38.5 -109.833 -66.5 -154.5s-59.167 -82.334 -93.5 -113.001s-69.5 -53.834 -105.5 -69.501s-70.333 -23.5 -103 -23.5zM526.003 747.995
c-6 2.66699 -10.3359 7.33203 -13.0029 13.999s-4 11.334 -4 14.001c0 6 3.5 15.333 10.5 28s15.833 26.167 26.5 40.5s21.834 26.333 33.501 36s22.834 14.5 33.501 14.5c6 0 11.333 -2.16699 16 -6.5s7.33398 -12.833 8.00098 -25.5c-23.333 -21.333 -44 -41 -62 -59
s-34.333 -36.667 -49 -56z" />
    <glyph glyph-name="Ocircumflex" unicode="&#xd4;" horiz-adv-x="634" 
d="M223 -87c-38.667 0 -72.8311 10.1621 -102.498 30.4951s-53 49.166 -70 86.499s-25.5 81.333 -25.5 132c0 51.333 8 103.333 24 156s38 102.834 66 150.501s60 90.334 96 128.001s74.167 67.5 114.5 89.5s80.833 33 121.5 33c10.667 0 21.5 -1.16699 32.5 -3.5
s20.833 -6.83301 29.5 -13.5h-10.5h-6.5c-34.667 0 -69.667 -11.167 -105 -33.5s-69 -52.666 -101 -90.999s-60.667 -81.333 -86 -129s-45.333 -97.167 -60 -148.5s-22 -101 -22 -149c0 -35.333 4.5 -68.166 13.5 -98.499s23.667 -54.666 44 -72.999s46.5 -27.5 78.5 -27.5
c37.333 0 72.166 11.333 104.499 34s61.666 53.167 87.999 91.5s49 81.333 68 129s33.5 96.667 43.5 147s15 98.833 15 145.5c0 18.667 -1.33301 38.834 -4 60.501s-7.16699 40.334 -13.5 56.001s-15.5 23.5 -27.5 23.5c-11.333 0 -24 -7.5 -38 -22.5
s-27.333 -33.667 -40 -56s-24 -45.666 -34 -69.999s-17 -45.833 -21 -64.5c-18.667 4 -32.167 10.667 -40.5 20s-12.5 20 -12.5 32c0 18 6.16699 37.833 18.5 59.5s28.333 42.667 48 63s40 37 61 50s40.5 19.5 58.5 19.5s32.667 -6.5 44 -19.5s20.333 -29.833 27 -50.5
s11.167 -42.834 13.5 -66.501s3.5 -45.5 3.5 -65.5c0 -71.333 -8.16699 -136.166 -24.5 -194.499s-38.5 -109.833 -66.5 -154.5s-59.167 -82.334 -93.5 -113.001s-69.5 -53.834 -105.5 -69.501s-70.333 -23.5 -103 -23.5zM618.003 743.995
c-10 18.667 -21.0029 34.6689 -33.0029 48.002s-25.667 27 -41 41c-19.333 -6.66699 -37.166 -14.334 -53.499 -23.001s-32.5 -19.334 -48.5 -32.001c-4.66699 2.66699 -7.66699 6.16699 -9 10.5s-2 8.16602 -2 11.499c0 10 4.5 20 13.5 30s20 19.333 33 28
s25.833 15.667 38.5 21s22.334 8 29.001 8c8 0 17.333 -3.66699 28 -11s20.834 -16.666 30.501 -27.999s17.667 -23.333 24 -36s9.5 -24 9.5 -34c0 -6.66699 -1.5 -13 -4.5 -19s-7.83301 -11 -14.5 -15z" />
    <glyph glyph-name="Otilde" unicode="&#xd5;" horiz-adv-x="634" 
d="M223 -87c-38.667 0 -72.8311 10.1621 -102.498 30.4951s-53 49.166 -70 86.499s-25.5 81.333 -25.5 132c0 51.333 8 103.333 24 156s38 102.834 66 150.501s60 90.334 96 128.001s74.167 67.5 114.5 89.5s80.833 33 121.5 33c10.667 0 21.5 -1.16699 32.5 -3.5
s20.833 -6.83301 29.5 -13.5h-10.5h-6.5c-34.667 0 -69.667 -11.167 -105 -33.5s-69 -52.666 -101 -90.999s-60.667 -81.333 -86 -129s-45.333 -97.167 -60 -148.5s-22 -101 -22 -149c0 -35.333 4.5 -68.166 13.5 -98.499s23.667 -54.666 44 -72.999s46.5 -27.5 78.5 -27.5
c37.333 0 72.166 11.333 104.499 34s61.666 53.167 87.999 91.5s49 81.333 68 129s33.5 96.667 43.5 147s15 98.833 15 145.5c0 18.667 -1.33301 38.834 -4 60.501s-7.16699 40.334 -13.5 56.001s-15.5 23.5 -27.5 23.5c-11.333 0 -24 -7.5 -38 -22.5
s-27.333 -33.667 -40 -56s-24 -45.666 -34 -69.999s-17 -45.833 -21 -64.5c-18.667 4 -32.167 10.667 -40.5 20s-12.5 20 -12.5 32c0 18 6.16699 37.833 18.5 59.5s28.333 42.667 48 63s40 37 61 50s40.5 19.5 58.5 19.5s32.667 -6.5 44 -19.5s20.333 -29.833 27 -50.5
s11.167 -42.834 13.5 -66.501s3.5 -45.5 3.5 -65.5c0 -71.333 -8.16699 -136.166 -24.5 -194.499s-38.5 -109.833 -66.5 -154.5s-59.167 -82.334 -93.5 -113.001s-69.5 -53.834 -105.5 -69.501s-70.333 -23.5 -103 -23.5zM608.003 758.995
c-18 0 -36.833 3.83203 -56.5 11.499l-59 23.5c-19.667 8 -39.167 12 -58.5 12c-10 0 -19.833 -1.16699 -29.5 -3.5s-19.167 -6.16602 -28.5 -11.499c11.333 19.333 24.5 33 39.5 41s31.167 12 48.5 12c18.667 0 38 -4 58 -12l61.5 -24c21 -8 42.5 -12 64.5 -12
c14 0 28.333 3 43 9c-12 -16 -24.667 -27.667 -38 -35s-28.333 -11 -45 -11z" />
    </font>
</defs>
</svg>
